%TF.GenerationSoftware,KiCad,Pcbnew,(6.0.8)*%
%TF.CreationDate,2023-02-20T11:38:59+01:00*%
%TF.ProjectId,MuMo-v2-Node,4d754d6f-2d76-4322-9d4e-6f64652e6b69,rev?*%
%TF.SameCoordinates,Original*%
%TF.FileFunction,Soldermask,Bot*%
%TF.FilePolarity,Negative*%
%FSLAX46Y46*%
G04 Gerber Fmt 4.6, Leading zero omitted, Abs format (unit mm)*
G04 Created by KiCad (PCBNEW (6.0.8)) date 2023-02-20 11:38:59*
%MOMM*%
%LPD*%
G01*
G04 APERTURE LIST*
G04 Aperture macros list*
%AMRoundRect*
0 Rectangle with rounded corners*
0 $1 Rounding radius*
0 $2 $3 $4 $5 $6 $7 $8 $9 X,Y pos of 4 corners*
0 Add a 4 corners polygon primitive as box body*
4,1,4,$2,$3,$4,$5,$6,$7,$8,$9,$2,$3,0*
0 Add four circle primitives for the rounded corners*
1,1,$1+$1,$2,$3*
1,1,$1+$1,$4,$5*
1,1,$1+$1,$6,$7*
1,1,$1+$1,$8,$9*
0 Add four rect primitives between the rounded corners*
20,1,$1+$1,$2,$3,$4,$5,0*
20,1,$1+$1,$4,$5,$6,$7,0*
20,1,$1+$1,$6,$7,$8,$9,0*
20,1,$1+$1,$8,$9,$2,$3,0*%
G04 Aperture macros list end*
%ADD10R,1.700000X1.700000*%
%ADD11O,1.700000X1.700000*%
%ADD12R,1.500000X1.500000*%
%ADD13R,4.900000X1.600000*%
%ADD14R,1.308000X1.308000*%
%ADD15C,1.308000*%
%ADD16RoundRect,0.250000X0.750000X-0.600000X0.750000X0.600000X-0.750000X0.600000X-0.750000X-0.600000X0*%
%ADD17O,2.000000X1.700000*%
%ADD18O,2.200000X1.100000*%
%ADD19O,2.600000X1.400000*%
%ADD20C,4.400000*%
%ADD21RoundRect,0.125000X-0.137500X0.125000X-0.137500X-0.125000X0.137500X-0.125000X0.137500X0.125000X0*%
%ADD22R,1.200000X0.350000*%
G04 APERTURE END LIST*
D10*
%TO.C,CONN1*%
X163280800Y-67008000D03*
D11*
X163280800Y-69548000D03*
X163280800Y-72088000D03*
X163280800Y-74628000D03*
X163280800Y-77168000D03*
%TD*%
D12*
%TO.C,TP2*%
X144530800Y-95308000D03*
%TD*%
D13*
%TO.C,CONN5*%
X192280800Y-86868000D03*
X192280800Y-78348000D03*
%TD*%
D14*
%TO.C,CONN6*%
X174030800Y-60308000D03*
D15*
X176030800Y-60308000D03*
X178030800Y-60308000D03*
X180030800Y-60308000D03*
%TD*%
D16*
%TO.C,CONN2*%
X153030800Y-104308000D03*
D17*
X153030800Y-101808000D03*
%TD*%
D18*
%TO.C,CONN4*%
X148960000Y-87124000D03*
D19*
X144960000Y-87124000D03*
D18*
X148960000Y-78484000D03*
D19*
X144960000Y-78484000D03*
%TD*%
D12*
%TO.C,TP1*%
X144530800Y-98058000D03*
%TD*%
D14*
%TO.C,CONN8*%
X152530800Y-60308000D03*
D15*
X154530800Y-60308000D03*
X156530800Y-60308000D03*
X158530800Y-60308000D03*
%TD*%
D20*
%TO.C,H2*%
X192030800Y-104808000D03*
%TD*%
%TO.C,H3*%
X146030800Y-60558000D03*
%TD*%
%TO.C,H1*%
X192030800Y-60558000D03*
%TD*%
D12*
%TO.C,TP3*%
X144530800Y-89308000D03*
%TD*%
D20*
%TO.C,H4*%
X146030800Y-104808000D03*
%TD*%
D14*
%TO.C,CONN7*%
X163280800Y-60308000D03*
D15*
X165280800Y-60308000D03*
X167280800Y-60308000D03*
X169280800Y-60308000D03*
%TD*%
D21*
%TO.C,U5*%
X190843300Y-92858000D03*
X190843300Y-93658000D03*
X190843300Y-94458000D03*
X190843300Y-95258000D03*
X193218300Y-95258000D03*
X193218300Y-94458000D03*
X193218300Y-93658000D03*
X193218300Y-92858000D03*
%TD*%
D22*
%TO.C,U6*%
X192780800Y-97408000D03*
X192780800Y-98058000D03*
X192780800Y-98708000D03*
X191280800Y-98708000D03*
X191280800Y-98058000D03*
X191280800Y-97408000D03*
%TD*%
M02*
