%TF.GenerationSoftware,KiCad,Pcbnew,(6.0.8)*%
%TF.CreationDate,2023-02-20T11:38:59+01:00*%
%TF.ProjectId,MuMo-v2-Node,4d754d6f-2d76-4322-9d4e-6f64652e6b69,rev?*%
%TF.SameCoordinates,Original*%
%TF.FileFunction,Paste,Top*%
%TF.FilePolarity,Positive*%
%FSLAX46Y46*%
G04 Gerber Fmt 4.6, Leading zero omitted, Abs format (unit mm)*
G04 Created by KiCad (PCBNEW (6.0.8)) date 2023-02-20 11:38:59*
%MOMM*%
%LPD*%
G01*
G04 APERTURE LIST*
G04 Aperture macros list*
%AMRoundRect*
0 Rectangle with rounded corners*
0 $1 Rounding radius*
0 $2 $3 $4 $5 $6 $7 $8 $9 X,Y pos of 4 corners*
0 Add a 4 corners polygon primitive as box body*
4,1,4,$2,$3,$4,$5,$6,$7,$8,$9,$2,$3,0*
0 Add four circle primitives for the rounded corners*
1,1,$1+$1,$2,$3*
1,1,$1+$1,$4,$5*
1,1,$1+$1,$6,$7*
1,1,$1+$1,$8,$9*
0 Add four rect primitives between the rounded corners*
20,1,$1+$1,$2,$3,$4,$5,0*
20,1,$1+$1,$4,$5,$6,$7,0*
20,1,$1+$1,$6,$7,$8,$9,0*
20,1,$1+$1,$8,$9,$2,$3,0*%
G04 Aperture macros list end*
%ADD10C,0.010000*%
%ADD11RoundRect,0.225000X0.225000X0.250000X-0.225000X0.250000X-0.225000X-0.250000X0.225000X-0.250000X0*%
%ADD12RoundRect,0.225000X-0.250000X0.225000X-0.250000X-0.225000X0.250000X-0.225000X0.250000X0.225000X0*%
%ADD13RoundRect,0.225000X0.250000X-0.225000X0.250000X0.225000X-0.250000X0.225000X-0.250000X-0.225000X0*%
%ADD14R,2.300000X1.000000*%
%ADD15R,1.000000X2.300000*%
%ADD16R,1.400000X1.300000*%
%ADD17RoundRect,0.087500X0.512500X0.087500X-0.512500X0.087500X-0.512500X-0.087500X0.512500X-0.087500X0*%
%ADD18R,0.700000X0.450000*%
%ADD19R,5.100000X1.900000*%
%ADD20R,0.650000X0.300000*%
%ADD21RoundRect,0.099000X-0.551000X0.396000X-0.551000X-0.396000X0.551000X-0.396000X0.551000X0.396000X0*%
%ADD22RoundRect,0.059000X-0.591000X0.236000X-0.591000X-0.236000X0.591000X-0.236000X0.591000X0.236000X0*%
%ADD23RoundRect,0.225000X-0.225000X-0.250000X0.225000X-0.250000X0.225000X0.250000X-0.225000X0.250000X0*%
%ADD24R,1.150000X0.600000*%
%ADD25R,1.150000X0.300000*%
%ADD26R,0.700000X1.000000*%
%ADD27R,2.300000X3.100000*%
%ADD28R,0.300000X1.100000*%
%ADD29RoundRect,0.075000X-0.350000X-0.075000X0.350000X-0.075000X0.350000X0.075000X-0.350000X0.075000X0*%
%ADD30RoundRect,0.637500X-0.637500X-0.637500X0.637500X-0.637500X0.637500X0.637500X-0.637500X0.637500X0*%
%ADD31RoundRect,0.075000X-0.075000X-0.350000X0.075000X-0.350000X0.075000X0.350000X-0.075000X0.350000X0*%
G04 APERTURE END LIST*
%TO.C,U1*%
G36*
X154906600Y-96559540D02*
G01*
X153905638Y-96559540D01*
X153905638Y-94958000D01*
X154906600Y-94958000D01*
X154906600Y-96559540D01*
G37*
D10*
X154906600Y-96559540D02*
X153905638Y-96559540D01*
X153905638Y-94958000D01*
X154906600Y-94958000D01*
X154906600Y-96559540D01*
%TD*%
D11*
%TO.C,C2*%
X169555800Y-70308000D03*
X168005800Y-70308000D03*
%TD*%
D12*
%TO.C,C3*%
X168530800Y-75033000D03*
X168530800Y-76583000D03*
%TD*%
D13*
%TO.C,C8*%
X183030800Y-66333000D03*
X183030800Y-64783000D03*
%TD*%
%TO.C,C1*%
X187248800Y-93586600D03*
X187248800Y-92036600D03*
%TD*%
D14*
%TO.C,U2*%
X170834800Y-75117000D03*
X170834800Y-76367000D03*
X170834800Y-77617000D03*
X170834800Y-78867000D03*
X170834800Y-80117000D03*
X170834800Y-81367000D03*
X170834800Y-82617000D03*
D15*
X173084800Y-84867000D03*
X174334800Y-84867000D03*
X175584800Y-84867000D03*
X176834800Y-84867000D03*
X178084800Y-84867000D03*
X179334800Y-84867000D03*
X180584800Y-84867000D03*
D14*
X182834800Y-82617000D03*
X182834800Y-81367000D03*
X182834800Y-80117000D03*
X182834800Y-78867000D03*
X182834800Y-77617000D03*
X182834800Y-76367000D03*
X182834800Y-75117000D03*
D15*
X180584800Y-72867000D03*
X179334800Y-72867000D03*
X178084800Y-72867000D03*
X176834800Y-72867000D03*
X175584800Y-72867000D03*
X174334800Y-72867000D03*
X173084800Y-72867000D03*
%TD*%
D12*
%TO.C,C18*%
X167530800Y-92733000D03*
X167530800Y-94283000D03*
%TD*%
%TO.C,R9*%
X181030800Y-68533000D03*
X181030800Y-70083000D03*
%TD*%
D16*
%TO.C,D3*%
X169055800Y-90758000D03*
X169055800Y-87858000D03*
%TD*%
D11*
%TO.C,R7*%
X152755800Y-84258000D03*
X151205800Y-84258000D03*
%TD*%
D12*
%TO.C,C17*%
X164030800Y-94033000D03*
X164030800Y-95583000D03*
%TD*%
D17*
%TO.C,U7*%
X179180800Y-66533000D03*
X179180800Y-65883000D03*
X179180800Y-65233000D03*
X179180800Y-64583000D03*
X173380800Y-64583000D03*
X173380800Y-65233000D03*
X173380800Y-65883000D03*
X173380800Y-66533000D03*
%TD*%
D18*
%TO.C,Q1*%
X181030800Y-91708000D03*
X181030800Y-90408000D03*
X179030800Y-91058000D03*
%TD*%
D13*
%TO.C,C23*%
X160530800Y-99333000D03*
X160530800Y-97783000D03*
%TD*%
D12*
%TO.C,C30*%
X156030800Y-84733000D03*
X156030800Y-86283000D03*
%TD*%
%TO.C,C6*%
X157630800Y-87833000D03*
X157630800Y-89383000D03*
%TD*%
D16*
%TO.C,D1*%
X164030800Y-92108000D03*
X164030800Y-89208000D03*
%TD*%
D19*
%TO.C,L1*%
X174280800Y-92408000D03*
X174280800Y-88208000D03*
%TD*%
D12*
%TO.C,C12*%
X175030800Y-94533000D03*
X175030800Y-96083000D03*
%TD*%
%TO.C,C29*%
X156030800Y-87833000D03*
X156030800Y-89383000D03*
%TD*%
D11*
%TO.C,C27*%
X169555800Y-68558000D03*
X168005800Y-68558000D03*
%TD*%
D16*
%TO.C,D2*%
X166530800Y-87858000D03*
X166530800Y-90758000D03*
%TD*%
D11*
%TO.C,C24*%
X169555800Y-65058000D03*
X168005800Y-65058000D03*
%TD*%
D12*
%TO.C,R5*%
X147030800Y-88783000D03*
X147030800Y-90333000D03*
%TD*%
%TO.C,C14*%
X169280800Y-92733000D03*
X169280800Y-94283000D03*
%TD*%
%TO.C,C15*%
X165780800Y-94033000D03*
X165780800Y-95583000D03*
%TD*%
D13*
%TO.C,R6*%
X149030800Y-90333000D03*
X149030800Y-88783000D03*
%TD*%
D11*
%TO.C,R8*%
X152755800Y-81358000D03*
X151205800Y-81358000D03*
%TD*%
%TO.C,R2*%
X155943600Y-92658000D03*
X154393600Y-92658000D03*
%TD*%
D12*
%TO.C,C21*%
X184030800Y-98083000D03*
X184030800Y-99633000D03*
%TD*%
D11*
%TO.C,C42*%
X150805800Y-95058000D03*
X149255800Y-95058000D03*
%TD*%
D20*
%TO.C,U1*%
X152856600Y-94758000D03*
X152856600Y-95258000D03*
X152856600Y-95758000D03*
X152856600Y-96258000D03*
X152856600Y-96758000D03*
X155956600Y-96758000D03*
X155956600Y-96258000D03*
X155956600Y-95758000D03*
X155956600Y-95258000D03*
X155956600Y-94758000D03*
%TD*%
D21*
%TO.C,D4*%
X146505800Y-75048000D03*
D22*
X146505800Y-76768000D03*
X148555800Y-76768000D03*
X148555800Y-74848000D03*
%TD*%
D17*
%TO.C,U8*%
X179180800Y-70283000D03*
X179180800Y-69633000D03*
X179180800Y-68983000D03*
X179180800Y-68333000D03*
X173380800Y-68333000D03*
X173380800Y-68983000D03*
X173380800Y-69633000D03*
X173380800Y-70283000D03*
%TD*%
D23*
%TO.C,R11*%
X166755800Y-79808000D03*
X168305800Y-79808000D03*
%TD*%
D12*
%TO.C,C26*%
X166780800Y-75033000D03*
X166780800Y-76583000D03*
%TD*%
%TO.C,R1*%
X178630800Y-94533000D03*
X178630800Y-96083000D03*
%TD*%
D24*
%TO.C,CONN4*%
X149535000Y-79604000D03*
X149535000Y-80404000D03*
D25*
X149535000Y-81554000D03*
X149535000Y-82554000D03*
X149535000Y-83054000D03*
X149535000Y-84054000D03*
D24*
X149535000Y-86004000D03*
X149535000Y-85204000D03*
D25*
X149535000Y-84554000D03*
X149535000Y-83554000D03*
X149535000Y-82054000D03*
X149535000Y-81054000D03*
%TD*%
D13*
%TO.C,C5*%
X187280800Y-98083000D03*
X187280800Y-96533000D03*
%TD*%
D26*
%TO.C,SW1*%
X184955800Y-58558000D03*
X184955800Y-63058000D03*
X187105800Y-58558000D03*
X187105800Y-63058000D03*
%TD*%
D12*
%TO.C,R4*%
X180330800Y-94533000D03*
X180330800Y-96083000D03*
%TD*%
D23*
%TO.C,C31*%
X167055800Y-85958000D03*
X168605800Y-85958000D03*
%TD*%
%TO.C,C41*%
X179255800Y-88208000D03*
X180805800Y-88208000D03*
%TD*%
D13*
%TO.C,C22*%
X181030800Y-66333000D03*
X181030800Y-64783000D03*
%TD*%
D11*
%TO.C,C4*%
X169555800Y-66808000D03*
X168005800Y-66808000D03*
%TD*%
%TO.C,C13*%
X172605800Y-94658000D03*
X171055800Y-94658000D03*
%TD*%
%TO.C,C32*%
X150805800Y-93308000D03*
X149255800Y-93308000D03*
%TD*%
D12*
%TO.C,C11*%
X176630800Y-94533000D03*
X176630800Y-96083000D03*
%TD*%
D27*
%TO.C,CONN3*%
X178600800Y-99658000D03*
X163760800Y-99658000D03*
D28*
X176930800Y-97958000D03*
X176430800Y-97958000D03*
X175930800Y-97958000D03*
X175430800Y-97958000D03*
X174930800Y-97958000D03*
X174430800Y-97958000D03*
X173930800Y-97958000D03*
X173430800Y-97958000D03*
X172930800Y-97958000D03*
X172430800Y-97958000D03*
X171930800Y-97958000D03*
X171430800Y-97958000D03*
X170930800Y-97958000D03*
X170430800Y-97958000D03*
X169930800Y-97958000D03*
X169430800Y-97958000D03*
X168930800Y-97958000D03*
X168430800Y-97958000D03*
X167930800Y-97958000D03*
X167430800Y-97958000D03*
X166930800Y-97958000D03*
X166430800Y-97958000D03*
X165930800Y-97958000D03*
X165430800Y-97958000D03*
%TD*%
D12*
%TO.C,R3*%
X154430800Y-84733000D03*
X154430800Y-86283000D03*
%TD*%
D13*
%TO.C,C25*%
X184030800Y-102833000D03*
X184030800Y-101283000D03*
%TD*%
D12*
%TO.C,C7*%
X157630800Y-84733000D03*
X157630800Y-86283000D03*
%TD*%
D29*
%TO.C,U3*%
X159080800Y-81554000D03*
D30*
X161030800Y-82804000D03*
D29*
X159080800Y-82054000D03*
X159080800Y-82554000D03*
X159080800Y-83054000D03*
X159080800Y-83554000D03*
X159080800Y-84054000D03*
D31*
X159780800Y-84754000D03*
X160280800Y-84754000D03*
X160780800Y-84754000D03*
X161280800Y-84754000D03*
X161780800Y-84754000D03*
X162280800Y-84754000D03*
D29*
X162980800Y-84054000D03*
X162980800Y-83554000D03*
X162980800Y-83054000D03*
X162980800Y-82554000D03*
X162980800Y-82054000D03*
X162980800Y-81554000D03*
D31*
X162280800Y-80854000D03*
X161780800Y-80854000D03*
X161280800Y-80854000D03*
X160780800Y-80854000D03*
X160280800Y-80854000D03*
X159780800Y-80854000D03*
%TD*%
D12*
%TO.C,C16*%
X162280800Y-94033000D03*
X162280800Y-95583000D03*
%TD*%
D11*
%TO.C,C28*%
X163805800Y-64408000D03*
X162255800Y-64408000D03*
%TD*%
D23*
%TO.C,R10*%
X166755800Y-81558000D03*
X168305800Y-81558000D03*
%TD*%
M02*
