%TF.GenerationSoftware,KiCad,Pcbnew,(6.0.8)*%
%TF.CreationDate,2023-02-20T11:38:59+01:00*%
%TF.ProjectId,MuMo-v2-Node,4d754d6f-2d76-4322-9d4e-6f64652e6b69,rev?*%
%TF.SameCoordinates,Original*%
%TF.FileFunction,Legend,Bot*%
%TF.FilePolarity,Positive*%
%FSLAX46Y46*%
G04 Gerber Fmt 4.6, Leading zero omitted, Abs format (unit mm)*
G04 Created by KiCad (PCBNEW (6.0.8)) date 2023-02-20 11:38:59*
%MOMM*%
%LPD*%
G01*
G04 APERTURE LIST*
%ADD10C,0.150000*%
%ADD11C,0.120000*%
%ADD12C,0.343981*%
%ADD13C,0.127000*%
%ADD14C,0.200000*%
G04 APERTURE END LIST*
D10*
X188137942Y-62760380D02*
X188137942Y-61760380D01*
X187709371Y-62760380D02*
X187709371Y-62236571D01*
X187756990Y-62141333D01*
X187852228Y-62093714D01*
X187995085Y-62093714D01*
X188090323Y-62141333D01*
X188137942Y-62188952D01*
X187376038Y-62093714D02*
X186995085Y-62093714D01*
X187233180Y-61760380D02*
X187233180Y-62617523D01*
X187185561Y-62712761D01*
X187090323Y-62760380D01*
X186995085Y-62760380D01*
X186804609Y-62093714D02*
X186423657Y-62093714D01*
X186661752Y-61760380D02*
X186661752Y-62617523D01*
X186614133Y-62712761D01*
X186518895Y-62760380D01*
X186423657Y-62760380D01*
X186090323Y-62093714D02*
X186090323Y-63093714D01*
X186090323Y-62141333D02*
X185995085Y-62093714D01*
X185804609Y-62093714D01*
X185709371Y-62141333D01*
X185661752Y-62188952D01*
X185614133Y-62284190D01*
X185614133Y-62569904D01*
X185661752Y-62665142D01*
X185709371Y-62712761D01*
X185804609Y-62760380D01*
X185995085Y-62760380D01*
X186090323Y-62712761D01*
X185233180Y-62712761D02*
X185137942Y-62760380D01*
X184947466Y-62760380D01*
X184852228Y-62712761D01*
X184804609Y-62617523D01*
X184804609Y-62569904D01*
X184852228Y-62474666D01*
X184947466Y-62427047D01*
X185090323Y-62427047D01*
X185185561Y-62379428D01*
X185233180Y-62284190D01*
X185233180Y-62236571D01*
X185185561Y-62141333D01*
X185090323Y-62093714D01*
X184947466Y-62093714D01*
X184852228Y-62141333D01*
X184376038Y-62665142D02*
X184328419Y-62712761D01*
X184376038Y-62760380D01*
X184423657Y-62712761D01*
X184376038Y-62665142D01*
X184376038Y-62760380D01*
X184376038Y-62141333D02*
X184328419Y-62188952D01*
X184376038Y-62236571D01*
X184423657Y-62188952D01*
X184376038Y-62141333D01*
X184376038Y-62236571D01*
X183185561Y-61712761D02*
X184042704Y-62998476D01*
X182137942Y-61712761D02*
X182995085Y-62998476D01*
X181376038Y-62093714D02*
X181376038Y-62903238D01*
X181423657Y-62998476D01*
X181471276Y-63046095D01*
X181566514Y-63093714D01*
X181709371Y-63093714D01*
X181804609Y-63046095D01*
X181376038Y-62712761D02*
X181471276Y-62760380D01*
X181661752Y-62760380D01*
X181756990Y-62712761D01*
X181804609Y-62665142D01*
X181852228Y-62569904D01*
X181852228Y-62284190D01*
X181804609Y-62188952D01*
X181756990Y-62141333D01*
X181661752Y-62093714D01*
X181471276Y-62093714D01*
X181376038Y-62141333D01*
X180899847Y-62760380D02*
X180899847Y-62093714D01*
X180899847Y-61760380D02*
X180947466Y-61808000D01*
X180899847Y-61855619D01*
X180852228Y-61808000D01*
X180899847Y-61760380D01*
X180899847Y-61855619D01*
X180566514Y-62093714D02*
X180185561Y-62093714D01*
X180423657Y-61760380D02*
X180423657Y-62617523D01*
X180376038Y-62712761D01*
X180280800Y-62760380D01*
X180185561Y-62760380D01*
X179852228Y-62760380D02*
X179852228Y-61760380D01*
X179423657Y-62760380D02*
X179423657Y-62236571D01*
X179471276Y-62141333D01*
X179566514Y-62093714D01*
X179709371Y-62093714D01*
X179804609Y-62141333D01*
X179852228Y-62188952D01*
X178518895Y-62093714D02*
X178518895Y-62760380D01*
X178947466Y-62093714D02*
X178947466Y-62617523D01*
X178899847Y-62712761D01*
X178804609Y-62760380D01*
X178661752Y-62760380D01*
X178566514Y-62712761D01*
X178518895Y-62665142D01*
X178042704Y-62760380D02*
X178042704Y-61760380D01*
X178042704Y-62141333D02*
X177947466Y-62093714D01*
X177756990Y-62093714D01*
X177661752Y-62141333D01*
X177614133Y-62188952D01*
X177566514Y-62284190D01*
X177566514Y-62569904D01*
X177614133Y-62665142D01*
X177661752Y-62712761D01*
X177756990Y-62760380D01*
X177947466Y-62760380D01*
X178042704Y-62712761D01*
X177137942Y-62665142D02*
X177090323Y-62712761D01*
X177137942Y-62760380D01*
X177185561Y-62712761D01*
X177137942Y-62665142D01*
X177137942Y-62760380D01*
X176233180Y-62712761D02*
X176328419Y-62760380D01*
X176518895Y-62760380D01*
X176614133Y-62712761D01*
X176661752Y-62665142D01*
X176709371Y-62569904D01*
X176709371Y-62284190D01*
X176661752Y-62188952D01*
X176614133Y-62141333D01*
X176518895Y-62093714D01*
X176328419Y-62093714D01*
X176233180Y-62141333D01*
X175661752Y-62760380D02*
X175756990Y-62712761D01*
X175804609Y-62665142D01*
X175852228Y-62569904D01*
X175852228Y-62284190D01*
X175804609Y-62188952D01*
X175756990Y-62141333D01*
X175661752Y-62093714D01*
X175518895Y-62093714D01*
X175423657Y-62141333D01*
X175376038Y-62188952D01*
X175328419Y-62284190D01*
X175328419Y-62569904D01*
X175376038Y-62665142D01*
X175423657Y-62712761D01*
X175518895Y-62760380D01*
X175661752Y-62760380D01*
X174899847Y-62760380D02*
X174899847Y-62093714D01*
X174899847Y-62188952D02*
X174852228Y-62141333D01*
X174756990Y-62093714D01*
X174614133Y-62093714D01*
X174518895Y-62141333D01*
X174471276Y-62236571D01*
X174471276Y-62760380D01*
X174471276Y-62236571D02*
X174423657Y-62141333D01*
X174328419Y-62093714D01*
X174185561Y-62093714D01*
X174090323Y-62141333D01*
X174042704Y-62236571D01*
X174042704Y-62760380D01*
X172852228Y-61712761D02*
X173709371Y-62998476D01*
X172566514Y-62712761D02*
X172423657Y-62760380D01*
X172185561Y-62760380D01*
X172090323Y-62712761D01*
X172042704Y-62665142D01*
X171995085Y-62569904D01*
X171995085Y-62474666D01*
X172042704Y-62379428D01*
X172090323Y-62331809D01*
X172185561Y-62284190D01*
X172376038Y-62236571D01*
X172471276Y-62188952D01*
X172518895Y-62141333D01*
X172566514Y-62046095D01*
X172566514Y-61950857D01*
X172518895Y-61855619D01*
X172471276Y-61808000D01*
X172376038Y-61760380D01*
X172137942Y-61760380D01*
X171995085Y-61808000D01*
X171709371Y-62093714D02*
X171328419Y-62093714D01*
X171566514Y-61760380D02*
X171566514Y-62617523D01*
X171518895Y-62712761D01*
X171423657Y-62760380D01*
X171328419Y-62760380D01*
X170995085Y-62760380D02*
X170995085Y-62093714D01*
X170995085Y-62284190D02*
X170947466Y-62188952D01*
X170899847Y-62141333D01*
X170804609Y-62093714D01*
X170709371Y-62093714D01*
X170233180Y-62760380D02*
X170328419Y-62712761D01*
X170376038Y-62665142D01*
X170423657Y-62569904D01*
X170423657Y-62284190D01*
X170376038Y-62188952D01*
X170328419Y-62141333D01*
X170233180Y-62093714D01*
X170090323Y-62093714D01*
X169995085Y-62141333D01*
X169947466Y-62188952D01*
X169899847Y-62284190D01*
X169899847Y-62569904D01*
X169947466Y-62665142D01*
X169995085Y-62712761D01*
X170090323Y-62760380D01*
X170233180Y-62760380D01*
X169328419Y-62760380D02*
X169423657Y-62712761D01*
X169471276Y-62665142D01*
X169518895Y-62569904D01*
X169518895Y-62284190D01*
X169471276Y-62188952D01*
X169423657Y-62141333D01*
X169328419Y-62093714D01*
X169185561Y-62093714D01*
X169090323Y-62141333D01*
X169042704Y-62188952D01*
X168995085Y-62284190D01*
X168995085Y-62569904D01*
X169042704Y-62665142D01*
X169090323Y-62712761D01*
X169185561Y-62760380D01*
X169328419Y-62760380D01*
X168423657Y-62760380D02*
X168518895Y-62712761D01*
X168566514Y-62665142D01*
X168614133Y-62569904D01*
X168614133Y-62284190D01*
X168566514Y-62188952D01*
X168518895Y-62141333D01*
X168423657Y-62093714D01*
X168280800Y-62093714D01*
X168185561Y-62141333D01*
X168137942Y-62188952D01*
X168090323Y-62284190D01*
X168090323Y-62569904D01*
X168137942Y-62665142D01*
X168185561Y-62712761D01*
X168280800Y-62760380D01*
X168423657Y-62760380D01*
X167661752Y-62760380D02*
X167661752Y-62093714D01*
X167661752Y-62188952D02*
X167614133Y-62141333D01*
X167518895Y-62093714D01*
X167376038Y-62093714D01*
X167280800Y-62141333D01*
X167233180Y-62236571D01*
X167233180Y-62760380D01*
X167233180Y-62236571D02*
X167185561Y-62141333D01*
X167090323Y-62093714D01*
X166947466Y-62093714D01*
X166852228Y-62141333D01*
X166804609Y-62236571D01*
X166804609Y-62760380D01*
X165614133Y-61712761D02*
X166471276Y-62998476D01*
X165280800Y-62760380D02*
X165280800Y-61760380D01*
X164947466Y-62474666D01*
X164614133Y-61760380D01*
X164614133Y-62760380D01*
X163709371Y-62093714D02*
X163709371Y-62760380D01*
X164137942Y-62093714D02*
X164137942Y-62617523D01*
X164090323Y-62712761D01*
X163995085Y-62760380D01*
X163852228Y-62760380D01*
X163756990Y-62712761D01*
X163709371Y-62665142D01*
X163233180Y-62760380D02*
X163233180Y-61760380D01*
X162899847Y-62474666D01*
X162566514Y-61760380D01*
X162566514Y-62760380D01*
X161947466Y-62760380D02*
X162042704Y-62712761D01*
X162090323Y-62665142D01*
X162137942Y-62569904D01*
X162137942Y-62284190D01*
X162090323Y-62188952D01*
X162042704Y-62141333D01*
X161947466Y-62093714D01*
X161804609Y-62093714D01*
X161709371Y-62141333D01*
X161661752Y-62188952D01*
X161614133Y-62284190D01*
X161614133Y-62569904D01*
X161661752Y-62665142D01*
X161709371Y-62712761D01*
X161804609Y-62760380D01*
X161947466Y-62760380D01*
X161185561Y-62379428D02*
X160423657Y-62379428D01*
X160090323Y-61760380D02*
X159756990Y-62760380D01*
X159423657Y-61760380D01*
X159137942Y-61855619D02*
X159090323Y-61808000D01*
X158995085Y-61760380D01*
X158756990Y-61760380D01*
X158661752Y-61808000D01*
X158614133Y-61855619D01*
X158566514Y-61950857D01*
X158566514Y-62046095D01*
X158614133Y-62188952D01*
X159185561Y-62760380D01*
X158566514Y-62760380D01*
X158137942Y-62379428D02*
X157376038Y-62379428D01*
X156899847Y-62760380D02*
X156899847Y-61760380D01*
X156328419Y-62760380D01*
X156328419Y-61760380D01*
X155709371Y-62760380D02*
X155804609Y-62712761D01*
X155852228Y-62665142D01*
X155899847Y-62569904D01*
X155899847Y-62284190D01*
X155852228Y-62188952D01*
X155804609Y-62141333D01*
X155709371Y-62093714D01*
X155566514Y-62093714D01*
X155471276Y-62141333D01*
X155423657Y-62188952D01*
X155376038Y-62284190D01*
X155376038Y-62569904D01*
X155423657Y-62665142D01*
X155471276Y-62712761D01*
X155566514Y-62760380D01*
X155709371Y-62760380D01*
X154518895Y-62760380D02*
X154518895Y-61760380D01*
X154518895Y-62712761D02*
X154614133Y-62760380D01*
X154804609Y-62760380D01*
X154899847Y-62712761D01*
X154947466Y-62665142D01*
X154995085Y-62569904D01*
X154995085Y-62284190D01*
X154947466Y-62188952D01*
X154899847Y-62141333D01*
X154804609Y-62093714D01*
X154614133Y-62093714D01*
X154518895Y-62141333D01*
X153661752Y-62712761D02*
X153756990Y-62760380D01*
X153947466Y-62760380D01*
X154042704Y-62712761D01*
X154090323Y-62617523D01*
X154090323Y-62236571D01*
X154042704Y-62141333D01*
X153947466Y-62093714D01*
X153756990Y-62093714D01*
X153661752Y-62141333D01*
X153614133Y-62236571D01*
X153614133Y-62331809D01*
X154090323Y-62427047D01*
X153185561Y-62379428D02*
X152423657Y-62379428D01*
X151947466Y-62760380D02*
X151947466Y-61760380D01*
X151566514Y-61760380D01*
X151471276Y-61808000D01*
X151423657Y-61855619D01*
X151376038Y-61950857D01*
X151376038Y-62093714D01*
X151423657Y-62188952D01*
X151471276Y-62236571D01*
X151566514Y-62284190D01*
X151947466Y-62284190D01*
X150376038Y-62665142D02*
X150423657Y-62712761D01*
X150566514Y-62760380D01*
X150661752Y-62760380D01*
X150804609Y-62712761D01*
X150899847Y-62617523D01*
X150947466Y-62522285D01*
X150995085Y-62331809D01*
X150995085Y-62188952D01*
X150947466Y-61998476D01*
X150899847Y-61903238D01*
X150804609Y-61808000D01*
X150661752Y-61760380D01*
X150566514Y-61760380D01*
X150423657Y-61808000D01*
X150376038Y-61855619D01*
X149614133Y-62236571D02*
X149471276Y-62284190D01*
X149423657Y-62331809D01*
X149376038Y-62427047D01*
X149376038Y-62569904D01*
X149423657Y-62665142D01*
X149471276Y-62712761D01*
X149566514Y-62760380D01*
X149947466Y-62760380D01*
X149947466Y-61760380D01*
X149614133Y-61760380D01*
X149518895Y-61808000D01*
X149471276Y-61855619D01*
X149423657Y-61950857D01*
X149423657Y-62046095D01*
X149471276Y-62141333D01*
X149518895Y-62188952D01*
X149614133Y-62236571D01*
X149947466Y-62236571D01*
%TO.C,U5*%
X192792704Y-90944980D02*
X192792704Y-91754504D01*
X192745085Y-91849742D01*
X192697466Y-91897361D01*
X192602228Y-91944980D01*
X192411752Y-91944980D01*
X192316514Y-91897361D01*
X192268895Y-91849742D01*
X192221276Y-91754504D01*
X192221276Y-90944980D01*
X191268895Y-90944980D02*
X191745085Y-90944980D01*
X191792704Y-91421171D01*
X191745085Y-91373552D01*
X191649847Y-91325933D01*
X191411752Y-91325933D01*
X191316514Y-91373552D01*
X191268895Y-91421171D01*
X191221276Y-91516409D01*
X191221276Y-91754504D01*
X191268895Y-91849742D01*
X191316514Y-91897361D01*
X191411752Y-91944980D01*
X191649847Y-91944980D01*
X191745085Y-91897361D01*
X191792704Y-91849742D01*
%TO.C,U6*%
X192792704Y-99593180D02*
X192792704Y-100402704D01*
X192745085Y-100497942D01*
X192697466Y-100545561D01*
X192602228Y-100593180D01*
X192411752Y-100593180D01*
X192316514Y-100545561D01*
X192268895Y-100497942D01*
X192221276Y-100402704D01*
X192221276Y-99593180D01*
X191316514Y-99593180D02*
X191506990Y-99593180D01*
X191602228Y-99640800D01*
X191649847Y-99688419D01*
X191745085Y-99831276D01*
X191792704Y-100021752D01*
X191792704Y-100402704D01*
X191745085Y-100497942D01*
X191697466Y-100545561D01*
X191602228Y-100593180D01*
X191411752Y-100593180D01*
X191316514Y-100545561D01*
X191268895Y-100497942D01*
X191221276Y-100402704D01*
X191221276Y-100164609D01*
X191268895Y-100069371D01*
X191316514Y-100021752D01*
X191411752Y-99974133D01*
X191602228Y-99974133D01*
X191697466Y-100021752D01*
X191745085Y-100069371D01*
X191792704Y-100164609D01*
%TO.C,G\u002A\u002A\u002A*%
G36*
X182707579Y-88470400D02*
G01*
X182629366Y-88543727D01*
X182544887Y-88600094D01*
X182440991Y-88642223D01*
X182300529Y-88676984D01*
X182106353Y-88711246D01*
X181998494Y-88733247D01*
X181873132Y-88773623D01*
X181786646Y-88819780D01*
X181749436Y-88865687D01*
X181771900Y-88905307D01*
X181802056Y-88946396D01*
X181804540Y-89023584D01*
X181767103Y-89095283D01*
X181758915Y-89103085D01*
X181694574Y-89133372D01*
X181644546Y-89100809D01*
X181611468Y-89012015D01*
X181597973Y-88873612D01*
X181606697Y-88692221D01*
X181636882Y-88526777D01*
X181721607Y-88324497D01*
X181954224Y-88324497D01*
X181981470Y-88402821D01*
X182039407Y-88481466D01*
X182116199Y-88536542D01*
X182240510Y-88568564D01*
X182367962Y-88553187D01*
X182480881Y-88496678D01*
X182561593Y-88405307D01*
X182592425Y-88285340D01*
X182586377Y-88241751D01*
X182541865Y-88172322D01*
X182443007Y-88096481D01*
X182368565Y-88049983D01*
X182286228Y-88010210D01*
X182226624Y-88005864D01*
X182169244Y-88032125D01*
X182146085Y-88053332D01*
X182138075Y-88108025D01*
X182178387Y-88156539D01*
X182254470Y-88177468D01*
X182274470Y-88178818D01*
X182344077Y-88209227D01*
X182376841Y-88263347D01*
X182357022Y-88319397D01*
X182345847Y-88325160D01*
X182279215Y-88324477D01*
X182183321Y-88299754D01*
X182151001Y-88288751D01*
X182056250Y-88260665D01*
X181996556Y-88249152D01*
X181961417Y-88266807D01*
X181954224Y-88324497D01*
X181721607Y-88324497D01*
X181731857Y-88300025D01*
X181882562Y-88115175D01*
X182085974Y-87976741D01*
X182112325Y-87964507D01*
X182192825Y-87938022D01*
X182295804Y-87921520D01*
X182437446Y-87913051D01*
X182633934Y-87910661D01*
X182790491Y-87912239D01*
X182930142Y-87916873D01*
X183028510Y-87923827D01*
X183070665Y-87932360D01*
X183067553Y-87964129D01*
X183029953Y-88039519D01*
X182965305Y-88142439D01*
X182883459Y-88258291D01*
X182862331Y-88285340D01*
X182794267Y-88372477D01*
X182707579Y-88470400D01*
G37*
G36*
X172308391Y-90523028D02*
G01*
X172189019Y-90698939D01*
X172015045Y-90829683D01*
X171787909Y-90913417D01*
X171570781Y-90933181D01*
X171330031Y-90897878D01*
X171092081Y-90809442D01*
X170886555Y-90707388D01*
X170718552Y-90811437D01*
X170653242Y-90848908D01*
X170533498Y-90905813D01*
X170437373Y-90937831D01*
X170394135Y-90945101D01*
X170348138Y-90940994D01*
X170308950Y-90909078D01*
X170263846Y-90837336D01*
X170200100Y-90713750D01*
X170076002Y-90467326D01*
X170185869Y-90434092D01*
X170185870Y-90434091D01*
X170285213Y-90381134D01*
X170369780Y-90300481D01*
X170391025Y-90268442D01*
X170411948Y-90221876D01*
X170427513Y-90158343D01*
X170438991Y-90067009D01*
X170441800Y-90024851D01*
X170995226Y-90024851D01*
X171016945Y-90190147D01*
X171092610Y-90334149D01*
X171221374Y-90431634D01*
X171262861Y-90449684D01*
X171430633Y-90489735D01*
X171580989Y-90476550D01*
X171702516Y-90415206D01*
X171783802Y-90310777D01*
X171813433Y-90168339D01*
X171813281Y-90153478D01*
X171798632Y-90051924D01*
X171753056Y-89980645D01*
X171666591Y-89933919D01*
X171529281Y-89906024D01*
X171331166Y-89891237D01*
X170995226Y-89876544D01*
X170995226Y-90024851D01*
X170441800Y-90024851D01*
X170447652Y-89937038D01*
X170454769Y-89757596D01*
X170461612Y-89517848D01*
X170461663Y-89515900D01*
X170468399Y-89277460D01*
X170475347Y-89098700D01*
X170483915Y-88968241D01*
X170495512Y-88874707D01*
X170511542Y-88806719D01*
X170533415Y-88752900D01*
X170562538Y-88701873D01*
X170689016Y-88556049D01*
X170873608Y-88438900D01*
X171099697Y-88364286D01*
X171357080Y-88335496D01*
X171635559Y-88355821D01*
X171743033Y-88376072D01*
X171891731Y-88411390D01*
X172035542Y-88452175D01*
X172158290Y-88493354D01*
X172243800Y-88529856D01*
X172275898Y-88556608D01*
X172268328Y-88593904D01*
X172246793Y-88681520D01*
X172216190Y-88798972D01*
X172156481Y-89023050D01*
X171960083Y-88955479D01*
X171880030Y-88929594D01*
X171624844Y-88872576D01*
X171407891Y-88865592D01*
X171232812Y-88907299D01*
X171103247Y-88996356D01*
X171022838Y-89131420D01*
X170995226Y-89311148D01*
X170995226Y-89458140D01*
X171399857Y-89458140D01*
X171547718Y-89461030D01*
X171821063Y-89488128D01*
X172034830Y-89546292D01*
X172193423Y-89638635D01*
X172301250Y-89768265D01*
X172362715Y-89938296D01*
X172382224Y-90151837D01*
X172381084Y-90168339D01*
X172371723Y-90303794D01*
X172308391Y-90523028D01*
G37*
G36*
X167014648Y-89969337D02*
G01*
X166950547Y-90240127D01*
X166838088Y-90476754D01*
X166680047Y-90672602D01*
X166479201Y-90821060D01*
X166238329Y-90915513D01*
X166180306Y-90927608D01*
X165952357Y-90939172D01*
X165713563Y-90904424D01*
X165494233Y-90826970D01*
X165297821Y-90730874D01*
X165245206Y-90805992D01*
X165232893Y-90822095D01*
X165184718Y-90858870D01*
X165107819Y-90876547D01*
X164981164Y-90881109D01*
X164769736Y-90881109D01*
X164769736Y-89342346D01*
X165302753Y-89342346D01*
X165303349Y-89583534D01*
X165303349Y-90244774D01*
X165454540Y-90310982D01*
X165502558Y-90330911D01*
X165736519Y-90394066D01*
X165944271Y-90393297D01*
X166121421Y-90332011D01*
X166263578Y-90213613D01*
X166366349Y-90041509D01*
X166425342Y-89819105D01*
X166436166Y-89549806D01*
X166422904Y-89413569D01*
X166371609Y-89229874D01*
X166276013Y-89083328D01*
X166127238Y-88956893D01*
X166124026Y-88954703D01*
X166049785Y-88911347D01*
X165971320Y-88886369D01*
X165866380Y-88875305D01*
X165712717Y-88873688D01*
X165660182Y-88873905D01*
X165533345Y-88874339D01*
X165440584Y-88881645D01*
X165376608Y-88904998D01*
X165336128Y-88953572D01*
X165313852Y-89036539D01*
X165304490Y-89163072D01*
X165302753Y-89342346D01*
X164769736Y-89342346D01*
X164769736Y-87385164D01*
X164934785Y-87407786D01*
X164972837Y-87412623D01*
X165106898Y-87425318D01*
X165219379Y-87430409D01*
X165338923Y-87430409D01*
X165338923Y-88351631D01*
X165653323Y-88348665D01*
X165921680Y-88363530D01*
X166221236Y-88431032D01*
X166476553Y-88551414D01*
X166685217Y-88723070D01*
X166844819Y-88944396D01*
X166952946Y-89213786D01*
X166986663Y-89351719D01*
X167012069Y-89549806D01*
X167027612Y-89670997D01*
X167014648Y-89969337D01*
G37*
G36*
X168325189Y-94096487D02*
G01*
X168293075Y-94182217D01*
X168238223Y-94278519D01*
X168139215Y-94407494D01*
X167974715Y-94533599D01*
X167938812Y-94551415D01*
X167731288Y-94612058D01*
X167526142Y-94603994D01*
X167332608Y-94528869D01*
X167159920Y-94388330D01*
X167111899Y-94331325D01*
X166995948Y-94125602D01*
X166941431Y-93897079D01*
X166945587Y-93783606D01*
X167159711Y-93783606D01*
X167176627Y-93973752D01*
X167239234Y-94150118D01*
X167348602Y-94295986D01*
X167445379Y-94352063D01*
X167583527Y-94387489D01*
X167729094Y-94395009D01*
X167850887Y-94370027D01*
X167914679Y-94332073D01*
X168018082Y-94217621D01*
X168094617Y-94061871D01*
X168136454Y-93883234D01*
X168135764Y-93700122D01*
X168093941Y-93531940D01*
X168005418Y-93371121D01*
X167883760Y-93258660D01*
X167738417Y-93200215D01*
X167578834Y-93201448D01*
X167414459Y-93268017D01*
X167372396Y-93297668D01*
X167258667Y-93428846D01*
X167187415Y-93596399D01*
X167159711Y-93783606D01*
X166945587Y-93783606D01*
X166950164Y-93658652D01*
X167023963Y-93423213D01*
X167028089Y-93414472D01*
X167152630Y-93223669D01*
X167311147Y-93088139D01*
X167493174Y-93010574D01*
X167688242Y-92993668D01*
X167885885Y-93040115D01*
X168075635Y-93152607D01*
X168187153Y-93259568D01*
X168278996Y-93406772D01*
X168329503Y-93588018D01*
X168344946Y-93818816D01*
X168344859Y-93854843D01*
X168343977Y-93883234D01*
X168340479Y-93995853D01*
X168325189Y-94096487D01*
G37*
G36*
X171585110Y-92709376D02*
G01*
X171613604Y-92718490D01*
X171691833Y-92730969D01*
X171701383Y-92732167D01*
X171732478Y-92771946D01*
X171742285Y-92873266D01*
X171742316Y-92885658D01*
X171748453Y-92971162D01*
X171773921Y-93007796D01*
X171831220Y-93015563D01*
X171869895Y-93018112D01*
X171910584Y-93046014D01*
X171920156Y-93122286D01*
X171918264Y-93166222D01*
X171895856Y-93216845D01*
X171834413Y-93229008D01*
X171748670Y-93229008D01*
X171736584Y-93777890D01*
X171731220Y-93984689D01*
X171724323Y-94141250D01*
X171714415Y-94251255D01*
X171699826Y-94327222D01*
X171678885Y-94381671D01*
X171649920Y-94427119D01*
X171649415Y-94427798D01*
X171571775Y-94511220D01*
X171489836Y-94571411D01*
X171446329Y-94588895D01*
X171306837Y-94612535D01*
X171146656Y-94608476D01*
X170997791Y-94576393D01*
X170933339Y-94549622D01*
X170899368Y-94510009D01*
X170906439Y-94443062D01*
X170911973Y-94421262D01*
X170935206Y-94352815D01*
X170966488Y-94338208D01*
X171025415Y-94364501D01*
X171028153Y-94365938D01*
X171141960Y-94397330D01*
X171274766Y-94398201D01*
X171385139Y-94368135D01*
X171437970Y-94322221D01*
X171480254Y-94235870D01*
X171508370Y-94103585D01*
X171524003Y-93917158D01*
X171528839Y-93668378D01*
X171528839Y-93229008D01*
X171066374Y-93229008D01*
X171066374Y-93015563D01*
X171528839Y-93015563D01*
X171528839Y-92851673D01*
X171528846Y-92845581D01*
X171533439Y-92748826D01*
X171550330Y-92708136D01*
X171585110Y-92709376D01*
G37*
G36*
X184384925Y-88857706D02*
G01*
X184424684Y-88949245D01*
X184474002Y-89045875D01*
X184536457Y-89149998D01*
X184618484Y-89271083D01*
X184726521Y-89418601D01*
X184867006Y-89602024D01*
X185046377Y-89830821D01*
X185192225Y-90017117D01*
X185309869Y-90173370D01*
X185399538Y-90303662D01*
X185469999Y-90422898D01*
X185530022Y-90545984D01*
X185588376Y-90687824D01*
X185653829Y-90863322D01*
X185677814Y-90929939D01*
X185720190Y-91058640D01*
X185747517Y-91170925D01*
X185763219Y-91288683D01*
X185770716Y-91433802D01*
X185773434Y-91628168D01*
X185773749Y-91813245D01*
X185769283Y-91953667D01*
X185756102Y-92069281D01*
X185730291Y-92182999D01*
X185687938Y-92317736D01*
X185625128Y-92496403D01*
X185587130Y-92604754D01*
X185530973Y-92779778D01*
X185496337Y-92919132D01*
X185478800Y-93042514D01*
X185473937Y-93169621D01*
X185473937Y-93419282D01*
X185383889Y-93334686D01*
X185379369Y-93330389D01*
X185319773Y-93260327D01*
X185273795Y-93172842D01*
X185240030Y-93059012D01*
X185217071Y-92909914D01*
X185203509Y-92716625D01*
X185197940Y-92470221D01*
X185198955Y-92161781D01*
X185200657Y-91946559D01*
X185199763Y-91725630D01*
X185194862Y-91555555D01*
X185185353Y-91424975D01*
X185170637Y-91322527D01*
X185150114Y-91236851D01*
X185029175Y-90891684D01*
X184863540Y-90527013D01*
X184669011Y-90179867D01*
X184618092Y-90097212D01*
X184474601Y-89848809D01*
X184371564Y-89636633D01*
X184304826Y-89446655D01*
X184270232Y-89264849D01*
X184263625Y-89077188D01*
X184280852Y-88869644D01*
X184306463Y-88664656D01*
X184384925Y-88857706D01*
G37*
G36*
X173388265Y-94330545D02*
G01*
X173317909Y-94447323D01*
X173190002Y-94548915D01*
X173186807Y-94550894D01*
X173042318Y-94602943D01*
X172870947Y-94611177D01*
X172699573Y-94577506D01*
X172555077Y-94503837D01*
X172435982Y-94413094D01*
X172335917Y-94514749D01*
X172274477Y-94574376D01*
X172218732Y-94608841D01*
X172176472Y-94591166D01*
X172128392Y-94522030D01*
X172123925Y-94514642D01*
X172092676Y-94450730D01*
X172104067Y-94405445D01*
X172164620Y-94347331D01*
X172167683Y-94344692D01*
X172204773Y-94309033D01*
X172230763Y-94268480D01*
X172248351Y-94209791D01*
X172260236Y-94119722D01*
X172269116Y-93985031D01*
X172270285Y-93958771D01*
X172492140Y-93958771D01*
X172494482Y-94035306D01*
X172526773Y-94162775D01*
X172570155Y-94262171D01*
X172667104Y-94349540D01*
X172747246Y-94382574D01*
X172895821Y-94405176D01*
X173029216Y-94380132D01*
X173127098Y-94309225D01*
X173170466Y-94239442D01*
X173199455Y-94123891D01*
X173173603Y-94025861D01*
X173168975Y-94019286D01*
X173084382Y-93954761D01*
X172943392Y-93917132D01*
X172740702Y-93904919D01*
X172620390Y-93906565D01*
X172530519Y-93920185D01*
X172492140Y-93958771D01*
X172270285Y-93958771D01*
X172277690Y-93792475D01*
X172289009Y-93584537D01*
X172308900Y-93395335D01*
X172339191Y-93257782D01*
X172383425Y-93161367D01*
X172445142Y-93095579D01*
X172527885Y-93049908D01*
X172538772Y-93045664D01*
X172675824Y-93016846D01*
X172848360Y-93010561D01*
X173027552Y-93026224D01*
X173184567Y-93063248D01*
X173267956Y-93097785D01*
X173309827Y-93138335D01*
X173312966Y-93197340D01*
X173312272Y-93202073D01*
X173294058Y-93279366D01*
X173257765Y-93298173D01*
X173181855Y-93270515D01*
X173141955Y-93255834D01*
X173030725Y-93227991D01*
X172903866Y-93207271D01*
X172753526Y-93206844D01*
X172627978Y-93255497D01*
X172545588Y-93359582D01*
X172502026Y-93522496D01*
X172479673Y-93691473D01*
X172729081Y-93691473D01*
X172875207Y-93694449D01*
X173077151Y-93715588D01*
X173222982Y-93761212D01*
X173320952Y-93836226D01*
X173379312Y-93945534D01*
X173406316Y-94094042D01*
X173407626Y-94123891D01*
X173410072Y-94179654D01*
X173388265Y-94330545D01*
G37*
G36*
X185001557Y-86551062D02*
G01*
X185045638Y-86608402D01*
X185131805Y-86688679D01*
X185240014Y-86772286D01*
X185437140Y-86914831D01*
X185639348Y-87076078D01*
X185791035Y-87221791D01*
X185899347Y-87361575D01*
X185971428Y-87505033D01*
X186014424Y-87661766D01*
X186035479Y-87841377D01*
X186036060Y-87850731D01*
X186040395Y-87987409D01*
X186036944Y-88100602D01*
X186026369Y-88166627D01*
X186014028Y-88195406D01*
X185993072Y-88210591D01*
X185959561Y-88164764D01*
X185809850Y-87956213D01*
X185623932Y-87762941D01*
X185386122Y-87569407D01*
X185377763Y-87563200D01*
X185185048Y-87406650D01*
X185049801Y-87261341D01*
X184963610Y-87112948D01*
X184918063Y-86947147D01*
X184904750Y-86749613D01*
X184904973Y-86716437D01*
X184913360Y-86577302D01*
X184933023Y-86501783D01*
X184962806Y-86492247D01*
X185001557Y-86551062D01*
G37*
G36*
X184725998Y-87494604D02*
G01*
X184754146Y-87585276D01*
X184801484Y-87697533D01*
X184910754Y-87863591D01*
X185072630Y-88057280D01*
X185282680Y-88273381D01*
X185536474Y-88506674D01*
X185677390Y-88631527D01*
X185869725Y-88809447D01*
X186017818Y-88959069D01*
X186129660Y-89089250D01*
X186213243Y-89208845D01*
X186276560Y-89326708D01*
X186278424Y-89330732D01*
X186351727Y-89558620D01*
X186355097Y-89774697D01*
X186288178Y-89981385D01*
X186150613Y-90181105D01*
X186110650Y-90224549D01*
X186044084Y-90287272D01*
X186003866Y-90311921D01*
X185990019Y-90291515D01*
X185976991Y-90217265D01*
X185971949Y-90107370D01*
X185953311Y-89939362D01*
X185872721Y-89701954D01*
X185732997Y-89457609D01*
X185539118Y-89214623D01*
X185296066Y-88981298D01*
X185202641Y-88899430D01*
X185031206Y-88737331D01*
X184866827Y-88568323D01*
X184721455Y-88405459D01*
X184607037Y-88261796D01*
X184535525Y-88150389D01*
X184484426Y-88027815D01*
X184448831Y-87848919D01*
X184462176Y-87689230D01*
X184522759Y-87561027D01*
X184628880Y-87476585D01*
X184653432Y-87465974D01*
X184697745Y-87459451D01*
X184725998Y-87494604D01*
G37*
G36*
X166035224Y-92419402D02*
G01*
X166151977Y-92429641D01*
X166232869Y-92448277D01*
X166302618Y-92493845D01*
X166390401Y-92604222D01*
X166452443Y-92747144D01*
X166476517Y-92899947D01*
X166476542Y-92903152D01*
X166483756Y-92979055D01*
X166518222Y-93009799D01*
X166601809Y-93015563D01*
X166684171Y-93021173D01*
X166719377Y-93050583D01*
X166726318Y-93122286D01*
X166719773Y-93192882D01*
X166685462Y-93223059D01*
X166601809Y-93229008D01*
X166477299Y-93229008D01*
X166477299Y-94580829D01*
X166263853Y-94580829D01*
X166263853Y-93229008D01*
X166085982Y-93229008D01*
X165998145Y-93227810D01*
X165935891Y-93216967D01*
X165911997Y-93185463D01*
X165908111Y-93122286D01*
X165910227Y-93068633D01*
X165928661Y-93031906D01*
X165981693Y-93017838D01*
X166087594Y-93015563D01*
X166267077Y-93015563D01*
X166243633Y-92882160D01*
X166218977Y-92784458D01*
X166154718Y-92679436D01*
X166049578Y-92625084D01*
X165892791Y-92613150D01*
X165830782Y-92614664D01*
X165745303Y-92609517D01*
X165702082Y-92587932D01*
X165681863Y-92543555D01*
X165673309Y-92493919D01*
X165679038Y-92450145D01*
X165702967Y-92438277D01*
X165787401Y-92423799D01*
X165905926Y-92417481D01*
X166035224Y-92419402D01*
G37*
G36*
X180688020Y-85009362D02*
G01*
X180688388Y-85016201D01*
X180685572Y-85031448D01*
X180678613Y-85057904D01*
X180666551Y-85098368D01*
X180648428Y-85155642D01*
X180623285Y-85232525D01*
X180590163Y-85331818D01*
X180548102Y-85456323D01*
X180496144Y-85608838D01*
X180433330Y-85792164D01*
X180358700Y-86009102D01*
X180271295Y-86262453D01*
X180170158Y-86555016D01*
X180054327Y-86889592D01*
X179922845Y-87268982D01*
X179774753Y-87695986D01*
X179609090Y-88173403D01*
X179424900Y-88704036D01*
X179221221Y-89290684D01*
X178997096Y-89936147D01*
X178751565Y-90643227D01*
X178483669Y-91414723D01*
X178468752Y-91457682D01*
X178254304Y-92075298D01*
X178045406Y-92676978D01*
X177843329Y-93259062D01*
X177649343Y-93817885D01*
X177464720Y-94349786D01*
X177290730Y-94851102D01*
X177128644Y-95318171D01*
X176979732Y-95747329D01*
X176845267Y-96134915D01*
X176726518Y-96477266D01*
X176624757Y-96770718D01*
X176541254Y-97011610D01*
X176477280Y-97196280D01*
X176434106Y-97321064D01*
X176413003Y-97382300D01*
X176403681Y-97409175D01*
X176359138Y-97526561D01*
X176321539Y-97609058D01*
X176298205Y-97640213D01*
X176298187Y-97637959D01*
X176312445Y-97588128D01*
X176348513Y-97475719D01*
X176405139Y-97304396D01*
X176481071Y-97077825D01*
X176575056Y-96799671D01*
X176685843Y-96473598D01*
X176812180Y-96103273D01*
X176952815Y-95692359D01*
X177106496Y-95244523D01*
X177271971Y-94763429D01*
X177447988Y-94252743D01*
X177633296Y-93716129D01*
X177826641Y-93157252D01*
X178026773Y-92579779D01*
X178206324Y-92062134D01*
X178414483Y-91461990D01*
X178620054Y-90869287D01*
X178821309Y-90289006D01*
X179016522Y-89726129D01*
X179203964Y-89185637D01*
X179381908Y-88672512D01*
X179548627Y-88191735D01*
X179702392Y-87748288D01*
X179841478Y-87347152D01*
X179964155Y-86993309D01*
X180068697Y-86691741D01*
X180153376Y-86447428D01*
X180216466Y-86265353D01*
X180225711Y-86238679D01*
X180323946Y-85957366D01*
X180415420Y-85699075D01*
X180497425Y-85471188D01*
X180567253Y-85281089D01*
X180622193Y-85136163D01*
X180659536Y-85043792D01*
X180676574Y-85011361D01*
X180677403Y-85011290D01*
X180681569Y-85009707D01*
X180685428Y-85008131D01*
X180688020Y-85009362D01*
G37*
G36*
X175726598Y-90881109D02*
G01*
X175194590Y-90881109D01*
X175184894Y-90231879D01*
X175175198Y-89582650D01*
X174508181Y-89572971D01*
X173841164Y-89563293D01*
X173841164Y-89031249D01*
X175192985Y-89031249D01*
X175192985Y-88248616D01*
X173770016Y-88248616D01*
X173770016Y-87715003D01*
X175726598Y-87715003D01*
X175726598Y-90881109D01*
G37*
G36*
X184154243Y-90228928D02*
G01*
X184156560Y-90332069D01*
X184160669Y-90445590D01*
X184176623Y-90596037D01*
X184206874Y-90767312D01*
X184253859Y-90970949D01*
X184320012Y-91218482D01*
X184407771Y-91521445D01*
X184438149Y-91624292D01*
X184522927Y-91920864D01*
X184588076Y-92168607D01*
X184636576Y-92381541D01*
X184671411Y-92573683D01*
X184695562Y-92759055D01*
X184712012Y-92951674D01*
X184708425Y-93310615D01*
X184642123Y-93673439D01*
X184512514Y-94008478D01*
X184320975Y-94310947D01*
X184239777Y-94410890D01*
X184156956Y-94501523D01*
X184061930Y-94591928D01*
X183943186Y-94692376D01*
X183789214Y-94813136D01*
X183588503Y-94964480D01*
X183464801Y-95057317D01*
X183327856Y-95161324D01*
X183215416Y-95248032D01*
X183143825Y-95304929D01*
X183037103Y-95393216D01*
X183025348Y-95302033D01*
X183028194Y-95244385D01*
X183067783Y-95116219D01*
X183144858Y-94954527D01*
X183252912Y-94770998D01*
X183385436Y-94577317D01*
X183535923Y-94385171D01*
X183634250Y-94264004D01*
X183819022Y-94000805D01*
X183950960Y-93744944D01*
X184036716Y-93478050D01*
X184082942Y-93181756D01*
X184096289Y-92837692D01*
X184087875Y-92575711D01*
X184057612Y-92278814D01*
X184002002Y-91949433D01*
X183994567Y-91910631D01*
X183931464Y-91491792D01*
X183907724Y-91117018D01*
X183923428Y-90791321D01*
X183978659Y-90519714D01*
X184017521Y-90405776D01*
X184063815Y-90292881D01*
X184102037Y-90222480D01*
X184125186Y-90194028D01*
X184145528Y-90186417D01*
X184154243Y-90228928D01*
G37*
G36*
X159550265Y-94238980D02*
G01*
X159600328Y-94390195D01*
X159632830Y-94492328D01*
X159644749Y-94536361D01*
X159619170Y-94567449D01*
X159543529Y-94580829D01*
X159534015Y-94580756D01*
X159480118Y-94572908D01*
X159440624Y-94541637D01*
X159403592Y-94472137D01*
X159357083Y-94349597D01*
X159274153Y-94118364D01*
X158383525Y-94118364D01*
X158300596Y-94349597D01*
X158284901Y-94393029D01*
X158243288Y-94497446D01*
X158207505Y-94553660D01*
X158164849Y-94576510D01*
X158102618Y-94580829D01*
X157987569Y-94580829D01*
X158233563Y-93860613D01*
X158482047Y-93860613D01*
X158492157Y-93881715D01*
X158546803Y-93895370D01*
X158654817Y-93902722D01*
X158825033Y-93904919D01*
X158931814Y-93903711D01*
X159062363Y-93898246D01*
X159151784Y-93889385D01*
X159185071Y-93878238D01*
X159184591Y-93873281D01*
X159169217Y-93815489D01*
X159135951Y-93711108D01*
X159089862Y-93574394D01*
X159036017Y-93419600D01*
X158979483Y-93260982D01*
X158925328Y-93112793D01*
X158878620Y-92989288D01*
X158844427Y-92904722D01*
X158827816Y-92873347D01*
X158824242Y-92877040D01*
X158800732Y-92928782D01*
X158761508Y-93032065D01*
X158711057Y-93174732D01*
X158653867Y-93344625D01*
X158636518Y-93397300D01*
X158580592Y-93566577D01*
X158533176Y-93709320D01*
X158498828Y-93811842D01*
X158482107Y-93860451D01*
X158482047Y-93860613D01*
X158233563Y-93860613D01*
X158668755Y-92586469D01*
X158985235Y-92606459D01*
X159313843Y-93549176D01*
X159324939Y-93581030D01*
X159409547Y-93825380D01*
X159427644Y-93878238D01*
X159485664Y-94047702D01*
X159550265Y-94238980D01*
G37*
G36*
X160657209Y-88359502D02*
G01*
X160747676Y-88373617D01*
X160833845Y-88405158D01*
X160940225Y-88458640D01*
X161044995Y-88513350D01*
X161124520Y-88553464D01*
X161158707Y-88568784D01*
X161171230Y-88546194D01*
X161191347Y-88479849D01*
X161193072Y-88473119D01*
X161211277Y-88427794D01*
X161247375Y-88403145D01*
X161319110Y-88392931D01*
X161444223Y-88390913D01*
X161674778Y-88390913D01*
X161674778Y-90881109D01*
X161142365Y-90881109D01*
X161132871Y-89965073D01*
X161123377Y-89049036D01*
X160964649Y-88968994D01*
X160949803Y-88961808D01*
X160792176Y-88911206D01*
X160617337Y-88890348D01*
X160452019Y-88900347D01*
X160322957Y-88942314D01*
X160256251Y-88977584D01*
X160213604Y-88994414D01*
X160210321Y-88992399D01*
X160186779Y-88946812D01*
X160150992Y-88853351D01*
X160109308Y-88728220D01*
X160086190Y-88652119D01*
X160056022Y-88532281D01*
X160050279Y-88458957D01*
X160067173Y-88419022D01*
X160080085Y-88411131D01*
X160155135Y-88391029D01*
X160274952Y-88373939D01*
X160420488Y-88362888D01*
X160537934Y-88358298D01*
X160657209Y-88359502D01*
G37*
G36*
X163524638Y-94580829D02*
G01*
X163311192Y-94580829D01*
X163311192Y-93332252D01*
X163160002Y-93263625D01*
X163136428Y-93253290D01*
X162946440Y-93199624D01*
X162781369Y-93208314D01*
X162646159Y-93279209D01*
X162546346Y-93364985D01*
X162523874Y-94580829D01*
X162315114Y-94580829D01*
X162315114Y-93992712D01*
X162315297Y-93912999D01*
X162319077Y-93671957D01*
X162328133Y-93492310D01*
X162342989Y-93366557D01*
X162364164Y-93287200D01*
X162394064Y-93227281D01*
X162508284Y-93096512D01*
X162660442Y-93017506D01*
X162838160Y-92994985D01*
X163029061Y-93033667D01*
X163031084Y-93034409D01*
X163158626Y-93081928D01*
X163240400Y-93105373D01*
X163286475Y-93095356D01*
X163306919Y-93042494D01*
X163311802Y-92937401D01*
X163311192Y-92770692D01*
X163311192Y-92410801D01*
X163524638Y-92410801D01*
X163524638Y-94580829D01*
G37*
G36*
X158967329Y-88373129D02*
G01*
X159131240Y-88374793D01*
X159245299Y-88382294D01*
X159329652Y-88399676D01*
X159404442Y-88430984D01*
X159489817Y-88480262D01*
X159538650Y-88512706D01*
X159694910Y-88666342D01*
X159791721Y-88856409D01*
X159824918Y-89075504D01*
X159797373Y-89285717D01*
X159710734Y-89470269D01*
X159568001Y-89612758D01*
X159372250Y-89708876D01*
X159326258Y-89723826D01*
X159134651Y-89789299D01*
X158998299Y-89843675D01*
X158905899Y-89892748D01*
X158846148Y-89942310D01*
X158807743Y-89998152D01*
X158798051Y-90018761D01*
X158777849Y-90146334D01*
X158822237Y-90262606D01*
X158925885Y-90351633D01*
X158974090Y-90371258D01*
X159117701Y-90395557D01*
X159290686Y-90393913D01*
X159468072Y-90367541D01*
X159624888Y-90317653D01*
X159693143Y-90287870D01*
X159774462Y-90253970D01*
X159811653Y-90240773D01*
X159812724Y-90241628D01*
X159818908Y-90283795D01*
X159823268Y-90376838D01*
X159824918Y-90503224D01*
X159822566Y-90639477D01*
X159807006Y-90740774D01*
X159765937Y-90805124D01*
X159687069Y-90850583D01*
X159558111Y-90895209D01*
X159530079Y-90903522D01*
X159313542Y-90936770D01*
X159079122Y-90928353D01*
X158847859Y-90882220D01*
X158640796Y-90802321D01*
X158478972Y-90692607D01*
X158426087Y-90635997D01*
X158320216Y-90463832D01*
X158252885Y-90262902D01*
X158230395Y-90056794D01*
X158259042Y-89869090D01*
X158279084Y-89814557D01*
X158355406Y-89678003D01*
X158468249Y-89564425D01*
X158629063Y-89464087D01*
X158849302Y-89367254D01*
X158970936Y-89317858D01*
X159125646Y-89242478D01*
X159221651Y-89172710D01*
X159265830Y-89102932D01*
X159265063Y-89027523D01*
X159239949Y-88979424D01*
X159152864Y-88914311D01*
X159024379Y-88871124D01*
X158871821Y-88852923D01*
X158712516Y-88862766D01*
X158563792Y-88903712D01*
X158545347Y-88911082D01*
X158465654Y-88934559D01*
X158422637Y-88933357D01*
X158422587Y-88933306D01*
X158412189Y-88889503D01*
X158404776Y-88795029D01*
X158401949Y-88670256D01*
X158402063Y-88617386D01*
X158405565Y-88509767D01*
X158418767Y-88449466D01*
X158448046Y-88418900D01*
X158499778Y-88400484D01*
X158536886Y-88393470D01*
X158645546Y-88383005D01*
X158792307Y-88375805D01*
X158956203Y-88373126D01*
X158967329Y-88373129D01*
G37*
G36*
X156383111Y-92708547D02*
G01*
X156438991Y-92721304D01*
X156507621Y-92730483D01*
X156512491Y-92731086D01*
X156541701Y-92772753D01*
X156552089Y-92873266D01*
X156552120Y-92885658D01*
X156558257Y-92971162D01*
X156583725Y-93007796D01*
X156641024Y-93015563D01*
X156679699Y-93018112D01*
X156720388Y-93046014D01*
X156729960Y-93122286D01*
X156727836Y-93168695D01*
X156704584Y-93217522D01*
X156641024Y-93229008D01*
X156552089Y-93229008D01*
X156552089Y-93615469D01*
X156550817Y-93767637D01*
X156540849Y-93999371D01*
X156518931Y-94177494D01*
X156482630Y-94313064D01*
X156429508Y-94417142D01*
X156357130Y-94500787D01*
X156270327Y-94571387D01*
X156181119Y-94607611D01*
X156059880Y-94616403D01*
X156012298Y-94615158D01*
X155881772Y-94601836D01*
X155778430Y-94578627D01*
X155718811Y-94553915D01*
X155686771Y-94514584D01*
X155697112Y-94445223D01*
X155727054Y-94383213D01*
X155773489Y-94365057D01*
X155793078Y-94369798D01*
X155876971Y-94382937D01*
X155986778Y-94394833D01*
X156008084Y-94396589D01*
X156106803Y-94397060D01*
X156169911Y-94372348D01*
X156226904Y-94312320D01*
X156252207Y-94276749D01*
X156275130Y-94227712D01*
X156289949Y-94161146D01*
X156298391Y-94063648D01*
X156302188Y-93921817D01*
X156303069Y-93722250D01*
X156303069Y-93229008D01*
X155876178Y-93229008D01*
X155876178Y-93015563D01*
X156303069Y-93015563D01*
X156303069Y-92851330D01*
X156303541Y-92796276D01*
X156310906Y-92725243D01*
X156334402Y-92701400D01*
X156383111Y-92708547D01*
G37*
G36*
X161926946Y-93836826D02*
G01*
X161896543Y-94084493D01*
X161819826Y-94282191D01*
X161693605Y-94435857D01*
X161514694Y-94551425D01*
X161448761Y-94578756D01*
X161320814Y-94605415D01*
X161158951Y-94604212D01*
X161020884Y-94589305D01*
X160868156Y-94550888D01*
X160778887Y-94491923D01*
X160749848Y-94410886D01*
X160750868Y-94380775D01*
X160770260Y-94340624D01*
X160829890Y-94349207D01*
X160892949Y-94363008D01*
X161008603Y-94379426D01*
X161143029Y-94392548D01*
X161146864Y-94392837D01*
X161275560Y-94399646D01*
X161359540Y-94392123D01*
X161424144Y-94364350D01*
X161494715Y-94310407D01*
X161514948Y-94292350D01*
X161601844Y-94193804D01*
X161661828Y-94094487D01*
X161692760Y-94018426D01*
X161710108Y-93954916D01*
X161699771Y-93912618D01*
X161653055Y-93887222D01*
X161561269Y-93874417D01*
X161415720Y-93869894D01*
X161207716Y-93869344D01*
X160705080Y-93869344D01*
X160725933Y-93655899D01*
X160953925Y-93655899D01*
X161705385Y-93655899D01*
X161675282Y-93550936D01*
X161649685Y-93478450D01*
X161564851Y-93340140D01*
X161455509Y-93247829D01*
X161334030Y-93202330D01*
X161212787Y-93204460D01*
X161104152Y-93255032D01*
X161020498Y-93354862D01*
X160974197Y-93504764D01*
X160953925Y-93655899D01*
X160725933Y-93655899D01*
X160730278Y-93611431D01*
X160750015Y-93468531D01*
X160779161Y-93331968D01*
X160810820Y-93236335D01*
X160899541Y-93120482D01*
X161035408Y-93038942D01*
X161199976Y-92998492D01*
X161377139Y-93000850D01*
X161550789Y-93047738D01*
X161704819Y-93140876D01*
X161726278Y-93160019D01*
X161838476Y-93313822D01*
X161905499Y-93520922D01*
X161916982Y-93655899D01*
X161927750Y-93782481D01*
X161926946Y-93836826D01*
G37*
G36*
X164253909Y-89636011D02*
G01*
X164253655Y-89744028D01*
X164250457Y-89893112D01*
X164240650Y-90002086D01*
X164220607Y-90090867D01*
X164186702Y-90179372D01*
X164135311Y-90287519D01*
X164135048Y-90288053D01*
X163983007Y-90524835D01*
X163784855Y-90709517D01*
X163538049Y-90843924D01*
X163240044Y-90929882D01*
X163183597Y-90937308D01*
X163023845Y-90939668D01*
X162836837Y-90925278D01*
X162650556Y-90896862D01*
X162492985Y-90857145D01*
X162297327Y-90792174D01*
X162286602Y-90564688D01*
X162285184Y-90533900D01*
X162281770Y-90389596D01*
X162292346Y-90305440D01*
X162324359Y-90272183D01*
X162385256Y-90280575D01*
X162482481Y-90321367D01*
X162516798Y-90336049D01*
X162727477Y-90392258D01*
X162953127Y-90405209D01*
X163169553Y-90375404D01*
X163352564Y-90303343D01*
X163450167Y-90234284D01*
X163560580Y-90124183D01*
X163637843Y-90008955D01*
X163666935Y-89907512D01*
X163666917Y-89906188D01*
X163659773Y-89887100D01*
X163633740Y-89872795D01*
X163580107Y-89862599D01*
X163490165Y-89855840D01*
X163355206Y-89851845D01*
X163166520Y-89849942D01*
X162915399Y-89849457D01*
X162163864Y-89849457D01*
X162181504Y-89449246D01*
X162181794Y-89442735D01*
X162187292Y-89362649D01*
X162670856Y-89362649D01*
X162674029Y-89380440D01*
X162694481Y-89399051D01*
X162743288Y-89411277D01*
X162831145Y-89418410D01*
X162968750Y-89421742D01*
X163166796Y-89422566D01*
X163226691Y-89422345D01*
X163400186Y-89419044D01*
X163542753Y-89412397D01*
X163640988Y-89403194D01*
X163681487Y-89392226D01*
X163683574Y-89387999D01*
X163677517Y-89326525D01*
X163636363Y-89234517D01*
X163572035Y-89131374D01*
X163496455Y-89036496D01*
X163421548Y-88969281D01*
X163403789Y-88958109D01*
X163243806Y-88899215D01*
X163072324Y-88896328D01*
X162915715Y-88950430D01*
X162834997Y-89023176D01*
X162755123Y-89135668D01*
X162694752Y-89258351D01*
X162670856Y-89362649D01*
X162187292Y-89362649D01*
X162197569Y-89212930D01*
X162224923Y-89036342D01*
X162269250Y-88895724D01*
X162335942Y-88773828D01*
X162430395Y-88653407D01*
X162458122Y-88623375D01*
X162647957Y-88477470D01*
X162876887Y-88386969D01*
X163135878Y-88355686D01*
X163306346Y-88365508D01*
X163568552Y-88429667D01*
X163793576Y-88554271D01*
X163982645Y-88740092D01*
X164136986Y-88987906D01*
X164166535Y-89048767D01*
X164207541Y-89143050D01*
X164233199Y-89229063D01*
X164247093Y-89326659D01*
X164249807Y-89387999D01*
X164252802Y-89455691D01*
X164253909Y-89636011D01*
G37*
G36*
X184200610Y-87345680D02*
G01*
X184173942Y-87454425D01*
X184156069Y-87514747D01*
X184107557Y-87694351D01*
X184048198Y-87930688D01*
X183980035Y-88214770D01*
X183905110Y-88537611D01*
X183825463Y-88890223D01*
X183743138Y-89263619D01*
X183660175Y-89648813D01*
X183578617Y-90036817D01*
X183500504Y-90418644D01*
X183419842Y-90802305D01*
X183336853Y-91154854D01*
X183253472Y-91459220D01*
X183165852Y-91727090D01*
X183070150Y-91970151D01*
X182962518Y-92200088D01*
X182839112Y-92428588D01*
X182824136Y-92454873D01*
X182729147Y-92626701D01*
X182643992Y-92788887D01*
X182577477Y-92924238D01*
X182538410Y-93015563D01*
X182532196Y-93035245D01*
X182506997Y-93145826D01*
X182479790Y-93304161D01*
X182453462Y-93492096D01*
X182430902Y-93691473D01*
X182416318Y-93836077D01*
X182389775Y-94075721D01*
X182363880Y-94261678D01*
X182335544Y-94405429D01*
X182301680Y-94518457D01*
X182259201Y-94612245D01*
X182205019Y-94698276D01*
X182136047Y-94788031D01*
X182091652Y-94841540D01*
X181834821Y-95110227D01*
X181557188Y-95339341D01*
X181269504Y-95521876D01*
X180982521Y-95650827D01*
X180706991Y-95719189D01*
X180625941Y-95730374D01*
X180539557Y-95743229D01*
X180502439Y-95750114D01*
X180499839Y-95735879D01*
X180496592Y-95664957D01*
X180494370Y-95547743D01*
X180493545Y-95399036D01*
X180493545Y-95043294D01*
X180666855Y-95043294D01*
X180793849Y-95034192D01*
X180988535Y-95000705D01*
X181210045Y-94947490D01*
X181442202Y-94879728D01*
X181668831Y-94802603D01*
X181873754Y-94721298D01*
X182040795Y-94640995D01*
X182153779Y-94566877D01*
X182241477Y-94491443D01*
X182184855Y-94242497D01*
X182156175Y-94132645D01*
X182058579Y-93882503D01*
X181929697Y-93678766D01*
X181775955Y-93532593D01*
X181711447Y-93491414D01*
X181620480Y-93451245D01*
X181510143Y-93428296D01*
X181354575Y-93415372D01*
X181191414Y-93414129D01*
X180981220Y-93426817D01*
X180787033Y-93451689D01*
X180493545Y-93503131D01*
X180493545Y-91238492D01*
X180576030Y-91184446D01*
X180680925Y-91137309D01*
X180814724Y-91128579D01*
X180987468Y-91162915D01*
X180997294Y-91165621D01*
X181152589Y-91190153D01*
X181280425Y-91164214D01*
X181406840Y-91082832D01*
X181484466Y-91023225D01*
X181571607Y-90978481D01*
X181635506Y-90985505D01*
X181689350Y-91042410D01*
X181689575Y-91042753D01*
X181719163Y-91095919D01*
X181724667Y-91145974D01*
X181703144Y-91214980D01*
X181651650Y-91325001D01*
X181606082Y-91409930D01*
X181532424Y-91511644D01*
X181436127Y-91600562D01*
X181302585Y-91689417D01*
X181117191Y-91790943D01*
X181053300Y-91826597D01*
X180875747Y-91965364D01*
X180763969Y-92127785D01*
X180719028Y-92311807D01*
X180741987Y-92515379D01*
X180758886Y-92567668D01*
X180860021Y-92744303D01*
X181014721Y-92896141D01*
X181209916Y-93012450D01*
X181432539Y-93082497D01*
X181603100Y-93097346D01*
X181800686Y-93060307D01*
X181994634Y-92957370D01*
X182011837Y-92945182D01*
X182130218Y-92840981D01*
X182227193Y-92710020D01*
X182311806Y-92537581D01*
X182393102Y-92308943D01*
X182394615Y-92304178D01*
X182460854Y-92121911D01*
X182544954Y-91924861D01*
X182629095Y-91754865D01*
X182648076Y-91720026D01*
X182754505Y-91511113D01*
X182841640Y-91309303D01*
X182916387Y-91095156D01*
X182985651Y-90849230D01*
X183056338Y-90552085D01*
X183089349Y-90406150D01*
X183214516Y-89879442D01*
X183340767Y-89388486D01*
X183466532Y-88938238D01*
X183590238Y-88533657D01*
X183710314Y-88179700D01*
X183825187Y-87881325D01*
X183933288Y-87643488D01*
X184033043Y-87471148D01*
X184088286Y-87394458D01*
X184156828Y-87315809D01*
X184194588Y-87299512D01*
X184200610Y-87345680D01*
G37*
G36*
X168527923Y-88373884D02*
G01*
X168670085Y-88380062D01*
X168778048Y-88395811D01*
X168874626Y-88425087D01*
X168982632Y-88471846D01*
X169113287Y-88525846D01*
X169195726Y-88538865D01*
X169238604Y-88509145D01*
X169251544Y-88435381D01*
X169275180Y-88410844D01*
X169356151Y-88395701D01*
X169501108Y-88390913D01*
X169750128Y-88390913D01*
X169750128Y-90881109D01*
X169180940Y-90881109D01*
X169180940Y-89027619D01*
X169047537Y-88967571D01*
X169016002Y-88954863D01*
X168868156Y-88919095D01*
X168696248Y-88904148D01*
X168523414Y-88909640D01*
X168372790Y-88935190D01*
X168267512Y-88980417D01*
X168257453Y-88987859D01*
X168191427Y-89042474D01*
X168140437Y-89101878D01*
X168102560Y-89175546D01*
X168075875Y-89272957D01*
X168058461Y-89403589D01*
X168048394Y-89576919D01*
X168043755Y-89802424D01*
X168042620Y-90089583D01*
X168042565Y-90881109D01*
X167508951Y-90881109D01*
X167508951Y-88968225D01*
X167608354Y-88777948D01*
X167628606Y-88740796D01*
X167736846Y-88593519D01*
X167881264Y-88480398D01*
X167887602Y-88476487D01*
X167970858Y-88428490D01*
X168044993Y-88398200D01*
X168130070Y-88381573D01*
X168246153Y-88374564D01*
X168413305Y-88373126D01*
X168527923Y-88373884D01*
G37*
G36*
X170716237Y-93821089D02*
G01*
X170687489Y-94073021D01*
X170610495Y-94275549D01*
X170482695Y-94433431D01*
X170301528Y-94551425D01*
X170235596Y-94578756D01*
X170107649Y-94605415D01*
X169945786Y-94604212D01*
X169807719Y-94589305D01*
X169654991Y-94550888D01*
X169565721Y-94491923D01*
X169536682Y-94410886D01*
X169537703Y-94380775D01*
X169557094Y-94340624D01*
X169616725Y-94349207D01*
X169679784Y-94363008D01*
X169795438Y-94379426D01*
X169929864Y-94392548D01*
X169933698Y-94392837D01*
X170062395Y-94399646D01*
X170146374Y-94392123D01*
X170210978Y-94364350D01*
X170281550Y-94310407D01*
X170301783Y-94292350D01*
X170388678Y-94193804D01*
X170448663Y-94094487D01*
X170479410Y-94018912D01*
X170496914Y-93955206D01*
X170486753Y-93912773D01*
X170440232Y-93887291D01*
X170348653Y-93874440D01*
X170203321Y-93869898D01*
X169995537Y-93869344D01*
X169493887Y-93869344D01*
X169514592Y-93655899D01*
X169740760Y-93655899D01*
X170121371Y-93655899D01*
X170234428Y-93655770D01*
X170363632Y-93653865D01*
X170440843Y-93647560D01*
X170477826Y-93634216D01*
X170486346Y-93611195D01*
X170478166Y-93575857D01*
X170458949Y-93523817D01*
X170391005Y-93402089D01*
X170304963Y-93295708D01*
X170220464Y-93230963D01*
X170169253Y-93211571D01*
X170025860Y-93199608D01*
X169902106Y-93249206D01*
X169809870Y-93353284D01*
X169761031Y-93504764D01*
X169740760Y-93655899D01*
X169514592Y-93655899D01*
X169518906Y-93611431D01*
X169538448Y-93468531D01*
X169567238Y-93331968D01*
X169598462Y-93236335D01*
X169688128Y-93119062D01*
X169823728Y-93038283D01*
X169987964Y-92998357D01*
X170164752Y-93001000D01*
X170338010Y-93047934D01*
X170491654Y-93140876D01*
X170509664Y-93156812D01*
X170623517Y-93310894D01*
X170692647Y-93519152D01*
X170701077Y-93611195D01*
X170716552Y-93780159D01*
X170716237Y-93821089D01*
G37*
G36*
X157256639Y-93040422D02*
G01*
X157392691Y-93126615D01*
X157474842Y-93203791D01*
X157510624Y-93109677D01*
X157547531Y-93048620D01*
X157618435Y-93015563D01*
X157639998Y-93017467D01*
X157658218Y-93029277D01*
X157671425Y-93059748D01*
X157680426Y-93117628D01*
X157686025Y-93211665D01*
X157689028Y-93350607D01*
X157690239Y-93543201D01*
X157690464Y-93798196D01*
X157690464Y-94580829D01*
X157477019Y-94580829D01*
X157475887Y-94002748D01*
X157475861Y-93989585D01*
X157474486Y-93765458D01*
X157469544Y-93600231D01*
X157458182Y-93482250D01*
X157437543Y-93399860D01*
X157404774Y-93341406D01*
X157357019Y-93295235D01*
X157291424Y-93249691D01*
X157274873Y-93239451D01*
X157175836Y-93204546D01*
X157051308Y-93211022D01*
X157039208Y-93213035D01*
X156950761Y-93221825D01*
X156904600Y-93204238D01*
X156876443Y-93152092D01*
X156871615Y-93139031D01*
X156856217Y-93067521D01*
X156886446Y-93028831D01*
X156974965Y-93003915D01*
X157095153Y-92999045D01*
X157256639Y-93040422D01*
G37*
G36*
X173019029Y-87408997D02*
G01*
X173047005Y-87412599D01*
X173179952Y-87425283D01*
X173294729Y-87430409D01*
X173414274Y-87430409D01*
X173414274Y-90881109D01*
X172881982Y-90881109D01*
X172872428Y-89134347D01*
X172862873Y-87387584D01*
X173019029Y-87408997D01*
G37*
G36*
X174288752Y-92709376D02*
G01*
X174317246Y-92718490D01*
X174395474Y-92730969D01*
X174405025Y-92732167D01*
X174436119Y-92771946D01*
X174445926Y-92873266D01*
X174445958Y-92885658D01*
X174452094Y-92971162D01*
X174477562Y-93007796D01*
X174534862Y-93015563D01*
X174573536Y-93018112D01*
X174614225Y-93046014D01*
X174623797Y-93122286D01*
X174621911Y-93166164D01*
X174599521Y-93216829D01*
X174538125Y-93229008D01*
X174452452Y-93229008D01*
X174439715Y-93753728D01*
X174438713Y-93792682D01*
X174428654Y-94031845D01*
X174411222Y-94212218D01*
X174383297Y-94344546D01*
X174341757Y-94439574D01*
X174283483Y-94508049D01*
X174205353Y-94560716D01*
X174195847Y-94565611D01*
X174088085Y-94598792D01*
X173958637Y-94610970D01*
X173825909Y-94604229D01*
X173708313Y-94580653D01*
X173624255Y-94542323D01*
X173592145Y-94491323D01*
X173603615Y-94404185D01*
X173648756Y-94360835D01*
X173734275Y-94372656D01*
X173735430Y-94373057D01*
X173895255Y-94400498D01*
X174034595Y-94370468D01*
X174139046Y-94286048D01*
X174150848Y-94269326D01*
X174178246Y-94217282D01*
X174197458Y-94148803D01*
X174210559Y-94050209D01*
X174219623Y-93907823D01*
X174226726Y-93707967D01*
X174240722Y-93229008D01*
X173770016Y-93229008D01*
X173770016Y-93015563D01*
X174232481Y-93015563D01*
X174232481Y-92851673D01*
X174232488Y-92845581D01*
X174237080Y-92748826D01*
X174253972Y-92708136D01*
X174288752Y-92709376D01*
G37*
G36*
X164505839Y-92709376D02*
G01*
X164534332Y-92718490D01*
X164612561Y-92730969D01*
X164622112Y-92732167D01*
X164653206Y-92771946D01*
X164663013Y-92873266D01*
X164663045Y-92885658D01*
X164669181Y-92971162D01*
X164694649Y-93007796D01*
X164751949Y-93015563D01*
X164790623Y-93018112D01*
X164831312Y-93046014D01*
X164840884Y-93122286D01*
X164838942Y-93166780D01*
X164816351Y-93216998D01*
X164754453Y-93229008D01*
X164668021Y-93229008D01*
X164656624Y-93777939D01*
X164651468Y-93986610D01*
X164644768Y-94142531D01*
X164634994Y-94252027D01*
X164620488Y-94327620D01*
X164599592Y-94381827D01*
X164570648Y-94427168D01*
X164570167Y-94427814D01*
X164492521Y-94511219D01*
X164410564Y-94571411D01*
X164367057Y-94588895D01*
X164227566Y-94612535D01*
X164067384Y-94608476D01*
X163918520Y-94576393D01*
X163854067Y-94549622D01*
X163820096Y-94510009D01*
X163827167Y-94443062D01*
X163832701Y-94421262D01*
X163855935Y-94352815D01*
X163887216Y-94338208D01*
X163946143Y-94364501D01*
X163948882Y-94365938D01*
X164062688Y-94397330D01*
X164195495Y-94398201D01*
X164305868Y-94368135D01*
X164358698Y-94322221D01*
X164400983Y-94235870D01*
X164429098Y-94103585D01*
X164444731Y-93917158D01*
X164449568Y-93668378D01*
X164449568Y-93229008D01*
X164022677Y-93229008D01*
X164022677Y-93015563D01*
X164449568Y-93015563D01*
X164449568Y-92851673D01*
X164449575Y-92845581D01*
X164454167Y-92748826D01*
X164471058Y-92708136D01*
X164505839Y-92709376D01*
G37*
G36*
X175440590Y-92570522D02*
G01*
X175633041Y-92627543D01*
X175784164Y-92735358D01*
X175805279Y-92758380D01*
X175855559Y-92832802D01*
X175883280Y-92925331D01*
X175897620Y-93062425D01*
X175902230Y-93161043D01*
X175896617Y-93255992D01*
X175871556Y-93324941D01*
X175821053Y-93393833D01*
X175750071Y-93459915D01*
X175634888Y-93543050D01*
X175506088Y-93619309D01*
X175453754Y-93647100D01*
X175272472Y-93751764D01*
X175148519Y-93841283D01*
X175073892Y-93922225D01*
X175040586Y-94001155D01*
X175036811Y-94026845D01*
X175051911Y-94165506D01*
X175118170Y-94286318D01*
X175223543Y-94365306D01*
X175232580Y-94368714D01*
X175336623Y-94388390D01*
X175480188Y-94395902D01*
X175636251Y-94391829D01*
X175777792Y-94376753D01*
X175877789Y-94351254D01*
X175906053Y-94342185D01*
X175933368Y-94359945D01*
X175940044Y-94433709D01*
X175936422Y-94487539D01*
X175905276Y-94543037D01*
X175824428Y-94578732D01*
X175665909Y-94603842D01*
X175474985Y-94599413D01*
X175285052Y-94568110D01*
X175128288Y-94512972D01*
X175090842Y-94492519D01*
X174947955Y-94374455D01*
X174864555Y-94219870D01*
X174837376Y-94023264D01*
X174838420Y-93978979D01*
X174857228Y-93862536D01*
X174906604Y-93763112D01*
X174995623Y-93670375D01*
X175133361Y-93573994D01*
X175328890Y-93463635D01*
X175395245Y-93427329D01*
X175571999Y-93313517D01*
X175682317Y-93207126D01*
X175728800Y-93103323D01*
X175714049Y-92997273D01*
X175640664Y-92884143D01*
X175603422Y-92843733D01*
X175557426Y-92810796D01*
X175494983Y-92793005D01*
X175397861Y-92785727D01*
X175247832Y-92784330D01*
X175233669Y-92784330D01*
X175091095Y-92783462D01*
X175005085Y-92778187D01*
X174962129Y-92764452D01*
X174948719Y-92738206D01*
X174951343Y-92695395D01*
X174958039Y-92660506D01*
X174985183Y-92621659D01*
X175047839Y-92596318D01*
X175163672Y-92574418D01*
X175218132Y-92567229D01*
X175440590Y-92570522D01*
G37*
D11*
%TO.C,U5*%
X190760800Y-95709000D02*
X193300800Y-95709000D01*
X193300800Y-92407000D02*
X190887800Y-92407000D01*
D12*
X190424790Y-92280000D02*
G75*
G03*
X190424790Y-92280000I-171990J0D01*
G01*
D13*
%TO.C,U6*%
X191030800Y-96913000D02*
X193030800Y-96913000D01*
X191030800Y-99203000D02*
X193030800Y-99203000D01*
D14*
X193908800Y-97408000D02*
G75*
G03*
X193908800Y-97408000I-100000J0D01*
G01*
%TD*%
M02*
