%TF.GenerationSoftware,KiCad,Pcbnew,(6.0.8)*%
%TF.CreationDate,2023-02-07T11:28:49+01:00*%
%TF.ProjectId,MuMo-v2-Node,4d754d6f-2d76-4322-9d4e-6f64652e6b69,rev?*%
%TF.SameCoordinates,Original*%
%TF.FileFunction,Legend,Bot*%
%TF.FilePolarity,Positive*%
%FSLAX46Y46*%
G04 Gerber Fmt 4.6, Leading zero omitted, Abs format (unit mm)*
G04 Created by KiCad (PCBNEW (6.0.8)) date 2023-02-07 11:28:49*
%MOMM*%
%LPD*%
G01*
G04 APERTURE LIST*
%ADD10C,0.150000*%
%ADD11C,0.120000*%
%ADD12C,0.343981*%
%ADD13C,0.127000*%
%ADD14C,0.200000*%
G04 APERTURE END LIST*
D10*
X188137942Y-62760380D02*
X188137942Y-61760380D01*
X187709371Y-62760380D02*
X187709371Y-62236571D01*
X187756990Y-62141333D01*
X187852228Y-62093714D01*
X187995085Y-62093714D01*
X188090323Y-62141333D01*
X188137942Y-62188952D01*
X187376038Y-62093714D02*
X186995085Y-62093714D01*
X187233180Y-61760380D02*
X187233180Y-62617523D01*
X187185561Y-62712761D01*
X187090323Y-62760380D01*
X186995085Y-62760380D01*
X186804609Y-62093714D02*
X186423657Y-62093714D01*
X186661752Y-61760380D02*
X186661752Y-62617523D01*
X186614133Y-62712761D01*
X186518895Y-62760380D01*
X186423657Y-62760380D01*
X186090323Y-62093714D02*
X186090323Y-63093714D01*
X186090323Y-62141333D02*
X185995085Y-62093714D01*
X185804609Y-62093714D01*
X185709371Y-62141333D01*
X185661752Y-62188952D01*
X185614133Y-62284190D01*
X185614133Y-62569904D01*
X185661752Y-62665142D01*
X185709371Y-62712761D01*
X185804609Y-62760380D01*
X185995085Y-62760380D01*
X186090323Y-62712761D01*
X185233180Y-62712761D02*
X185137942Y-62760380D01*
X184947466Y-62760380D01*
X184852228Y-62712761D01*
X184804609Y-62617523D01*
X184804609Y-62569904D01*
X184852228Y-62474666D01*
X184947466Y-62427047D01*
X185090323Y-62427047D01*
X185185561Y-62379428D01*
X185233180Y-62284190D01*
X185233180Y-62236571D01*
X185185561Y-62141333D01*
X185090323Y-62093714D01*
X184947466Y-62093714D01*
X184852228Y-62141333D01*
X184376038Y-62665142D02*
X184328419Y-62712761D01*
X184376038Y-62760380D01*
X184423657Y-62712761D01*
X184376038Y-62665142D01*
X184376038Y-62760380D01*
X184376038Y-62141333D02*
X184328419Y-62188952D01*
X184376038Y-62236571D01*
X184423657Y-62188952D01*
X184376038Y-62141333D01*
X184376038Y-62236571D01*
X183185561Y-61712761D02*
X184042704Y-62998476D01*
X182137942Y-61712761D02*
X182995085Y-62998476D01*
X181376038Y-62093714D02*
X181376038Y-62903238D01*
X181423657Y-62998476D01*
X181471276Y-63046095D01*
X181566514Y-63093714D01*
X181709371Y-63093714D01*
X181804609Y-63046095D01*
X181376038Y-62712761D02*
X181471276Y-62760380D01*
X181661752Y-62760380D01*
X181756990Y-62712761D01*
X181804609Y-62665142D01*
X181852228Y-62569904D01*
X181852228Y-62284190D01*
X181804609Y-62188952D01*
X181756990Y-62141333D01*
X181661752Y-62093714D01*
X181471276Y-62093714D01*
X181376038Y-62141333D01*
X180899847Y-62760380D02*
X180899847Y-62093714D01*
X180899847Y-61760380D02*
X180947466Y-61808000D01*
X180899847Y-61855619D01*
X180852228Y-61808000D01*
X180899847Y-61760380D01*
X180899847Y-61855619D01*
X180566514Y-62093714D02*
X180185561Y-62093714D01*
X180423657Y-61760380D02*
X180423657Y-62617523D01*
X180376038Y-62712761D01*
X180280800Y-62760380D01*
X180185561Y-62760380D01*
X179852228Y-62760380D02*
X179852228Y-61760380D01*
X179423657Y-62760380D02*
X179423657Y-62236571D01*
X179471276Y-62141333D01*
X179566514Y-62093714D01*
X179709371Y-62093714D01*
X179804609Y-62141333D01*
X179852228Y-62188952D01*
X178518895Y-62093714D02*
X178518895Y-62760380D01*
X178947466Y-62093714D02*
X178947466Y-62617523D01*
X178899847Y-62712761D01*
X178804609Y-62760380D01*
X178661752Y-62760380D01*
X178566514Y-62712761D01*
X178518895Y-62665142D01*
X178042704Y-62760380D02*
X178042704Y-61760380D01*
X178042704Y-62141333D02*
X177947466Y-62093714D01*
X177756990Y-62093714D01*
X177661752Y-62141333D01*
X177614133Y-62188952D01*
X177566514Y-62284190D01*
X177566514Y-62569904D01*
X177614133Y-62665142D01*
X177661752Y-62712761D01*
X177756990Y-62760380D01*
X177947466Y-62760380D01*
X178042704Y-62712761D01*
X177137942Y-62665142D02*
X177090323Y-62712761D01*
X177137942Y-62760380D01*
X177185561Y-62712761D01*
X177137942Y-62665142D01*
X177137942Y-62760380D01*
X176233180Y-62712761D02*
X176328419Y-62760380D01*
X176518895Y-62760380D01*
X176614133Y-62712761D01*
X176661752Y-62665142D01*
X176709371Y-62569904D01*
X176709371Y-62284190D01*
X176661752Y-62188952D01*
X176614133Y-62141333D01*
X176518895Y-62093714D01*
X176328419Y-62093714D01*
X176233180Y-62141333D01*
X175661752Y-62760380D02*
X175756990Y-62712761D01*
X175804609Y-62665142D01*
X175852228Y-62569904D01*
X175852228Y-62284190D01*
X175804609Y-62188952D01*
X175756990Y-62141333D01*
X175661752Y-62093714D01*
X175518895Y-62093714D01*
X175423657Y-62141333D01*
X175376038Y-62188952D01*
X175328419Y-62284190D01*
X175328419Y-62569904D01*
X175376038Y-62665142D01*
X175423657Y-62712761D01*
X175518895Y-62760380D01*
X175661752Y-62760380D01*
X174899847Y-62760380D02*
X174899847Y-62093714D01*
X174899847Y-62188952D02*
X174852228Y-62141333D01*
X174756990Y-62093714D01*
X174614133Y-62093714D01*
X174518895Y-62141333D01*
X174471276Y-62236571D01*
X174471276Y-62760380D01*
X174471276Y-62236571D02*
X174423657Y-62141333D01*
X174328419Y-62093714D01*
X174185561Y-62093714D01*
X174090323Y-62141333D01*
X174042704Y-62236571D01*
X174042704Y-62760380D01*
X172852228Y-61712761D02*
X173709371Y-62998476D01*
X172566514Y-62712761D02*
X172423657Y-62760380D01*
X172185561Y-62760380D01*
X172090323Y-62712761D01*
X172042704Y-62665142D01*
X171995085Y-62569904D01*
X171995085Y-62474666D01*
X172042704Y-62379428D01*
X172090323Y-62331809D01*
X172185561Y-62284190D01*
X172376038Y-62236571D01*
X172471276Y-62188952D01*
X172518895Y-62141333D01*
X172566514Y-62046095D01*
X172566514Y-61950857D01*
X172518895Y-61855619D01*
X172471276Y-61808000D01*
X172376038Y-61760380D01*
X172137942Y-61760380D01*
X171995085Y-61808000D01*
X171709371Y-62093714D02*
X171328419Y-62093714D01*
X171566514Y-61760380D02*
X171566514Y-62617523D01*
X171518895Y-62712761D01*
X171423657Y-62760380D01*
X171328419Y-62760380D01*
X170995085Y-62760380D02*
X170995085Y-62093714D01*
X170995085Y-62284190D02*
X170947466Y-62188952D01*
X170899847Y-62141333D01*
X170804609Y-62093714D01*
X170709371Y-62093714D01*
X170233180Y-62760380D02*
X170328419Y-62712761D01*
X170376038Y-62665142D01*
X170423657Y-62569904D01*
X170423657Y-62284190D01*
X170376038Y-62188952D01*
X170328419Y-62141333D01*
X170233180Y-62093714D01*
X170090323Y-62093714D01*
X169995085Y-62141333D01*
X169947466Y-62188952D01*
X169899847Y-62284190D01*
X169899847Y-62569904D01*
X169947466Y-62665142D01*
X169995085Y-62712761D01*
X170090323Y-62760380D01*
X170233180Y-62760380D01*
X169328419Y-62760380D02*
X169423657Y-62712761D01*
X169471276Y-62665142D01*
X169518895Y-62569904D01*
X169518895Y-62284190D01*
X169471276Y-62188952D01*
X169423657Y-62141333D01*
X169328419Y-62093714D01*
X169185561Y-62093714D01*
X169090323Y-62141333D01*
X169042704Y-62188952D01*
X168995085Y-62284190D01*
X168995085Y-62569904D01*
X169042704Y-62665142D01*
X169090323Y-62712761D01*
X169185561Y-62760380D01*
X169328419Y-62760380D01*
X168423657Y-62760380D02*
X168518895Y-62712761D01*
X168566514Y-62665142D01*
X168614133Y-62569904D01*
X168614133Y-62284190D01*
X168566514Y-62188952D01*
X168518895Y-62141333D01*
X168423657Y-62093714D01*
X168280800Y-62093714D01*
X168185561Y-62141333D01*
X168137942Y-62188952D01*
X168090323Y-62284190D01*
X168090323Y-62569904D01*
X168137942Y-62665142D01*
X168185561Y-62712761D01*
X168280800Y-62760380D01*
X168423657Y-62760380D01*
X167661752Y-62760380D02*
X167661752Y-62093714D01*
X167661752Y-62188952D02*
X167614133Y-62141333D01*
X167518895Y-62093714D01*
X167376038Y-62093714D01*
X167280800Y-62141333D01*
X167233180Y-62236571D01*
X167233180Y-62760380D01*
X167233180Y-62236571D02*
X167185561Y-62141333D01*
X167090323Y-62093714D01*
X166947466Y-62093714D01*
X166852228Y-62141333D01*
X166804609Y-62236571D01*
X166804609Y-62760380D01*
X165614133Y-61712761D02*
X166471276Y-62998476D01*
X165280800Y-62760380D02*
X165280800Y-61760380D01*
X164947466Y-62474666D01*
X164614133Y-61760380D01*
X164614133Y-62760380D01*
X163709371Y-62093714D02*
X163709371Y-62760380D01*
X164137942Y-62093714D02*
X164137942Y-62617523D01*
X164090323Y-62712761D01*
X163995085Y-62760380D01*
X163852228Y-62760380D01*
X163756990Y-62712761D01*
X163709371Y-62665142D01*
X163233180Y-62760380D02*
X163233180Y-61760380D01*
X162899847Y-62474666D01*
X162566514Y-61760380D01*
X162566514Y-62760380D01*
X161947466Y-62760380D02*
X162042704Y-62712761D01*
X162090323Y-62665142D01*
X162137942Y-62569904D01*
X162137942Y-62284190D01*
X162090323Y-62188952D01*
X162042704Y-62141333D01*
X161947466Y-62093714D01*
X161804609Y-62093714D01*
X161709371Y-62141333D01*
X161661752Y-62188952D01*
X161614133Y-62284190D01*
X161614133Y-62569904D01*
X161661752Y-62665142D01*
X161709371Y-62712761D01*
X161804609Y-62760380D01*
X161947466Y-62760380D01*
X161185561Y-62379428D02*
X160423657Y-62379428D01*
X160090323Y-61760380D02*
X159756990Y-62760380D01*
X159423657Y-61760380D01*
X159137942Y-61855619D02*
X159090323Y-61808000D01*
X158995085Y-61760380D01*
X158756990Y-61760380D01*
X158661752Y-61808000D01*
X158614133Y-61855619D01*
X158566514Y-61950857D01*
X158566514Y-62046095D01*
X158614133Y-62188952D01*
X159185561Y-62760380D01*
X158566514Y-62760380D01*
X158137942Y-62379428D02*
X157376038Y-62379428D01*
X156899847Y-62760380D02*
X156899847Y-61760380D01*
X156328419Y-62760380D01*
X156328419Y-61760380D01*
X155709371Y-62760380D02*
X155804609Y-62712761D01*
X155852228Y-62665142D01*
X155899847Y-62569904D01*
X155899847Y-62284190D01*
X155852228Y-62188952D01*
X155804609Y-62141333D01*
X155709371Y-62093714D01*
X155566514Y-62093714D01*
X155471276Y-62141333D01*
X155423657Y-62188952D01*
X155376038Y-62284190D01*
X155376038Y-62569904D01*
X155423657Y-62665142D01*
X155471276Y-62712761D01*
X155566514Y-62760380D01*
X155709371Y-62760380D01*
X154518895Y-62760380D02*
X154518895Y-61760380D01*
X154518895Y-62712761D02*
X154614133Y-62760380D01*
X154804609Y-62760380D01*
X154899847Y-62712761D01*
X154947466Y-62665142D01*
X154995085Y-62569904D01*
X154995085Y-62284190D01*
X154947466Y-62188952D01*
X154899847Y-62141333D01*
X154804609Y-62093714D01*
X154614133Y-62093714D01*
X154518895Y-62141333D01*
X153661752Y-62712761D02*
X153756990Y-62760380D01*
X153947466Y-62760380D01*
X154042704Y-62712761D01*
X154090323Y-62617523D01*
X154090323Y-62236571D01*
X154042704Y-62141333D01*
X153947466Y-62093714D01*
X153756990Y-62093714D01*
X153661752Y-62141333D01*
X153614133Y-62236571D01*
X153614133Y-62331809D01*
X154090323Y-62427047D01*
X153185561Y-62379428D02*
X152423657Y-62379428D01*
X151947466Y-62760380D02*
X151947466Y-61760380D01*
X151566514Y-61760380D01*
X151471276Y-61808000D01*
X151423657Y-61855619D01*
X151376038Y-61950857D01*
X151376038Y-62093714D01*
X151423657Y-62188952D01*
X151471276Y-62236571D01*
X151566514Y-62284190D01*
X151947466Y-62284190D01*
X150376038Y-62665142D02*
X150423657Y-62712761D01*
X150566514Y-62760380D01*
X150661752Y-62760380D01*
X150804609Y-62712761D01*
X150899847Y-62617523D01*
X150947466Y-62522285D01*
X150995085Y-62331809D01*
X150995085Y-62188952D01*
X150947466Y-61998476D01*
X150899847Y-61903238D01*
X150804609Y-61808000D01*
X150661752Y-61760380D01*
X150566514Y-61760380D01*
X150423657Y-61808000D01*
X150376038Y-61855619D01*
X149614133Y-62236571D02*
X149471276Y-62284190D01*
X149423657Y-62331809D01*
X149376038Y-62427047D01*
X149376038Y-62569904D01*
X149423657Y-62665142D01*
X149471276Y-62712761D01*
X149566514Y-62760380D01*
X149947466Y-62760380D01*
X149947466Y-61760380D01*
X149614133Y-61760380D01*
X149518895Y-61808000D01*
X149471276Y-61855619D01*
X149423657Y-61950857D01*
X149423657Y-62046095D01*
X149471276Y-62141333D01*
X149518895Y-62188952D01*
X149614133Y-62236571D01*
X149947466Y-62236571D01*
%TO.C,U5*%
X192792704Y-90944980D02*
X192792704Y-91754504D01*
X192745085Y-91849742D01*
X192697466Y-91897361D01*
X192602228Y-91944980D01*
X192411752Y-91944980D01*
X192316514Y-91897361D01*
X192268895Y-91849742D01*
X192221276Y-91754504D01*
X192221276Y-90944980D01*
X191268895Y-90944980D02*
X191745085Y-90944980D01*
X191792704Y-91421171D01*
X191745085Y-91373552D01*
X191649847Y-91325933D01*
X191411752Y-91325933D01*
X191316514Y-91373552D01*
X191268895Y-91421171D01*
X191221276Y-91516409D01*
X191221276Y-91754504D01*
X191268895Y-91849742D01*
X191316514Y-91897361D01*
X191411752Y-91944980D01*
X191649847Y-91944980D01*
X191745085Y-91897361D01*
X191792704Y-91849742D01*
%TO.C,U6*%
X192792704Y-99593180D02*
X192792704Y-100402704D01*
X192745085Y-100497942D01*
X192697466Y-100545561D01*
X192602228Y-100593180D01*
X192411752Y-100593180D01*
X192316514Y-100545561D01*
X192268895Y-100497942D01*
X192221276Y-100402704D01*
X192221276Y-99593180D01*
X191316514Y-99593180D02*
X191506990Y-99593180D01*
X191602228Y-99640800D01*
X191649847Y-99688419D01*
X191745085Y-99831276D01*
X191792704Y-100021752D01*
X191792704Y-100402704D01*
X191745085Y-100497942D01*
X191697466Y-100545561D01*
X191602228Y-100593180D01*
X191411752Y-100593180D01*
X191316514Y-100545561D01*
X191268895Y-100497942D01*
X191221276Y-100402704D01*
X191221276Y-100164609D01*
X191268895Y-100069371D01*
X191316514Y-100021752D01*
X191411752Y-99974133D01*
X191602228Y-99974133D01*
X191697466Y-100021752D01*
X191745085Y-100069371D01*
X191792704Y-100164609D01*
D11*
%TO.C,U5*%
X190760800Y-95709000D02*
X193300800Y-95709000D01*
X193300800Y-92407000D02*
X190887800Y-92407000D01*
D12*
X190424790Y-92280000D02*
G75*
G03*
X190424790Y-92280000I-171990J0D01*
G01*
D13*
%TO.C,U6*%
X191030800Y-96913000D02*
X193030800Y-96913000D01*
X191030800Y-99203000D02*
X193030800Y-99203000D01*
D14*
X193908800Y-97408000D02*
G75*
G03*
X193908800Y-97408000I-100000J0D01*
G01*
%TD*%
M02*
