%TF.GenerationSoftware,KiCad,Pcbnew,(6.0.8)*%
%TF.CreationDate,2023-02-20T11:38:59+01:00*%
%TF.ProjectId,MuMo-v2-Node,4d754d6f-2d76-4322-9d4e-6f64652e6b69,rev?*%
%TF.SameCoordinates,Original*%
%TF.FileFunction,Copper,L2,Bot*%
%TF.FilePolarity,Positive*%
%FSLAX46Y46*%
G04 Gerber Fmt 4.6, Leading zero omitted, Abs format (unit mm)*
G04 Created by KiCad (PCBNEW (6.0.8)) date 2023-02-20 11:38:59*
%MOMM*%
%LPD*%
G01*
G04 APERTURE LIST*
G04 Aperture macros list*
%AMRoundRect*
0 Rectangle with rounded corners*
0 $1 Rounding radius*
0 $2 $3 $4 $5 $6 $7 $8 $9 X,Y pos of 4 corners*
0 Add a 4 corners polygon primitive as box body*
4,1,4,$2,$3,$4,$5,$6,$7,$8,$9,$2,$3,0*
0 Add four circle primitives for the rounded corners*
1,1,$1+$1,$2,$3*
1,1,$1+$1,$4,$5*
1,1,$1+$1,$6,$7*
1,1,$1+$1,$8,$9*
0 Add four rect primitives between the rounded corners*
20,1,$1+$1,$2,$3,$4,$5,0*
20,1,$1+$1,$4,$5,$6,$7,0*
20,1,$1+$1,$6,$7,$8,$9,0*
20,1,$1+$1,$8,$9,$2,$3,0*%
G04 Aperture macros list end*
%TA.AperFunction,ComponentPad*%
%ADD10R,1.700000X1.700000*%
%TD*%
%TA.AperFunction,ComponentPad*%
%ADD11O,1.700000X1.700000*%
%TD*%
%TA.AperFunction,ComponentPad*%
%ADD12R,1.500000X1.500000*%
%TD*%
%TA.AperFunction,SMDPad,CuDef*%
%ADD13R,4.900000X1.600000*%
%TD*%
%TA.AperFunction,ComponentPad*%
%ADD14R,1.308000X1.308000*%
%TD*%
%TA.AperFunction,ComponentPad*%
%ADD15C,1.308000*%
%TD*%
%TA.AperFunction,ComponentPad*%
%ADD16RoundRect,0.250000X0.750000X-0.600000X0.750000X0.600000X-0.750000X0.600000X-0.750000X-0.600000X0*%
%TD*%
%TA.AperFunction,ComponentPad*%
%ADD17O,2.000000X1.700000*%
%TD*%
%TA.AperFunction,ComponentPad*%
%ADD18O,2.200000X1.100000*%
%TD*%
%TA.AperFunction,ComponentPad*%
%ADD19O,2.600000X1.400000*%
%TD*%
%TA.AperFunction,ComponentPad*%
%ADD20C,4.400000*%
%TD*%
%TA.AperFunction,SMDPad,CuDef*%
%ADD21RoundRect,0.125000X-0.137500X0.125000X-0.137500X-0.125000X0.137500X-0.125000X0.137500X0.125000X0*%
%TD*%
%TA.AperFunction,SMDPad,CuDef*%
%ADD22R,1.200000X0.350000*%
%TD*%
%TA.AperFunction,ViaPad*%
%ADD23C,0.800000*%
%TD*%
%TA.AperFunction,Conductor*%
%ADD24C,0.250000*%
%TD*%
%TA.AperFunction,Conductor*%
%ADD25C,0.500000*%
%TD*%
%TA.AperFunction,Conductor*%
%ADD26C,0.400000*%
%TD*%
%TA.AperFunction,Conductor*%
%ADD27C,0.200000*%
%TD*%
G04 APERTURE END LIST*
D10*
%TO.P,CONN1,1,Pin_1*%
%TO.N,+BATT*%
X163280800Y-67008000D03*
D11*
%TO.P,CONN1,2,Pin_2*%
%TO.N,GND*%
X163280800Y-69548000D03*
%TO.P,CONN1,3,Pin_3*%
%TO.N,SWDIO*%
X163280800Y-72088000D03*
%TO.P,CONN1,4,Pin_4*%
%TO.N,SWCLK*%
X163280800Y-74628000D03*
%TO.P,CONN1,5,Pin_5*%
%TO.N,SWO*%
X163280800Y-77168000D03*
%TD*%
D12*
%TO.P,TP2,1,1*%
%TO.N,+BATT*%
X144530800Y-95308000D03*
%TD*%
D13*
%TO.P,CONN5,2,Ext*%
%TO.N,GND*%
X192280800Y-86868000D03*
X192280800Y-78348000D03*
%TD*%
D14*
%TO.P,CONN6,1,1*%
%TO.N,UART1-RX*%
X174030800Y-60308000D03*
D15*
%TO.P,CONN6,2,2*%
%TO.N,UART1-TX*%
X176030800Y-60308000D03*
%TO.P,CONN6,3,3*%
%TO.N,+BATT*%
X178030800Y-60308000D03*
%TO.P,CONN6,4,4*%
%TO.N,GND*%
X180030800Y-60308000D03*
%TD*%
D16*
%TO.P,CONN2,1,BAT+*%
%TO.N,+BATT*%
X153030800Y-104308000D03*
D17*
%TO.P,CONN2,2,BAT-*%
%TO.N,GND*%
X153030800Y-101808000D03*
%TD*%
D18*
%TO.P,CONN4,S1,Shield*%
%TO.N,GND*%
X148960000Y-87124000D03*
D19*
X144960000Y-87124000D03*
D18*
X148960000Y-78484000D03*
D19*
X144960000Y-78484000D03*
%TD*%
D12*
%TO.P,TP1,1,1*%
%TO.N,GND*%
X144530800Y-98058000D03*
%TD*%
D14*
%TO.P,CONN8,1,1*%
%TO.N,I2C2-SCL*%
X152530800Y-60308000D03*
D15*
%TO.P,CONN8,2,2*%
%TO.N,I2C2-SDA*%
X154530800Y-60308000D03*
%TO.P,CONN8,3,3*%
%TO.N,+BATT*%
X156530800Y-60308000D03*
%TO.P,CONN8,4,4*%
%TO.N,GND*%
X158530800Y-60308000D03*
%TD*%
D20*
%TO.P,H2,1,1*%
%TO.N,GND*%
X192030800Y-104808000D03*
%TD*%
%TO.P,H3,1,1*%
%TO.N,GND*%
X146030800Y-60558000D03*
%TD*%
%TO.P,H1,1,1*%
%TO.N,GND*%
X192030800Y-60558000D03*
%TD*%
D12*
%TO.P,TP3,1,1*%
%TO.N,+5V*%
X144530800Y-89308000D03*
%TD*%
D20*
%TO.P,H4,1,1*%
%TO.N,GND*%
X146030800Y-104808000D03*
%TD*%
D14*
%TO.P,CONN7,1,1*%
%TO.N,I2C2-SCL*%
X163280800Y-60308000D03*
D15*
%TO.P,CONN7,2,2*%
%TO.N,I2C2-SDA*%
X165280800Y-60308000D03*
%TO.P,CONN7,3,3*%
%TO.N,+BATT*%
X167280800Y-60308000D03*
%TO.P,CONN7,4,4*%
%TO.N,GND*%
X169280800Y-60308000D03*
%TD*%
D21*
%TO.P,U5,1,GND*%
%TO.N,GND*%
X190843300Y-92858000D03*
%TO.P,U5,2,CSB*%
%TO.N,+BATT*%
X190843300Y-93658000D03*
%TO.P,U5,3,SDI*%
%TO.N,I2C2-SDA*%
X190843300Y-94458000D03*
%TO.P,U5,4,SCK*%
%TO.N,I2C2-SCL*%
X190843300Y-95258000D03*
%TO.P,U5,5,SDO*%
%TO.N,GND*%
X193218300Y-95258000D03*
%TO.P,U5,6,VDDIO*%
%TO.N,+BATT*%
X193218300Y-94458000D03*
%TO.P,U5,7,GND*%
%TO.N,GND*%
X193218300Y-93658000D03*
%TO.P,U5,8,VDD*%
%TO.N,+BATT*%
X193218300Y-92858000D03*
%TD*%
D22*
%TO.P,U6,1,SCL*%
%TO.N,I2C2-SCL*%
X192780800Y-97408000D03*
%TO.P,U6,2,INT*%
%TO.N,unconnected-(U6-Pad2)*%
X192780800Y-98058000D03*
%TO.P,U6,3,GND*%
%TO.N,GND*%
X192780800Y-98708000D03*
%TO.P,U6,4,NC*%
%TO.N,unconnected-(U6-Pad4)*%
X191280800Y-98708000D03*
%TO.P,U6,5,VDD*%
%TO.N,+BATT*%
X191280800Y-98058000D03*
%TO.P,U6,6,SDA*%
%TO.N,I2C2-SDA*%
X191280800Y-97408000D03*
%TD*%
D23*
%TO.N,GND*%
X182780800Y-72808000D03*
X185530800Y-99558000D03*
X152230800Y-85508000D03*
X144030800Y-68308000D03*
X194030800Y-68308000D03*
X172780800Y-76308000D03*
X187280800Y-84058000D03*
X185280800Y-84058000D03*
X194030800Y-91058000D03*
X160230800Y-82058000D03*
X194030800Y-89058000D03*
X192280800Y-80508000D03*
X158930800Y-85508000D03*
X161030800Y-64408000D03*
X186280800Y-84058000D03*
X177780800Y-68308000D03*
X182280800Y-84058000D03*
X174780800Y-90308000D03*
X166530800Y-70308000D03*
X170780800Y-72808000D03*
X148030800Y-95058000D03*
X165780800Y-100808000D03*
X188280800Y-81208000D03*
X148030800Y-93308000D03*
X162280800Y-92558000D03*
X194030800Y-76308000D03*
X170780800Y-84794500D03*
X187270498Y-106288654D03*
X194030800Y-100808000D03*
X194011454Y-72308000D03*
X188280800Y-84058000D03*
X184780800Y-92058000D03*
X187248800Y-90808000D03*
X186280800Y-81208000D03*
X166530800Y-65058000D03*
X172780800Y-90308000D03*
X183280800Y-106299430D03*
X160230800Y-83558000D03*
X185216800Y-81208000D03*
X184280800Y-84058000D03*
X189280800Y-81208000D03*
X175530800Y-68308000D03*
X181530800Y-101558000D03*
X187280800Y-81208000D03*
X154406600Y-95058000D03*
X159030800Y-106308000D03*
X144028354Y-64303675D03*
X144017351Y-93308000D03*
X180330800Y-93108000D03*
X144017351Y-91306505D03*
X144030800Y-76308000D03*
X178130800Y-86808000D03*
X165780800Y-99308000D03*
X161730800Y-83558000D03*
X190280800Y-84058000D03*
X194030800Y-64308000D03*
X161730800Y-82058000D03*
X154406600Y-96458000D03*
X177780800Y-65558000D03*
X159280800Y-101558000D03*
X192280800Y-84653928D03*
X190230800Y-81208000D03*
X170780800Y-91058000D03*
X144030800Y-72308000D03*
X185530800Y-101308000D03*
X175530800Y-65558000D03*
X189280800Y-84058000D03*
X176430800Y-100808000D03*
X186030800Y-60808000D03*
X186030800Y-96520000D03*
%TO.N,+5V*%
X148030800Y-85558000D03*
X151030800Y-80008000D03*
X148030800Y-80008000D03*
X151030800Y-85558000D03*
%TO.N,GATE-DRIVE*%
X180330800Y-97408000D03*
X176430800Y-99208000D03*
%TO.N,DISPLAY-RESET*%
X179330800Y-74808000D03*
X172430800Y-99208000D03*
%TO.N,DISPLAY-D{slash}C*%
X172155300Y-96008000D03*
X178780800Y-76358000D03*
%TO.N,DISPLAY-CS*%
X171430800Y-99208000D03*
X176842947Y-86620147D03*
%TO.N,SPI2-SCK*%
X178030800Y-74808000D03*
X170706300Y-96008000D03*
%TO.N,SPI2-MOSI*%
X176806300Y-76358000D03*
X169530800Y-96008000D03*
%TO.N,VBUS*%
X166280800Y-83558000D03*
X160230800Y-87233000D03*
X150530800Y-90308000D03*
%TO.N,I2C2-SCL*%
X174330800Y-80133000D03*
X190818099Y-96270701D03*
X189280800Y-94808000D03*
X172030800Y-65308000D03*
X180780800Y-80108000D03*
X172030800Y-69308000D03*
%TO.N,I2C2-SDA*%
X180780800Y-82558000D03*
X173530800Y-81308000D03*
X170768501Y-60070299D03*
X170780800Y-68308000D03*
X170780800Y-64558000D03*
%TO.N,SWO*%
X173080800Y-82808000D03*
X163530800Y-80283000D03*
%TO.N,SWDIO*%
X168530800Y-77808000D03*
%TO.N,SWCLK*%
X166780800Y-77808000D03*
%TO.N,RST*%
X153230800Y-86308000D03*
X161230800Y-86233000D03*
%TO.N,D-*%
X147830800Y-83358000D03*
X147830800Y-81158000D03*
%TO.N,D+*%
X147830800Y-84458000D03*
X147830800Y-82258000D03*
%TO.N,DISPLAY-BUSY*%
X173730800Y-96008000D03*
X180680800Y-76358000D03*
%TO.N,+BATT*%
X188530800Y-93558000D03*
X188530800Y-98058000D03*
%TO.N,UART1-TX*%
X175605800Y-82808000D03*
%TO.N,UART1-RX*%
X174330800Y-82808000D03*
%TO.N,UART2-RX*%
X172780800Y-78858000D03*
X161030800Y-79558000D03*
%TO.N,UART2-TX*%
X172780800Y-77608000D03*
X162030800Y-78808000D03*
%TD*%
D24*
%TO.N,+5V*%
X147980800Y-85608000D02*
X148030800Y-85558000D01*
D25*
X151030800Y-80008000D02*
X148030800Y-80008000D01*
D24*
X148030800Y-80008000D02*
X147955495Y-80008000D01*
D25*
X146530800Y-84458000D02*
X147680800Y-85608000D01*
X148030800Y-85558000D02*
X151030800Y-85558000D01*
X147680800Y-85608000D02*
X147930800Y-85608000D01*
D24*
X147930800Y-85608000D02*
X147980800Y-85608000D01*
D25*
X146530800Y-81255918D02*
X146530800Y-84458000D01*
X147778718Y-80008000D02*
X146530800Y-81255918D01*
X147955495Y-80008000D02*
X147778718Y-80008000D01*
D24*
%TO.N,GATE-DRIVE*%
X176430800Y-99208000D02*
X177030800Y-99208000D01*
X178830800Y-97408000D02*
X180330800Y-97408000D01*
X177030800Y-99208000D02*
X178830800Y-97408000D01*
%TO.N,DISPLAY-RESET*%
X172955800Y-98683000D02*
X172430800Y-99208000D01*
X179330800Y-74808000D02*
X179530800Y-75008000D01*
X179530800Y-88608000D02*
X172955800Y-95183000D01*
X172955800Y-95183000D02*
X172955800Y-98683000D01*
X179530800Y-75008000D02*
X179530800Y-88608000D01*
%TO.N,DISPLAY-D{slash}C*%
X172155300Y-94933500D02*
X172155300Y-96008000D01*
X179030800Y-76608000D02*
X179030800Y-88058000D01*
X178780800Y-76358000D02*
X179030800Y-76608000D01*
X179030800Y-88058000D02*
X172155300Y-94933500D01*
%TO.N,DISPLAY-CS*%
X171430800Y-94758000D02*
X171430800Y-99208000D01*
X176842947Y-86620147D02*
X176842947Y-89345853D01*
X176842947Y-89345853D02*
X171430800Y-94758000D01*
%TO.N,SPI2-SCK*%
X170586400Y-95888100D02*
X170706300Y-96008000D01*
X170586400Y-94002400D02*
X170586400Y-95888100D01*
X173780800Y-90808000D02*
X170586400Y-94002400D01*
X177530800Y-84008000D02*
X173780800Y-87758000D01*
X173780800Y-87758000D02*
X173780800Y-90808000D01*
X177530800Y-75308000D02*
X177530800Y-84008000D01*
X178030800Y-74808000D02*
X177530800Y-75308000D01*
%TO.N,SPI2-MOSI*%
X176330800Y-76833500D02*
X176330800Y-83133000D01*
X176806300Y-76358000D02*
X176330800Y-76833500D01*
X171780800Y-91864802D02*
X169530800Y-94114802D01*
X169530800Y-94114802D02*
X169530800Y-96008000D01*
X171780800Y-87683000D02*
X171780800Y-91864802D01*
X176330800Y-83133000D02*
X171780800Y-87683000D01*
%TO.N,VBUS*%
X150530800Y-90308000D02*
X157155800Y-90308000D01*
X166280800Y-83558000D02*
X162605800Y-87233000D01*
X162605800Y-87233000D02*
X160230800Y-87233000D01*
X157155800Y-90308000D02*
X160230800Y-87233000D01*
%TO.N,I2C2-SCL*%
X188727895Y-94808000D02*
X189280800Y-94808000D01*
X174330800Y-80133000D02*
X174330800Y-75533000D01*
D26*
X153656800Y-59182000D02*
X162154800Y-59182000D01*
D24*
X174330800Y-75533000D02*
X173505800Y-74708000D01*
X172030800Y-65308000D02*
X172030800Y-60308000D01*
D26*
X152530800Y-60308000D02*
X153656800Y-59182000D01*
D24*
X180780800Y-80108000D02*
X181530800Y-80858000D01*
X190843300Y-96245500D02*
X190843300Y-95258000D01*
X190818099Y-96270701D02*
X191643501Y-96270701D01*
X191643501Y-96270701D02*
X192780800Y-97408000D01*
D26*
X162154800Y-59182000D02*
X163280800Y-60308000D01*
X164406800Y-59182000D02*
X163280800Y-60308000D01*
X168970105Y-59182000D02*
X164406800Y-59182000D01*
D24*
X172030800Y-60308000D02*
X170904800Y-59182000D01*
X181530800Y-87610905D02*
X188727895Y-94808000D01*
X190818099Y-96270701D02*
X190843300Y-96245500D01*
X172030800Y-69308000D02*
X172030800Y-65308000D01*
X173505800Y-70783000D02*
X172030800Y-69308000D01*
X170904800Y-59182000D02*
X168970105Y-59182000D01*
X173505800Y-74708000D02*
X173505800Y-70783000D01*
X181530800Y-80858000D02*
X181530800Y-87610905D01*
%TO.N,I2C2-SDA*%
X187234800Y-96012000D02*
X190042800Y-96012000D01*
X170780800Y-64558000D02*
X170780800Y-68308000D01*
X180780800Y-89558000D02*
X187234800Y-96012000D01*
X172280800Y-72808000D02*
X170780800Y-71308000D01*
X173530800Y-75558000D02*
X172280800Y-74308000D01*
X191280800Y-97408000D02*
X190930800Y-97408000D01*
X190930800Y-97408000D02*
X190042800Y-96520000D01*
X180780800Y-82558000D02*
X180780800Y-89558000D01*
X173530800Y-81308000D02*
X173530800Y-75558000D01*
X190235196Y-94458000D02*
X190843300Y-94458000D01*
X190042800Y-96520000D02*
X190042800Y-94650396D01*
X170780800Y-71308000D02*
X170780800Y-68308000D01*
X170768501Y-60070299D02*
X170780800Y-60082598D01*
X190042800Y-94650396D02*
X190235196Y-94458000D01*
X172280800Y-74308000D02*
X172280800Y-72808000D01*
X170780800Y-60082598D02*
X170780800Y-64558000D01*
%TO.N,SWO*%
X166055800Y-82808000D02*
X163530800Y-80283000D01*
X173080800Y-82808000D02*
X166055800Y-82808000D01*
%TO.N,SWDIO*%
X168530800Y-77808000D02*
X168530800Y-77308000D01*
X168530800Y-77308000D02*
X163310800Y-72088000D01*
X163310800Y-72088000D02*
X163280800Y-72088000D01*
%TO.N,SWCLK*%
X166780800Y-77808000D02*
X166780800Y-77758000D01*
X163650800Y-74628000D02*
X163280800Y-74628000D01*
X166780800Y-77758000D02*
X163650800Y-74628000D01*
%TO.N,RST*%
X161155800Y-86308000D02*
X161230800Y-86233000D01*
X153230800Y-86308000D02*
X161155800Y-86308000D01*
D27*
%TO.N,D-*%
X147130800Y-82658000D02*
X147830800Y-83358000D01*
X147830800Y-81158000D02*
X147130800Y-81858000D01*
X147130800Y-81858000D02*
X147130800Y-82658000D01*
%TO.N,D+*%
X147830800Y-82258000D02*
X148530800Y-82958000D01*
X148530800Y-83758000D02*
X147830800Y-84458000D01*
X148530800Y-82958000D02*
X148530800Y-83758000D01*
D24*
%TO.N,DISPLAY-BUSY*%
X180030800Y-77008000D02*
X180030800Y-89708000D01*
X180680800Y-76358000D02*
X180030800Y-77008000D01*
X180030800Y-89708000D02*
X173730800Y-96008000D01*
%TO.N,+BATT*%
X191630800Y-93658000D02*
X190843300Y-93658000D01*
X193218300Y-94458000D02*
X192430800Y-94458000D01*
X188630800Y-93658000D02*
X190843300Y-93658000D01*
X188530800Y-98058000D02*
X191280800Y-98058000D01*
X192430800Y-94458000D02*
X191630800Y-93658000D01*
X191668800Y-93658000D02*
X192468800Y-92858000D01*
X192468800Y-92858000D02*
X193218300Y-92858000D01*
X188530800Y-93558000D02*
X188630800Y-93658000D01*
X190843300Y-93658000D02*
X191668800Y-93658000D01*
%TO.N,UART1-TX*%
X176780800Y-74920348D02*
X176780800Y-62558000D01*
X175880800Y-82533000D02*
X175880800Y-75820348D01*
X176030800Y-61808000D02*
X176030800Y-60308000D01*
X175880800Y-75820348D02*
X176780800Y-74920348D01*
X175605800Y-82808000D02*
X175880800Y-82533000D01*
X176780800Y-62558000D02*
X176030800Y-61808000D01*
%TO.N,UART1-RX*%
X174355800Y-60633000D02*
X174030800Y-60308000D01*
X175230800Y-75008000D02*
X174355800Y-74133000D01*
X175230800Y-80720500D02*
X175230800Y-75008000D01*
X174330800Y-82808000D02*
X174330800Y-81620500D01*
X174355800Y-74133000D02*
X174355800Y-60633000D01*
X174330800Y-81620500D02*
X175230800Y-80720500D01*
%TO.N,UART2-RX*%
X172780800Y-78858000D02*
X172368300Y-78858000D01*
X171668300Y-79558000D02*
X161030800Y-79558000D01*
X172368300Y-78858000D02*
X171668300Y-79558000D01*
%TO.N,UART2-TX*%
X162030800Y-78808000D02*
X171030800Y-78808000D01*
X171030800Y-78808000D02*
X172230800Y-77608000D01*
X172230800Y-77608000D02*
X172780800Y-77608000D01*
%TD*%
%TA.AperFunction,Conductor*%
%TO.N,GND*%
G36*
X192018969Y-57761018D02*
G01*
X192030441Y-57763656D01*
X192041316Y-57761195D01*
X192051527Y-57761213D01*
X192062630Y-57760288D01*
X192239268Y-57770208D01*
X192338699Y-57775792D01*
X192349722Y-57777034D01*
X192563102Y-57813288D01*
X192648261Y-57827757D01*
X192659085Y-57830227D01*
X192950079Y-57914062D01*
X192960551Y-57917726D01*
X193240330Y-58033614D01*
X193250320Y-58038425D01*
X193515363Y-58184910D01*
X193524748Y-58190806D01*
X193771737Y-58366054D01*
X193780405Y-58372967D01*
X194006207Y-58574757D01*
X194014043Y-58582593D01*
X194215833Y-58808395D01*
X194222746Y-58817063D01*
X194397994Y-59064052D01*
X194403890Y-59073437D01*
X194444629Y-59147147D01*
X194550372Y-59338474D01*
X194555186Y-59348470D01*
X194659956Y-59601407D01*
X194671073Y-59628246D01*
X194674738Y-59638721D01*
X194716108Y-59782316D01*
X194758573Y-59929715D01*
X194761043Y-59940539D01*
X194762416Y-59948619D01*
X194811188Y-60235670D01*
X194811766Y-60239074D01*
X194813008Y-60250102D01*
X194827186Y-60502535D01*
X194828484Y-60525651D01*
X194827634Y-60535626D01*
X194827662Y-60535626D01*
X194827642Y-60546777D01*
X194825144Y-60557641D01*
X194827604Y-60568513D01*
X194827859Y-60569638D01*
X194830300Y-60591488D01*
X194830300Y-77249000D01*
X194811393Y-77307191D01*
X194761893Y-77343155D01*
X194731300Y-77348000D01*
X192546480Y-77348000D01*
X192533795Y-77352122D01*
X192530800Y-77356243D01*
X192530800Y-79332320D01*
X192534922Y-79345005D01*
X192539043Y-79348000D01*
X194731300Y-79348000D01*
X194789491Y-79366907D01*
X194825455Y-79416407D01*
X194830300Y-79447000D01*
X194830300Y-85769000D01*
X194811393Y-85827191D01*
X194761893Y-85863155D01*
X194731300Y-85868000D01*
X192546480Y-85868000D01*
X192533795Y-85872122D01*
X192530800Y-85876243D01*
X192530800Y-87852320D01*
X192534922Y-87865005D01*
X192539043Y-87868000D01*
X194731300Y-87868000D01*
X194789491Y-87886907D01*
X194825455Y-87936407D01*
X194830300Y-87967000D01*
X194830300Y-104773983D01*
X194827782Y-104796169D01*
X194825144Y-104807641D01*
X194827605Y-104818516D01*
X194827587Y-104828727D01*
X194828512Y-104839830D01*
X194813549Y-105106285D01*
X194813009Y-105115894D01*
X194811766Y-105126922D01*
X194793480Y-105234550D01*
X194761043Y-105425461D01*
X194758573Y-105436285D01*
X194685397Y-105690285D01*
X194674740Y-105727275D01*
X194671074Y-105737751D01*
X194575242Y-105969112D01*
X194555189Y-106017524D01*
X194550375Y-106027520D01*
X194403890Y-106292563D01*
X194397994Y-106301948D01*
X194222746Y-106548937D01*
X194215833Y-106557605D01*
X194014043Y-106783407D01*
X194006207Y-106791243D01*
X193780405Y-106993033D01*
X193771737Y-106999946D01*
X193524748Y-107175194D01*
X193515363Y-107181090D01*
X193250320Y-107327575D01*
X193240330Y-107332386D01*
X192960551Y-107448274D01*
X192950079Y-107451938D01*
X192756398Y-107507738D01*
X192659085Y-107535773D01*
X192648261Y-107538243D01*
X192632529Y-107540916D01*
X192349722Y-107588966D01*
X192338698Y-107590208D01*
X192063146Y-107605684D01*
X192053174Y-107604834D01*
X192053174Y-107604862D01*
X192042023Y-107604842D01*
X192031159Y-107602344D01*
X192019159Y-107605059D01*
X191997312Y-107607500D01*
X183314817Y-107607500D01*
X183292631Y-107604982D01*
X183292587Y-107604972D01*
X183281159Y-107602344D01*
X183270284Y-107604805D01*
X183259138Y-107604785D01*
X183259139Y-107604295D01*
X183249193Y-107605012D01*
X183085282Y-107592112D01*
X183069938Y-107589682D01*
X182978373Y-107567700D01*
X182886802Y-107545715D01*
X182872036Y-107540917D01*
X182774883Y-107500675D01*
X182698034Y-107468843D01*
X182684199Y-107461794D01*
X182523611Y-107363386D01*
X182511052Y-107354261D01*
X182367839Y-107231945D01*
X182356855Y-107220961D01*
X182345786Y-107208000D01*
X182234539Y-107077748D01*
X182225414Y-107065189D01*
X182127006Y-106904601D01*
X182119957Y-106890766D01*
X182047884Y-106716768D01*
X182043083Y-106701993D01*
X182038813Y-106684204D01*
X182036792Y-106675785D01*
X190522397Y-106675785D01*
X190522568Y-106676870D01*
X190526842Y-106681873D01*
X190739759Y-106836566D01*
X190745000Y-106839892D01*
X191004187Y-106982382D01*
X191009796Y-106985021D01*
X191284803Y-107093904D01*
X191290702Y-107095821D01*
X191577189Y-107169378D01*
X191583281Y-107170540D01*
X191876722Y-107207610D01*
X191882910Y-107208000D01*
X192178690Y-107208000D01*
X192184878Y-107207610D01*
X192478319Y-107170540D01*
X192484411Y-107169378D01*
X192770898Y-107095821D01*
X192776797Y-107093904D01*
X193051804Y-106985021D01*
X193057413Y-106982382D01*
X193316600Y-106839892D01*
X193321841Y-106836566D01*
X193531550Y-106684204D01*
X193539390Y-106673413D01*
X193539390Y-106672315D01*
X193535953Y-106666706D01*
X192041886Y-105172639D01*
X192030003Y-105166585D01*
X192024972Y-105167381D01*
X190528451Y-106663902D01*
X190522397Y-106675785D01*
X182036792Y-106675785D01*
X182021101Y-106610428D01*
X181999118Y-106518862D01*
X181996688Y-106503519D01*
X181983848Y-106340373D01*
X181985381Y-106319850D01*
X181984547Y-106319754D01*
X181985188Y-106314182D01*
X181986455Y-106308718D01*
X181986456Y-106308000D01*
X181985314Y-106302993D01*
X181985186Y-106301599D01*
X181984430Y-106291028D01*
X181968291Y-106065375D01*
X181916586Y-105827690D01*
X181831581Y-105599782D01*
X181801216Y-105544173D01*
X181716698Y-105389390D01*
X181716696Y-105389386D01*
X181715006Y-105386292D01*
X181569235Y-105191565D01*
X181397235Y-105019565D01*
X181202508Y-104873794D01*
X181199414Y-104872104D01*
X181199410Y-104872102D01*
X181087692Y-104811099D01*
X189626250Y-104811099D01*
X189644821Y-105106285D01*
X189645602Y-105112460D01*
X189701022Y-105402983D01*
X189702562Y-105408986D01*
X189793963Y-105690285D01*
X189796252Y-105696067D01*
X189922184Y-105963687D01*
X189925167Y-105969112D01*
X190083657Y-106218853D01*
X190087300Y-106223868D01*
X190156116Y-106307052D01*
X190167379Y-106314200D01*
X190170143Y-106314026D01*
X190173284Y-106311963D01*
X191666161Y-104819086D01*
X191671403Y-104808797D01*
X192389385Y-104808797D01*
X192390181Y-104813828D01*
X193884402Y-106308049D01*
X193896285Y-106314103D01*
X193899020Y-106313670D01*
X193901952Y-106311322D01*
X193974300Y-106223868D01*
X193977943Y-106218853D01*
X194136433Y-105969112D01*
X194139416Y-105963687D01*
X194265348Y-105696067D01*
X194267637Y-105690285D01*
X194359038Y-105408986D01*
X194360578Y-105402983D01*
X194415998Y-105112460D01*
X194416779Y-105106285D01*
X194435350Y-104811099D01*
X194435350Y-104804901D01*
X194416779Y-104509715D01*
X194415998Y-104503540D01*
X194360578Y-104213017D01*
X194359038Y-104207014D01*
X194267637Y-103925715D01*
X194265348Y-103919933D01*
X194139416Y-103652313D01*
X194136433Y-103646888D01*
X193977943Y-103397147D01*
X193974300Y-103392132D01*
X193905484Y-103308948D01*
X193894221Y-103301800D01*
X193891457Y-103301974D01*
X193888316Y-103304037D01*
X192395439Y-104796914D01*
X192389385Y-104808797D01*
X191671403Y-104808797D01*
X191672215Y-104807203D01*
X191671419Y-104802172D01*
X190177198Y-103307951D01*
X190165315Y-103301897D01*
X190162580Y-103302330D01*
X190159648Y-103304678D01*
X190087300Y-103392132D01*
X190083657Y-103397147D01*
X189925167Y-103646888D01*
X189922184Y-103652313D01*
X189796252Y-103919933D01*
X189793963Y-103925715D01*
X189702562Y-104207014D01*
X189701022Y-104213017D01*
X189645602Y-104503540D01*
X189644821Y-104509715D01*
X189626250Y-104804901D01*
X189626250Y-104811099D01*
X181087692Y-104811099D01*
X180992115Y-104758910D01*
X180992114Y-104758909D01*
X180989018Y-104757219D01*
X180761110Y-104672214D01*
X180523425Y-104620509D01*
X180360038Y-104608823D01*
X180288803Y-104603728D01*
X180286597Y-104603522D01*
X180281518Y-104602345D01*
X180280800Y-104602344D01*
X180275348Y-104603588D01*
X180275345Y-104603588D01*
X180269066Y-104605020D01*
X180247048Y-104607500D01*
X162065081Y-104607500D01*
X162042726Y-104604943D01*
X162037484Y-104603728D01*
X162031518Y-104602345D01*
X162030800Y-104602344D01*
X162025793Y-104603486D01*
X162024404Y-104603614D01*
X161788175Y-104620509D01*
X161550490Y-104672214D01*
X161322582Y-104757219D01*
X161319486Y-104758909D01*
X161319485Y-104758910D01*
X161112190Y-104872102D01*
X161112186Y-104872104D01*
X161109092Y-104873794D01*
X160914365Y-105019565D01*
X160742365Y-105191565D01*
X160596594Y-105386292D01*
X160594904Y-105389386D01*
X160594902Y-105389390D01*
X160510384Y-105544173D01*
X160480019Y-105599782D01*
X160395014Y-105827690D01*
X160343309Y-106065375D01*
X160340007Y-106111547D01*
X160327143Y-106291397D01*
X160327143Y-106291400D01*
X160326360Y-106302352D01*
X160325144Y-106307641D01*
X160327604Y-106318515D01*
X160327585Y-106329660D01*
X160327095Y-106329659D01*
X160327812Y-106339607D01*
X160314912Y-106503518D01*
X160312482Y-106518862D01*
X160290499Y-106610428D01*
X160272788Y-106684204D01*
X160268517Y-106701993D01*
X160263716Y-106716768D01*
X160191643Y-106890766D01*
X160184594Y-106904601D01*
X160086186Y-107065189D01*
X160077061Y-107077748D01*
X159965815Y-107208000D01*
X159954745Y-107220961D01*
X159943761Y-107231945D01*
X159800548Y-107354261D01*
X159787989Y-107363386D01*
X159627401Y-107461794D01*
X159613566Y-107468843D01*
X159536717Y-107500675D01*
X159439564Y-107540917D01*
X159424798Y-107545715D01*
X159333227Y-107567700D01*
X159241662Y-107589682D01*
X159226318Y-107592112D01*
X159062916Y-107604972D01*
X159053172Y-107604252D01*
X159053171Y-107604862D01*
X159042024Y-107604842D01*
X159031159Y-107602344D01*
X159019159Y-107605059D01*
X158997312Y-107607500D01*
X146064817Y-107607500D01*
X146042631Y-107604982D01*
X146042587Y-107604972D01*
X146031159Y-107602344D01*
X146020284Y-107604805D01*
X146010073Y-107604787D01*
X145998970Y-107605712D01*
X145822332Y-107595792D01*
X145722901Y-107590208D01*
X145711878Y-107588966D01*
X145429071Y-107540916D01*
X145413339Y-107538243D01*
X145402515Y-107535773D01*
X145305202Y-107507738D01*
X145111521Y-107451938D01*
X145101049Y-107448274D01*
X144821270Y-107332386D01*
X144811280Y-107327575D01*
X144546237Y-107181090D01*
X144536852Y-107175194D01*
X144289863Y-106999946D01*
X144281195Y-106993033D01*
X144055393Y-106791243D01*
X144047557Y-106783407D01*
X143951380Y-106675785D01*
X144522397Y-106675785D01*
X144522568Y-106676870D01*
X144526842Y-106681873D01*
X144739759Y-106836566D01*
X144745000Y-106839892D01*
X145004187Y-106982382D01*
X145009796Y-106985021D01*
X145284803Y-107093904D01*
X145290702Y-107095821D01*
X145577189Y-107169378D01*
X145583281Y-107170540D01*
X145876722Y-107207610D01*
X145882910Y-107208000D01*
X146178690Y-107208000D01*
X146184878Y-107207610D01*
X146478319Y-107170540D01*
X146484411Y-107169378D01*
X146770898Y-107095821D01*
X146776797Y-107093904D01*
X147051804Y-106985021D01*
X147057413Y-106982382D01*
X147316600Y-106839892D01*
X147321841Y-106836566D01*
X147531550Y-106684204D01*
X147539390Y-106673413D01*
X147539390Y-106672315D01*
X147535953Y-106666706D01*
X146041886Y-105172639D01*
X146030003Y-105166585D01*
X146024972Y-105167381D01*
X144528451Y-106663902D01*
X144522397Y-106675785D01*
X143951380Y-106675785D01*
X143845767Y-106557605D01*
X143838854Y-106548937D01*
X143663606Y-106301948D01*
X143657710Y-106292563D01*
X143511225Y-106027520D01*
X143506411Y-106017524D01*
X143486359Y-105969112D01*
X143390526Y-105737751D01*
X143386860Y-105727275D01*
X143376204Y-105690285D01*
X143303027Y-105436285D01*
X143300557Y-105425461D01*
X143268120Y-105234550D01*
X143249834Y-105126922D01*
X143248591Y-105115894D01*
X143248052Y-105106285D01*
X143233131Y-104840603D01*
X143234922Y-104819795D01*
X143234547Y-104819752D01*
X143235188Y-104814184D01*
X143235903Y-104811099D01*
X143626250Y-104811099D01*
X143644821Y-105106285D01*
X143645602Y-105112460D01*
X143701022Y-105402983D01*
X143702562Y-105408986D01*
X143793963Y-105690285D01*
X143796252Y-105696067D01*
X143922184Y-105963687D01*
X143925167Y-105969112D01*
X144083657Y-106218853D01*
X144087300Y-106223868D01*
X144156116Y-106307052D01*
X144167379Y-106314200D01*
X144170143Y-106314026D01*
X144173284Y-106311963D01*
X145666161Y-104819086D01*
X145671403Y-104808797D01*
X146389385Y-104808797D01*
X146390181Y-104813828D01*
X147884402Y-106308049D01*
X147896285Y-106314103D01*
X147899020Y-106313670D01*
X147901952Y-106311322D01*
X147974300Y-106223868D01*
X147977943Y-106218853D01*
X148136433Y-105969112D01*
X148139416Y-105963687D01*
X148265348Y-105696067D01*
X148267637Y-105690285D01*
X148359038Y-105408986D01*
X148360578Y-105402983D01*
X148415998Y-105112460D01*
X148416779Y-105106285D01*
X148425867Y-104961834D01*
X151830300Y-104961834D01*
X151833281Y-104993369D01*
X151878166Y-105121184D01*
X151882561Y-105127135D01*
X151882562Y-105127136D01*
X151932233Y-105194385D01*
X151958650Y-105230150D01*
X152067616Y-105310634D01*
X152195431Y-105355519D01*
X152201438Y-105356087D01*
X152201439Y-105356087D01*
X152224655Y-105358282D01*
X152224665Y-105358282D01*
X152226966Y-105358500D01*
X153834634Y-105358500D01*
X153836935Y-105358282D01*
X153836945Y-105358282D01*
X153860161Y-105356087D01*
X153860162Y-105356087D01*
X153866169Y-105355519D01*
X153993984Y-105310634D01*
X154102950Y-105230150D01*
X154129367Y-105194385D01*
X154179038Y-105127136D01*
X154179039Y-105127135D01*
X154183434Y-105121184D01*
X154228319Y-104993369D01*
X154231300Y-104961834D01*
X154231300Y-103654166D01*
X154228319Y-103622631D01*
X154183434Y-103494816D01*
X154102950Y-103385850D01*
X153993984Y-103305366D01*
X153866169Y-103260481D01*
X153860162Y-103259913D01*
X153860161Y-103259913D01*
X153836945Y-103257718D01*
X153836935Y-103257718D01*
X153834634Y-103257500D01*
X152226966Y-103257500D01*
X152224665Y-103257718D01*
X152224655Y-103257718D01*
X152201439Y-103259913D01*
X152201438Y-103259913D01*
X152195431Y-103260481D01*
X152067616Y-103305366D01*
X151958650Y-103385850D01*
X151878166Y-103494816D01*
X151833281Y-103622631D01*
X151830300Y-103654166D01*
X151830300Y-104961834D01*
X148425867Y-104961834D01*
X148435350Y-104811099D01*
X148435350Y-104804901D01*
X148416779Y-104509715D01*
X148415998Y-104503540D01*
X148360578Y-104213017D01*
X148359038Y-104207014D01*
X148267637Y-103925715D01*
X148265348Y-103919933D01*
X148139416Y-103652313D01*
X148136433Y-103646888D01*
X147977943Y-103397147D01*
X147974300Y-103392132D01*
X147905484Y-103308948D01*
X147894221Y-103301800D01*
X147891457Y-103301974D01*
X147888316Y-103304037D01*
X146395439Y-104796914D01*
X146389385Y-104808797D01*
X145671403Y-104808797D01*
X145672215Y-104807203D01*
X145671419Y-104802172D01*
X144177198Y-103307951D01*
X144165315Y-103301897D01*
X144162580Y-103302330D01*
X144159648Y-103304678D01*
X144087300Y-103392132D01*
X144083657Y-103397147D01*
X143925167Y-103646888D01*
X143922184Y-103652313D01*
X143796252Y-103919933D01*
X143793963Y-103925715D01*
X143702562Y-104207014D01*
X143701022Y-104213017D01*
X143645602Y-104503540D01*
X143644821Y-104509715D01*
X143626250Y-104804901D01*
X143626250Y-104811099D01*
X143235903Y-104811099D01*
X143236455Y-104808718D01*
X143236456Y-104808000D01*
X143235127Y-104802172D01*
X143233780Y-104796266D01*
X143231300Y-104774248D01*
X143231300Y-102943685D01*
X144522210Y-102943685D01*
X144525647Y-102949294D01*
X146019714Y-104443361D01*
X146031597Y-104449415D01*
X146036628Y-104448619D01*
X147533149Y-102952098D01*
X147537435Y-102943685D01*
X190522210Y-102943685D01*
X190525647Y-102949294D01*
X192019714Y-104443361D01*
X192031597Y-104449415D01*
X192036628Y-104448619D01*
X193533149Y-102952098D01*
X193539203Y-102940215D01*
X193539032Y-102939130D01*
X193534758Y-102934127D01*
X193321841Y-102779434D01*
X193316600Y-102776108D01*
X193057413Y-102633618D01*
X193051804Y-102630979D01*
X192776797Y-102522096D01*
X192770898Y-102520179D01*
X192484411Y-102446622D01*
X192478319Y-102445460D01*
X192184878Y-102408390D01*
X192178690Y-102408000D01*
X191882910Y-102408000D01*
X191876722Y-102408390D01*
X191583281Y-102445460D01*
X191577189Y-102446622D01*
X191290702Y-102520179D01*
X191284803Y-102522096D01*
X191009796Y-102630979D01*
X191004187Y-102633618D01*
X190745000Y-102776108D01*
X190739759Y-102779434D01*
X190530050Y-102931796D01*
X190522210Y-102942587D01*
X190522210Y-102943685D01*
X147537435Y-102943685D01*
X147539203Y-102940215D01*
X147539032Y-102939130D01*
X147534758Y-102934127D01*
X147321841Y-102779434D01*
X147316600Y-102776108D01*
X147057413Y-102633618D01*
X147051804Y-102630979D01*
X146776797Y-102522096D01*
X146770898Y-102520179D01*
X146484411Y-102446622D01*
X146478319Y-102445460D01*
X146184878Y-102408390D01*
X146178690Y-102408000D01*
X145882910Y-102408000D01*
X145876722Y-102408390D01*
X145583281Y-102445460D01*
X145577189Y-102446622D01*
X145290702Y-102520179D01*
X145284803Y-102522096D01*
X145009796Y-102630979D01*
X145004187Y-102633618D01*
X144745000Y-102776108D01*
X144739759Y-102779434D01*
X144530050Y-102931796D01*
X144522210Y-102942587D01*
X144522210Y-102943685D01*
X143231300Y-102943685D01*
X143231300Y-102072362D01*
X151864026Y-102072362D01*
X151901178Y-102198593D01*
X151904791Y-102207534D01*
X151995699Y-102381427D01*
X152000984Y-102389503D01*
X152123940Y-102542429D01*
X152130681Y-102549313D01*
X152281005Y-102675449D01*
X152288959Y-102680896D01*
X152460911Y-102775427D01*
X152469776Y-102779227D01*
X152656819Y-102838560D01*
X152666250Y-102840565D01*
X152765217Y-102851666D01*
X152778284Y-102848984D01*
X152779839Y-102847281D01*
X152780800Y-102842835D01*
X152780800Y-102837596D01*
X153280800Y-102837596D01*
X153284922Y-102850281D01*
X153287087Y-102851854D01*
X153290982Y-102852278D01*
X153380915Y-102843459D01*
X153390363Y-102841589D01*
X153578228Y-102784869D01*
X153587132Y-102781199D01*
X153760399Y-102689072D01*
X153768424Y-102683740D01*
X153920493Y-102559716D01*
X153927334Y-102552922D01*
X154052419Y-102401721D01*
X154057803Y-102393738D01*
X154151140Y-102221114D01*
X154154869Y-102212243D01*
X154197979Y-102072977D01*
X154197816Y-102061340D01*
X154187288Y-102058000D01*
X153296480Y-102058000D01*
X153283795Y-102062122D01*
X153280800Y-102066243D01*
X153280800Y-102837596D01*
X152780800Y-102837596D01*
X152780800Y-102073680D01*
X152776678Y-102060995D01*
X152772557Y-102058000D01*
X151875479Y-102058000D01*
X151864175Y-102061673D01*
X151864026Y-102072362D01*
X143231300Y-102072362D01*
X143231300Y-101543023D01*
X151863621Y-101543023D01*
X151863784Y-101554660D01*
X151874312Y-101558000D01*
X152765120Y-101558000D01*
X152777805Y-101553878D01*
X152780800Y-101549757D01*
X152780800Y-101542320D01*
X153280800Y-101542320D01*
X153284922Y-101555005D01*
X153289043Y-101558000D01*
X154186121Y-101558000D01*
X154197425Y-101554327D01*
X154197574Y-101543638D01*
X154160422Y-101417407D01*
X154156809Y-101408466D01*
X154065901Y-101234573D01*
X154060616Y-101226497D01*
X153937660Y-101073571D01*
X153930919Y-101066687D01*
X153780595Y-100940551D01*
X153772641Y-100935104D01*
X153600689Y-100840573D01*
X153591824Y-100836773D01*
X153404781Y-100777440D01*
X153395350Y-100775435D01*
X153296383Y-100764334D01*
X153283316Y-100767016D01*
X153281761Y-100768719D01*
X153280800Y-100773165D01*
X153280800Y-101542320D01*
X152780800Y-101542320D01*
X152780800Y-100778404D01*
X152776678Y-100765719D01*
X152774513Y-100764146D01*
X152770618Y-100763722D01*
X152680685Y-100772541D01*
X152671237Y-100774411D01*
X152483372Y-100831131D01*
X152474468Y-100834801D01*
X152301201Y-100926928D01*
X152293176Y-100932260D01*
X152141107Y-101056284D01*
X152134266Y-101063078D01*
X152009181Y-101214279D01*
X152003797Y-101222262D01*
X151910460Y-101394886D01*
X151906731Y-101403757D01*
X151863621Y-101543023D01*
X143231300Y-101543023D01*
X143231300Y-98822840D01*
X143580800Y-98822840D01*
X143581748Y-98832462D01*
X143590502Y-98876474D01*
X143597821Y-98894142D01*
X143631189Y-98944082D01*
X143644718Y-98957611D01*
X143694658Y-98990979D01*
X143712326Y-98998298D01*
X143756338Y-99007052D01*
X143765960Y-99008000D01*
X144265120Y-99008000D01*
X144277805Y-99003878D01*
X144280800Y-98999757D01*
X144280800Y-98992320D01*
X144780800Y-98992320D01*
X144784922Y-99005005D01*
X144789043Y-99008000D01*
X145295640Y-99008000D01*
X145305262Y-99007052D01*
X145349274Y-98998298D01*
X145366942Y-98990979D01*
X145416882Y-98957611D01*
X145430411Y-98944082D01*
X145463779Y-98894142D01*
X145471098Y-98876474D01*
X145479852Y-98832462D01*
X145480800Y-98822840D01*
X145480800Y-98323680D01*
X145476678Y-98310995D01*
X145472557Y-98308000D01*
X144796480Y-98308000D01*
X144783795Y-98312122D01*
X144780800Y-98316243D01*
X144780800Y-98992320D01*
X144280800Y-98992320D01*
X144280800Y-98323680D01*
X144276678Y-98310995D01*
X144272557Y-98308000D01*
X143596480Y-98308000D01*
X143583795Y-98312122D01*
X143580800Y-98316243D01*
X143580800Y-98822840D01*
X143231300Y-98822840D01*
X143231300Y-97792320D01*
X143580800Y-97792320D01*
X143584922Y-97805005D01*
X143589043Y-97808000D01*
X144265120Y-97808000D01*
X144277805Y-97803878D01*
X144280800Y-97799757D01*
X144280800Y-97792320D01*
X144780800Y-97792320D01*
X144784922Y-97805005D01*
X144789043Y-97808000D01*
X145465120Y-97808000D01*
X145477805Y-97803878D01*
X145480800Y-97799757D01*
X145480800Y-97293160D01*
X145479852Y-97283538D01*
X145471098Y-97239526D01*
X145463779Y-97221858D01*
X145430411Y-97171918D01*
X145416882Y-97158389D01*
X145366942Y-97125021D01*
X145349274Y-97117702D01*
X145305262Y-97108948D01*
X145295640Y-97108000D01*
X144796480Y-97108000D01*
X144783795Y-97112122D01*
X144780800Y-97116243D01*
X144780800Y-97792320D01*
X144280800Y-97792320D01*
X144280800Y-97123680D01*
X144276678Y-97110995D01*
X144272557Y-97108000D01*
X143765960Y-97108000D01*
X143756338Y-97108948D01*
X143712326Y-97117702D01*
X143694658Y-97125021D01*
X143644718Y-97158389D01*
X143631189Y-97171918D01*
X143597821Y-97221858D01*
X143590502Y-97239526D01*
X143581748Y-97283538D01*
X143580800Y-97293160D01*
X143580800Y-97792320D01*
X143231300Y-97792320D01*
X143231300Y-96077748D01*
X143580300Y-96077748D01*
X143591933Y-96136231D01*
X143636248Y-96202552D01*
X143702569Y-96246867D01*
X143712132Y-96248769D01*
X143712134Y-96248770D01*
X143734805Y-96253279D01*
X143761052Y-96258500D01*
X145300548Y-96258500D01*
X145326795Y-96253279D01*
X145349466Y-96248770D01*
X145349468Y-96248769D01*
X145359031Y-96246867D01*
X145425352Y-96202552D01*
X145469667Y-96136231D01*
X145481300Y-96077748D01*
X145481300Y-94538252D01*
X145469667Y-94479769D01*
X145425352Y-94413448D01*
X145359031Y-94369133D01*
X145349468Y-94367231D01*
X145349466Y-94367230D01*
X145326795Y-94362721D01*
X145300548Y-94357500D01*
X143761052Y-94357500D01*
X143734805Y-94362721D01*
X143712134Y-94367230D01*
X143712132Y-94367231D01*
X143702569Y-94369133D01*
X143636248Y-94413448D01*
X143591933Y-94479769D01*
X143580300Y-94538252D01*
X143580300Y-96077748D01*
X143231300Y-96077748D01*
X143231300Y-90308000D01*
X149925118Y-90308000D01*
X149945756Y-90464762D01*
X150006264Y-90610841D01*
X150102518Y-90736282D01*
X150227959Y-90832536D01*
X150374038Y-90893044D01*
X150530800Y-90913682D01*
X150687562Y-90893044D01*
X150833641Y-90832536D01*
X150959082Y-90736282D01*
X151008229Y-90672233D01*
X151058652Y-90637577D01*
X151086770Y-90633500D01*
X157137266Y-90633500D01*
X157145895Y-90633877D01*
X157184607Y-90637264D01*
X157222150Y-90627204D01*
X157230584Y-90625334D01*
X157260317Y-90620092D01*
X157260319Y-90620091D01*
X157268845Y-90618588D01*
X157276344Y-90614258D01*
X157281829Y-90612262D01*
X157287116Y-90609796D01*
X157295484Y-90607554D01*
X157327311Y-90585268D01*
X157334595Y-90580627D01*
X157368255Y-90561194D01*
X157393231Y-90531429D01*
X157399065Y-90525061D01*
X160067833Y-87856293D01*
X160122350Y-87828516D01*
X160150755Y-87828144D01*
X160230800Y-87838682D01*
X160387562Y-87818044D01*
X160533641Y-87757536D01*
X160659082Y-87661282D01*
X160708229Y-87597233D01*
X160758652Y-87562577D01*
X160786770Y-87558500D01*
X162587266Y-87558500D01*
X162595895Y-87558877D01*
X162634607Y-87562264D01*
X162672150Y-87552204D01*
X162680584Y-87550334D01*
X162710317Y-87545092D01*
X162710319Y-87545091D01*
X162718845Y-87543588D01*
X162726344Y-87539258D01*
X162731829Y-87537262D01*
X162737116Y-87534796D01*
X162745484Y-87532554D01*
X162777311Y-87510268D01*
X162784595Y-87505627D01*
X162789573Y-87502753D01*
X162818255Y-87486194D01*
X162843231Y-87456429D01*
X162849065Y-87450061D01*
X166117833Y-84181293D01*
X166172350Y-84153516D01*
X166200755Y-84153144D01*
X166280800Y-84163682D01*
X166437562Y-84143044D01*
X166583641Y-84082536D01*
X166709082Y-83986282D01*
X166805336Y-83860841D01*
X166865844Y-83714762D01*
X166886482Y-83558000D01*
X166865844Y-83401238D01*
X166811643Y-83270385D01*
X166806842Y-83209389D01*
X166838811Y-83157220D01*
X166895339Y-83133805D01*
X166903107Y-83133500D01*
X172524830Y-83133500D01*
X172583021Y-83152407D01*
X172603371Y-83172232D01*
X172652518Y-83236282D01*
X172777959Y-83332536D01*
X172924038Y-83393044D01*
X173055231Y-83410316D01*
X173066657Y-83411820D01*
X173080800Y-83413682D01*
X173094944Y-83411820D01*
X173106369Y-83410316D01*
X173237562Y-83393044D01*
X173383641Y-83332536D01*
X173509082Y-83236282D01*
X173605336Y-83110841D01*
X173614336Y-83089113D01*
X173654073Y-83042588D01*
X173713567Y-83028304D01*
X173770095Y-83051719D01*
X173797264Y-83089113D01*
X173806264Y-83110841D01*
X173902518Y-83236282D01*
X174027959Y-83332536D01*
X174174038Y-83393044D01*
X174305231Y-83410316D01*
X174316657Y-83411820D01*
X174330800Y-83413682D01*
X174344944Y-83411820D01*
X174356369Y-83410316D01*
X174487562Y-83393044D01*
X174633641Y-83332536D01*
X174759082Y-83236282D01*
X174855336Y-83110841D01*
X174857818Y-83104850D01*
X174857821Y-83104844D01*
X174876836Y-83058936D01*
X174916572Y-83012410D01*
X174976067Y-82998126D01*
X175032595Y-83021541D01*
X175059764Y-83058936D01*
X175078779Y-83104844D01*
X175078782Y-83104850D01*
X175081264Y-83110841D01*
X175177518Y-83236282D01*
X175302959Y-83332536D01*
X175316044Y-83337956D01*
X175426273Y-83383615D01*
X175472799Y-83423352D01*
X175487082Y-83482847D01*
X175463667Y-83539375D01*
X175458391Y-83545083D01*
X171563743Y-87439731D01*
X171557376Y-87445565D01*
X171527606Y-87470545D01*
X171516072Y-87490523D01*
X171508173Y-87504205D01*
X171503532Y-87511489D01*
X171481246Y-87543316D01*
X171479004Y-87551684D01*
X171476538Y-87556971D01*
X171474542Y-87562456D01*
X171470212Y-87569955D01*
X171468709Y-87578481D01*
X171468708Y-87578483D01*
X171463466Y-87608216D01*
X171461596Y-87616651D01*
X171456854Y-87634349D01*
X171451536Y-87654193D01*
X171452291Y-87662822D01*
X171454923Y-87692905D01*
X171455300Y-87701534D01*
X171455300Y-91688968D01*
X171436393Y-91747159D01*
X171426304Y-91758972D01*
X169313743Y-93871533D01*
X169307376Y-93877367D01*
X169277606Y-93902347D01*
X169258173Y-93936007D01*
X169253532Y-93943291D01*
X169231246Y-93975118D01*
X169229004Y-93983486D01*
X169226538Y-93988773D01*
X169224542Y-93994258D01*
X169220212Y-94001757D01*
X169218709Y-94010283D01*
X169218708Y-94010285D01*
X169213466Y-94040018D01*
X169211596Y-94048452D01*
X169201536Y-94085995D01*
X169202291Y-94094624D01*
X169204923Y-94124707D01*
X169205300Y-94133336D01*
X169205300Y-95452030D01*
X169186393Y-95510221D01*
X169166568Y-95530571D01*
X169102518Y-95579718D01*
X169006264Y-95705159D01*
X168945756Y-95851238D01*
X168925118Y-96008000D01*
X168945756Y-96164762D01*
X169006264Y-96310841D01*
X169102518Y-96436282D01*
X169227959Y-96532536D01*
X169374038Y-96593044D01*
X169530800Y-96613682D01*
X169687562Y-96593044D01*
X169833641Y-96532536D01*
X169959082Y-96436282D01*
X170020372Y-96356407D01*
X170040008Y-96330817D01*
X170090432Y-96296161D01*
X170151597Y-96297762D01*
X170197092Y-96330817D01*
X170216728Y-96356407D01*
X170278018Y-96436282D01*
X170403459Y-96532536D01*
X170549538Y-96593044D01*
X170706300Y-96613682D01*
X170863062Y-96593044D01*
X170869060Y-96590560D01*
X170869062Y-96590559D01*
X170968415Y-96549406D01*
X171029411Y-96544605D01*
X171081580Y-96576575D01*
X171104995Y-96633103D01*
X171105300Y-96640870D01*
X171105300Y-98652030D01*
X171086393Y-98710221D01*
X171066568Y-98730571D01*
X171002518Y-98779718D01*
X170906264Y-98905159D01*
X170845756Y-99051238D01*
X170825118Y-99208000D01*
X170845756Y-99364762D01*
X170906264Y-99510841D01*
X171002518Y-99636282D01*
X171127959Y-99732536D01*
X171274038Y-99793044D01*
X171430800Y-99813682D01*
X171587562Y-99793044D01*
X171733641Y-99732536D01*
X171859082Y-99636282D01*
X171861652Y-99632933D01*
X171915313Y-99605592D01*
X171975745Y-99615163D01*
X171999626Y-99632513D01*
X172002518Y-99636282D01*
X172127959Y-99732536D01*
X172274038Y-99793044D01*
X172430800Y-99813682D01*
X172587562Y-99793044D01*
X172733641Y-99732536D01*
X172859082Y-99636282D01*
X172955336Y-99510841D01*
X173015844Y-99364762D01*
X173036482Y-99208000D01*
X175825118Y-99208000D01*
X175845756Y-99364762D01*
X175906264Y-99510841D01*
X176002518Y-99636282D01*
X176127959Y-99732536D01*
X176274038Y-99793044D01*
X176430800Y-99813682D01*
X176587562Y-99793044D01*
X176733641Y-99732536D01*
X176859082Y-99636282D01*
X176908229Y-99572233D01*
X176958652Y-99537577D01*
X176986770Y-99533500D01*
X177012266Y-99533500D01*
X177020895Y-99533877D01*
X177059607Y-99537264D01*
X177097150Y-99527204D01*
X177105584Y-99525334D01*
X177135317Y-99520092D01*
X177135319Y-99520091D01*
X177143845Y-99518588D01*
X177151344Y-99514258D01*
X177156829Y-99512262D01*
X177162116Y-99509796D01*
X177170484Y-99507554D01*
X177202311Y-99485268D01*
X177209595Y-99480627D01*
X177243255Y-99461194D01*
X177268231Y-99431429D01*
X177274065Y-99425061D01*
X178936631Y-97762496D01*
X178991148Y-97734719D01*
X179006635Y-97733500D01*
X179774830Y-97733500D01*
X179833021Y-97752407D01*
X179853371Y-97772232D01*
X179902518Y-97836282D01*
X180027959Y-97932536D01*
X180174038Y-97993044D01*
X180330800Y-98013682D01*
X180487562Y-97993044D01*
X180633641Y-97932536D01*
X180759082Y-97836282D01*
X180855336Y-97710841D01*
X180915844Y-97564762D01*
X180936482Y-97408000D01*
X180915844Y-97251238D01*
X180855336Y-97105159D01*
X180759082Y-96979718D01*
X180633641Y-96883464D01*
X180487562Y-96822956D01*
X180330800Y-96802318D01*
X180174038Y-96822956D01*
X180027959Y-96883464D01*
X179902518Y-96979718D01*
X179884267Y-97003504D01*
X179853372Y-97043767D01*
X179802948Y-97078423D01*
X179774830Y-97082500D01*
X178849322Y-97082500D01*
X178840693Y-97082123D01*
X178810622Y-97079492D01*
X178801993Y-97078737D01*
X178764457Y-97088795D01*
X178756031Y-97090663D01*
X178746838Y-97092284D01*
X178717755Y-97097412D01*
X178710250Y-97101745D01*
X178704773Y-97103738D01*
X178699482Y-97106205D01*
X178691116Y-97108447D01*
X178659284Y-97130736D01*
X178652006Y-97135372D01*
X178625844Y-97150476D01*
X178625842Y-97150477D01*
X178618345Y-97154806D01*
X178593374Y-97184565D01*
X178587540Y-97190933D01*
X177764792Y-98013682D01*
X176998324Y-98780150D01*
X176943807Y-98807927D01*
X176883375Y-98798356D01*
X176860796Y-98781952D01*
X176859082Y-98779718D01*
X176733641Y-98683464D01*
X176587562Y-98622956D01*
X176430800Y-98602318D01*
X176274038Y-98622956D01*
X176127959Y-98683464D01*
X176002518Y-98779718D01*
X175906264Y-98905159D01*
X175845756Y-99051238D01*
X175825118Y-99208000D01*
X173036482Y-99208000D01*
X173025944Y-99127958D01*
X173037094Y-99067799D01*
X173054093Y-99045033D01*
X173172857Y-98926269D01*
X173179225Y-98920434D01*
X173208994Y-98895455D01*
X173228429Y-98861792D01*
X173233068Y-98854511D01*
X173248507Y-98832462D01*
X173255354Y-98822684D01*
X173257596Y-98814319D01*
X173260058Y-98809039D01*
X173262057Y-98803548D01*
X173266388Y-98796045D01*
X173273137Y-98757771D01*
X173275006Y-98749344D01*
X173282822Y-98720173D01*
X173282822Y-98720170D01*
X173285063Y-98711807D01*
X173281677Y-98673103D01*
X173281300Y-98664475D01*
X173281300Y-96618357D01*
X173300207Y-96560166D01*
X173349707Y-96524202D01*
X173410893Y-96524202D01*
X173425678Y-96530786D01*
X173427959Y-96532536D01*
X173574038Y-96593044D01*
X173730800Y-96613682D01*
X173887562Y-96593044D01*
X174033641Y-96532536D01*
X174159082Y-96436282D01*
X174255336Y-96310841D01*
X174315844Y-96164762D01*
X174336482Y-96008000D01*
X174325944Y-95927958D01*
X174337094Y-95867799D01*
X174354093Y-95845033D01*
X180247863Y-89951264D01*
X180254231Y-89945429D01*
X180277362Y-89926020D01*
X180283994Y-89920455D01*
X180303429Y-89886792D01*
X180308069Y-89879509D01*
X180310692Y-89875764D01*
X180330353Y-89847684D01*
X180332595Y-89839318D01*
X180335062Y-89834027D01*
X180337055Y-89828550D01*
X180341388Y-89821045D01*
X180344570Y-89802998D01*
X180373295Y-89748974D01*
X180428288Y-89722152D01*
X180488544Y-89732777D01*
X180517904Y-89756553D01*
X180523276Y-89762954D01*
X180527606Y-89770455D01*
X180547818Y-89787415D01*
X180557371Y-89795431D01*
X180563739Y-89801265D01*
X186991536Y-96229063D01*
X186997371Y-96235431D01*
X187022345Y-96265194D01*
X187056019Y-96284636D01*
X187063275Y-96289259D01*
X187095116Y-96311554D01*
X187103478Y-96313795D01*
X187108760Y-96316258D01*
X187114254Y-96318257D01*
X187121755Y-96322588D01*
X187160028Y-96329337D01*
X187168456Y-96331206D01*
X187197627Y-96339022D01*
X187197630Y-96339022D01*
X187205993Y-96341263D01*
X187244696Y-96337877D01*
X187253325Y-96337500D01*
X189618300Y-96337500D01*
X189676491Y-96356407D01*
X189712455Y-96405907D01*
X189717300Y-96436500D01*
X189717300Y-96501466D01*
X189716923Y-96510095D01*
X189713536Y-96548807D01*
X189715778Y-96557174D01*
X189723596Y-96586349D01*
X189725466Y-96594784D01*
X189728649Y-96612835D01*
X189732212Y-96633045D01*
X189736542Y-96640544D01*
X189738538Y-96646029D01*
X189741004Y-96651316D01*
X189743246Y-96659684D01*
X189763813Y-96689056D01*
X189765532Y-96691511D01*
X189770171Y-96698792D01*
X189789606Y-96732455D01*
X189819371Y-96757431D01*
X189825739Y-96763265D01*
X190451304Y-97388830D01*
X190479081Y-97443347D01*
X190480300Y-97458834D01*
X190480300Y-97602748D01*
X190481248Y-97607512D01*
X190481248Y-97607514D01*
X190482575Y-97614187D01*
X190475383Y-97674949D01*
X190433849Y-97719878D01*
X190385477Y-97732500D01*
X189086770Y-97732500D01*
X189028579Y-97713593D01*
X189008228Y-97693767D01*
X188963036Y-97634871D01*
X188959082Y-97629718D01*
X188833641Y-97533464D01*
X188687562Y-97472956D01*
X188530800Y-97452318D01*
X188374038Y-97472956D01*
X188227959Y-97533464D01*
X188102518Y-97629718D01*
X188006264Y-97755159D01*
X187945756Y-97901238D01*
X187925118Y-98058000D01*
X187945756Y-98214762D01*
X188006264Y-98360841D01*
X188102518Y-98486282D01*
X188227959Y-98582536D01*
X188374038Y-98643044D01*
X188530800Y-98663682D01*
X188687562Y-98643044D01*
X188833641Y-98582536D01*
X188959082Y-98486282D01*
X189008229Y-98422233D01*
X189058652Y-98387577D01*
X189086770Y-98383500D01*
X190385477Y-98383500D01*
X190443668Y-98402407D01*
X190479632Y-98451907D01*
X190482575Y-98501813D01*
X190481248Y-98508486D01*
X190480300Y-98513252D01*
X190480300Y-98902748D01*
X190491933Y-98961231D01*
X190536248Y-99027552D01*
X190602569Y-99071867D01*
X190612132Y-99073769D01*
X190612134Y-99073770D01*
X190634805Y-99078279D01*
X190661052Y-99083500D01*
X191900548Y-99083500D01*
X191926795Y-99078279D01*
X191949466Y-99073770D01*
X191949468Y-99073769D01*
X191959031Y-99071867D01*
X191967139Y-99066450D01*
X191967140Y-99066449D01*
X191976249Y-99060362D01*
X192035137Y-99043754D01*
X192086253Y-99060363D01*
X192094660Y-99065980D01*
X192112326Y-99073298D01*
X192156338Y-99082052D01*
X192165960Y-99083000D01*
X192590120Y-99083000D01*
X192602805Y-99078878D01*
X192605800Y-99074757D01*
X192605800Y-99067320D01*
X192955800Y-99067320D01*
X192959922Y-99080005D01*
X192964043Y-99083000D01*
X193395640Y-99083000D01*
X193405262Y-99082052D01*
X193449274Y-99073298D01*
X193466942Y-99065979D01*
X193516882Y-99032611D01*
X193530411Y-99019082D01*
X193563779Y-98969142D01*
X193571098Y-98951474D01*
X193579852Y-98907462D01*
X193580736Y-98898485D01*
X193576678Y-98885995D01*
X193572557Y-98883000D01*
X192971480Y-98883000D01*
X192958795Y-98887122D01*
X192955800Y-98891243D01*
X192955800Y-99067320D01*
X192605800Y-99067320D01*
X192605800Y-98632000D01*
X192624707Y-98573809D01*
X192674207Y-98537845D01*
X192704800Y-98533000D01*
X193565120Y-98533000D01*
X193577805Y-98528878D01*
X193580800Y-98524757D01*
X193580800Y-98518160D01*
X193579852Y-98508538D01*
X193571098Y-98464526D01*
X193563780Y-98446860D01*
X193558163Y-98438453D01*
X193541554Y-98379565D01*
X193558162Y-98328449D01*
X193564249Y-98319340D01*
X193564250Y-98319339D01*
X193569667Y-98311231D01*
X193581300Y-98252748D01*
X193581300Y-97863252D01*
X193569667Y-97804769D01*
X193558463Y-97788002D01*
X193541854Y-97729116D01*
X193558463Y-97677998D01*
X193569667Y-97661231D01*
X193581300Y-97602748D01*
X193581300Y-97213252D01*
X193569667Y-97154769D01*
X193525352Y-97088448D01*
X193459031Y-97044133D01*
X193449468Y-97042231D01*
X193449466Y-97042230D01*
X193426795Y-97037721D01*
X193400548Y-97032500D01*
X192906634Y-97032500D01*
X192848443Y-97013593D01*
X192836630Y-97003504D01*
X191886770Y-96053644D01*
X191880935Y-96047276D01*
X191855956Y-96017507D01*
X191822293Y-95998072D01*
X191815012Y-95993433D01*
X191812557Y-95991714D01*
X191783185Y-95971147D01*
X191774817Y-95968905D01*
X191769530Y-95966439D01*
X191764045Y-95964443D01*
X191756546Y-95960113D01*
X191748020Y-95958610D01*
X191748018Y-95958609D01*
X191718285Y-95953367D01*
X191709850Y-95951497D01*
X191680675Y-95943679D01*
X191672308Y-95941437D01*
X191663679Y-95942192D01*
X191633596Y-95944824D01*
X191624967Y-95945201D01*
X191374069Y-95945201D01*
X191315878Y-95926294D01*
X191295527Y-95906468D01*
X191274876Y-95879554D01*
X191246381Y-95842419D01*
X191207533Y-95812610D01*
X191172877Y-95762186D01*
X191168800Y-95734068D01*
X191168800Y-95696334D01*
X191187707Y-95638143D01*
X191197796Y-95626330D01*
X191251547Y-95572579D01*
X191255344Y-95564438D01*
X191276816Y-95518390D01*
X192785335Y-95518390D01*
X192806807Y-95564438D01*
X192816591Y-95578411D01*
X192885389Y-95647209D01*
X192899362Y-95656993D01*
X192954088Y-95682512D01*
X192965396Y-95683900D01*
X192968300Y-95677673D01*
X192968300Y-95673459D01*
X193468300Y-95673459D01*
X193471821Y-95684294D01*
X193478690Y-95684294D01*
X193537238Y-95656993D01*
X193551211Y-95647209D01*
X193620009Y-95578411D01*
X193629793Y-95564438D01*
X193649483Y-95522212D01*
X193650871Y-95510904D01*
X193644644Y-95508000D01*
X193483980Y-95508000D01*
X193471295Y-95512122D01*
X193468300Y-95516243D01*
X193468300Y-95673459D01*
X192968300Y-95673459D01*
X192968300Y-95523680D01*
X192964178Y-95510995D01*
X192960057Y-95508000D01*
X192796170Y-95508000D01*
X192785335Y-95511521D01*
X192785335Y-95518390D01*
X191276816Y-95518390D01*
X191296856Y-95475414D01*
X191300059Y-95468545D01*
X191306300Y-95421139D01*
X191306299Y-95094862D01*
X191305036Y-95085261D01*
X191301048Y-95054967D01*
X191301048Y-95054966D01*
X191300059Y-95047455D01*
X191264195Y-94970545D01*
X191255208Y-94951271D01*
X191255207Y-94951269D01*
X191251547Y-94943421D01*
X191236130Y-94928004D01*
X191208353Y-94873487D01*
X191217924Y-94813055D01*
X191236130Y-94787996D01*
X191251547Y-94772579D01*
X191256799Y-94761318D01*
X191296856Y-94675414D01*
X191300059Y-94668545D01*
X191306300Y-94621139D01*
X191306299Y-94294862D01*
X191300059Y-94247455D01*
X191251547Y-94143421D01*
X191246550Y-94138424D01*
X191228926Y-94080767D01*
X191248849Y-94022917D01*
X191298971Y-93987824D01*
X191327911Y-93983500D01*
X191454966Y-93983500D01*
X191513157Y-94002407D01*
X191524970Y-94012496D01*
X192187531Y-94675057D01*
X192193365Y-94681424D01*
X192218345Y-94711194D01*
X192249521Y-94729193D01*
X192252005Y-94730627D01*
X192259289Y-94735268D01*
X192291116Y-94757554D01*
X192299484Y-94759796D01*
X192304771Y-94762262D01*
X192310256Y-94764258D01*
X192317755Y-94768588D01*
X192326281Y-94770091D01*
X192326283Y-94770092D01*
X192356016Y-94775334D01*
X192364450Y-94777204D01*
X192401993Y-94787264D01*
X192440708Y-94783877D01*
X192449337Y-94783500D01*
X192734308Y-94783500D01*
X192792499Y-94802407D01*
X192828463Y-94851907D01*
X192828463Y-94913093D01*
X192815406Y-94939281D01*
X192806808Y-94951562D01*
X192787117Y-94993788D01*
X192785729Y-95005096D01*
X192791956Y-95008000D01*
X193640430Y-95008000D01*
X193651265Y-95004479D01*
X193651265Y-94997610D01*
X193629793Y-94951562D01*
X193620009Y-94937589D01*
X193610777Y-94928357D01*
X193583000Y-94873840D01*
X193592571Y-94813408D01*
X193610777Y-94788349D01*
X193626547Y-94772579D01*
X193631799Y-94761318D01*
X193671856Y-94675414D01*
X193675059Y-94668545D01*
X193681300Y-94621139D01*
X193681299Y-94294862D01*
X193675059Y-94247455D01*
X193646110Y-94185373D01*
X193630208Y-94151271D01*
X193630207Y-94151269D01*
X193626547Y-94143421D01*
X193610777Y-94127651D01*
X193583000Y-94073134D01*
X193592571Y-94012702D01*
X193610777Y-93987643D01*
X193620009Y-93978411D01*
X193629793Y-93964438D01*
X193649483Y-93922212D01*
X193650871Y-93910904D01*
X193644644Y-93908000D01*
X192796170Y-93908000D01*
X192785335Y-93911521D01*
X192785335Y-93918390D01*
X192806808Y-93964438D01*
X192815406Y-93976719D01*
X192833293Y-94035232D01*
X192813371Y-94093083D01*
X192763249Y-94128175D01*
X192734308Y-94132500D01*
X192606634Y-94132500D01*
X192548443Y-94113593D01*
X192536630Y-94103504D01*
X192180130Y-93747004D01*
X192152353Y-93692487D01*
X192161924Y-93632055D01*
X192180130Y-93606996D01*
X192574630Y-93212496D01*
X192629147Y-93184719D01*
X192644634Y-93183500D01*
X192734308Y-93183500D01*
X192792499Y-93202407D01*
X192828463Y-93251907D01*
X192828463Y-93313093D01*
X192815406Y-93339281D01*
X192806808Y-93351562D01*
X192787117Y-93393788D01*
X192785729Y-93405096D01*
X192791956Y-93408000D01*
X193640430Y-93408000D01*
X193651265Y-93404479D01*
X193651265Y-93397610D01*
X193629793Y-93351562D01*
X193620009Y-93337589D01*
X193610777Y-93328357D01*
X193583000Y-93273840D01*
X193592571Y-93213408D01*
X193610777Y-93188349D01*
X193626547Y-93172579D01*
X193630344Y-93164438D01*
X193671856Y-93075414D01*
X193675059Y-93068545D01*
X193681300Y-93021139D01*
X193681299Y-92694862D01*
X193675059Y-92647455D01*
X193646110Y-92585373D01*
X193630208Y-92551271D01*
X193630207Y-92551269D01*
X193626547Y-92543421D01*
X193545379Y-92462253D01*
X193537531Y-92458593D01*
X193537529Y-92458592D01*
X193448214Y-92416944D01*
X193441345Y-92413741D01*
X193393939Y-92407500D01*
X193218328Y-92407500D01*
X193042662Y-92407501D01*
X193039452Y-92407924D01*
X193039445Y-92407924D01*
X193002767Y-92412752D01*
X193002766Y-92412752D01*
X192995255Y-92413741D01*
X192956729Y-92431706D01*
X192899071Y-92458592D01*
X192899069Y-92458593D01*
X192891221Y-92462253D01*
X192849970Y-92503504D01*
X192795453Y-92531281D01*
X192779966Y-92532500D01*
X192487334Y-92532500D01*
X192478705Y-92532123D01*
X192448622Y-92529491D01*
X192439993Y-92528736D01*
X192431626Y-92530978D01*
X192402451Y-92538796D01*
X192394016Y-92540666D01*
X192364283Y-92545908D01*
X192364281Y-92545909D01*
X192355755Y-92547412D01*
X192348256Y-92551742D01*
X192342771Y-92553738D01*
X192337484Y-92556204D01*
X192329116Y-92558446D01*
X192299744Y-92579013D01*
X192297289Y-92580732D01*
X192290008Y-92585371D01*
X192256345Y-92604806D01*
X192250778Y-92611441D01*
X192231369Y-92634571D01*
X192225535Y-92640939D01*
X191562970Y-93303504D01*
X191508453Y-93331281D01*
X191492966Y-93332500D01*
X191327292Y-93332500D01*
X191269101Y-93313593D01*
X191233137Y-93264093D01*
X191233137Y-93202907D01*
X191246194Y-93176719D01*
X191254792Y-93164438D01*
X191274483Y-93122212D01*
X191275871Y-93110904D01*
X191269644Y-93108000D01*
X190421170Y-93108000D01*
X190410335Y-93111521D01*
X190410335Y-93118390D01*
X190431808Y-93164438D01*
X190440406Y-93176719D01*
X190458293Y-93235232D01*
X190438371Y-93293083D01*
X190388249Y-93328175D01*
X190359308Y-93332500D01*
X189153522Y-93332500D01*
X189095331Y-93313593D01*
X189062059Y-93271388D01*
X189057821Y-93261156D01*
X189057818Y-93261150D01*
X189055336Y-93255159D01*
X188959082Y-93129718D01*
X188833641Y-93033464D01*
X188687562Y-92972956D01*
X188530800Y-92952318D01*
X188374038Y-92972956D01*
X188227959Y-93033464D01*
X188102518Y-93129718D01*
X188006264Y-93255159D01*
X188003782Y-93261150D01*
X188003779Y-93261156D01*
X187954335Y-93380527D01*
X187914599Y-93427053D01*
X187855104Y-93441337D01*
X187798576Y-93417922D01*
X187792867Y-93412646D01*
X186985317Y-92605096D01*
X190410729Y-92605096D01*
X190416956Y-92608000D01*
X190577620Y-92608000D01*
X190590305Y-92603878D01*
X190593300Y-92599757D01*
X190593300Y-92592320D01*
X191093300Y-92592320D01*
X191097422Y-92605005D01*
X191101543Y-92608000D01*
X191265430Y-92608000D01*
X191276265Y-92604479D01*
X191276265Y-92597610D01*
X191254793Y-92551562D01*
X191245009Y-92537589D01*
X191176211Y-92468791D01*
X191162238Y-92459007D01*
X191107512Y-92433488D01*
X191096204Y-92432100D01*
X191093300Y-92438327D01*
X191093300Y-92592320D01*
X190593300Y-92592320D01*
X190593300Y-92442541D01*
X190589779Y-92431706D01*
X190582910Y-92431706D01*
X190524362Y-92459007D01*
X190510389Y-92468791D01*
X190441591Y-92537589D01*
X190431807Y-92551562D01*
X190412117Y-92593788D01*
X190410729Y-92605096D01*
X186985317Y-92605096D01*
X182063061Y-87682840D01*
X189630800Y-87682840D01*
X189631748Y-87692462D01*
X189640502Y-87736474D01*
X189647821Y-87754142D01*
X189681189Y-87804082D01*
X189694718Y-87817611D01*
X189744658Y-87850979D01*
X189762326Y-87858298D01*
X189806338Y-87867052D01*
X189815960Y-87868000D01*
X192015120Y-87868000D01*
X192027805Y-87863878D01*
X192030800Y-87859757D01*
X192030800Y-87133680D01*
X192026678Y-87120995D01*
X192022557Y-87118000D01*
X189646480Y-87118000D01*
X189633795Y-87122122D01*
X189630800Y-87126243D01*
X189630800Y-87682840D01*
X182063061Y-87682840D01*
X181885296Y-87505075D01*
X181857519Y-87450558D01*
X181856300Y-87435071D01*
X181856300Y-86602320D01*
X189630800Y-86602320D01*
X189634922Y-86615005D01*
X189639043Y-86618000D01*
X192015120Y-86618000D01*
X192027805Y-86613878D01*
X192030800Y-86609757D01*
X192030800Y-85883680D01*
X192026678Y-85870995D01*
X192022557Y-85868000D01*
X189815960Y-85868000D01*
X189806338Y-85868948D01*
X189762326Y-85877702D01*
X189744658Y-85885021D01*
X189694718Y-85918389D01*
X189681189Y-85931918D01*
X189647821Y-85981858D01*
X189640502Y-85999526D01*
X189631748Y-86043538D01*
X189630800Y-86053160D01*
X189630800Y-86602320D01*
X181856300Y-86602320D01*
X181856300Y-80876526D01*
X181856677Y-80867898D01*
X181858250Y-80849917D01*
X181860063Y-80829193D01*
X181857822Y-80820830D01*
X181857822Y-80820827D01*
X181850006Y-80791656D01*
X181848137Y-80783228D01*
X181842892Y-80753485D01*
X181841388Y-80744955D01*
X181837057Y-80737454D01*
X181835058Y-80731960D01*
X181832595Y-80726678D01*
X181830354Y-80718316D01*
X181808059Y-80686475D01*
X181803436Y-80679219D01*
X181783994Y-80645545D01*
X181754235Y-80620574D01*
X181747867Y-80614740D01*
X181404094Y-80270967D01*
X181376317Y-80216450D01*
X181375945Y-80188042D01*
X181385635Y-80114435D01*
X181385635Y-80114434D01*
X181386482Y-80108000D01*
X181365844Y-79951238D01*
X181305336Y-79805159D01*
X181209082Y-79679718D01*
X181083641Y-79583464D01*
X180937562Y-79522956D01*
X180780800Y-79502318D01*
X180624038Y-79522956D01*
X180493185Y-79577157D01*
X180432189Y-79581958D01*
X180380020Y-79549989D01*
X180356605Y-79493461D01*
X180356300Y-79485693D01*
X180356300Y-79162840D01*
X189630800Y-79162840D01*
X189631748Y-79172462D01*
X189640502Y-79216474D01*
X189647821Y-79234142D01*
X189681189Y-79284082D01*
X189694718Y-79297611D01*
X189744658Y-79330979D01*
X189762326Y-79338298D01*
X189806338Y-79347052D01*
X189815960Y-79348000D01*
X192015120Y-79348000D01*
X192027805Y-79343878D01*
X192030800Y-79339757D01*
X192030800Y-78613680D01*
X192026678Y-78600995D01*
X192022557Y-78598000D01*
X189646480Y-78598000D01*
X189633795Y-78602122D01*
X189630800Y-78606243D01*
X189630800Y-79162840D01*
X180356300Y-79162840D01*
X180356300Y-78082320D01*
X189630800Y-78082320D01*
X189634922Y-78095005D01*
X189639043Y-78098000D01*
X192015120Y-78098000D01*
X192027805Y-78093878D01*
X192030800Y-78089757D01*
X192030800Y-77363680D01*
X192026678Y-77350995D01*
X192022557Y-77348000D01*
X189815960Y-77348000D01*
X189806338Y-77348948D01*
X189762326Y-77357702D01*
X189744658Y-77365021D01*
X189694718Y-77398389D01*
X189681189Y-77411918D01*
X189647821Y-77461858D01*
X189640502Y-77479526D01*
X189631748Y-77523538D01*
X189630800Y-77533160D01*
X189630800Y-78082320D01*
X180356300Y-78082320D01*
X180356300Y-77183834D01*
X180375207Y-77125643D01*
X180385296Y-77113830D01*
X180517833Y-76981293D01*
X180572350Y-76953516D01*
X180600755Y-76953144D01*
X180680800Y-76963682D01*
X180837562Y-76943044D01*
X180983641Y-76882536D01*
X181109082Y-76786282D01*
X181205336Y-76660841D01*
X181265844Y-76514762D01*
X181286482Y-76358000D01*
X181265844Y-76201238D01*
X181263218Y-76194897D01*
X181238576Y-76135407D01*
X181205336Y-76055159D01*
X181109082Y-75929718D01*
X180983641Y-75833464D01*
X180837562Y-75772956D01*
X180680800Y-75752318D01*
X180524038Y-75772956D01*
X180377959Y-75833464D01*
X180252518Y-75929718D01*
X180156264Y-76055159D01*
X180123024Y-76135407D01*
X180098383Y-76194897D01*
X180095756Y-76201238D01*
X180075118Y-76358000D01*
X180085656Y-76438042D01*
X180074506Y-76498201D01*
X180057507Y-76520967D01*
X180025304Y-76553170D01*
X179970787Y-76580947D01*
X179910355Y-76571376D01*
X179867090Y-76528111D01*
X179856300Y-76483166D01*
X179856300Y-75128206D01*
X179863836Y-75090320D01*
X179866493Y-75083907D01*
X179908607Y-74982233D01*
X179913360Y-74970759D01*
X179915844Y-74964762D01*
X179936482Y-74808000D01*
X179915844Y-74651238D01*
X179855336Y-74505159D01*
X179759082Y-74379718D01*
X179633641Y-74283464D01*
X179487562Y-74222956D01*
X179330800Y-74202318D01*
X179174038Y-74222956D01*
X179027959Y-74283464D01*
X178902518Y-74379718D01*
X178806264Y-74505159D01*
X178799928Y-74520455D01*
X178772264Y-74587242D01*
X178732527Y-74633767D01*
X178673032Y-74648051D01*
X178616505Y-74624636D01*
X178589336Y-74587242D01*
X178561672Y-74520455D01*
X178555336Y-74505159D01*
X178459082Y-74379718D01*
X178333641Y-74283464D01*
X178187562Y-74222956D01*
X178030800Y-74202318D01*
X177874038Y-74222956D01*
X177727959Y-74283464D01*
X177602518Y-74379718D01*
X177506264Y-74505159D01*
X177445756Y-74651238D01*
X177425118Y-74808000D01*
X177435656Y-74888042D01*
X177424506Y-74948201D01*
X177407507Y-74970967D01*
X177313743Y-75064731D01*
X177307376Y-75070565D01*
X177277606Y-75095545D01*
X177273275Y-75103047D01*
X177267709Y-75109680D01*
X177266431Y-75108608D01*
X177228526Y-75142735D01*
X177212330Y-75144437D01*
X177221797Y-75165700D01*
X177218249Y-75194609D01*
X177220212Y-75194955D01*
X177213466Y-75233216D01*
X177211596Y-75241650D01*
X177201536Y-75279193D01*
X177202291Y-75287822D01*
X177204923Y-75317905D01*
X177205300Y-75326534D01*
X177205300Y-75725130D01*
X177186393Y-75783321D01*
X177136893Y-75819285D01*
X177075707Y-75819285D01*
X177068415Y-75816594D01*
X176969062Y-75775441D01*
X176969060Y-75775440D01*
X176963062Y-75772956D01*
X176806300Y-75752318D01*
X176649538Y-75772956D01*
X176647059Y-75773983D01*
X176587563Y-75770864D01*
X176540013Y-75732358D01*
X176524178Y-75673258D01*
X176546105Y-75616137D01*
X176553039Y-75608436D01*
X176997870Y-75163606D01*
X177004224Y-75157783D01*
X177033994Y-75132803D01*
X177038327Y-75125298D01*
X177043891Y-75118667D01*
X177045168Y-75119739D01*
X177083071Y-75085610D01*
X177099273Y-75083907D01*
X177089804Y-75062638D01*
X177093355Y-75033739D01*
X177091388Y-75033392D01*
X177092598Y-75026534D01*
X177098137Y-74995119D01*
X177100006Y-74986692D01*
X177107822Y-74957521D01*
X177107822Y-74957518D01*
X177110063Y-74949155D01*
X177106677Y-74910451D01*
X177106300Y-74901823D01*
X177106300Y-62576526D01*
X177106677Y-62567898D01*
X177109308Y-62537820D01*
X177110063Y-62529193D01*
X177107822Y-62520830D01*
X177107822Y-62520827D01*
X177100006Y-62491656D01*
X177098137Y-62483228D01*
X177092892Y-62453485D01*
X177091388Y-62444955D01*
X177087057Y-62437454D01*
X177085058Y-62431960D01*
X177082595Y-62426678D01*
X177082356Y-62425785D01*
X190522397Y-62425785D01*
X190522568Y-62426870D01*
X190526842Y-62431873D01*
X190739759Y-62586566D01*
X190745000Y-62589892D01*
X191004187Y-62732382D01*
X191009796Y-62735021D01*
X191284803Y-62843904D01*
X191290702Y-62845821D01*
X191577189Y-62919378D01*
X191583281Y-62920540D01*
X191876722Y-62957610D01*
X191882910Y-62958000D01*
X192178690Y-62958000D01*
X192184878Y-62957610D01*
X192478319Y-62920540D01*
X192484411Y-62919378D01*
X192770898Y-62845821D01*
X192776797Y-62843904D01*
X193051804Y-62735021D01*
X193057413Y-62732382D01*
X193316600Y-62589892D01*
X193321841Y-62586566D01*
X193531550Y-62434204D01*
X193539390Y-62423413D01*
X193539390Y-62422315D01*
X193535953Y-62416706D01*
X192041886Y-60922639D01*
X192030003Y-60916585D01*
X192024972Y-60917381D01*
X190528451Y-62413902D01*
X190522397Y-62425785D01*
X177082356Y-62425785D01*
X177080354Y-62418316D01*
X177058059Y-62386475D01*
X177053436Y-62379219D01*
X177033994Y-62345545D01*
X177004235Y-62320574D01*
X176997867Y-62314740D01*
X176385296Y-61702170D01*
X176357519Y-61647653D01*
X176356300Y-61632166D01*
X176356300Y-61162736D01*
X176375207Y-61104545D01*
X176415034Y-61072295D01*
X176455667Y-61054204D01*
X176460404Y-61052095D01*
X176605722Y-60946515D01*
X176609188Y-60942666D01*
X176609192Y-60942662D01*
X176722441Y-60816885D01*
X176725913Y-60813029D01*
X176792359Y-60697942D01*
X176813130Y-60661966D01*
X176813131Y-60661964D01*
X176815725Y-60657471D01*
X176871231Y-60486639D01*
X176890007Y-60308000D01*
X177171593Y-60308000D01*
X177190369Y-60486639D01*
X177245875Y-60657471D01*
X177248469Y-60661964D01*
X177248470Y-60661966D01*
X177269241Y-60697942D01*
X177335687Y-60813029D01*
X177339159Y-60816885D01*
X177452408Y-60942662D01*
X177452412Y-60942666D01*
X177455878Y-60946515D01*
X177601196Y-61052095D01*
X177697528Y-61094985D01*
X177760552Y-61123045D01*
X177760556Y-61123046D01*
X177765290Y-61125154D01*
X177770360Y-61126232D01*
X177770361Y-61126232D01*
X177803149Y-61133201D01*
X177940988Y-61162500D01*
X178120612Y-61162500D01*
X178258451Y-61133201D01*
X178291239Y-61126232D01*
X178291240Y-61126232D01*
X178296310Y-61125154D01*
X178301044Y-61123046D01*
X178301048Y-61123045D01*
X178364072Y-61094985D01*
X178438267Y-61061951D01*
X179634958Y-61061951D01*
X179644144Y-61070668D01*
X179760709Y-61122567D01*
X179770517Y-61125754D01*
X179935967Y-61160921D01*
X179946230Y-61162000D01*
X180115370Y-61162000D01*
X180125633Y-61160921D01*
X180291083Y-61125754D01*
X180300891Y-61122567D01*
X180418672Y-61070127D01*
X180426420Y-61063150D01*
X180420968Y-61051721D01*
X180041886Y-60672639D01*
X180030003Y-60666585D01*
X180024972Y-60667381D01*
X179639690Y-61052663D01*
X179634958Y-61061951D01*
X178438267Y-61061951D01*
X178460404Y-61052095D01*
X178605722Y-60946515D01*
X178609188Y-60942666D01*
X178609192Y-60942662D01*
X178722441Y-60816885D01*
X178725913Y-60813029D01*
X178792359Y-60697942D01*
X178813130Y-60661966D01*
X178813131Y-60661964D01*
X178815725Y-60657471D01*
X178871231Y-60486639D01*
X178889465Y-60313157D01*
X179172638Y-60313157D01*
X179190319Y-60481377D01*
X179192463Y-60491467D01*
X179244733Y-60652336D01*
X179248928Y-60661758D01*
X179268380Y-60695449D01*
X179277522Y-60703682D01*
X179286369Y-60698878D01*
X179666161Y-60319086D01*
X179671403Y-60308797D01*
X180389385Y-60308797D01*
X180390181Y-60313828D01*
X180774295Y-60697942D01*
X180785256Y-60703527D01*
X180792558Y-60696597D01*
X180812672Y-60661758D01*
X180816867Y-60652336D01*
X180846512Y-60561099D01*
X189626250Y-60561099D01*
X189644821Y-60856285D01*
X189645602Y-60862460D01*
X189701022Y-61152983D01*
X189702562Y-61158986D01*
X189793963Y-61440285D01*
X189796252Y-61446067D01*
X189922184Y-61713687D01*
X189925167Y-61719112D01*
X190083657Y-61968853D01*
X190087300Y-61973868D01*
X190156116Y-62057052D01*
X190167379Y-62064200D01*
X190170143Y-62064026D01*
X190173284Y-62061963D01*
X191666161Y-60569086D01*
X191671403Y-60558797D01*
X192389385Y-60558797D01*
X192390181Y-60563828D01*
X193884402Y-62058049D01*
X193896285Y-62064103D01*
X193899020Y-62063670D01*
X193901952Y-62061322D01*
X193974300Y-61973868D01*
X193977943Y-61968853D01*
X194136433Y-61719112D01*
X194139416Y-61713687D01*
X194265348Y-61446067D01*
X194267637Y-61440285D01*
X194359038Y-61158986D01*
X194360578Y-61152983D01*
X194415998Y-60862460D01*
X194416779Y-60856285D01*
X194435350Y-60561099D01*
X194435350Y-60554901D01*
X194416779Y-60259715D01*
X194415998Y-60253540D01*
X194360578Y-59963017D01*
X194359038Y-59957014D01*
X194267637Y-59675715D01*
X194265348Y-59669933D01*
X194139416Y-59402313D01*
X194136433Y-59396888D01*
X193977943Y-59147147D01*
X193974300Y-59142132D01*
X193905484Y-59058948D01*
X193894221Y-59051800D01*
X193891457Y-59051974D01*
X193888316Y-59054037D01*
X192395439Y-60546914D01*
X192389385Y-60558797D01*
X191671403Y-60558797D01*
X191672215Y-60557203D01*
X191671419Y-60552172D01*
X190177198Y-59057951D01*
X190165315Y-59051897D01*
X190162580Y-59052330D01*
X190159648Y-59054678D01*
X190087300Y-59142132D01*
X190083657Y-59147147D01*
X189925167Y-59396888D01*
X189922184Y-59402313D01*
X189796252Y-59669933D01*
X189793963Y-59675715D01*
X189702562Y-59957014D01*
X189701022Y-59963017D01*
X189645602Y-60253540D01*
X189644821Y-60259715D01*
X189626250Y-60554901D01*
X189626250Y-60561099D01*
X180846512Y-60561099D01*
X180869137Y-60491467D01*
X180871281Y-60481377D01*
X180888962Y-60313157D01*
X180888962Y-60302843D01*
X180871281Y-60134623D01*
X180869137Y-60124533D01*
X180816867Y-59963664D01*
X180812672Y-59954242D01*
X180793220Y-59920551D01*
X180784078Y-59912318D01*
X180775231Y-59917122D01*
X180395439Y-60296914D01*
X180389385Y-60308797D01*
X179671403Y-60308797D01*
X179672215Y-60307203D01*
X179671419Y-60302172D01*
X179287305Y-59918058D01*
X179276344Y-59912473D01*
X179269042Y-59919403D01*
X179248928Y-59954242D01*
X179244733Y-59963664D01*
X179192463Y-60124533D01*
X179190319Y-60134623D01*
X179172638Y-60302843D01*
X179172638Y-60313157D01*
X178889465Y-60313157D01*
X178890007Y-60308000D01*
X178871231Y-60129361D01*
X178815725Y-59958529D01*
X178810004Y-59948619D01*
X178728508Y-59807466D01*
X178725913Y-59802971D01*
X178693937Y-59767458D01*
X178609192Y-59673338D01*
X178609188Y-59673334D01*
X178605722Y-59669485D01*
X178460404Y-59563905D01*
X178435574Y-59552850D01*
X179635180Y-59552850D01*
X179640632Y-59564279D01*
X180019714Y-59943361D01*
X180031597Y-59949415D01*
X180036628Y-59948619D01*
X180421910Y-59563337D01*
X180426642Y-59554049D01*
X180417456Y-59545332D01*
X180300891Y-59493433D01*
X180291083Y-59490246D01*
X180125633Y-59455079D01*
X180115370Y-59454000D01*
X179946230Y-59454000D01*
X179935967Y-59455079D01*
X179770517Y-59490246D01*
X179760709Y-59493433D01*
X179642928Y-59545873D01*
X179635180Y-59552850D01*
X178435574Y-59552850D01*
X178357955Y-59518292D01*
X178301048Y-59492955D01*
X178301044Y-59492954D01*
X178296310Y-59490846D01*
X178291240Y-59489768D01*
X178291239Y-59489768D01*
X178258451Y-59482799D01*
X178120612Y-59453500D01*
X177940988Y-59453500D01*
X177803149Y-59482799D01*
X177770361Y-59489768D01*
X177770360Y-59489768D01*
X177765290Y-59490846D01*
X177760556Y-59492954D01*
X177760552Y-59492955D01*
X177605931Y-59561797D01*
X177605929Y-59561798D01*
X177601197Y-59563905D01*
X177455878Y-59669485D01*
X177452412Y-59673334D01*
X177452408Y-59673338D01*
X177367663Y-59767458D01*
X177335687Y-59802971D01*
X177333092Y-59807466D01*
X177251597Y-59948619D01*
X177245875Y-59958529D01*
X177190369Y-60129361D01*
X177171593Y-60308000D01*
X176890007Y-60308000D01*
X176871231Y-60129361D01*
X176815725Y-59958529D01*
X176810004Y-59948619D01*
X176728508Y-59807466D01*
X176725913Y-59802971D01*
X176693937Y-59767458D01*
X176609192Y-59673338D01*
X176609188Y-59673334D01*
X176605722Y-59669485D01*
X176460404Y-59563905D01*
X176357955Y-59518292D01*
X176301048Y-59492955D01*
X176301044Y-59492954D01*
X176296310Y-59490846D01*
X176291240Y-59489768D01*
X176291239Y-59489768D01*
X176258451Y-59482799D01*
X176120612Y-59453500D01*
X175940988Y-59453500D01*
X175803149Y-59482799D01*
X175770361Y-59489768D01*
X175770360Y-59489768D01*
X175765290Y-59490846D01*
X175760556Y-59492954D01*
X175760552Y-59492955D01*
X175605931Y-59561797D01*
X175605929Y-59561798D01*
X175601197Y-59563905D01*
X175455878Y-59669485D01*
X175452412Y-59673334D01*
X175452408Y-59673338D01*
X175367663Y-59767458D01*
X175335687Y-59802971D01*
X175333092Y-59807466D01*
X175251597Y-59948619D01*
X175245875Y-59958529D01*
X175190369Y-60129361D01*
X175171593Y-60308000D01*
X175190369Y-60486639D01*
X175245875Y-60657471D01*
X175248469Y-60661964D01*
X175248470Y-60661966D01*
X175269241Y-60697942D01*
X175335687Y-60813029D01*
X175339159Y-60816885D01*
X175452408Y-60942662D01*
X175452412Y-60942666D01*
X175455878Y-60946515D01*
X175601196Y-61052095D01*
X175605933Y-61054204D01*
X175646566Y-61072295D01*
X175692036Y-61113235D01*
X175705300Y-61162736D01*
X175705300Y-61789466D01*
X175704923Y-61798095D01*
X175701536Y-61836807D01*
X175703778Y-61845174D01*
X175711596Y-61874349D01*
X175713466Y-61882783D01*
X175720212Y-61921045D01*
X175724542Y-61928544D01*
X175726538Y-61934029D01*
X175729004Y-61939316D01*
X175731246Y-61947684D01*
X175746069Y-61968853D01*
X175753532Y-61979511D01*
X175758171Y-61986792D01*
X175777606Y-62020455D01*
X175807370Y-62045430D01*
X175813738Y-62051264D01*
X176426304Y-62663831D01*
X176454081Y-62718348D01*
X176455300Y-62733835D01*
X176455300Y-74744513D01*
X176436393Y-74802704D01*
X176426304Y-74814517D01*
X175725304Y-75515517D01*
X175670787Y-75543294D01*
X175610355Y-75533723D01*
X175567090Y-75490458D01*
X175556300Y-75445513D01*
X175556300Y-75026534D01*
X175556677Y-75017905D01*
X175557200Y-75011928D01*
X175560064Y-74979193D01*
X175550004Y-74941650D01*
X175548134Y-74933216D01*
X175542892Y-74903483D01*
X175542891Y-74903481D01*
X175541388Y-74894955D01*
X175537058Y-74887456D01*
X175535062Y-74881971D01*
X175532596Y-74876684D01*
X175530354Y-74868316D01*
X175508068Y-74836489D01*
X175503427Y-74829205D01*
X175494495Y-74813734D01*
X175483994Y-74795545D01*
X175454229Y-74770569D01*
X175447861Y-74764735D01*
X174710296Y-74027170D01*
X174682519Y-73972653D01*
X174681300Y-73957166D01*
X174681300Y-61248372D01*
X174700207Y-61190181D01*
X174744945Y-61157677D01*
X174744458Y-61156501D01*
X174749356Y-61154472D01*
X174749707Y-61154217D01*
X174750423Y-61154030D01*
X174753465Y-61152770D01*
X174763031Y-61150867D01*
X174829352Y-61106552D01*
X174873667Y-61040231D01*
X174885300Y-60981748D01*
X174885300Y-59634252D01*
X174878767Y-59601407D01*
X174875570Y-59585334D01*
X174875569Y-59585332D01*
X174873667Y-59575769D01*
X174829352Y-59509448D01*
X174763031Y-59465133D01*
X174753468Y-59463231D01*
X174753466Y-59463230D01*
X174730795Y-59458721D01*
X174704548Y-59453500D01*
X173357052Y-59453500D01*
X173330805Y-59458721D01*
X173308134Y-59463230D01*
X173308132Y-59463231D01*
X173298569Y-59465133D01*
X173232248Y-59509448D01*
X173187933Y-59575769D01*
X173186031Y-59585332D01*
X173186030Y-59585334D01*
X173182833Y-59601407D01*
X173176300Y-59634252D01*
X173176300Y-60981748D01*
X173187933Y-61040231D01*
X173232248Y-61106552D01*
X173298569Y-61150867D01*
X173308132Y-61152769D01*
X173308134Y-61152770D01*
X173326893Y-61156501D01*
X173357052Y-61162500D01*
X173931300Y-61162500D01*
X173989491Y-61181407D01*
X174025455Y-61230907D01*
X174030300Y-61261500D01*
X174030300Y-70735540D01*
X174022136Y-70760666D01*
X174030300Y-70790104D01*
X174030300Y-74114466D01*
X174029923Y-74123094D01*
X174028923Y-74134524D01*
X174021507Y-74151995D01*
X174025299Y-74162138D01*
X174026536Y-74161807D01*
X174036596Y-74199349D01*
X174038466Y-74207783D01*
X174045212Y-74246045D01*
X174049542Y-74253544D01*
X174051538Y-74259029D01*
X174054004Y-74264316D01*
X174056246Y-74272684D01*
X174076813Y-74302056D01*
X174078532Y-74304511D01*
X174083171Y-74311792D01*
X174102606Y-74345455D01*
X174132371Y-74370431D01*
X174138739Y-74376265D01*
X174876304Y-75113830D01*
X174904081Y-75168347D01*
X174905300Y-75183834D01*
X174905300Y-79616163D01*
X174886393Y-79674354D01*
X174836893Y-79710318D01*
X174775707Y-79710318D01*
X174746033Y-79694705D01*
X174695033Y-79655572D01*
X174660377Y-79605148D01*
X174656300Y-79577030D01*
X174656300Y-75551526D01*
X174656677Y-75542898D01*
X174658745Y-75519258D01*
X174660063Y-75504193D01*
X174657822Y-75495830D01*
X174657822Y-75495827D01*
X174650006Y-75466656D01*
X174648137Y-75458228D01*
X174642892Y-75428485D01*
X174641388Y-75419955D01*
X174637057Y-75412454D01*
X174635058Y-75406960D01*
X174632595Y-75401678D01*
X174630354Y-75393316D01*
X174608059Y-75361475D01*
X174603436Y-75354219D01*
X174583994Y-75320545D01*
X174554235Y-75295574D01*
X174547867Y-75289740D01*
X174206328Y-74948201D01*
X173860296Y-74602170D01*
X173832519Y-74547653D01*
X173831300Y-74532166D01*
X173831300Y-74180460D01*
X173839464Y-74155334D01*
X173831300Y-74125896D01*
X173831300Y-70801534D01*
X173831677Y-70792906D01*
X173832677Y-70781476D01*
X173840093Y-70764005D01*
X173836301Y-70753862D01*
X173835064Y-70754193D01*
X173825004Y-70716651D01*
X173823134Y-70708216D01*
X173817892Y-70678483D01*
X173817891Y-70678481D01*
X173816388Y-70669955D01*
X173812058Y-70662456D01*
X173810062Y-70656971D01*
X173807596Y-70651684D01*
X173805354Y-70643316D01*
X173783068Y-70611489D01*
X173778427Y-70604205D01*
X173763323Y-70578044D01*
X173758994Y-70570545D01*
X173729229Y-70545569D01*
X173722861Y-70539735D01*
X172654093Y-69470967D01*
X172626316Y-69416450D01*
X172625944Y-69388045D01*
X172636482Y-69308000D01*
X172635166Y-69298000D01*
X172616691Y-69157674D01*
X172615844Y-69151238D01*
X172609937Y-69136976D01*
X172557819Y-69011154D01*
X172555336Y-69005159D01*
X172459082Y-68879718D01*
X172395033Y-68830571D01*
X172360377Y-68780148D01*
X172356300Y-68752030D01*
X172356300Y-65863970D01*
X172375207Y-65805779D01*
X172395033Y-65785428D01*
X172453929Y-65740236D01*
X172459082Y-65736282D01*
X172555336Y-65610841D01*
X172615844Y-65464762D01*
X172636482Y-65308000D01*
X172615844Y-65151238D01*
X172555336Y-65005159D01*
X172459082Y-64879718D01*
X172395033Y-64830571D01*
X172360377Y-64780148D01*
X172356300Y-64752030D01*
X172356300Y-60326522D01*
X172356677Y-60317893D01*
X172359308Y-60287822D01*
X172360063Y-60279193D01*
X172350005Y-60241657D01*
X172348137Y-60233231D01*
X172343508Y-60206979D01*
X172341388Y-60194955D01*
X172337055Y-60187450D01*
X172335062Y-60181973D01*
X172332595Y-60176682D01*
X172330353Y-60168316D01*
X172308064Y-60136484D01*
X172303428Y-60129206D01*
X172288324Y-60103044D01*
X172288323Y-60103042D01*
X172283994Y-60095545D01*
X172254235Y-60070574D01*
X172247867Y-60064740D01*
X171148069Y-58964943D01*
X171142234Y-58958575D01*
X171139699Y-58955554D01*
X171117255Y-58928806D01*
X171083592Y-58909371D01*
X171076311Y-58904732D01*
X171073856Y-58903013D01*
X171044484Y-58882446D01*
X171036116Y-58880204D01*
X171030829Y-58877738D01*
X171025344Y-58875742D01*
X171017845Y-58871412D01*
X171009319Y-58869909D01*
X171009317Y-58869908D01*
X170979584Y-58864666D01*
X170971149Y-58862796D01*
X170941974Y-58854978D01*
X170933607Y-58852736D01*
X170907982Y-58854978D01*
X170894895Y-58856123D01*
X170886266Y-58856500D01*
X169237220Y-58856500D01*
X169192275Y-58845710D01*
X169102349Y-58799890D01*
X169102348Y-58799890D01*
X169095409Y-58796354D01*
X169087715Y-58795135D01*
X169087714Y-58795135D01*
X169005470Y-58782109D01*
X169005468Y-58782109D01*
X169001624Y-58781500D01*
X164375281Y-58781500D01*
X164375277Y-58781501D01*
X164343367Y-58781501D01*
X164335960Y-58783907D01*
X164335957Y-58783908D01*
X164320427Y-58788954D01*
X164305325Y-58792580D01*
X164281496Y-58796354D01*
X164260010Y-58807302D01*
X164260006Y-58807304D01*
X164245656Y-58813249D01*
X164222710Y-58820704D01*
X164203186Y-58834889D01*
X164189956Y-58842996D01*
X164168458Y-58853950D01*
X163597904Y-59424504D01*
X163543387Y-59452281D01*
X163527900Y-59453500D01*
X163033701Y-59453500D01*
X162975510Y-59434593D01*
X162963697Y-59424504D01*
X162415709Y-58876516D01*
X162415705Y-58876513D01*
X162393142Y-58853950D01*
X162371646Y-58842998D01*
X162358405Y-58834883D01*
X162345195Y-58825285D01*
X162338890Y-58820704D01*
X162315943Y-58813248D01*
X162301594Y-58807304D01*
X162280104Y-58796354D01*
X162272411Y-58795136D01*
X162272409Y-58795135D01*
X162256281Y-58792581D01*
X162241180Y-58788956D01*
X162218233Y-58781500D01*
X153625281Y-58781500D01*
X153625277Y-58781501D01*
X153593367Y-58781501D01*
X153585960Y-58783907D01*
X153585957Y-58783908D01*
X153570427Y-58788954D01*
X153555325Y-58792580D01*
X153531496Y-58796354D01*
X153510010Y-58807302D01*
X153510006Y-58807304D01*
X153495656Y-58813249D01*
X153472710Y-58820704D01*
X153453186Y-58834889D01*
X153439956Y-58842996D01*
X153418458Y-58853950D01*
X152847904Y-59424504D01*
X152793387Y-59452281D01*
X152777900Y-59453500D01*
X151857052Y-59453500D01*
X151830805Y-59458721D01*
X151808134Y-59463230D01*
X151808132Y-59463231D01*
X151798569Y-59465133D01*
X151732248Y-59509448D01*
X151687933Y-59575769D01*
X151686031Y-59585332D01*
X151686030Y-59585334D01*
X151682833Y-59601407D01*
X151676300Y-59634252D01*
X151676300Y-60981748D01*
X151687933Y-61040231D01*
X151732248Y-61106552D01*
X151798569Y-61150867D01*
X151808132Y-61152769D01*
X151808134Y-61152770D01*
X151826893Y-61156501D01*
X151857052Y-61162500D01*
X153204548Y-61162500D01*
X153234707Y-61156501D01*
X153253466Y-61152770D01*
X153253468Y-61152769D01*
X153263031Y-61150867D01*
X153329352Y-61106552D01*
X153373667Y-61040231D01*
X153385300Y-60981748D01*
X153385300Y-60060900D01*
X153404207Y-60002709D01*
X153414296Y-59990896D01*
X153622876Y-59782316D01*
X153677393Y-59754539D01*
X153737825Y-59764110D01*
X153781090Y-59807375D01*
X153790661Y-59867807D01*
X153778616Y-59901820D01*
X153751597Y-59948619D01*
X153745875Y-59958529D01*
X153690369Y-60129361D01*
X153671593Y-60308000D01*
X153690369Y-60486639D01*
X153745875Y-60657471D01*
X153748469Y-60661964D01*
X153748470Y-60661966D01*
X153769241Y-60697942D01*
X153835687Y-60813029D01*
X153839159Y-60816885D01*
X153952408Y-60942662D01*
X153952412Y-60942666D01*
X153955878Y-60946515D01*
X154101196Y-61052095D01*
X154197528Y-61094985D01*
X154260552Y-61123045D01*
X154260556Y-61123046D01*
X154265290Y-61125154D01*
X154270360Y-61126232D01*
X154270361Y-61126232D01*
X154303149Y-61133201D01*
X154440988Y-61162500D01*
X154620612Y-61162500D01*
X154758451Y-61133201D01*
X154791239Y-61126232D01*
X154791240Y-61126232D01*
X154796310Y-61125154D01*
X154801044Y-61123046D01*
X154801048Y-61123045D01*
X154864072Y-61094985D01*
X154960404Y-61052095D01*
X155105722Y-60946515D01*
X155109188Y-60942666D01*
X155109192Y-60942662D01*
X155222441Y-60816885D01*
X155225913Y-60813029D01*
X155292359Y-60697942D01*
X155313130Y-60661966D01*
X155313131Y-60661964D01*
X155315725Y-60657471D01*
X155371231Y-60486639D01*
X155390007Y-60308000D01*
X155371231Y-60129361D01*
X155315725Y-59958529D01*
X155310004Y-59948619D01*
X155228508Y-59807466D01*
X155225913Y-59802971D01*
X155193937Y-59767458D01*
X155176186Y-59747743D01*
X155151300Y-59691848D01*
X155164022Y-59631999D01*
X155209492Y-59591059D01*
X155249758Y-59582500D01*
X155811842Y-59582500D01*
X155870033Y-59601407D01*
X155905997Y-59650907D01*
X155905997Y-59712093D01*
X155885414Y-59747743D01*
X155867663Y-59767458D01*
X155835687Y-59802971D01*
X155833092Y-59807466D01*
X155751597Y-59948619D01*
X155745875Y-59958529D01*
X155690369Y-60129361D01*
X155671593Y-60308000D01*
X155690369Y-60486639D01*
X155745875Y-60657471D01*
X155748469Y-60661964D01*
X155748470Y-60661966D01*
X155769241Y-60697942D01*
X155835687Y-60813029D01*
X155839159Y-60816885D01*
X155952408Y-60942662D01*
X155952412Y-60942666D01*
X155955878Y-60946515D01*
X156101196Y-61052095D01*
X156197528Y-61094985D01*
X156260552Y-61123045D01*
X156260556Y-61123046D01*
X156265290Y-61125154D01*
X156270360Y-61126232D01*
X156270361Y-61126232D01*
X156303149Y-61133201D01*
X156440988Y-61162500D01*
X156620612Y-61162500D01*
X156758451Y-61133201D01*
X156791239Y-61126232D01*
X156791240Y-61126232D01*
X156796310Y-61125154D01*
X156801044Y-61123046D01*
X156801048Y-61123045D01*
X156864072Y-61094985D01*
X156938267Y-61061951D01*
X158134958Y-61061951D01*
X158144144Y-61070668D01*
X158260709Y-61122567D01*
X158270517Y-61125754D01*
X158435967Y-61160921D01*
X158446230Y-61162000D01*
X158615370Y-61162000D01*
X158625633Y-61160921D01*
X158791083Y-61125754D01*
X158800891Y-61122567D01*
X158918672Y-61070127D01*
X158926420Y-61063150D01*
X158920968Y-61051721D01*
X158541886Y-60672639D01*
X158530003Y-60666585D01*
X158524972Y-60667381D01*
X158139690Y-61052663D01*
X158134958Y-61061951D01*
X156938267Y-61061951D01*
X156960404Y-61052095D01*
X157105722Y-60946515D01*
X157109188Y-60942666D01*
X157109192Y-60942662D01*
X157222441Y-60816885D01*
X157225913Y-60813029D01*
X157292359Y-60697942D01*
X157313130Y-60661966D01*
X157313131Y-60661964D01*
X157315725Y-60657471D01*
X157371231Y-60486639D01*
X157389465Y-60313157D01*
X157672638Y-60313157D01*
X157690319Y-60481377D01*
X157692463Y-60491467D01*
X157744733Y-60652336D01*
X157748928Y-60661758D01*
X157768380Y-60695449D01*
X157777522Y-60703682D01*
X157786369Y-60698878D01*
X158166161Y-60319086D01*
X158171403Y-60308797D01*
X158889385Y-60308797D01*
X158890181Y-60313828D01*
X159274295Y-60697942D01*
X159285256Y-60703527D01*
X159292558Y-60696597D01*
X159312672Y-60661758D01*
X159316867Y-60652336D01*
X159369137Y-60491467D01*
X159371281Y-60481377D01*
X159388962Y-60313157D01*
X159388962Y-60302843D01*
X159371281Y-60134623D01*
X159369137Y-60124533D01*
X159316867Y-59963664D01*
X159312672Y-59954242D01*
X159293220Y-59920551D01*
X159284078Y-59912318D01*
X159275231Y-59917122D01*
X158895439Y-60296914D01*
X158889385Y-60308797D01*
X158171403Y-60308797D01*
X158172215Y-60307203D01*
X158171419Y-60302172D01*
X157787305Y-59918058D01*
X157776344Y-59912473D01*
X157769042Y-59919403D01*
X157748928Y-59954242D01*
X157744733Y-59963664D01*
X157692463Y-60124533D01*
X157690319Y-60134623D01*
X157672638Y-60302843D01*
X157672638Y-60313157D01*
X157389465Y-60313157D01*
X157390007Y-60308000D01*
X157371231Y-60129361D01*
X157315725Y-59958529D01*
X157310004Y-59948619D01*
X157228508Y-59807466D01*
X157225913Y-59802971D01*
X157193937Y-59767458D01*
X157176186Y-59747743D01*
X157151300Y-59691848D01*
X157164022Y-59631999D01*
X157209492Y-59591059D01*
X157249758Y-59582500D01*
X158117845Y-59582500D01*
X158176036Y-59601407D01*
X158187849Y-59611496D01*
X158519714Y-59943361D01*
X158531597Y-59949415D01*
X158536628Y-59948619D01*
X158873751Y-59611496D01*
X158928268Y-59583719D01*
X158943755Y-59582500D01*
X161947899Y-59582500D01*
X162006090Y-59601407D01*
X162017903Y-59611496D01*
X162397304Y-59990897D01*
X162425081Y-60045414D01*
X162426300Y-60060900D01*
X162426300Y-60981748D01*
X162437933Y-61040231D01*
X162482248Y-61106552D01*
X162548569Y-61150867D01*
X162558132Y-61152769D01*
X162558134Y-61152770D01*
X162576893Y-61156501D01*
X162607052Y-61162500D01*
X163954548Y-61162500D01*
X163984707Y-61156501D01*
X164003466Y-61152770D01*
X164003468Y-61152769D01*
X164013031Y-61150867D01*
X164079352Y-61106552D01*
X164123667Y-61040231D01*
X164135300Y-60981748D01*
X164135300Y-60060900D01*
X164154207Y-60002709D01*
X164164296Y-59990896D01*
X164372876Y-59782316D01*
X164427393Y-59754539D01*
X164487825Y-59764110D01*
X164531090Y-59807375D01*
X164540661Y-59867807D01*
X164528616Y-59901820D01*
X164501597Y-59948619D01*
X164495875Y-59958529D01*
X164440369Y-60129361D01*
X164421593Y-60308000D01*
X164440369Y-60486639D01*
X164495875Y-60657471D01*
X164498469Y-60661964D01*
X164498470Y-60661966D01*
X164519241Y-60697942D01*
X164585687Y-60813029D01*
X164589159Y-60816885D01*
X164702408Y-60942662D01*
X164702412Y-60942666D01*
X164705878Y-60946515D01*
X164851196Y-61052095D01*
X164947528Y-61094985D01*
X165010552Y-61123045D01*
X165010556Y-61123046D01*
X165015290Y-61125154D01*
X165020360Y-61126232D01*
X165020361Y-61126232D01*
X165053149Y-61133201D01*
X165190988Y-61162500D01*
X165370612Y-61162500D01*
X165508451Y-61133201D01*
X165541239Y-61126232D01*
X165541240Y-61126232D01*
X165546310Y-61125154D01*
X165551044Y-61123046D01*
X165551048Y-61123045D01*
X165614072Y-61094985D01*
X165710404Y-61052095D01*
X165855722Y-60946515D01*
X165859188Y-60942666D01*
X165859192Y-60942662D01*
X165972441Y-60816885D01*
X165975913Y-60813029D01*
X166042359Y-60697942D01*
X166063130Y-60661966D01*
X166063131Y-60661964D01*
X166065725Y-60657471D01*
X166121231Y-60486639D01*
X166140007Y-60308000D01*
X166121231Y-60129361D01*
X166065725Y-59958529D01*
X166060004Y-59948619D01*
X165978508Y-59807466D01*
X165975913Y-59802971D01*
X165943937Y-59767458D01*
X165926186Y-59747743D01*
X165901300Y-59691848D01*
X165914022Y-59631999D01*
X165959492Y-59591059D01*
X165999758Y-59582500D01*
X166561842Y-59582500D01*
X166620033Y-59601407D01*
X166655997Y-59650907D01*
X166655997Y-59712093D01*
X166635414Y-59747743D01*
X166617663Y-59767458D01*
X166585687Y-59802971D01*
X166583092Y-59807466D01*
X166501597Y-59948619D01*
X166495875Y-59958529D01*
X166440369Y-60129361D01*
X166421593Y-60308000D01*
X166440369Y-60486639D01*
X166495875Y-60657471D01*
X166498469Y-60661964D01*
X166498470Y-60661966D01*
X166519241Y-60697942D01*
X166585687Y-60813029D01*
X166589159Y-60816885D01*
X166702408Y-60942662D01*
X166702412Y-60942666D01*
X166705878Y-60946515D01*
X166851196Y-61052095D01*
X166947528Y-61094985D01*
X167010552Y-61123045D01*
X167010556Y-61123046D01*
X167015290Y-61125154D01*
X167020360Y-61126232D01*
X167020361Y-61126232D01*
X167053149Y-61133201D01*
X167190988Y-61162500D01*
X167370612Y-61162500D01*
X167508451Y-61133201D01*
X167541239Y-61126232D01*
X167541240Y-61126232D01*
X167546310Y-61125154D01*
X167551044Y-61123046D01*
X167551048Y-61123045D01*
X167614072Y-61094985D01*
X167688267Y-61061951D01*
X168884958Y-61061951D01*
X168894144Y-61070668D01*
X169010709Y-61122567D01*
X169020517Y-61125754D01*
X169185967Y-61160921D01*
X169196230Y-61162000D01*
X169365370Y-61162000D01*
X169375633Y-61160921D01*
X169541083Y-61125754D01*
X169550891Y-61122567D01*
X169668672Y-61070127D01*
X169676420Y-61063150D01*
X169670968Y-61051721D01*
X169291886Y-60672639D01*
X169280003Y-60666585D01*
X169274972Y-60667381D01*
X168889690Y-61052663D01*
X168884958Y-61061951D01*
X167688267Y-61061951D01*
X167710404Y-61052095D01*
X167855722Y-60946515D01*
X167859188Y-60942666D01*
X167859192Y-60942662D01*
X167972441Y-60816885D01*
X167975913Y-60813029D01*
X168042359Y-60697942D01*
X168063130Y-60661966D01*
X168063131Y-60661964D01*
X168065725Y-60657471D01*
X168121231Y-60486639D01*
X168139465Y-60313157D01*
X168422638Y-60313157D01*
X168440319Y-60481377D01*
X168442463Y-60491467D01*
X168494733Y-60652336D01*
X168498928Y-60661758D01*
X168518380Y-60695449D01*
X168527522Y-60703682D01*
X168536369Y-60698878D01*
X168916161Y-60319086D01*
X168922215Y-60307203D01*
X168921419Y-60302172D01*
X168537305Y-59918058D01*
X168526344Y-59912473D01*
X168519042Y-59919403D01*
X168498928Y-59954242D01*
X168494733Y-59963664D01*
X168442463Y-60124533D01*
X168440319Y-60134623D01*
X168422638Y-60302843D01*
X168422638Y-60313157D01*
X168139465Y-60313157D01*
X168140007Y-60308000D01*
X168121231Y-60129361D01*
X168065725Y-59958529D01*
X168060004Y-59948619D01*
X167978508Y-59807466D01*
X167975913Y-59802971D01*
X167943937Y-59767458D01*
X167926186Y-59747743D01*
X167901300Y-59691848D01*
X167914022Y-59631999D01*
X167959492Y-59591059D01*
X167999758Y-59582500D01*
X168867845Y-59582500D01*
X168926036Y-59601407D01*
X168937849Y-59611496D01*
X169269714Y-59943361D01*
X169281597Y-59949415D01*
X169286628Y-59948619D01*
X169671908Y-59563339D01*
X169672816Y-59561557D01*
X169716079Y-59518292D01*
X169761027Y-59507500D01*
X170242686Y-59507500D01*
X170300877Y-59526407D01*
X170336841Y-59575907D01*
X170336841Y-59637093D01*
X170321229Y-59666766D01*
X170243965Y-59767458D01*
X170241482Y-59773453D01*
X170196853Y-59881196D01*
X170157116Y-59927721D01*
X170097621Y-59942005D01*
X170039144Y-59916880D01*
X170034078Y-59912318D01*
X170025231Y-59917122D01*
X169645439Y-60296914D01*
X169639385Y-60308797D01*
X169640181Y-60313828D01*
X170024295Y-60697942D01*
X170035256Y-60703527D01*
X170042558Y-60696597D01*
X170062672Y-60661758D01*
X170066867Y-60652336D01*
X170119136Y-60491468D01*
X170121261Y-60481471D01*
X170151854Y-60428483D01*
X170207749Y-60403596D01*
X170267598Y-60416317D01*
X170296639Y-60441786D01*
X170340219Y-60498581D01*
X170416567Y-60557165D01*
X170451223Y-60607590D01*
X170455300Y-60635707D01*
X170455300Y-64002030D01*
X170436393Y-64060221D01*
X170416568Y-64080571D01*
X170352518Y-64129718D01*
X170256264Y-64255159D01*
X170195756Y-64401238D01*
X170175118Y-64558000D01*
X170195756Y-64714762D01*
X170256264Y-64860841D01*
X170352518Y-64986282D01*
X170357671Y-64990236D01*
X170416567Y-65035428D01*
X170451223Y-65085852D01*
X170455300Y-65113970D01*
X170455300Y-67752030D01*
X170436393Y-67810221D01*
X170416568Y-67830571D01*
X170352518Y-67879718D01*
X170256264Y-68005159D01*
X170195756Y-68151238D01*
X170175118Y-68308000D01*
X170195756Y-68464762D01*
X170256264Y-68610841D01*
X170352518Y-68736282D01*
X170357671Y-68740236D01*
X170416567Y-68785428D01*
X170451223Y-68835852D01*
X170455300Y-68863970D01*
X170455300Y-71289466D01*
X170454923Y-71298095D01*
X170451536Y-71336807D01*
X170453778Y-71345174D01*
X170461596Y-71374349D01*
X170463466Y-71382783D01*
X170470212Y-71421045D01*
X170474542Y-71428544D01*
X170476538Y-71434029D01*
X170479004Y-71439316D01*
X170481246Y-71447684D01*
X170501813Y-71477056D01*
X170503532Y-71479511D01*
X170508171Y-71486792D01*
X170527606Y-71520455D01*
X170557371Y-71545431D01*
X170563739Y-71551265D01*
X171926304Y-72913831D01*
X171954081Y-72968348D01*
X171955300Y-72983835D01*
X171955300Y-74289466D01*
X171954923Y-74298095D01*
X171951536Y-74336807D01*
X171953778Y-74345174D01*
X171961596Y-74374349D01*
X171963466Y-74382784D01*
X171968006Y-74408532D01*
X171970212Y-74421045D01*
X171974542Y-74428544D01*
X171976538Y-74434029D01*
X171979004Y-74439316D01*
X171981246Y-74447684D01*
X172001813Y-74477056D01*
X172003532Y-74479511D01*
X172008171Y-74486792D01*
X172027606Y-74520455D01*
X172041563Y-74532166D01*
X172057371Y-74545431D01*
X172063739Y-74551265D01*
X173176304Y-75663830D01*
X173204081Y-75718347D01*
X173205300Y-75733834D01*
X173205300Y-76985693D01*
X173186393Y-77043884D01*
X173136893Y-77079848D01*
X173075707Y-77079848D01*
X173068419Y-77077159D01*
X172937562Y-77022956D01*
X172780800Y-77002318D01*
X172624038Y-77022956D01*
X172477959Y-77083464D01*
X172352518Y-77179718D01*
X172304996Y-77241651D01*
X172304913Y-77241759D01*
X172254489Y-77276415D01*
X172217743Y-77280115D01*
X172201993Y-77278737D01*
X172193630Y-77280978D01*
X172193627Y-77280978D01*
X172164456Y-77288794D01*
X172156029Y-77290663D01*
X172117755Y-77297412D01*
X172110254Y-77301743D01*
X172104760Y-77303742D01*
X172099478Y-77306205D01*
X172091116Y-77308446D01*
X172084023Y-77313413D01*
X172084022Y-77313413D01*
X172059278Y-77330739D01*
X172052019Y-77335364D01*
X172018345Y-77354806D01*
X172012775Y-77361444D01*
X171993374Y-77384565D01*
X171987540Y-77390933D01*
X171446050Y-77932424D01*
X170924970Y-78453504D01*
X170870453Y-78481281D01*
X170854966Y-78482500D01*
X168929848Y-78482500D01*
X168871657Y-78463593D01*
X168835693Y-78414093D01*
X168835693Y-78352907D01*
X168869581Y-78304958D01*
X168953929Y-78240236D01*
X168959082Y-78236282D01*
X169055336Y-78110841D01*
X169115844Y-77964762D01*
X169136482Y-77808000D01*
X169115844Y-77651238D01*
X169055336Y-77505159D01*
X168959082Y-77379718D01*
X168895005Y-77330550D01*
X168859646Y-77277633D01*
X168850004Y-77241651D01*
X168848134Y-77233216D01*
X168842892Y-77203483D01*
X168842891Y-77203481D01*
X168841388Y-77194955D01*
X168837058Y-77187456D01*
X168835062Y-77181971D01*
X168832596Y-77176684D01*
X168830354Y-77168316D01*
X168808068Y-77136489D01*
X168803427Y-77129205D01*
X168783994Y-77095545D01*
X168754229Y-77070569D01*
X168747861Y-77064735D01*
X164277212Y-72594086D01*
X164249435Y-72539569D01*
X164253277Y-72492833D01*
X164308624Y-72326454D01*
X164308624Y-72326452D01*
X164310151Y-72321863D01*
X164335971Y-72117474D01*
X164336383Y-72088000D01*
X164316280Y-71882970D01*
X164256735Y-71685749D01*
X164160018Y-71503849D01*
X164029811Y-71344200D01*
X164021745Y-71337527D01*
X163874802Y-71215965D01*
X163874800Y-71215964D01*
X163871075Y-71212882D01*
X163750436Y-71147653D01*
X163694109Y-71117197D01*
X163694108Y-71117197D01*
X163689855Y-71114897D01*
X163626655Y-71095333D01*
X163497675Y-71055407D01*
X163497671Y-71055406D01*
X163493054Y-71053977D01*
X163488246Y-71053472D01*
X163488243Y-71053471D01*
X163292985Y-71032949D01*
X163292983Y-71032949D01*
X163288169Y-71032443D01*
X163228154Y-71037905D01*
X163087822Y-71050675D01*
X163087817Y-71050676D01*
X163083003Y-71051114D01*
X162885372Y-71109280D01*
X162881088Y-71111519D01*
X162881087Y-71111520D01*
X162870228Y-71117197D01*
X162702802Y-71204726D01*
X162699031Y-71207758D01*
X162546020Y-71330781D01*
X162546017Y-71330783D01*
X162542247Y-71333815D01*
X162539133Y-71337526D01*
X162539132Y-71337527D01*
X162504731Y-71378525D01*
X162409824Y-71491630D01*
X162407489Y-71495878D01*
X162407488Y-71495879D01*
X162400755Y-71508126D01*
X162310576Y-71672162D01*
X162248284Y-71868532D01*
X162247744Y-71873344D01*
X162247744Y-71873345D01*
X162246665Y-71882970D01*
X162225320Y-72073262D01*
X162242559Y-72278553D01*
X162299344Y-72476586D01*
X162393512Y-72659818D01*
X162521477Y-72821270D01*
X162678364Y-72954791D01*
X162682587Y-72957151D01*
X162682591Y-72957154D01*
X162785002Y-73014389D01*
X162858198Y-73055297D01*
X162862796Y-73056791D01*
X163049524Y-73117463D01*
X163049526Y-73117464D01*
X163054129Y-73118959D01*
X163258694Y-73143351D01*
X163263516Y-73142980D01*
X163263519Y-73142980D01*
X163331341Y-73137761D01*
X163464100Y-73127546D01*
X163662525Y-73072145D01*
X163666838Y-73069966D01*
X163666844Y-73069964D01*
X163712896Y-73046701D01*
X163773362Y-73037341D01*
X163827537Y-73065063D01*
X168058352Y-77295878D01*
X168086129Y-77350395D01*
X168076558Y-77410827D01*
X168066890Y-77426149D01*
X168006264Y-77505159D01*
X167945756Y-77651238D01*
X167925118Y-77808000D01*
X167945756Y-77964762D01*
X168006264Y-78110841D01*
X168102518Y-78236282D01*
X168107671Y-78240236D01*
X168192019Y-78304958D01*
X168226675Y-78355382D01*
X168225074Y-78416547D01*
X168187827Y-78465088D01*
X168131752Y-78482500D01*
X167179848Y-78482500D01*
X167121657Y-78463593D01*
X167085693Y-78414093D01*
X167085693Y-78352907D01*
X167119581Y-78304958D01*
X167203929Y-78240236D01*
X167209082Y-78236282D01*
X167305336Y-78110841D01*
X167365844Y-77964762D01*
X167386482Y-77808000D01*
X167365844Y-77651238D01*
X167305336Y-77505159D01*
X167209082Y-77379718D01*
X167083641Y-77283464D01*
X166937562Y-77222956D01*
X166780800Y-77202318D01*
X166744942Y-77207039D01*
X166684783Y-77195889D01*
X166662017Y-77178890D01*
X164348352Y-74865226D01*
X164320575Y-74810709D01*
X164320137Y-74782814D01*
X164335623Y-74660227D01*
X164335971Y-74657474D01*
X164336383Y-74628000D01*
X164333865Y-74602321D01*
X164316752Y-74427780D01*
X164316751Y-74427776D01*
X164316280Y-74422970D01*
X164303222Y-74379718D01*
X164266783Y-74259029D01*
X164256735Y-74225749D01*
X164160018Y-74043849D01*
X164029811Y-73884200D01*
X163871075Y-73752882D01*
X163689855Y-73654897D01*
X163626655Y-73635333D01*
X163497675Y-73595407D01*
X163497671Y-73595406D01*
X163493054Y-73593977D01*
X163488246Y-73593472D01*
X163488243Y-73593471D01*
X163292985Y-73572949D01*
X163292983Y-73572949D01*
X163288169Y-73572443D01*
X163228154Y-73577905D01*
X163087822Y-73590675D01*
X163087817Y-73590676D01*
X163083003Y-73591114D01*
X162885372Y-73649280D01*
X162881088Y-73651519D01*
X162881087Y-73651520D01*
X162870228Y-73657197D01*
X162702802Y-73744726D01*
X162699031Y-73747758D01*
X162546020Y-73870781D01*
X162546017Y-73870783D01*
X162542247Y-73873815D01*
X162539133Y-73877526D01*
X162539132Y-73877527D01*
X162530385Y-73887952D01*
X162409824Y-74031630D01*
X162407489Y-74035878D01*
X162407488Y-74035879D01*
X162400755Y-74048126D01*
X162310576Y-74212162D01*
X162309113Y-74216775D01*
X162309111Y-74216779D01*
X162273774Y-74328178D01*
X162248284Y-74408532D01*
X162247744Y-74413344D01*
X162247744Y-74413345D01*
X162228239Y-74587242D01*
X162225320Y-74613262D01*
X162229264Y-74660227D01*
X162241257Y-74803044D01*
X162242559Y-74818553D01*
X162243892Y-74823201D01*
X162243892Y-74823202D01*
X162293189Y-74995120D01*
X162299344Y-75016586D01*
X162393512Y-75199818D01*
X162521477Y-75361270D01*
X162525157Y-75364402D01*
X162525159Y-75364404D01*
X162617305Y-75442826D01*
X162678364Y-75494791D01*
X162682587Y-75497151D01*
X162682591Y-75497154D01*
X162772151Y-75547207D01*
X162858198Y-75595297D01*
X162862796Y-75596791D01*
X163049524Y-75657463D01*
X163049526Y-75657464D01*
X163054129Y-75658959D01*
X163258694Y-75683351D01*
X163263516Y-75682980D01*
X163263519Y-75682980D01*
X163331341Y-75677761D01*
X163464100Y-75667546D01*
X163662525Y-75612145D01*
X163666838Y-75609966D01*
X163666844Y-75609964D01*
X163842089Y-75521441D01*
X163842091Y-75521440D01*
X163846410Y-75519258D01*
X163909499Y-75469968D01*
X163966994Y-75449042D01*
X164025809Y-75465908D01*
X164040452Y-75477978D01*
X165115643Y-76553170D01*
X166163323Y-77600850D01*
X166191100Y-77655367D01*
X166191472Y-77683776D01*
X166179269Y-77776472D01*
X166175118Y-77808000D01*
X166195756Y-77964762D01*
X166256264Y-78110841D01*
X166352518Y-78236282D01*
X166357671Y-78240236D01*
X166442019Y-78304958D01*
X166476675Y-78355382D01*
X166475074Y-78416547D01*
X166437827Y-78465088D01*
X166381752Y-78482500D01*
X162586770Y-78482500D01*
X162528579Y-78463593D01*
X162508228Y-78443767D01*
X162463036Y-78384871D01*
X162459082Y-78379718D01*
X162333641Y-78283464D01*
X162187562Y-78222956D01*
X162030800Y-78202318D01*
X161874038Y-78222956D01*
X161727959Y-78283464D01*
X161602518Y-78379718D01*
X161506264Y-78505159D01*
X161445756Y-78651238D01*
X161425118Y-78808000D01*
X161425965Y-78814434D01*
X161439407Y-78916539D01*
X161428257Y-78976700D01*
X161383874Y-79018817D01*
X161323212Y-79026803D01*
X161303372Y-79020926D01*
X161187562Y-78972956D01*
X161030800Y-78952318D01*
X160874038Y-78972956D01*
X160727959Y-79033464D01*
X160602518Y-79129718D01*
X160506264Y-79255159D01*
X160445756Y-79401238D01*
X160425118Y-79558000D01*
X160445756Y-79714762D01*
X160506264Y-79860841D01*
X160602518Y-79986282D01*
X160727959Y-80082536D01*
X160874038Y-80143044D01*
X161030800Y-80163682D01*
X161187562Y-80143044D01*
X161333641Y-80082536D01*
X161459082Y-79986282D01*
X161508229Y-79922233D01*
X161558652Y-79887577D01*
X161586770Y-79883500D01*
X162898137Y-79883500D01*
X162956328Y-79902407D01*
X162992292Y-79951907D01*
X162992292Y-80013093D01*
X162989601Y-80020385D01*
X162963858Y-80082536D01*
X162945756Y-80126238D01*
X162925118Y-80283000D01*
X162945756Y-80439762D01*
X163006264Y-80585841D01*
X163102518Y-80711282D01*
X163227959Y-80807536D01*
X163374038Y-80868044D01*
X163530800Y-80888682D01*
X163610842Y-80878144D01*
X163671001Y-80889294D01*
X163693767Y-80906293D01*
X164759582Y-81972109D01*
X165812542Y-83025069D01*
X165818378Y-83031439D01*
X165824530Y-83038771D01*
X165847449Y-83095501D01*
X165832646Y-83154869D01*
X165827243Y-83162657D01*
X165756264Y-83255159D01*
X165695756Y-83401238D01*
X165675118Y-83558000D01*
X165685656Y-83638042D01*
X165674506Y-83698201D01*
X165657507Y-83720967D01*
X162499970Y-86878504D01*
X162445453Y-86906281D01*
X162429966Y-86907500D01*
X161629848Y-86907500D01*
X161571657Y-86888593D01*
X161535693Y-86839093D01*
X161535693Y-86777907D01*
X161569581Y-86729958D01*
X161639057Y-86676648D01*
X161659082Y-86661282D01*
X161755336Y-86535841D01*
X161815844Y-86389762D01*
X161836482Y-86233000D01*
X161815844Y-86076238D01*
X161755336Y-85930159D01*
X161659082Y-85804718D01*
X161533641Y-85708464D01*
X161387562Y-85647956D01*
X161230800Y-85627318D01*
X161074038Y-85647956D01*
X160927959Y-85708464D01*
X160802518Y-85804718D01*
X160706264Y-85930159D01*
X160704782Y-85933737D01*
X160660136Y-85973940D01*
X160619866Y-85982500D01*
X153786770Y-85982500D01*
X153728579Y-85963593D01*
X153708228Y-85943767D01*
X153702387Y-85936154D01*
X153659082Y-85879718D01*
X153533641Y-85783464D01*
X153387562Y-85722956D01*
X153230800Y-85702318D01*
X153074038Y-85722956D01*
X152927959Y-85783464D01*
X152802518Y-85879718D01*
X152706264Y-86005159D01*
X152645756Y-86151238D01*
X152625118Y-86308000D01*
X152645756Y-86464762D01*
X152706264Y-86610841D01*
X152802518Y-86736282D01*
X152927959Y-86832536D01*
X153028062Y-86874000D01*
X153066902Y-86890088D01*
X153074038Y-86893044D01*
X153230800Y-86913682D01*
X153387562Y-86893044D01*
X153394699Y-86890088D01*
X153433538Y-86874000D01*
X153533641Y-86832536D01*
X153659082Y-86736282D01*
X153708229Y-86672233D01*
X153758652Y-86637577D01*
X153786770Y-86633500D01*
X159735927Y-86633500D01*
X159794118Y-86652407D01*
X159830082Y-86701907D01*
X159830082Y-86763093D01*
X159806399Y-86801740D01*
X159802518Y-86804718D01*
X159706264Y-86930159D01*
X159645756Y-87076238D01*
X159625118Y-87233000D01*
X159635656Y-87313042D01*
X159624506Y-87373201D01*
X159607507Y-87395967D01*
X157049970Y-89953504D01*
X156995453Y-89981281D01*
X156979966Y-89982500D01*
X151086770Y-89982500D01*
X151028579Y-89963593D01*
X151008228Y-89943767D01*
X150994611Y-89926020D01*
X150959082Y-89879718D01*
X150833641Y-89783464D01*
X150687562Y-89722956D01*
X150530800Y-89702318D01*
X150374038Y-89722956D01*
X150227959Y-89783464D01*
X150102518Y-89879718D01*
X150006264Y-90005159D01*
X149945756Y-90151238D01*
X149925118Y-90308000D01*
X143231300Y-90308000D01*
X143231300Y-90077748D01*
X143580300Y-90077748D01*
X143591933Y-90136231D01*
X143636248Y-90202552D01*
X143702569Y-90246867D01*
X143712132Y-90248769D01*
X143712134Y-90248770D01*
X143734805Y-90253279D01*
X143761052Y-90258500D01*
X145300548Y-90258500D01*
X145326795Y-90253279D01*
X145349466Y-90248770D01*
X145349468Y-90248769D01*
X145359031Y-90246867D01*
X145425352Y-90202552D01*
X145469667Y-90136231D01*
X145481300Y-90077748D01*
X145481300Y-88538252D01*
X145469667Y-88479769D01*
X145425352Y-88413448D01*
X145359031Y-88369133D01*
X145349468Y-88367231D01*
X145349466Y-88367230D01*
X145326795Y-88362721D01*
X145300548Y-88357500D01*
X143761052Y-88357500D01*
X143734805Y-88362721D01*
X143712134Y-88367230D01*
X143712132Y-88367231D01*
X143702569Y-88369133D01*
X143636248Y-88413448D01*
X143591933Y-88479769D01*
X143580300Y-88538252D01*
X143580300Y-90077748D01*
X143231300Y-90077748D01*
X143231300Y-87386748D01*
X143495743Y-87386748D01*
X143498256Y-87398570D01*
X143501445Y-87408386D01*
X143574176Y-87571744D01*
X143579329Y-87580669D01*
X143684440Y-87725341D01*
X143691339Y-87733004D01*
X143824224Y-87852654D01*
X143832571Y-87858719D01*
X143987428Y-87948125D01*
X143996860Y-87952324D01*
X144166910Y-88007577D01*
X144177010Y-88009724D01*
X144310272Y-88023730D01*
X144315417Y-88024000D01*
X144694320Y-88024000D01*
X144707005Y-88019878D01*
X144710000Y-88015757D01*
X144710000Y-88008320D01*
X145210000Y-88008320D01*
X145214122Y-88021005D01*
X145218243Y-88024000D01*
X145604583Y-88024000D01*
X145609728Y-88023730D01*
X145742990Y-88009724D01*
X145753090Y-88007577D01*
X145923140Y-87952324D01*
X145932572Y-87948125D01*
X146087429Y-87858719D01*
X146095776Y-87852654D01*
X146228658Y-87733006D01*
X146235565Y-87725335D01*
X146340666Y-87580676D01*
X146345825Y-87571741D01*
X146418555Y-87408386D01*
X146421744Y-87398570D01*
X146423706Y-87389339D01*
X146423291Y-87385386D01*
X147706120Y-87385386D01*
X147751840Y-87492834D01*
X147757498Y-87502753D01*
X147854341Y-87634349D01*
X147862134Y-87642706D01*
X147986648Y-87748488D01*
X147996160Y-87754831D01*
X148141667Y-87829130D01*
X148152377Y-87833114D01*
X148312388Y-87872269D01*
X148321067Y-87873589D01*
X148326178Y-87873906D01*
X148329212Y-87874000D01*
X148694320Y-87874000D01*
X148707005Y-87869878D01*
X148710000Y-87865757D01*
X148710000Y-87858320D01*
X149210000Y-87858320D01*
X149214122Y-87871005D01*
X149218243Y-87874000D01*
X149550929Y-87874000D01*
X149556641Y-87873668D01*
X149677995Y-87859520D01*
X149689123Y-87856889D01*
X149842698Y-87801144D01*
X149852919Y-87796026D01*
X149989550Y-87706446D01*
X149998320Y-87699113D01*
X150110679Y-87580504D01*
X150117526Y-87571352D01*
X150199588Y-87430074D01*
X150204145Y-87419593D01*
X150213409Y-87389006D01*
X150213174Y-87377261D01*
X150202783Y-87374000D01*
X149225680Y-87374000D01*
X149212995Y-87378122D01*
X149210000Y-87382243D01*
X149210000Y-87858320D01*
X148710000Y-87858320D01*
X148710000Y-87389680D01*
X148705878Y-87376995D01*
X148701757Y-87374000D01*
X147716955Y-87374000D01*
X147706120Y-87377521D01*
X147706120Y-87385386D01*
X146423291Y-87385386D01*
X146422331Y-87376251D01*
X146413931Y-87374000D01*
X145225680Y-87374000D01*
X145212995Y-87378122D01*
X145210000Y-87382243D01*
X145210000Y-88008320D01*
X144710000Y-88008320D01*
X144710000Y-87389680D01*
X144705878Y-87376995D01*
X144701757Y-87374000D01*
X143508713Y-87374000D01*
X143496198Y-87378067D01*
X143495743Y-87386748D01*
X143231300Y-87386748D01*
X143231300Y-86858661D01*
X143496294Y-86858661D01*
X143497669Y-86871749D01*
X143506069Y-86874000D01*
X144694320Y-86874000D01*
X144707005Y-86869878D01*
X144710000Y-86865757D01*
X144710000Y-86858320D01*
X145210000Y-86858320D01*
X145214122Y-86871005D01*
X145218243Y-86874000D01*
X146411287Y-86874000D01*
X146423802Y-86869933D01*
X146424257Y-86861252D01*
X146423777Y-86858994D01*
X147706591Y-86858994D01*
X147706826Y-86870739D01*
X147717217Y-86874000D01*
X148694320Y-86874000D01*
X148707005Y-86869878D01*
X148710000Y-86865757D01*
X148710000Y-86858320D01*
X149210000Y-86858320D01*
X149214122Y-86871005D01*
X149218243Y-86874000D01*
X150203045Y-86874000D01*
X150213880Y-86870479D01*
X150213880Y-86862614D01*
X150168160Y-86755166D01*
X150162502Y-86745247D01*
X150065659Y-86613651D01*
X150057866Y-86605294D01*
X149933352Y-86499512D01*
X149923840Y-86493169D01*
X149778333Y-86418870D01*
X149767623Y-86414886D01*
X149607612Y-86375731D01*
X149598933Y-86374411D01*
X149593822Y-86374094D01*
X149590788Y-86374000D01*
X149225680Y-86374000D01*
X149212995Y-86378122D01*
X149210000Y-86382243D01*
X149210000Y-86858320D01*
X148710000Y-86858320D01*
X148710000Y-86389680D01*
X148705878Y-86376995D01*
X148701757Y-86374000D01*
X148369071Y-86374000D01*
X148363359Y-86374332D01*
X148242005Y-86388480D01*
X148230877Y-86391111D01*
X148077302Y-86446856D01*
X148067081Y-86451974D01*
X147930450Y-86541554D01*
X147921680Y-86548887D01*
X147809321Y-86667496D01*
X147802474Y-86676648D01*
X147720412Y-86817926D01*
X147715855Y-86828407D01*
X147706591Y-86858994D01*
X146423777Y-86858994D01*
X146421744Y-86849430D01*
X146418555Y-86839614D01*
X146345824Y-86676256D01*
X146340671Y-86667331D01*
X146235560Y-86522659D01*
X146228661Y-86514996D01*
X146095776Y-86395346D01*
X146087429Y-86389281D01*
X145932572Y-86299875D01*
X145923140Y-86295676D01*
X145753090Y-86240423D01*
X145742990Y-86238276D01*
X145609728Y-86224270D01*
X145604583Y-86224000D01*
X145225680Y-86224000D01*
X145212995Y-86228122D01*
X145210000Y-86232243D01*
X145210000Y-86858320D01*
X144710000Y-86858320D01*
X144710000Y-86239680D01*
X144705878Y-86226995D01*
X144701757Y-86224000D01*
X144315417Y-86224000D01*
X144310272Y-86224270D01*
X144177010Y-86238276D01*
X144166910Y-86240423D01*
X143996860Y-86295676D01*
X143987428Y-86299875D01*
X143832571Y-86389281D01*
X143824224Y-86395346D01*
X143691342Y-86514994D01*
X143684435Y-86522665D01*
X143579334Y-86667324D01*
X143574175Y-86676259D01*
X143501445Y-86839614D01*
X143498256Y-86849430D01*
X143496294Y-86858661D01*
X143231300Y-86858661D01*
X143231300Y-84472310D01*
X146075436Y-84472310D01*
X146076765Y-84479586D01*
X146076765Y-84479589D01*
X146086048Y-84530414D01*
X146086558Y-84533476D01*
X146095351Y-84591962D01*
X146098479Y-84598475D01*
X146099775Y-84605573D01*
X146126998Y-84657980D01*
X146128388Y-84660762D01*
X146150787Y-84707408D01*
X146150789Y-84707411D01*
X146153991Y-84714079D01*
X146158097Y-84718521D01*
X146159620Y-84720781D01*
X146162221Y-84725788D01*
X146166525Y-84730828D01*
X146204157Y-84768460D01*
X146206851Y-84771263D01*
X146240924Y-84808124D01*
X146240927Y-84808126D01*
X146245946Y-84813556D01*
X146252010Y-84817078D01*
X146259335Y-84823638D01*
X147339181Y-85903484D01*
X147346922Y-85912196D01*
X147368928Y-85940110D01*
X147375015Y-85944317D01*
X147375016Y-85944318D01*
X147417533Y-85973703D01*
X147420063Y-85975511D01*
X147452577Y-85999526D01*
X147467617Y-86010635D01*
X147474434Y-86013029D01*
X147480369Y-86017131D01*
X147487422Y-86019362D01*
X147487425Y-86019363D01*
X147517765Y-86028958D01*
X147536704Y-86034948D01*
X147539641Y-86035928D01*
X147588448Y-86053068D01*
X147588450Y-86053068D01*
X147595431Y-86055520D01*
X147601473Y-86055758D01*
X147604153Y-86056280D01*
X147609530Y-86057980D01*
X147616137Y-86058500D01*
X147663029Y-86058500D01*
X147716447Y-86076633D01*
X147717193Y-86075342D01*
X147722810Y-86078585D01*
X147727959Y-86082536D01*
X147874038Y-86143044D01*
X148030800Y-86163682D01*
X148187562Y-86143044D01*
X148333641Y-86082536D01*
X148363596Y-86059551D01*
X148403466Y-86028958D01*
X148463733Y-86008500D01*
X150597867Y-86008500D01*
X150658134Y-86028958D01*
X150698004Y-86059551D01*
X150727959Y-86082536D01*
X150874038Y-86143044D01*
X151030800Y-86163682D01*
X151187562Y-86143044D01*
X151333641Y-86082536D01*
X151459082Y-85986282D01*
X151555336Y-85860841D01*
X151615844Y-85714762D01*
X151636482Y-85558000D01*
X151615844Y-85401238D01*
X151555336Y-85255159D01*
X151459082Y-85129718D01*
X151333641Y-85033464D01*
X151187562Y-84972956D01*
X151030800Y-84952318D01*
X150874038Y-84972956D01*
X150727959Y-85033464D01*
X150722810Y-85037415D01*
X150658134Y-85087042D01*
X150597867Y-85107500D01*
X148463733Y-85107500D01*
X148403466Y-85087042D01*
X148338790Y-85037415D01*
X148333641Y-85033464D01*
X148310564Y-85023905D01*
X148264038Y-84984169D01*
X148249754Y-84924674D01*
X148269907Y-84872174D01*
X148312720Y-84816380D01*
X148355336Y-84760841D01*
X148415844Y-84614762D01*
X148436482Y-84458000D01*
X148421831Y-84346716D01*
X148432981Y-84286557D01*
X148449980Y-84263791D01*
X148705451Y-84008320D01*
X148708580Y-84005620D01*
X148713069Y-84003425D01*
X148746693Y-83967178D01*
X148749269Y-83964502D01*
X148763047Y-83950724D01*
X148765592Y-83947013D01*
X148769020Y-83943108D01*
X148789201Y-83921354D01*
X148793466Y-83910664D01*
X148803780Y-83891348D01*
X148805121Y-83889393D01*
X148805122Y-83889390D01*
X148810292Y-83881854D01*
X148816441Y-83855941D01*
X148820814Y-83842116D01*
X148828094Y-83823868D01*
X148828094Y-83823866D01*
X148830683Y-83817378D01*
X148831300Y-83811085D01*
X148831300Y-83804916D01*
X148833975Y-83782057D01*
X148834030Y-83781827D01*
X148834030Y-83781825D01*
X148836140Y-83772934D01*
X148832204Y-83744012D01*
X148831300Y-83730663D01*
X148831300Y-83011507D01*
X148831603Y-83007383D01*
X148833225Y-83002658D01*
X148831370Y-82953250D01*
X148831300Y-82949536D01*
X148831300Y-82930052D01*
X148830475Y-82925620D01*
X148830137Y-82920415D01*
X148829368Y-82899926D01*
X148829025Y-82890791D01*
X148824483Y-82880219D01*
X148818117Y-82859266D01*
X148817683Y-82856934D01*
X148817682Y-82856932D01*
X148816009Y-82847947D01*
X148802029Y-82825268D01*
X148795349Y-82812407D01*
X148787596Y-82794361D01*
X148784836Y-82787937D01*
X148780822Y-82783051D01*
X148776458Y-82778687D01*
X148762187Y-82760632D01*
X148762064Y-82760433D01*
X148757268Y-82752652D01*
X148734031Y-82734982D01*
X148723961Y-82726190D01*
X148449980Y-82452209D01*
X148422203Y-82397692D01*
X148421831Y-82369283D01*
X148426928Y-82330572D01*
X148436482Y-82258000D01*
X148415844Y-82101238D01*
X148355336Y-81955159D01*
X148259082Y-81829718D01*
X148202814Y-81786542D01*
X148168158Y-81736117D01*
X148169760Y-81674953D01*
X148202814Y-81629458D01*
X148253929Y-81590236D01*
X148259082Y-81586282D01*
X148355336Y-81460841D01*
X148415844Y-81314762D01*
X148436482Y-81158000D01*
X148415844Y-81001238D01*
X148355336Y-80855159D01*
X148259082Y-80729718D01*
X148253929Y-80725764D01*
X148249345Y-80721180D01*
X148250318Y-80720207D01*
X148219716Y-80675675D01*
X148221321Y-80614511D01*
X148258571Y-80565971D01*
X148276755Y-80556099D01*
X148317591Y-80539184D01*
X148333641Y-80532536D01*
X148403465Y-80478958D01*
X148463733Y-80458500D01*
X150597867Y-80458500D01*
X150658135Y-80478958D01*
X150727959Y-80532536D01*
X150874038Y-80593044D01*
X151030800Y-80613682D01*
X151187562Y-80593044D01*
X151333641Y-80532536D01*
X151459082Y-80436282D01*
X151555336Y-80310841D01*
X151615844Y-80164762D01*
X151633116Y-80033569D01*
X151635635Y-80014434D01*
X151636482Y-80008000D01*
X151615844Y-79851238D01*
X151555336Y-79705159D01*
X151459082Y-79579718D01*
X151333641Y-79483464D01*
X151187562Y-79422956D01*
X151030800Y-79402318D01*
X150874038Y-79422956D01*
X150727959Y-79483464D01*
X150722810Y-79487415D01*
X150658134Y-79537042D01*
X150597867Y-79557500D01*
X148463733Y-79557500D01*
X148403466Y-79537042D01*
X148338790Y-79487415D01*
X148333641Y-79483464D01*
X148187562Y-79422956D01*
X148030800Y-79402318D01*
X147874038Y-79422956D01*
X147727959Y-79483464D01*
X147602518Y-79579718D01*
X147598564Y-79584871D01*
X147593981Y-79589454D01*
X147592856Y-79588329D01*
X147565283Y-79610712D01*
X147529318Y-79627983D01*
X147529314Y-79627985D01*
X147522639Y-79631191D01*
X147518200Y-79635295D01*
X147515939Y-79636819D01*
X147510930Y-79639420D01*
X147505890Y-79643724D01*
X147468245Y-79681369D01*
X147465443Y-79684062D01*
X147423162Y-79723146D01*
X147419641Y-79729208D01*
X147413086Y-79736528D01*
X146235312Y-80914303D01*
X146226598Y-80922045D01*
X146212759Y-80932955D01*
X146198690Y-80944046D01*
X146187174Y-80960709D01*
X146165092Y-80992659D01*
X146163283Y-80995190D01*
X146151492Y-81011154D01*
X146128166Y-81042734D01*
X146125773Y-81049550D01*
X146121669Y-81055487D01*
X146109067Y-81095335D01*
X146103849Y-81111833D01*
X146102882Y-81114732D01*
X146083281Y-81170549D01*
X146083044Y-81176591D01*
X146082523Y-81179265D01*
X146080820Y-81184648D01*
X146080300Y-81191255D01*
X146080300Y-81244459D01*
X146080224Y-81248346D01*
X146077962Y-81305912D01*
X146079759Y-81312690D01*
X146080300Y-81322515D01*
X146080300Y-84425373D01*
X146079614Y-84437009D01*
X146075436Y-84472310D01*
X143231300Y-84472310D01*
X143231300Y-78746748D01*
X143495743Y-78746748D01*
X143498256Y-78758570D01*
X143501445Y-78768386D01*
X143574176Y-78931744D01*
X143579329Y-78940669D01*
X143684440Y-79085341D01*
X143691339Y-79093004D01*
X143824224Y-79212654D01*
X143832571Y-79218719D01*
X143987428Y-79308125D01*
X143996860Y-79312324D01*
X144166910Y-79367577D01*
X144177010Y-79369724D01*
X144310272Y-79383730D01*
X144315417Y-79384000D01*
X144694320Y-79384000D01*
X144707005Y-79379878D01*
X144710000Y-79375757D01*
X144710000Y-79368320D01*
X145210000Y-79368320D01*
X145214122Y-79381005D01*
X145218243Y-79384000D01*
X145604583Y-79384000D01*
X145609728Y-79383730D01*
X145742990Y-79369724D01*
X145753090Y-79367577D01*
X145923140Y-79312324D01*
X145932572Y-79308125D01*
X146087429Y-79218719D01*
X146095776Y-79212654D01*
X146228658Y-79093006D01*
X146235565Y-79085335D01*
X146340666Y-78940676D01*
X146345825Y-78931741D01*
X146418555Y-78768386D01*
X146421744Y-78758570D01*
X146423706Y-78749339D01*
X146423291Y-78745386D01*
X147706120Y-78745386D01*
X147751840Y-78852834D01*
X147757498Y-78862753D01*
X147854341Y-78994349D01*
X147862134Y-79002706D01*
X147986648Y-79108488D01*
X147996160Y-79114831D01*
X148141667Y-79189130D01*
X148152377Y-79193114D01*
X148312388Y-79232269D01*
X148321067Y-79233589D01*
X148326178Y-79233906D01*
X148329212Y-79234000D01*
X148694320Y-79234000D01*
X148707005Y-79229878D01*
X148710000Y-79225757D01*
X148710000Y-79218320D01*
X149210000Y-79218320D01*
X149214122Y-79231005D01*
X149218243Y-79234000D01*
X149550929Y-79234000D01*
X149556641Y-79233668D01*
X149677995Y-79219520D01*
X149689123Y-79216889D01*
X149842698Y-79161144D01*
X149852919Y-79156026D01*
X149989550Y-79066446D01*
X149998320Y-79059113D01*
X150110679Y-78940504D01*
X150117526Y-78931352D01*
X150199588Y-78790074D01*
X150204145Y-78779593D01*
X150213409Y-78749006D01*
X150213174Y-78737261D01*
X150202783Y-78734000D01*
X149225680Y-78734000D01*
X149212995Y-78738122D01*
X149210000Y-78742243D01*
X149210000Y-79218320D01*
X148710000Y-79218320D01*
X148710000Y-78749680D01*
X148705878Y-78736995D01*
X148701757Y-78734000D01*
X147716955Y-78734000D01*
X147706120Y-78737521D01*
X147706120Y-78745386D01*
X146423291Y-78745386D01*
X146422331Y-78736251D01*
X146413931Y-78734000D01*
X145225680Y-78734000D01*
X145212995Y-78738122D01*
X145210000Y-78742243D01*
X145210000Y-79368320D01*
X144710000Y-79368320D01*
X144710000Y-78749680D01*
X144705878Y-78736995D01*
X144701757Y-78734000D01*
X143508713Y-78734000D01*
X143496198Y-78738067D01*
X143495743Y-78746748D01*
X143231300Y-78746748D01*
X143231300Y-78218661D01*
X143496294Y-78218661D01*
X143497669Y-78231749D01*
X143506069Y-78234000D01*
X144694320Y-78234000D01*
X144707005Y-78229878D01*
X144710000Y-78225757D01*
X144710000Y-78218320D01*
X145210000Y-78218320D01*
X145214122Y-78231005D01*
X145218243Y-78234000D01*
X146411287Y-78234000D01*
X146423802Y-78229933D01*
X146424257Y-78221252D01*
X146423777Y-78218994D01*
X147706591Y-78218994D01*
X147706826Y-78230739D01*
X147717217Y-78234000D01*
X148694320Y-78234000D01*
X148707005Y-78229878D01*
X148710000Y-78225757D01*
X148710000Y-78218320D01*
X149210000Y-78218320D01*
X149214122Y-78231005D01*
X149218243Y-78234000D01*
X150203045Y-78234000D01*
X150213880Y-78230479D01*
X150213880Y-78222614D01*
X150168160Y-78115166D01*
X150162502Y-78105247D01*
X150065659Y-77973651D01*
X150057866Y-77965294D01*
X149933352Y-77859512D01*
X149923840Y-77853169D01*
X149778333Y-77778870D01*
X149767623Y-77774886D01*
X149607612Y-77735731D01*
X149598933Y-77734411D01*
X149593822Y-77734094D01*
X149590788Y-77734000D01*
X149225680Y-77734000D01*
X149212995Y-77738122D01*
X149210000Y-77742243D01*
X149210000Y-78218320D01*
X148710000Y-78218320D01*
X148710000Y-77749680D01*
X148705878Y-77736995D01*
X148701757Y-77734000D01*
X148369071Y-77734000D01*
X148363359Y-77734332D01*
X148242005Y-77748480D01*
X148230877Y-77751111D01*
X148077302Y-77806856D01*
X148067081Y-77811974D01*
X147930450Y-77901554D01*
X147921680Y-77908887D01*
X147809321Y-78027496D01*
X147802474Y-78036648D01*
X147720412Y-78177926D01*
X147715855Y-78188407D01*
X147706591Y-78218994D01*
X146423777Y-78218994D01*
X146421744Y-78209430D01*
X146418555Y-78199614D01*
X146345824Y-78036256D01*
X146340671Y-78027331D01*
X146235560Y-77882659D01*
X146228661Y-77874996D01*
X146095776Y-77755346D01*
X146087429Y-77749281D01*
X145932572Y-77659875D01*
X145923140Y-77655676D01*
X145753090Y-77600423D01*
X145742990Y-77598276D01*
X145609728Y-77584270D01*
X145604583Y-77584000D01*
X145225680Y-77584000D01*
X145212995Y-77588122D01*
X145210000Y-77592243D01*
X145210000Y-78218320D01*
X144710000Y-78218320D01*
X144710000Y-77599680D01*
X144705878Y-77586995D01*
X144701757Y-77584000D01*
X144315417Y-77584000D01*
X144310272Y-77584270D01*
X144177010Y-77598276D01*
X144166910Y-77600423D01*
X143996860Y-77655676D01*
X143987428Y-77659875D01*
X143832571Y-77749281D01*
X143824224Y-77755346D01*
X143691342Y-77874994D01*
X143684435Y-77882665D01*
X143579334Y-78027324D01*
X143574175Y-78036259D01*
X143501445Y-78199614D01*
X143498256Y-78209430D01*
X143496294Y-78218661D01*
X143231300Y-78218661D01*
X143231300Y-77153262D01*
X162225320Y-77153262D01*
X162231381Y-77225440D01*
X162241881Y-77350476D01*
X162242559Y-77358553D01*
X162243892Y-77363201D01*
X162243892Y-77363202D01*
X162292627Y-77533160D01*
X162299344Y-77556586D01*
X162393512Y-77739818D01*
X162521477Y-77901270D01*
X162525157Y-77904402D01*
X162525159Y-77904404D01*
X162620498Y-77985543D01*
X162678364Y-78034791D01*
X162682587Y-78037151D01*
X162682591Y-78037154D01*
X162786104Y-78095005D01*
X162858198Y-78135297D01*
X162862796Y-78136791D01*
X163049524Y-78197463D01*
X163049526Y-78197464D01*
X163054129Y-78198959D01*
X163258694Y-78223351D01*
X163263516Y-78222980D01*
X163263519Y-78222980D01*
X163331341Y-78217761D01*
X163464100Y-78207546D01*
X163662525Y-78152145D01*
X163666838Y-78149966D01*
X163666844Y-78149964D01*
X163842089Y-78061441D01*
X163842091Y-78061440D01*
X163846410Y-78059258D01*
X163875848Y-78036259D01*
X164004935Y-77935406D01*
X164004939Y-77935402D01*
X164008751Y-77932424D01*
X164029068Y-77908887D01*
X164110596Y-77814434D01*
X164143364Y-77776472D01*
X164145757Y-77772260D01*
X164242734Y-77601550D01*
X164242735Y-77601547D01*
X164245123Y-77597344D01*
X164249473Y-77584270D01*
X164308624Y-77406454D01*
X164308624Y-77406452D01*
X164310151Y-77401863D01*
X164316956Y-77348000D01*
X164335623Y-77200228D01*
X164335971Y-77197474D01*
X164336383Y-77168000D01*
X164336113Y-77165244D01*
X164316752Y-76967780D01*
X164316751Y-76967776D01*
X164316280Y-76962970D01*
X164313314Y-76953144D01*
X164262934Y-76786282D01*
X164256735Y-76765749D01*
X164160018Y-76583849D01*
X164029811Y-76424200D01*
X164001959Y-76401159D01*
X163874802Y-76295965D01*
X163874800Y-76295964D01*
X163871075Y-76292882D01*
X163713486Y-76207674D01*
X163694109Y-76197197D01*
X163694108Y-76197197D01*
X163689855Y-76194897D01*
X163626655Y-76175333D01*
X163497675Y-76135407D01*
X163497671Y-76135406D01*
X163493054Y-76133977D01*
X163488246Y-76133472D01*
X163488243Y-76133471D01*
X163292985Y-76112949D01*
X163292983Y-76112949D01*
X163288169Y-76112443D01*
X163228154Y-76117905D01*
X163087822Y-76130675D01*
X163087817Y-76130676D01*
X163083003Y-76131114D01*
X162885372Y-76189280D01*
X162881088Y-76191519D01*
X162881087Y-76191520D01*
X162850188Y-76207674D01*
X162702802Y-76284726D01*
X162699031Y-76287758D01*
X162546020Y-76410781D01*
X162546017Y-76410783D01*
X162542247Y-76413815D01*
X162539133Y-76417526D01*
X162539132Y-76417527D01*
X162462943Y-76508326D01*
X162409824Y-76571630D01*
X162407489Y-76575878D01*
X162407488Y-76575879D01*
X162400755Y-76588126D01*
X162310576Y-76752162D01*
X162309113Y-76756775D01*
X162309111Y-76756779D01*
X162298498Y-76790236D01*
X162248284Y-76948532D01*
X162247744Y-76953344D01*
X162247744Y-76953345D01*
X162226491Y-77142826D01*
X162225320Y-77153262D01*
X143231300Y-77153262D01*
X143231300Y-69812222D01*
X162264202Y-69812222D01*
X162298474Y-69931743D01*
X162302025Y-69940711D01*
X162391719Y-70115236D01*
X162396942Y-70123341D01*
X162518837Y-70277134D01*
X162525520Y-70284055D01*
X162674964Y-70411241D01*
X162682878Y-70416742D01*
X162854173Y-70512475D01*
X162863001Y-70516332D01*
X163015888Y-70566008D01*
X163027279Y-70566008D01*
X163030800Y-70555173D01*
X163030800Y-70552725D01*
X163530800Y-70552725D01*
X163534547Y-70564258D01*
X163544879Y-70564474D01*
X163657682Y-70532978D01*
X163666662Y-70529496D01*
X163841820Y-70441017D01*
X163849955Y-70435854D01*
X164004587Y-70315042D01*
X164011571Y-70308391D01*
X164139790Y-70159848D01*
X164145346Y-70151973D01*
X164242271Y-69981353D01*
X164246192Y-69972546D01*
X164299307Y-69812879D01*
X164299386Y-69801612D01*
X164288399Y-69798000D01*
X163546480Y-69798000D01*
X163533795Y-69802122D01*
X163530800Y-69806243D01*
X163530800Y-70552725D01*
X163030800Y-70552725D01*
X163030800Y-69813680D01*
X163026678Y-69800995D01*
X163022557Y-69798000D01*
X162275804Y-69798000D01*
X162264386Y-69801710D01*
X162264202Y-69812222D01*
X143231300Y-69812222D01*
X143231300Y-69283053D01*
X162263234Y-69283053D01*
X162263315Y-69294570D01*
X162273997Y-69298000D01*
X163015120Y-69298000D01*
X163027805Y-69293878D01*
X163030800Y-69289757D01*
X163030800Y-69282320D01*
X163530800Y-69282320D01*
X163534922Y-69295005D01*
X163539043Y-69298000D01*
X164286501Y-69298000D01*
X164297689Y-69294365D01*
X164297802Y-69283497D01*
X164257670Y-69150572D01*
X164253999Y-69141668D01*
X164161872Y-68968401D01*
X164156540Y-68960376D01*
X164032516Y-68808307D01*
X164025722Y-68801466D01*
X163874521Y-68676381D01*
X163866538Y-68670997D01*
X163693914Y-68577660D01*
X163685043Y-68573931D01*
X163545777Y-68530821D01*
X163534140Y-68530984D01*
X163530800Y-68541512D01*
X163530800Y-69282320D01*
X163030800Y-69282320D01*
X163030800Y-68542679D01*
X163027127Y-68531375D01*
X163016438Y-68531226D01*
X162890207Y-68568378D01*
X162881266Y-68571991D01*
X162707373Y-68662899D01*
X162699297Y-68668184D01*
X162546371Y-68791140D01*
X162539487Y-68797881D01*
X162413351Y-68948205D01*
X162407904Y-68956159D01*
X162313373Y-69128111D01*
X162309573Y-69136976D01*
X162263234Y-69283053D01*
X143231300Y-69283053D01*
X143231300Y-67877748D01*
X162230300Y-67877748D01*
X162241933Y-67936231D01*
X162286248Y-68002552D01*
X162352569Y-68046867D01*
X162362132Y-68048769D01*
X162362134Y-68048770D01*
X162384805Y-68053279D01*
X162411052Y-68058500D01*
X164150548Y-68058500D01*
X164176795Y-68053279D01*
X164199466Y-68048770D01*
X164199468Y-68048769D01*
X164209031Y-68046867D01*
X164275352Y-68002552D01*
X164319667Y-67936231D01*
X164331300Y-67877748D01*
X164331300Y-66138252D01*
X164319667Y-66079769D01*
X164275352Y-66013448D01*
X164209031Y-65969133D01*
X164199468Y-65967231D01*
X164199466Y-65967230D01*
X164176795Y-65962721D01*
X164150548Y-65957500D01*
X162411052Y-65957500D01*
X162384805Y-65962721D01*
X162362134Y-65967230D01*
X162362132Y-65967231D01*
X162352569Y-65969133D01*
X162286248Y-66013448D01*
X162241933Y-66079769D01*
X162230300Y-66138252D01*
X162230300Y-67877748D01*
X143231300Y-67877748D01*
X143231300Y-62425785D01*
X144522397Y-62425785D01*
X144522568Y-62426870D01*
X144526842Y-62431873D01*
X144739759Y-62586566D01*
X144745000Y-62589892D01*
X145004187Y-62732382D01*
X145009796Y-62735021D01*
X145284803Y-62843904D01*
X145290702Y-62845821D01*
X145577189Y-62919378D01*
X145583281Y-62920540D01*
X145876722Y-62957610D01*
X145882910Y-62958000D01*
X146178690Y-62958000D01*
X146184878Y-62957610D01*
X146478319Y-62920540D01*
X146484411Y-62919378D01*
X146770898Y-62845821D01*
X146776797Y-62843904D01*
X147051804Y-62735021D01*
X147057413Y-62732382D01*
X147316600Y-62589892D01*
X147321841Y-62586566D01*
X147531550Y-62434204D01*
X147539390Y-62423413D01*
X147539390Y-62422315D01*
X147535953Y-62416706D01*
X146041886Y-60922639D01*
X146030003Y-60916585D01*
X146024972Y-60917381D01*
X144528451Y-62413902D01*
X144522397Y-62425785D01*
X143231300Y-62425785D01*
X143231300Y-60592281D01*
X143233857Y-60569926D01*
X143234052Y-60569086D01*
X143235903Y-60561099D01*
X143626250Y-60561099D01*
X143644821Y-60856285D01*
X143645602Y-60862460D01*
X143701022Y-61152983D01*
X143702562Y-61158986D01*
X143793963Y-61440285D01*
X143796252Y-61446067D01*
X143922184Y-61713687D01*
X143925167Y-61719112D01*
X144083657Y-61968853D01*
X144087300Y-61973868D01*
X144156116Y-62057052D01*
X144167379Y-62064200D01*
X144170143Y-62064026D01*
X144173284Y-62061963D01*
X145666161Y-60569086D01*
X145671403Y-60558797D01*
X146389385Y-60558797D01*
X146390181Y-60563828D01*
X147884402Y-62058049D01*
X147896285Y-62064103D01*
X147899020Y-62063670D01*
X147901952Y-62061322D01*
X147974300Y-61973868D01*
X147977943Y-61968853D01*
X148136433Y-61719112D01*
X148139416Y-61713687D01*
X148265348Y-61446067D01*
X148267637Y-61440285D01*
X148359038Y-61158986D01*
X148360578Y-61152983D01*
X148415998Y-60862460D01*
X148416779Y-60856285D01*
X148435350Y-60561099D01*
X148435350Y-60554901D01*
X148416779Y-60259715D01*
X148415998Y-60253540D01*
X148360578Y-59963017D01*
X148359038Y-59957014D01*
X148267637Y-59675715D01*
X148265348Y-59669933D01*
X148139416Y-59402313D01*
X148136433Y-59396888D01*
X147977943Y-59147147D01*
X147974300Y-59142132D01*
X147905484Y-59058948D01*
X147894221Y-59051800D01*
X147891457Y-59051974D01*
X147888316Y-59054037D01*
X146395439Y-60546914D01*
X146389385Y-60558797D01*
X145671403Y-60558797D01*
X145672215Y-60557203D01*
X145671419Y-60552172D01*
X144177198Y-59057951D01*
X144165315Y-59051897D01*
X144162580Y-59052330D01*
X144159648Y-59054678D01*
X144087300Y-59142132D01*
X144083657Y-59147147D01*
X143925167Y-59396888D01*
X143922184Y-59402313D01*
X143796252Y-59669933D01*
X143793963Y-59675715D01*
X143702562Y-59957014D01*
X143701022Y-59963017D01*
X143645602Y-60253540D01*
X143644821Y-60259715D01*
X143626250Y-60554901D01*
X143626250Y-60561099D01*
X143235903Y-60561099D01*
X143236455Y-60558718D01*
X143236456Y-60558000D01*
X143235213Y-60552549D01*
X143234591Y-60546995D01*
X143234876Y-60546963D01*
X143233102Y-60525915D01*
X143234637Y-60498581D01*
X143248592Y-60250101D01*
X143249834Y-60239074D01*
X143250413Y-60235670D01*
X143299184Y-59948619D01*
X143300557Y-59940539D01*
X143303027Y-59929715D01*
X143345492Y-59782316D01*
X143386862Y-59638721D01*
X143390527Y-59628246D01*
X143401644Y-59601407D01*
X143506414Y-59348470D01*
X143511228Y-59338474D01*
X143616971Y-59147147D01*
X143657710Y-59073437D01*
X143663606Y-59064052D01*
X143838854Y-58817063D01*
X143845767Y-58808395D01*
X143948279Y-58693685D01*
X144522210Y-58693685D01*
X144525647Y-58699294D01*
X146019714Y-60193361D01*
X146031597Y-60199415D01*
X146036628Y-60198619D01*
X147533149Y-58702098D01*
X147537435Y-58693685D01*
X190522210Y-58693685D01*
X190525647Y-58699294D01*
X192019714Y-60193361D01*
X192031597Y-60199415D01*
X192036628Y-60198619D01*
X193533149Y-58702098D01*
X193539203Y-58690215D01*
X193539032Y-58689130D01*
X193534758Y-58684127D01*
X193321841Y-58529434D01*
X193316600Y-58526108D01*
X193057413Y-58383618D01*
X193051804Y-58380979D01*
X192776797Y-58272096D01*
X192770898Y-58270179D01*
X192484411Y-58196622D01*
X192478319Y-58195460D01*
X192184878Y-58158390D01*
X192178690Y-58158000D01*
X191882910Y-58158000D01*
X191876722Y-58158390D01*
X191583281Y-58195460D01*
X191577189Y-58196622D01*
X191290702Y-58270179D01*
X191284803Y-58272096D01*
X191009796Y-58380979D01*
X191004187Y-58383618D01*
X190745000Y-58526108D01*
X190739759Y-58529434D01*
X190530050Y-58681796D01*
X190522210Y-58692587D01*
X190522210Y-58693685D01*
X147537435Y-58693685D01*
X147539203Y-58690215D01*
X147539032Y-58689130D01*
X147534758Y-58684127D01*
X147321841Y-58529434D01*
X147316600Y-58526108D01*
X147057413Y-58383618D01*
X147051804Y-58380979D01*
X146776797Y-58272096D01*
X146770898Y-58270179D01*
X146484411Y-58196622D01*
X146478319Y-58195460D01*
X146184878Y-58158390D01*
X146178690Y-58158000D01*
X145882910Y-58158000D01*
X145876722Y-58158390D01*
X145583281Y-58195460D01*
X145577189Y-58196622D01*
X145290702Y-58270179D01*
X145284803Y-58272096D01*
X145009796Y-58380979D01*
X145004187Y-58383618D01*
X144745000Y-58526108D01*
X144739759Y-58529434D01*
X144530050Y-58681796D01*
X144522210Y-58692587D01*
X144522210Y-58693685D01*
X143948279Y-58693685D01*
X144047557Y-58582593D01*
X144055393Y-58574757D01*
X144281195Y-58372967D01*
X144289863Y-58366054D01*
X144536852Y-58190806D01*
X144546237Y-58184910D01*
X144811280Y-58038425D01*
X144821270Y-58033614D01*
X145101049Y-57917726D01*
X145111521Y-57914062D01*
X145402515Y-57830227D01*
X145413339Y-57827757D01*
X145498498Y-57813288D01*
X145711878Y-57777034D01*
X145722902Y-57775792D01*
X145998454Y-57760316D01*
X146008426Y-57761166D01*
X146008426Y-57761138D01*
X146019577Y-57761158D01*
X146030441Y-57763656D01*
X146042441Y-57760941D01*
X146064288Y-57758500D01*
X191996783Y-57758500D01*
X192018969Y-57761018D01*
G37*
%TD.AperFunction*%
%TA.AperFunction,Conductor*%
G36*
X181277121Y-87822520D02*
G01*
X181277606Y-87823360D01*
X181295866Y-87838682D01*
X181307371Y-87848336D01*
X181313739Y-87854170D01*
X188484631Y-95025063D01*
X188490466Y-95031431D01*
X188515440Y-95061194D01*
X188549114Y-95080636D01*
X188556370Y-95085259D01*
X188588211Y-95107554D01*
X188596573Y-95109795D01*
X188601855Y-95112258D01*
X188607349Y-95114257D01*
X188614850Y-95118588D01*
X188653123Y-95125337D01*
X188661551Y-95127206D01*
X188690722Y-95135022D01*
X188690725Y-95135022D01*
X188699088Y-95137263D01*
X188717560Y-95135647D01*
X188777177Y-95149411D01*
X188804730Y-95174003D01*
X188852518Y-95236282D01*
X188977959Y-95332536D01*
X189124038Y-95393044D01*
X189280800Y-95413682D01*
X189437562Y-95393044D01*
X189514822Y-95361042D01*
X189580414Y-95333873D01*
X189641411Y-95329072D01*
X189693580Y-95361042D01*
X189716995Y-95417570D01*
X189717300Y-95425337D01*
X189717300Y-95587500D01*
X189698393Y-95645691D01*
X189648893Y-95681655D01*
X189618300Y-95686500D01*
X187410635Y-95686500D01*
X187352444Y-95667593D01*
X187340631Y-95657504D01*
X181135296Y-89452170D01*
X181107519Y-89397653D01*
X181106300Y-89382166D01*
X181106300Y-87888865D01*
X181125207Y-87830674D01*
X181174707Y-87794710D01*
X181235893Y-87794710D01*
X181277121Y-87822520D01*
G37*
%TD.AperFunction*%
%TA.AperFunction,Conductor*%
G36*
X178745095Y-74991364D02*
G01*
X178772264Y-75028758D01*
X178774184Y-75033393D01*
X178806264Y-75110841D01*
X178902518Y-75236282D01*
X179027959Y-75332536D01*
X179080246Y-75354194D01*
X179144186Y-75380679D01*
X179190711Y-75420416D01*
X179205300Y-75472143D01*
X179205300Y-75735693D01*
X179186393Y-75793884D01*
X179136893Y-75829848D01*
X179075707Y-75829848D01*
X179068419Y-75827159D01*
X178937562Y-75772956D01*
X178780800Y-75752318D01*
X178624038Y-75772956D01*
X178477959Y-75833464D01*
X178352518Y-75929718D01*
X178256264Y-76055159D01*
X178223024Y-76135407D01*
X178198383Y-76194897D01*
X178195756Y-76201238D01*
X178175118Y-76358000D01*
X178195756Y-76514762D01*
X178256264Y-76660841D01*
X178352518Y-76786282D01*
X178477959Y-76882536D01*
X178507096Y-76894605D01*
X178618045Y-76940562D01*
X178618048Y-76940563D01*
X178624038Y-76943044D01*
X178630467Y-76943890D01*
X178631925Y-76944281D01*
X178683238Y-76977606D01*
X178705300Y-77039907D01*
X178705300Y-87882165D01*
X178686393Y-87940356D01*
X178676304Y-87952169D01*
X177337451Y-89291022D01*
X177282934Y-89318799D01*
X177222502Y-89309228D01*
X177179237Y-89265963D01*
X177168447Y-89221018D01*
X177168447Y-87176117D01*
X177187354Y-87117926D01*
X177207180Y-87097575D01*
X177266076Y-87052383D01*
X177271229Y-87048429D01*
X177367483Y-86922988D01*
X177427991Y-86776909D01*
X177448629Y-86620147D01*
X177427991Y-86463385D01*
X177367483Y-86317306D01*
X177271229Y-86191865D01*
X177145788Y-86095611D01*
X176999709Y-86035103D01*
X176842947Y-86014465D01*
X176686185Y-86035103D01*
X176540106Y-86095611D01*
X176414665Y-86191865D01*
X176318411Y-86317306D01*
X176257903Y-86463385D01*
X176237265Y-86620147D01*
X176257903Y-86776909D01*
X176318411Y-86922988D01*
X176414665Y-87048429D01*
X176419818Y-87052383D01*
X176478714Y-87097575D01*
X176513370Y-87147999D01*
X176517447Y-87176117D01*
X176517447Y-89170019D01*
X176498540Y-89228210D01*
X176488451Y-89240023D01*
X171213743Y-94514731D01*
X171207376Y-94520565D01*
X171177606Y-94545545D01*
X171173277Y-94553044D01*
X171158173Y-94579205D01*
X171153532Y-94586489D01*
X171131246Y-94618316D01*
X171129004Y-94626684D01*
X171126538Y-94631971D01*
X171124542Y-94637456D01*
X171120212Y-94644955D01*
X171118709Y-94653481D01*
X171118708Y-94653483D01*
X171113466Y-94683216D01*
X171111596Y-94691651D01*
X171106526Y-94710571D01*
X171073201Y-94761885D01*
X171016079Y-94783810D01*
X170956979Y-94767973D01*
X170918475Y-94720423D01*
X170911900Y-94684946D01*
X170911900Y-94178234D01*
X170930807Y-94120043D01*
X170940896Y-94108230D01*
X173997857Y-91051269D01*
X174004225Y-91045434D01*
X174033994Y-91020455D01*
X174053429Y-90986792D01*
X174058068Y-90979511D01*
X174059787Y-90977056D01*
X174080354Y-90947684D01*
X174082596Y-90939316D01*
X174085062Y-90934029D01*
X174087058Y-90928544D01*
X174091388Y-90921045D01*
X174098134Y-90882783D01*
X174100004Y-90874349D01*
X174107822Y-90845174D01*
X174110064Y-90836807D01*
X174106677Y-90798091D01*
X174106300Y-90789463D01*
X174106300Y-87933834D01*
X174125207Y-87875643D01*
X174135296Y-87863830D01*
X177747857Y-84251269D01*
X177754225Y-84245434D01*
X177772155Y-84230389D01*
X177783994Y-84220455D01*
X177803429Y-84186792D01*
X177808068Y-84179511D01*
X177809787Y-84177056D01*
X177830354Y-84147684D01*
X177832596Y-84139316D01*
X177835062Y-84134029D01*
X177837058Y-84128544D01*
X177841388Y-84121045D01*
X177848134Y-84082783D01*
X177850004Y-84074349D01*
X177857822Y-84045174D01*
X177860064Y-84036807D01*
X177856677Y-83998091D01*
X177856300Y-83989463D01*
X177856300Y-75503597D01*
X177875207Y-75445406D01*
X177924707Y-75409442D01*
X177968221Y-75405444D01*
X178024365Y-75412835D01*
X178024366Y-75412835D01*
X178030800Y-75413682D01*
X178187562Y-75393044D01*
X178333641Y-75332536D01*
X178459082Y-75236282D01*
X178555336Y-75110841D01*
X178587416Y-75033393D01*
X178589336Y-75028758D01*
X178629073Y-74982233D01*
X178688568Y-74967949D01*
X178745095Y-74991364D01*
G37*
%TD.AperFunction*%
%TA.AperFunction,Conductor*%
G36*
X177181580Y-76926575D02*
G01*
X177204995Y-76983103D01*
X177205300Y-76990870D01*
X177205300Y-83832166D01*
X177186393Y-83890357D01*
X177176304Y-83902170D01*
X173563743Y-87514731D01*
X173557376Y-87520565D01*
X173527606Y-87545545D01*
X173508590Y-87578483D01*
X173508173Y-87579205D01*
X173503532Y-87586489D01*
X173481246Y-87618316D01*
X173479004Y-87626684D01*
X173476538Y-87631971D01*
X173474542Y-87637456D01*
X173470212Y-87644955D01*
X173468709Y-87653481D01*
X173468708Y-87653483D01*
X173463466Y-87683216D01*
X173461596Y-87691650D01*
X173451536Y-87729193D01*
X173452291Y-87737822D01*
X173454923Y-87767905D01*
X173455300Y-87776534D01*
X173455300Y-90632166D01*
X173436393Y-90690357D01*
X173426304Y-90702170D01*
X172275304Y-91853170D01*
X172220787Y-91880947D01*
X172160355Y-91871376D01*
X172117090Y-91828111D01*
X172106300Y-91783166D01*
X172106300Y-87858834D01*
X172125207Y-87800643D01*
X172135296Y-87788830D01*
X176547857Y-83376269D01*
X176554225Y-83370434D01*
X176583994Y-83345455D01*
X176603429Y-83311792D01*
X176608068Y-83304511D01*
X176609787Y-83302056D01*
X176630354Y-83272684D01*
X176632596Y-83264316D01*
X176635062Y-83259029D01*
X176637058Y-83253544D01*
X176641388Y-83246045D01*
X176643110Y-83236282D01*
X176648134Y-83207784D01*
X176650004Y-83199349D01*
X176657822Y-83170174D01*
X176660064Y-83161807D01*
X176656677Y-83123091D01*
X176656300Y-83114463D01*
X176656300Y-77056822D01*
X176675207Y-76998631D01*
X176724707Y-76962667D01*
X176768222Y-76958669D01*
X176806300Y-76963682D01*
X176963062Y-76943044D01*
X176969060Y-76940560D01*
X176969062Y-76940559D01*
X177068415Y-76899406D01*
X177129411Y-76894605D01*
X177181580Y-76926575D01*
G37*
%TD.AperFunction*%
%TD*%
M02*
