M48
; DRILL file {KiCad (6.0.8)} date Tue Feb  7 11:28:55 2023
; FORMAT={-:-/ absolute / inch / decimal}
; #@! TF.CreationDate,2023-02-07T11:28:55+01:00
; #@! TF.GenerationSoftware,Kicad,Pcbnew,(6.0.8)
; #@! TF.FileFunction,Plated,1,2,PTH
FMAT,2
INCH
; #@! TA.AperFunction,Plated,PTH,ViaDrill
T1C0.0157
; #@! TA.AperFunction,Plated,PTH,ComponentDrill
T2C0.0236
; #@! TA.AperFunction,Plated,PTH,ComponentDrill
T3C0.0276
; #@! TA.AperFunction,Plated,PTH,ComponentDrill
T4C0.0315
; #@! TA.AperFunction,Plated,PTH,ComponentDrill
T5C0.0394
; #@! TA.AperFunction,Plated,PTH,ComponentDrill
T6C0.0866
%
G90
G05
T1
X5.67Y-3.5947
X5.67Y-3.6735
X5.6704Y-2.5316
X5.6705Y-2.6893
X5.6705Y-2.8468
X5.6705Y-3.0043
X5.8201Y-3.1952
X5.8201Y-3.2385
X5.8201Y-3.2818
X5.8201Y-3.3251
X5.828Y-3.1499
X5.828Y-3.3684
X5.828Y-3.6735
X5.828Y-3.7424
X5.9264Y-3.5554
X5.9461Y-3.1499
X5.9461Y-3.3684
X5.9933Y-3.3665
X6.0327Y-3.398
X6.079Y-3.7424
X6.079Y-3.7976
X6.2571Y-3.3665
X6.2611Y-4.1854
X6.2709Y-3.9983
X6.3083Y-3.2306
X6.3083Y-3.2897
X6.3083Y-3.4344
X6.3398Y-2.5357
X6.3398Y-3.1322
X6.3477Y-3.395
X6.3674Y-3.2306
X6.3674Y-3.2897
X6.3792Y-3.1027
X6.389Y-3.644
X6.4382Y-3.1607
X6.5268Y-3.9098
X6.5268Y-3.9688
X6.5465Y-3.2897
X6.5563Y-2.5613
X6.5563Y-2.768
X6.5662Y-3.0633
X6.6351Y-3.0633
X6.6744Y-3.7798
X6.7207Y-3.7798
X6.7232Y-2.365
X6.7237Y-2.5417
X6.7237Y-2.6893
X6.7237Y-2.8665
X6.7237Y-3.3384
X6.7237Y-3.585
X6.7492Y-3.9058
X6.7729Y-2.5712
X6.7729Y-2.7287
X6.7778Y-3.7798
X6.7886Y-3.9058
X6.8024Y-3.0043
X6.8024Y-3.0554
X6.8024Y-3.1046
X6.8024Y-3.5554
X6.8142Y-3.2602
X6.8319Y-3.2011
X6.8398Y-3.7798
X6.8634Y-3.1548
X6.8634Y-3.2602
X6.8811Y-3.5554
X6.9107Y-2.581
X6.9107Y-2.6893
X6.9136Y-3.2602
X6.9461Y-3.9058
X6.9461Y-3.9688
X6.9609Y-3.0062
X6.9623Y-3.4102
X6.9992Y-2.581
X6.9992Y-2.6893
X7.0091Y-2.9452
X7.013Y-3.4176
X7.0386Y-3.0062
X7.0603Y-2.9452
X7.0996Y-3.6657
X7.0996Y-3.835
X7.1134Y-3.0062
X7.1174Y-3.1539
X7.1174Y-3.2503
X7.1469Y-3.9983
X7.1764Y-3.3094
X7.1961Y-2.8665
X7.2158Y-4.185
X7.2551Y-3.3094
X7.2748Y-3.6243
X7.292Y-3.1972
X7.2945Y-3.3094
X7.3044Y-3.9196
X7.3044Y-3.9885
X7.324Y-2.394
X7.324Y-3.8
X7.3339Y-3.1972
X7.3339Y-3.3094
X7.372Y-3.5751
X7.3729Y-4.1846
X7.3733Y-3.1972
X7.3733Y-3.3094
X7.4126Y-3.1972
X7.4126Y-3.3094
X7.4225Y-3.6834
X7.4225Y-3.8606
X7.452Y-3.1972
X7.452Y-3.3094
X7.452Y-3.7326
X7.4894Y-3.1972
X7.4914Y-3.3094
X7.5125Y-3.7902
X7.5701Y-3.1696
X7.5701Y-3.3328
X7.6382Y-2.8468
X7.639Y-2.5318
X7.639Y-2.6893
X7.639Y-3.0043
X7.639Y-3.5062
X7.639Y-3.585
X7.639Y-3.9688
T3
X5.6902Y-3.5161
X5.6902Y-3.7523
X5.6902Y-3.8606
T4
X6.0051Y-2.3743
X6.0839Y-2.3743
X6.1626Y-2.3743
X6.2414Y-2.3743
X6.4284Y-2.3743
X6.5071Y-2.3743
X6.5859Y-2.3743
X6.6646Y-2.3743
X6.8516Y-2.3743
X6.9303Y-2.3743
X7.0091Y-2.3743
X7.0878Y-2.3743
T5
X6.0248Y-4.0082
X6.0248Y-4.1066
X6.4284Y-2.6381
X6.4284Y-2.7381
X6.4284Y-2.8381
X6.4284Y-2.9381
X6.4284Y-3.0381
T6
X5.7492Y-2.3842
X5.7492Y-4.1263
X7.5603Y-2.3842
X7.5603Y-4.1263
T2
G00X5.7307Y-3.0899
M15
G01X5.6835Y-3.0899
M16
G05
G00X5.7307Y-3.4301
M15
G01X5.6835Y-3.4301
M16
G05
G00X5.8803Y-3.0899
M15
G01X5.8488Y-3.0899
M16
G05
G00X5.8803Y-3.4301
M15
G01X5.8488Y-3.4301
M16
G05
T0
M30
