%TF.GenerationSoftware,KiCad,Pcbnew,(6.0.8)*%
%TF.CreationDate,2023-02-07T11:28:49+01:00*%
%TF.ProjectId,MuMo-v2-Node,4d754d6f-2d76-4322-9d4e-6f64652e6b69,rev?*%
%TF.SameCoordinates,Original*%
%TF.FileFunction,Legend,Top*%
%TF.FilePolarity,Positive*%
%FSLAX46Y46*%
G04 Gerber Fmt 4.6, Leading zero omitted, Abs format (unit mm)*
G04 Created by KiCad (PCBNEW (6.0.8)) date 2023-02-07 11:28:49*
%MOMM*%
%LPD*%
G01*
G04 APERTURE LIST*
%ADD10C,0.250000*%
%ADD11C,0.150000*%
%ADD12C,0.200000*%
%ADD13C,0.120000*%
%ADD14C,0.517905*%
%ADD15C,0.343981*%
%ADD16C,0.010000*%
%ADD17C,0.127000*%
G04 APERTURE END LIST*
D10*
X152066514Y-69029071D02*
X152066514Y-67529071D01*
X152566514Y-68600500D01*
X153066514Y-67529071D01*
X153066514Y-69029071D01*
X154423657Y-68029071D02*
X154423657Y-69029071D01*
X153780800Y-68029071D02*
X153780800Y-68814785D01*
X153852228Y-68957642D01*
X153995085Y-69029071D01*
X154209371Y-69029071D01*
X154352228Y-68957642D01*
X154423657Y-68886214D01*
X155137942Y-69029071D02*
X155137942Y-67529071D01*
X155637942Y-68600500D01*
X156137942Y-67529071D01*
X156137942Y-69029071D01*
X157066514Y-69029071D02*
X156923657Y-68957642D01*
X156852228Y-68886214D01*
X156780800Y-68743357D01*
X156780800Y-68314785D01*
X156852228Y-68171928D01*
X156923657Y-68100500D01*
X157066514Y-68029071D01*
X157280800Y-68029071D01*
X157423657Y-68100500D01*
X157495085Y-68171928D01*
X157566514Y-68314785D01*
X157566514Y-68743357D01*
X157495085Y-68886214D01*
X157423657Y-68957642D01*
X157280800Y-69029071D01*
X157066514Y-69029071D01*
X152637942Y-70444071D02*
X152995085Y-71444071D01*
X153352228Y-70444071D01*
X153852228Y-70086928D02*
X153923657Y-70015500D01*
X154066514Y-69944071D01*
X154423657Y-69944071D01*
X154566514Y-70015500D01*
X154637942Y-70086928D01*
X154709371Y-70229785D01*
X154709371Y-70372642D01*
X154637942Y-70586928D01*
X153780800Y-71444071D01*
X154709371Y-71444071D01*
X155352228Y-71301214D02*
X155423657Y-71372642D01*
X155352228Y-71444071D01*
X155280800Y-71372642D01*
X155352228Y-71301214D01*
X155352228Y-71444071D01*
X156852228Y-71444071D02*
X155995085Y-71444071D01*
X156423657Y-71444071D02*
X156423657Y-69944071D01*
X156280800Y-70158357D01*
X156137942Y-70301214D01*
X155995085Y-70372642D01*
D11*
X149423657Y-102569904D02*
X149423657Y-101046095D01*
X148768895Y-104450857D02*
X150292704Y-104450857D01*
X149530800Y-105212761D02*
X149530800Y-103688952D01*
%TO.C,U2*%
X170256295Y-71207380D02*
X170256295Y-72016904D01*
X170303914Y-72112142D01*
X170351533Y-72159761D01*
X170446771Y-72207380D01*
X170637247Y-72207380D01*
X170732485Y-72159761D01*
X170780104Y-72112142D01*
X170827723Y-72016904D01*
X170827723Y-71207380D01*
X171256295Y-71302619D02*
X171303914Y-71255000D01*
X171399152Y-71207380D01*
X171637247Y-71207380D01*
X171732485Y-71255000D01*
X171780104Y-71302619D01*
X171827723Y-71397857D01*
X171827723Y-71493095D01*
X171780104Y-71635952D01*
X171208676Y-72207380D01*
X171827723Y-72207380D01*
%TO.C,CONN1*%
X161683180Y-77812761D02*
X160683180Y-77812761D01*
X160683180Y-77574666D01*
X160730800Y-77431809D01*
X160826038Y-77336571D01*
X160921276Y-77288952D01*
X161111752Y-77241333D01*
X161254609Y-77241333D01*
X161445085Y-77288952D01*
X161540323Y-77336571D01*
X161635561Y-77431809D01*
X161683180Y-77574666D01*
X161683180Y-77812761D01*
X161159371Y-76812761D02*
X161159371Y-76479428D01*
X161683180Y-76336571D02*
X161683180Y-76812761D01*
X160683180Y-76812761D01*
X160683180Y-76336571D01*
X161159371Y-75574666D02*
X161206990Y-75431809D01*
X161254609Y-75384190D01*
X161349847Y-75336571D01*
X161492704Y-75336571D01*
X161587942Y-75384190D01*
X161635561Y-75431809D01*
X161683180Y-75527047D01*
X161683180Y-75908000D01*
X160683180Y-75908000D01*
X160683180Y-75574666D01*
X160730800Y-75479428D01*
X160778419Y-75431809D01*
X160873657Y-75384190D01*
X160968895Y-75384190D01*
X161064133Y-75431809D01*
X161111752Y-75479428D01*
X161159371Y-75574666D01*
X161159371Y-75908000D01*
X160683180Y-74908000D02*
X161492704Y-74908000D01*
X161587942Y-74860380D01*
X161635561Y-74812761D01*
X161683180Y-74717523D01*
X161683180Y-74527047D01*
X161635561Y-74431809D01*
X161587942Y-74384190D01*
X161492704Y-74336571D01*
X160683180Y-74336571D01*
X160730800Y-73336571D02*
X160683180Y-73431809D01*
X160683180Y-73574666D01*
X160730800Y-73717523D01*
X160826038Y-73812761D01*
X160921276Y-73860380D01*
X161111752Y-73908000D01*
X161254609Y-73908000D01*
X161445085Y-73860380D01*
X161540323Y-73812761D01*
X161635561Y-73717523D01*
X161683180Y-73574666D01*
X161683180Y-73479428D01*
X161635561Y-73336571D01*
X161587942Y-73288952D01*
X161254609Y-73288952D01*
X161254609Y-73479428D01*
X161302228Y-72860380D02*
X161302228Y-72098476D01*
X161635561Y-71669904D02*
X161683180Y-71527047D01*
X161683180Y-71288952D01*
X161635561Y-71193714D01*
X161587942Y-71146095D01*
X161492704Y-71098476D01*
X161397466Y-71098476D01*
X161302228Y-71146095D01*
X161254609Y-71193714D01*
X161206990Y-71288952D01*
X161159371Y-71479428D01*
X161111752Y-71574666D01*
X161064133Y-71622285D01*
X160968895Y-71669904D01*
X160873657Y-71669904D01*
X160778419Y-71622285D01*
X160730800Y-71574666D01*
X160683180Y-71479428D01*
X160683180Y-71241333D01*
X160730800Y-71098476D01*
X160683180Y-70765142D02*
X161683180Y-70527047D01*
X160968895Y-70336571D01*
X161683180Y-70146095D01*
X160683180Y-69908000D01*
X161683180Y-69527047D02*
X160683180Y-69527047D01*
X160683180Y-69288952D01*
X160730800Y-69146095D01*
X160826038Y-69050857D01*
X160921276Y-69003238D01*
X161111752Y-68955619D01*
X161254609Y-68955619D01*
X161445085Y-69003238D01*
X161540323Y-69050857D01*
X161635561Y-69146095D01*
X161683180Y-69288952D01*
X161683180Y-69527047D01*
%TO.C,U7*%
X175618895Y-65160380D02*
X175618895Y-65969904D01*
X175666514Y-66065142D01*
X175714133Y-66112761D01*
X175809371Y-66160380D01*
X175999847Y-66160380D01*
X176095085Y-66112761D01*
X176142704Y-66065142D01*
X176190323Y-65969904D01*
X176190323Y-65160380D01*
X176571276Y-65160380D02*
X177237942Y-65160380D01*
X176809371Y-66160380D01*
%TO.C,JP1*%
X147083180Y-98041333D02*
X147797466Y-98041333D01*
X147940323Y-98088952D01*
X148035561Y-98184190D01*
X148083180Y-98327047D01*
X148083180Y-98422285D01*
X148083180Y-97565142D02*
X147083180Y-97565142D01*
X147083180Y-97184190D01*
X147130800Y-97088952D01*
X147178419Y-97041333D01*
X147273657Y-96993714D01*
X147416514Y-96993714D01*
X147511752Y-97041333D01*
X147559371Y-97088952D01*
X147606990Y-97184190D01*
X147606990Y-97565142D01*
X148083180Y-96041333D02*
X148083180Y-96612761D01*
X148083180Y-96327047D02*
X147083180Y-96327047D01*
X147226038Y-96422285D01*
X147321276Y-96517523D01*
X147368895Y-96612761D01*
D12*
%TO.C,CONN6*%
X182630800Y-62350857D02*
X182583180Y-62446095D01*
X182583180Y-62588952D01*
X182630800Y-62731809D01*
X182726038Y-62827047D01*
X182821276Y-62874666D01*
X183011752Y-62922285D01*
X183154609Y-62922285D01*
X183345085Y-62874666D01*
X183440323Y-62827047D01*
X183535561Y-62731809D01*
X183583180Y-62588952D01*
X183583180Y-62493714D01*
X183535561Y-62350857D01*
X183487942Y-62303238D01*
X183154609Y-62303238D01*
X183154609Y-62493714D01*
X183583180Y-61303238D02*
X183106990Y-61636571D01*
X183583180Y-61874666D02*
X182583180Y-61874666D01*
X182583180Y-61493714D01*
X182630800Y-61398476D01*
X182678419Y-61350857D01*
X182773657Y-61303238D01*
X182916514Y-61303238D01*
X183011752Y-61350857D01*
X183059371Y-61398476D01*
X183106990Y-61493714D01*
X183106990Y-61874666D01*
X182583180Y-60684190D02*
X182583180Y-60493714D01*
X182630800Y-60398476D01*
X182726038Y-60303238D01*
X182916514Y-60255619D01*
X183249847Y-60255619D01*
X183440323Y-60303238D01*
X183535561Y-60398476D01*
X183583180Y-60493714D01*
X183583180Y-60684190D01*
X183535561Y-60779428D01*
X183440323Y-60874666D01*
X183249847Y-60922285D01*
X182916514Y-60922285D01*
X182726038Y-60874666D01*
X182630800Y-60779428D01*
X182583180Y-60684190D01*
X182583180Y-59969904D02*
X183583180Y-59636571D01*
X182583180Y-59303238D01*
X183059371Y-58969904D02*
X183059371Y-58636571D01*
X183583180Y-58493714D02*
X183583180Y-58969904D01*
X182583180Y-58969904D01*
X182583180Y-58493714D01*
D11*
%TO.C,U1*%
X153516453Y-97876488D02*
X153516453Y-98687331D01*
X153564150Y-98782725D01*
X153611846Y-98830421D01*
X153707240Y-98878118D01*
X153898026Y-98878118D01*
X153993420Y-98830421D01*
X154041116Y-98782725D01*
X154088813Y-98687331D01*
X154088813Y-97876488D01*
X155090443Y-98878118D02*
X154518083Y-98878118D01*
X154804263Y-98878118D02*
X154804263Y-97876488D01*
X154708870Y-98019578D01*
X154613476Y-98114971D01*
X154518083Y-98162668D01*
%TO.C,U8*%
X175618895Y-68610380D02*
X175618895Y-69419904D01*
X175666514Y-69515142D01*
X175714133Y-69562761D01*
X175809371Y-69610380D01*
X175999847Y-69610380D01*
X176095085Y-69562761D01*
X176142704Y-69515142D01*
X176190323Y-69419904D01*
X176190323Y-68610380D01*
X176809371Y-69038952D02*
X176714133Y-68991333D01*
X176666514Y-68943714D01*
X176618895Y-68848476D01*
X176618895Y-68800857D01*
X176666514Y-68705619D01*
X176714133Y-68658000D01*
X176809371Y-68610380D01*
X176999847Y-68610380D01*
X177095085Y-68658000D01*
X177142704Y-68705619D01*
X177190323Y-68800857D01*
X177190323Y-68848476D01*
X177142704Y-68943714D01*
X177095085Y-68991333D01*
X176999847Y-69038952D01*
X176809371Y-69038952D01*
X176714133Y-69086571D01*
X176666514Y-69134190D01*
X176618895Y-69229428D01*
X176618895Y-69419904D01*
X176666514Y-69515142D01*
X176714133Y-69562761D01*
X176809371Y-69610380D01*
X176999847Y-69610380D01*
X177095085Y-69562761D01*
X177142704Y-69515142D01*
X177190323Y-69419904D01*
X177190323Y-69229428D01*
X177142704Y-69134190D01*
X177095085Y-69086571D01*
X176999847Y-69038952D01*
%TO.C,CONN2*%
X157421419Y-101026285D02*
X157421419Y-100550095D01*
X158421419Y-100550095D01*
X157421419Y-101359619D02*
X158088085Y-101359619D01*
X158421419Y-101359619D02*
X158373800Y-101312000D01*
X158326180Y-101359619D01*
X158373800Y-101407238D01*
X158421419Y-101359619D01*
X158326180Y-101359619D01*
X157945228Y-102169142D02*
X157945228Y-101835809D01*
X157421419Y-101835809D02*
X158421419Y-101835809D01*
X158421419Y-102312000D01*
X157469038Y-103073904D02*
X157421419Y-102978666D01*
X157421419Y-102788190D01*
X157469038Y-102692952D01*
X157564276Y-102645333D01*
X157945228Y-102645333D01*
X158040466Y-102692952D01*
X158088085Y-102788190D01*
X158088085Y-102978666D01*
X158040466Y-103073904D01*
X157945228Y-103121523D01*
X157849990Y-103121523D01*
X157754752Y-102645333D01*
X157421419Y-103550095D02*
X158421419Y-103550095D01*
X158421419Y-103931047D01*
X158373800Y-104026285D01*
X158326180Y-104073904D01*
X158230942Y-104121523D01*
X158088085Y-104121523D01*
X157992847Y-104073904D01*
X157945228Y-104026285D01*
X157897609Y-103931047D01*
X157897609Y-103550095D01*
X158421419Y-104740571D02*
X158421419Y-104931047D01*
X158373800Y-105026285D01*
X158278561Y-105121523D01*
X158088085Y-105169142D01*
X157754752Y-105169142D01*
X157564276Y-105121523D01*
X157469038Y-105026285D01*
X157421419Y-104931047D01*
X157421419Y-104740571D01*
X157469038Y-104645333D01*
X157564276Y-104550095D01*
X157754752Y-104502476D01*
X158088085Y-104502476D01*
X158278561Y-104550095D01*
X158373800Y-104645333D01*
X158421419Y-104740571D01*
X158088085Y-106026285D02*
X157421419Y-106026285D01*
X158469038Y-105788190D02*
X157754752Y-105550095D01*
X157754752Y-106169142D01*
%TO.C,CONN4*%
X145387942Y-84542095D02*
X145435561Y-84589714D01*
X145483180Y-84732571D01*
X145483180Y-84827809D01*
X145435561Y-84970666D01*
X145340323Y-85065904D01*
X145245085Y-85113523D01*
X145054609Y-85161142D01*
X144911752Y-85161142D01*
X144721276Y-85113523D01*
X144626038Y-85065904D01*
X144530800Y-84970666D01*
X144483180Y-84827809D01*
X144483180Y-84732571D01*
X144530800Y-84589714D01*
X144578419Y-84542095D01*
X144483180Y-83923047D02*
X144483180Y-83732571D01*
X144530800Y-83637333D01*
X144626038Y-83542095D01*
X144816514Y-83494476D01*
X145149847Y-83494476D01*
X145340323Y-83542095D01*
X145435561Y-83637333D01*
X145483180Y-83732571D01*
X145483180Y-83923047D01*
X145435561Y-84018285D01*
X145340323Y-84113523D01*
X145149847Y-84161142D01*
X144816514Y-84161142D01*
X144626038Y-84113523D01*
X144530800Y-84018285D01*
X144483180Y-83923047D01*
X145483180Y-83065904D02*
X144483180Y-83065904D01*
X145483180Y-82494476D01*
X144483180Y-82494476D01*
X145483180Y-82018285D02*
X144483180Y-82018285D01*
X145483180Y-81446857D01*
X144483180Y-81446857D01*
X144816514Y-80542095D02*
X145483180Y-80542095D01*
X144435561Y-80780190D02*
X145149847Y-81018285D01*
X145149847Y-80399238D01*
%TO.C,SW2*%
X189133180Y-62358380D02*
X188656990Y-62691714D01*
X189133180Y-62929809D02*
X188133180Y-62929809D01*
X188133180Y-62548857D01*
X188180800Y-62453619D01*
X188228419Y-62406000D01*
X188323657Y-62358380D01*
X188466514Y-62358380D01*
X188561752Y-62406000D01*
X188609371Y-62453619D01*
X188656990Y-62548857D01*
X188656990Y-62929809D01*
X188609371Y-61929809D02*
X188609371Y-61596476D01*
X189133180Y-61453619D02*
X189133180Y-61929809D01*
X188133180Y-61929809D01*
X188133180Y-61453619D01*
X189085561Y-61072666D02*
X189133180Y-60929809D01*
X189133180Y-60691714D01*
X189085561Y-60596476D01*
X189037942Y-60548857D01*
X188942704Y-60501238D01*
X188847466Y-60501238D01*
X188752228Y-60548857D01*
X188704609Y-60596476D01*
X188656990Y-60691714D01*
X188609371Y-60882190D01*
X188561752Y-60977428D01*
X188514133Y-61025047D01*
X188418895Y-61072666D01*
X188323657Y-61072666D01*
X188228419Y-61025047D01*
X188180800Y-60977428D01*
X188133180Y-60882190D01*
X188133180Y-60644095D01*
X188180800Y-60501238D01*
X188609371Y-60072666D02*
X188609371Y-59739333D01*
X189133180Y-59596476D02*
X189133180Y-60072666D01*
X188133180Y-60072666D01*
X188133180Y-59596476D01*
X188133180Y-59310761D02*
X188133180Y-58739333D01*
X189133180Y-59025047D02*
X188133180Y-59025047D01*
D12*
%TO.C,CONN8*%
X149983180Y-62641333D02*
X148983180Y-62641333D01*
X149078419Y-62212761D02*
X149030800Y-62165142D01*
X148983180Y-62069904D01*
X148983180Y-61831809D01*
X149030800Y-61736571D01*
X149078419Y-61688952D01*
X149173657Y-61641333D01*
X149268895Y-61641333D01*
X149411752Y-61688952D01*
X149983180Y-62260380D01*
X149983180Y-61641333D01*
X149887942Y-60641333D02*
X149935561Y-60688952D01*
X149983180Y-60831809D01*
X149983180Y-60927047D01*
X149935561Y-61069904D01*
X149840323Y-61165142D01*
X149745085Y-61212761D01*
X149554609Y-61260380D01*
X149411752Y-61260380D01*
X149221276Y-61212761D01*
X149126038Y-61165142D01*
X149030800Y-61069904D01*
X148983180Y-60927047D01*
X148983180Y-60831809D01*
X149030800Y-60688952D01*
X149078419Y-60641333D01*
X148983180Y-60069904D02*
X149221276Y-60069904D01*
X149126038Y-60308000D02*
X149221276Y-60069904D01*
X149126038Y-59831809D01*
X149411752Y-60212761D02*
X149221276Y-60069904D01*
X149411752Y-59927047D01*
X149078419Y-59498476D02*
X149030800Y-59450857D01*
X148983180Y-59355619D01*
X148983180Y-59117523D01*
X149030800Y-59022285D01*
X149078419Y-58974666D01*
X149173657Y-58927047D01*
X149268895Y-58927047D01*
X149411752Y-58974666D01*
X149983180Y-59546095D01*
X149983180Y-58927047D01*
D11*
%TO.C,CONN3*%
X169188704Y-100935142D02*
X169141085Y-100982761D01*
X168998228Y-101030380D01*
X168902990Y-101030380D01*
X168760133Y-100982761D01*
X168664895Y-100887523D01*
X168617276Y-100792285D01*
X168569657Y-100601809D01*
X168569657Y-100458952D01*
X168617276Y-100268476D01*
X168664895Y-100173238D01*
X168760133Y-100078000D01*
X168902990Y-100030380D01*
X168998228Y-100030380D01*
X169141085Y-100078000D01*
X169188704Y-100125619D01*
X169807752Y-100030380D02*
X169998228Y-100030380D01*
X170093466Y-100078000D01*
X170188704Y-100173238D01*
X170236323Y-100363714D01*
X170236323Y-100697047D01*
X170188704Y-100887523D01*
X170093466Y-100982761D01*
X169998228Y-101030380D01*
X169807752Y-101030380D01*
X169712514Y-100982761D01*
X169617276Y-100887523D01*
X169569657Y-100697047D01*
X169569657Y-100363714D01*
X169617276Y-100173238D01*
X169712514Y-100078000D01*
X169807752Y-100030380D01*
X170664895Y-101030380D02*
X170664895Y-100030380D01*
X171236323Y-101030380D01*
X171236323Y-100030380D01*
X171712514Y-101030380D02*
X171712514Y-100030380D01*
X172283942Y-101030380D01*
X172283942Y-100030380D01*
X172664895Y-100030380D02*
X173283942Y-100030380D01*
X172950609Y-100411333D01*
X173093466Y-100411333D01*
X173188704Y-100458952D01*
X173236323Y-100506571D01*
X173283942Y-100601809D01*
X173283942Y-100839904D01*
X173236323Y-100935142D01*
X173188704Y-100982761D01*
X173093466Y-101030380D01*
X172807752Y-101030380D01*
X172712514Y-100982761D01*
X172664895Y-100935142D01*
%TO.C,U3*%
X158568895Y-78954380D02*
X158568895Y-79763904D01*
X158616514Y-79859142D01*
X158664133Y-79906761D01*
X158759371Y-79954380D01*
X158949847Y-79954380D01*
X159045085Y-79906761D01*
X159092704Y-79859142D01*
X159140323Y-79763904D01*
X159140323Y-78954380D01*
X159521276Y-78954380D02*
X160140323Y-78954380D01*
X159806990Y-79335333D01*
X159949847Y-79335333D01*
X160045085Y-79382952D01*
X160092704Y-79430571D01*
X160140323Y-79525809D01*
X160140323Y-79763904D01*
X160092704Y-79859142D01*
X160045085Y-79906761D01*
X159949847Y-79954380D01*
X159664133Y-79954380D01*
X159568895Y-79906761D01*
X159521276Y-79859142D01*
D13*
%TO.C,C26*%
X168921380Y-69798000D02*
X168640220Y-69798000D01*
X168921380Y-70818000D02*
X168640220Y-70818000D01*
%TO.C,C27*%
X169040800Y-75667420D02*
X169040800Y-75948580D01*
X168020800Y-75667420D02*
X168020800Y-75948580D01*
%TO.C,C29*%
X182520800Y-65698580D02*
X182520800Y-65417420D01*
X183540800Y-65698580D02*
X183540800Y-65417420D01*
%TO.C,C24*%
X187758800Y-92952180D02*
X187758800Y-92671020D01*
X186738800Y-92952180D02*
X186738800Y-92671020D01*
%TO.C,U2*%
X170738800Y-74422000D02*
X170738800Y-72771000D01*
X181279800Y-72771000D02*
X182930800Y-72771000D01*
X182930800Y-72771000D02*
X182930800Y-74422000D01*
X182930800Y-84963000D02*
X181279800Y-84963000D01*
X170738800Y-84963000D02*
X170738800Y-83312000D01*
X182930800Y-83312000D02*
X182930800Y-84963000D01*
X170738800Y-72771000D02*
X172389800Y-72771000D01*
X172389800Y-84963000D02*
X170738800Y-84963000D01*
D14*
X170108752Y-73660000D02*
G75*
G03*
X170108752Y-73660000I-258952J0D01*
G01*
D13*
%TO.C,C13*%
X167020800Y-93367420D02*
X167020800Y-93648580D01*
X168040800Y-93367420D02*
X168040800Y-93648580D01*
%TO.C,R10*%
X180520800Y-69167420D02*
X180520800Y-69448580D01*
X181540800Y-69167420D02*
X181540800Y-69448580D01*
%TO.C,D3*%
X168045800Y-91588000D02*
X168045800Y-87908000D01*
X168045800Y-91588000D02*
X170065800Y-91588000D01*
X170065800Y-91588000D02*
X170065800Y-87908000D01*
%TO.C,R3*%
X152121380Y-84768000D02*
X151840220Y-84768000D01*
X152121380Y-83748000D02*
X151840220Y-83748000D01*
%TO.C,CONN1*%
X161950800Y-78498000D02*
X164610800Y-78498000D01*
X161950800Y-65678000D02*
X163280800Y-65678000D01*
X161950800Y-68278000D02*
X161950800Y-78498000D01*
X161950800Y-68278000D02*
X164610800Y-68278000D01*
X164610800Y-68278000D02*
X164610800Y-78498000D01*
X161950800Y-67008000D02*
X161950800Y-65678000D01*
%TO.C,TP6*%
X143580800Y-96258000D02*
X143580800Y-94358000D01*
X145480800Y-94358000D02*
X145480800Y-96258000D01*
X143580800Y-94358000D02*
X145480800Y-94358000D01*
X145480800Y-96258000D02*
X143580800Y-96258000D01*
%TO.C,C14*%
X163520800Y-94667420D02*
X163520800Y-94948580D01*
X164540800Y-94667420D02*
X164540800Y-94948580D01*
%TO.C,U7*%
X173359800Y-66828000D02*
X173359800Y-67209000D01*
X173359800Y-63907000D02*
X173359800Y-64288000D01*
X173359800Y-67209000D02*
X178566800Y-67209000D01*
X179201800Y-64288000D02*
X179201800Y-63907000D01*
X179201800Y-63907000D02*
X173359800Y-63907000D01*
D15*
X179373790Y-67209000D02*
G75*
G03*
X179373790Y-67209000I-171990J0D01*
G01*
D13*
%TO.C,Q1*%
X179300800Y-90558000D02*
X179300800Y-89898000D01*
X180710800Y-89898000D02*
X179300800Y-89898000D01*
X179300800Y-92218000D02*
X179300800Y-91558000D01*
X179300800Y-92218000D02*
X181330800Y-92218000D01*
%TO.C,C18*%
X161040800Y-98698580D02*
X161040800Y-98417420D01*
X160020800Y-98698580D02*
X160020800Y-98417420D01*
%TO.C,C5*%
X155520800Y-85367420D02*
X155520800Y-85648580D01*
X156540800Y-85367420D02*
X156540800Y-85648580D01*
%TO.C,C4*%
X158140800Y-88467420D02*
X158140800Y-88748580D01*
X157120800Y-88467420D02*
X157120800Y-88748580D01*
%TO.C,JP1*%
X148630800Y-96308000D02*
X151430800Y-96308000D01*
X151430800Y-96308000D02*
X151430800Y-98308000D01*
X148630800Y-98308000D02*
X148630800Y-96308000D01*
X151430800Y-98308000D02*
X148630800Y-98308000D01*
%TO.C,D1*%
X163020800Y-92938000D02*
X163020800Y-89258000D01*
X165040800Y-92938000D02*
X165040800Y-89258000D01*
X163020800Y-92938000D02*
X165040800Y-92938000D01*
%TO.C,L1*%
X171486800Y-87260000D02*
X171359800Y-87260000D01*
X171232800Y-93356000D02*
X171232800Y-87260000D01*
X177328800Y-93356000D02*
X177074800Y-93356000D01*
X171232800Y-93356000D02*
X171486800Y-93356000D01*
X171232800Y-87260000D02*
X171486800Y-87260000D01*
X177074800Y-87260000D02*
X177328800Y-87260000D01*
X177328800Y-87260000D02*
X177328800Y-93356000D01*
%TO.C,C8*%
X175540800Y-95167420D02*
X175540800Y-95448580D01*
X174520800Y-95167420D02*
X174520800Y-95448580D01*
%TO.C,C3*%
X156540800Y-88467420D02*
X156540800Y-88748580D01*
X155520800Y-88467420D02*
X155520800Y-88748580D01*
%TO.C,C23*%
X168921380Y-68048000D02*
X168640220Y-68048000D01*
X168921380Y-69068000D02*
X168640220Y-69068000D01*
%TO.C,U4*%
G36*
X148336614Y-66526931D02*
G01*
X148420435Y-66971555D01*
X148729720Y-67099053D01*
X149039006Y-67226551D01*
X149410046Y-66974246D01*
X149513957Y-66903996D01*
X149607887Y-66841272D01*
X149687452Y-66788938D01*
X149748270Y-66749857D01*
X149785957Y-66726893D01*
X149796221Y-66721942D01*
X149814710Y-66734676D01*
X149854220Y-66769882D01*
X149910322Y-66823062D01*
X149978587Y-66889718D01*
X150054586Y-66965354D01*
X150133892Y-67045472D01*
X150212075Y-67125574D01*
X150284707Y-67201164D01*
X150347359Y-67267745D01*
X150395603Y-67320818D01*
X150425010Y-67355887D01*
X150432041Y-67367623D01*
X150421923Y-67389260D01*
X150393559Y-67436662D01*
X150349929Y-67505193D01*
X150294018Y-67590215D01*
X150228806Y-67687093D01*
X150191019Y-67742350D01*
X150122143Y-67843248D01*
X150060940Y-67934299D01*
X150010378Y-68010970D01*
X149973428Y-68068728D01*
X149953058Y-68103043D01*
X149949997Y-68110254D01*
X149956936Y-68130748D01*
X149975851Y-68178513D01*
X150003887Y-68246832D01*
X150038191Y-68328989D01*
X150075909Y-68418270D01*
X150114187Y-68507958D01*
X150150170Y-68591338D01*
X150181006Y-68661694D01*
X150203839Y-68712310D01*
X150215817Y-68736471D01*
X150216524Y-68737422D01*
X150235331Y-68742036D01*
X150285418Y-68752328D01*
X150361593Y-68767287D01*
X150458665Y-68785901D01*
X150571443Y-68807159D01*
X150637242Y-68819418D01*
X150757750Y-68842362D01*
X150866597Y-68864195D01*
X150958276Y-68883722D01*
X151027281Y-68899748D01*
X151068104Y-68911079D01*
X151076311Y-68914674D01*
X151084348Y-68939006D01*
X151090833Y-68993959D01*
X151095770Y-69073108D01*
X151099164Y-69170026D01*
X151101018Y-69278287D01*
X151101338Y-69391465D01*
X151100127Y-69503135D01*
X151097390Y-69606868D01*
X151093131Y-69696241D01*
X151087355Y-69764826D01*
X151080067Y-69806197D01*
X151075695Y-69814810D01*
X151049564Y-69825133D01*
X150994193Y-69839892D01*
X150916907Y-69857352D01*
X150825030Y-69875780D01*
X150792958Y-69881741D01*
X150638324Y-69910066D01*
X150516175Y-69932876D01*
X150422473Y-69951080D01*
X150353184Y-69965583D01*
X150304271Y-69977292D01*
X150271697Y-69987115D01*
X150251428Y-69995956D01*
X150239426Y-70004724D01*
X150237747Y-70006457D01*
X150220984Y-70034371D01*
X150195414Y-70088695D01*
X150163588Y-70162777D01*
X150128060Y-70249965D01*
X150091383Y-70343608D01*
X150056111Y-70437052D01*
X150024796Y-70523647D01*
X149999993Y-70596740D01*
X149984254Y-70649678D01*
X149980132Y-70675811D01*
X149980476Y-70676726D01*
X149994441Y-70698086D01*
X150026122Y-70745084D01*
X150072191Y-70812827D01*
X150129318Y-70896423D01*
X150194173Y-70990982D01*
X150212643Y-71017854D01*
X150278499Y-71115275D01*
X150336450Y-71204163D01*
X150383338Y-71279412D01*
X150416007Y-71335920D01*
X150431300Y-71368581D01*
X150432041Y-71372593D01*
X150419192Y-71393684D01*
X150383688Y-71435464D01*
X150330093Y-71493445D01*
X150262971Y-71563135D01*
X150186887Y-71640045D01*
X150106404Y-71719683D01*
X150026087Y-71797561D01*
X149950499Y-71869186D01*
X149884205Y-71930070D01*
X149831769Y-71975721D01*
X149797755Y-72001650D01*
X149788345Y-72005883D01*
X149766443Y-71995912D01*
X149721600Y-71969020D01*
X149661121Y-71929736D01*
X149614589Y-71898117D01*
X149530275Y-71840098D01*
X149430426Y-71771784D01*
X149330273Y-71703579D01*
X149276427Y-71667075D01*
X149094171Y-71543800D01*
X148941181Y-71626520D01*
X148871482Y-71662759D01*
X148812214Y-71690926D01*
X148772111Y-71706991D01*
X148761903Y-71709226D01*
X148749629Y-71692722D01*
X148725413Y-71646082D01*
X148691063Y-71573609D01*
X148648388Y-71479606D01*
X148599194Y-71368374D01*
X148545290Y-71244215D01*
X148488484Y-71111432D01*
X148430582Y-70974327D01*
X148373393Y-70837202D01*
X148318724Y-70704358D01*
X148268384Y-70580098D01*
X148224180Y-70468725D01*
X148187919Y-70374539D01*
X148161409Y-70301844D01*
X148146458Y-70254941D01*
X148144054Y-70238833D01*
X148163111Y-70218286D01*
X148204836Y-70184933D01*
X148260506Y-70145702D01*
X148265178Y-70142599D01*
X148409064Y-70027423D01*
X148525083Y-69893053D01*
X148612230Y-69743784D01*
X148669499Y-69583913D01*
X148695886Y-69417737D01*
X148690385Y-69249552D01*
X148651990Y-69083655D01*
X148579695Y-68924342D01*
X148558426Y-68889487D01*
X148447796Y-68748737D01*
X148317102Y-68635714D01*
X148170864Y-68551003D01*
X148013608Y-68495194D01*
X147849857Y-68468874D01*
X147684133Y-68472630D01*
X147520962Y-68507050D01*
X147364865Y-68572723D01*
X147220367Y-68670235D01*
X147175669Y-68709813D01*
X147061912Y-68833703D01*
X146979018Y-68964124D01*
X146922156Y-69110315D01*
X146890487Y-69255088D01*
X146882669Y-69417860D01*
X146908738Y-69581440D01*
X146966045Y-69740298D01*
X147051944Y-69888906D01*
X147163786Y-70021735D01*
X147298923Y-70133256D01*
X147316683Y-70145011D01*
X147372950Y-70183508D01*
X147415723Y-70216863D01*
X147436172Y-70238160D01*
X147436469Y-70238833D01*
X147432079Y-70261871D01*
X147414676Y-70314157D01*
X147386068Y-70391390D01*
X147348065Y-70489268D01*
X147302474Y-70603491D01*
X147251103Y-70729758D01*
X147195762Y-70863767D01*
X147138258Y-71001218D01*
X147080401Y-71137808D01*
X147023998Y-71269237D01*
X146970858Y-71391205D01*
X146922790Y-71499409D01*
X146881601Y-71589549D01*
X146849101Y-71657323D01*
X146827097Y-71698430D01*
X146818236Y-71709226D01*
X146791160Y-71700819D01*
X146740497Y-71678272D01*
X146674983Y-71645613D01*
X146638959Y-71626520D01*
X146485968Y-71543800D01*
X146303712Y-71667075D01*
X146210675Y-71730228D01*
X146108815Y-71799727D01*
X146013362Y-71865165D01*
X145965550Y-71898117D01*
X145898305Y-71943273D01*
X145841364Y-71979057D01*
X145802154Y-72000938D01*
X145789419Y-72005563D01*
X145770883Y-71993085D01*
X145729859Y-71958252D01*
X145670325Y-71904678D01*
X145596258Y-71835983D01*
X145511635Y-71755781D01*
X145458115Y-71704286D01*
X145364481Y-71612286D01*
X145283559Y-71529999D01*
X145218623Y-71460945D01*
X145172942Y-71408644D01*
X145149789Y-71376616D01*
X145147568Y-71370116D01*
X145157876Y-71345394D01*
X145186361Y-71295405D01*
X145229863Y-71225212D01*
X145285223Y-71139875D01*
X145349280Y-71044456D01*
X145367497Y-71017854D01*
X145433873Y-70921167D01*
X145493422Y-70834117D01*
X145542816Y-70761595D01*
X145578725Y-70708493D01*
X145597819Y-70679703D01*
X145599664Y-70676726D01*
X145596905Y-70653782D01*
X145582262Y-70603336D01*
X145558287Y-70532041D01*
X145527534Y-70446547D01*
X145492556Y-70353507D01*
X145455907Y-70259574D01*
X145420139Y-70171399D01*
X145387806Y-70095634D01*
X145361462Y-70038931D01*
X145343658Y-70007943D01*
X145342393Y-70006457D01*
X145331506Y-69997601D01*
X145313118Y-69988843D01*
X145283194Y-69979277D01*
X145237697Y-69967996D01*
X145172591Y-69954093D01*
X145083839Y-69936663D01*
X144967407Y-69914798D01*
X144819258Y-69887591D01*
X144787182Y-69881741D01*
X144692114Y-69863374D01*
X144609235Y-69845405D01*
X144545870Y-69829569D01*
X144509342Y-69817600D01*
X144504444Y-69814810D01*
X144496373Y-69790072D01*
X144489813Y-69734790D01*
X144484767Y-69655389D01*
X144481241Y-69558296D01*
X144479239Y-69449938D01*
X144478764Y-69336740D01*
X144479823Y-69225128D01*
X144482418Y-69121529D01*
X144486554Y-69032368D01*
X144492237Y-68964072D01*
X144499469Y-68923066D01*
X144503829Y-68914674D01*
X144528102Y-68906208D01*
X144583374Y-68892435D01*
X144664138Y-68874550D01*
X144764888Y-68853748D01*
X144880117Y-68831223D01*
X144942898Y-68819418D01*
X145062013Y-68797151D01*
X145168235Y-68776979D01*
X145256373Y-68759915D01*
X145321234Y-68746969D01*
X145357626Y-68739155D01*
X145363616Y-68737422D01*
X145373739Y-68717890D01*
X145395138Y-68670843D01*
X145424961Y-68603003D01*
X145460355Y-68521091D01*
X145498468Y-68431828D01*
X145536447Y-68341935D01*
X145571440Y-68258135D01*
X145600594Y-68187147D01*
X145621057Y-68135694D01*
X145629977Y-68110497D01*
X145630143Y-68109396D01*
X145620031Y-68089519D01*
X145591683Y-68043777D01*
X145548077Y-67976717D01*
X145492194Y-67892884D01*
X145427013Y-67796826D01*
X145389121Y-67741650D01*
X145320075Y-67640481D01*
X145258750Y-67548630D01*
X145208137Y-67470744D01*
X145171229Y-67411469D01*
X145151018Y-67375451D01*
X145148099Y-67367377D01*
X145160647Y-67348584D01*
X145195337Y-67308457D01*
X145247737Y-67251493D01*
X145313416Y-67182185D01*
X145387944Y-67105031D01*
X145466887Y-67024525D01*
X145545817Y-66945163D01*
X145620300Y-66871440D01*
X145685906Y-66807852D01*
X145738204Y-66758894D01*
X145772761Y-66729061D01*
X145784322Y-66721942D01*
X145803146Y-66731953D01*
X145848169Y-66760078D01*
X145915013Y-66803454D01*
X145999301Y-66859218D01*
X146096656Y-66924506D01*
X146170093Y-66974246D01*
X146541133Y-67226551D01*
X147159705Y-66971555D01*
X147243525Y-66526931D01*
X147327346Y-66082307D01*
X148252794Y-66082307D01*
X148336614Y-66526931D01*
G37*
D16*
X148336614Y-66526931D02*
X148420435Y-66971555D01*
X148729720Y-67099053D01*
X149039006Y-67226551D01*
X149410046Y-66974246D01*
X149513957Y-66903996D01*
X149607887Y-66841272D01*
X149687452Y-66788938D01*
X149748270Y-66749857D01*
X149785957Y-66726893D01*
X149796221Y-66721942D01*
X149814710Y-66734676D01*
X149854220Y-66769882D01*
X149910322Y-66823062D01*
X149978587Y-66889718D01*
X150054586Y-66965354D01*
X150133892Y-67045472D01*
X150212075Y-67125574D01*
X150284707Y-67201164D01*
X150347359Y-67267745D01*
X150395603Y-67320818D01*
X150425010Y-67355887D01*
X150432041Y-67367623D01*
X150421923Y-67389260D01*
X150393559Y-67436662D01*
X150349929Y-67505193D01*
X150294018Y-67590215D01*
X150228806Y-67687093D01*
X150191019Y-67742350D01*
X150122143Y-67843248D01*
X150060940Y-67934299D01*
X150010378Y-68010970D01*
X149973428Y-68068728D01*
X149953058Y-68103043D01*
X149949997Y-68110254D01*
X149956936Y-68130748D01*
X149975851Y-68178513D01*
X150003887Y-68246832D01*
X150038191Y-68328989D01*
X150075909Y-68418270D01*
X150114187Y-68507958D01*
X150150170Y-68591338D01*
X150181006Y-68661694D01*
X150203839Y-68712310D01*
X150215817Y-68736471D01*
X150216524Y-68737422D01*
X150235331Y-68742036D01*
X150285418Y-68752328D01*
X150361593Y-68767287D01*
X150458665Y-68785901D01*
X150571443Y-68807159D01*
X150637242Y-68819418D01*
X150757750Y-68842362D01*
X150866597Y-68864195D01*
X150958276Y-68883722D01*
X151027281Y-68899748D01*
X151068104Y-68911079D01*
X151076311Y-68914674D01*
X151084348Y-68939006D01*
X151090833Y-68993959D01*
X151095770Y-69073108D01*
X151099164Y-69170026D01*
X151101018Y-69278287D01*
X151101338Y-69391465D01*
X151100127Y-69503135D01*
X151097390Y-69606868D01*
X151093131Y-69696241D01*
X151087355Y-69764826D01*
X151080067Y-69806197D01*
X151075695Y-69814810D01*
X151049564Y-69825133D01*
X150994193Y-69839892D01*
X150916907Y-69857352D01*
X150825030Y-69875780D01*
X150792958Y-69881741D01*
X150638324Y-69910066D01*
X150516175Y-69932876D01*
X150422473Y-69951080D01*
X150353184Y-69965583D01*
X150304271Y-69977292D01*
X150271697Y-69987115D01*
X150251428Y-69995956D01*
X150239426Y-70004724D01*
X150237747Y-70006457D01*
X150220984Y-70034371D01*
X150195414Y-70088695D01*
X150163588Y-70162777D01*
X150128060Y-70249965D01*
X150091383Y-70343608D01*
X150056111Y-70437052D01*
X150024796Y-70523647D01*
X149999993Y-70596740D01*
X149984254Y-70649678D01*
X149980132Y-70675811D01*
X149980476Y-70676726D01*
X149994441Y-70698086D01*
X150026122Y-70745084D01*
X150072191Y-70812827D01*
X150129318Y-70896423D01*
X150194173Y-70990982D01*
X150212643Y-71017854D01*
X150278499Y-71115275D01*
X150336450Y-71204163D01*
X150383338Y-71279412D01*
X150416007Y-71335920D01*
X150431300Y-71368581D01*
X150432041Y-71372593D01*
X150419192Y-71393684D01*
X150383688Y-71435464D01*
X150330093Y-71493445D01*
X150262971Y-71563135D01*
X150186887Y-71640045D01*
X150106404Y-71719683D01*
X150026087Y-71797561D01*
X149950499Y-71869186D01*
X149884205Y-71930070D01*
X149831769Y-71975721D01*
X149797755Y-72001650D01*
X149788345Y-72005883D01*
X149766443Y-71995912D01*
X149721600Y-71969020D01*
X149661121Y-71929736D01*
X149614589Y-71898117D01*
X149530275Y-71840098D01*
X149430426Y-71771784D01*
X149330273Y-71703579D01*
X149276427Y-71667075D01*
X149094171Y-71543800D01*
X148941181Y-71626520D01*
X148871482Y-71662759D01*
X148812214Y-71690926D01*
X148772111Y-71706991D01*
X148761903Y-71709226D01*
X148749629Y-71692722D01*
X148725413Y-71646082D01*
X148691063Y-71573609D01*
X148648388Y-71479606D01*
X148599194Y-71368374D01*
X148545290Y-71244215D01*
X148488484Y-71111432D01*
X148430582Y-70974327D01*
X148373393Y-70837202D01*
X148318724Y-70704358D01*
X148268384Y-70580098D01*
X148224180Y-70468725D01*
X148187919Y-70374539D01*
X148161409Y-70301844D01*
X148146458Y-70254941D01*
X148144054Y-70238833D01*
X148163111Y-70218286D01*
X148204836Y-70184933D01*
X148260506Y-70145702D01*
X148265178Y-70142599D01*
X148409064Y-70027423D01*
X148525083Y-69893053D01*
X148612230Y-69743784D01*
X148669499Y-69583913D01*
X148695886Y-69417737D01*
X148690385Y-69249552D01*
X148651990Y-69083655D01*
X148579695Y-68924342D01*
X148558426Y-68889487D01*
X148447796Y-68748737D01*
X148317102Y-68635714D01*
X148170864Y-68551003D01*
X148013608Y-68495194D01*
X147849857Y-68468874D01*
X147684133Y-68472630D01*
X147520962Y-68507050D01*
X147364865Y-68572723D01*
X147220367Y-68670235D01*
X147175669Y-68709813D01*
X147061912Y-68833703D01*
X146979018Y-68964124D01*
X146922156Y-69110315D01*
X146890487Y-69255088D01*
X146882669Y-69417860D01*
X146908738Y-69581440D01*
X146966045Y-69740298D01*
X147051944Y-69888906D01*
X147163786Y-70021735D01*
X147298923Y-70133256D01*
X147316683Y-70145011D01*
X147372950Y-70183508D01*
X147415723Y-70216863D01*
X147436172Y-70238160D01*
X147436469Y-70238833D01*
X147432079Y-70261871D01*
X147414676Y-70314157D01*
X147386068Y-70391390D01*
X147348065Y-70489268D01*
X147302474Y-70603491D01*
X147251103Y-70729758D01*
X147195762Y-70863767D01*
X147138258Y-71001218D01*
X147080401Y-71137808D01*
X147023998Y-71269237D01*
X146970858Y-71391205D01*
X146922790Y-71499409D01*
X146881601Y-71589549D01*
X146849101Y-71657323D01*
X146827097Y-71698430D01*
X146818236Y-71709226D01*
X146791160Y-71700819D01*
X146740497Y-71678272D01*
X146674983Y-71645613D01*
X146638959Y-71626520D01*
X146485968Y-71543800D01*
X146303712Y-71667075D01*
X146210675Y-71730228D01*
X146108815Y-71799727D01*
X146013362Y-71865165D01*
X145965550Y-71898117D01*
X145898305Y-71943273D01*
X145841364Y-71979057D01*
X145802154Y-72000938D01*
X145789419Y-72005563D01*
X145770883Y-71993085D01*
X145729859Y-71958252D01*
X145670325Y-71904678D01*
X145596258Y-71835983D01*
X145511635Y-71755781D01*
X145458115Y-71704286D01*
X145364481Y-71612286D01*
X145283559Y-71529999D01*
X145218623Y-71460945D01*
X145172942Y-71408644D01*
X145149789Y-71376616D01*
X145147568Y-71370116D01*
X145157876Y-71345394D01*
X145186361Y-71295405D01*
X145229863Y-71225212D01*
X145285223Y-71139875D01*
X145349280Y-71044456D01*
X145367497Y-71017854D01*
X145433873Y-70921167D01*
X145493422Y-70834117D01*
X145542816Y-70761595D01*
X145578725Y-70708493D01*
X145597819Y-70679703D01*
X145599664Y-70676726D01*
X145596905Y-70653782D01*
X145582262Y-70603336D01*
X145558287Y-70532041D01*
X145527534Y-70446547D01*
X145492556Y-70353507D01*
X145455907Y-70259574D01*
X145420139Y-70171399D01*
X145387806Y-70095634D01*
X145361462Y-70038931D01*
X145343658Y-70007943D01*
X145342393Y-70006457D01*
X145331506Y-69997601D01*
X145313118Y-69988843D01*
X145283194Y-69979277D01*
X145237697Y-69967996D01*
X145172591Y-69954093D01*
X145083839Y-69936663D01*
X144967407Y-69914798D01*
X144819258Y-69887591D01*
X144787182Y-69881741D01*
X144692114Y-69863374D01*
X144609235Y-69845405D01*
X144545870Y-69829569D01*
X144509342Y-69817600D01*
X144504444Y-69814810D01*
X144496373Y-69790072D01*
X144489813Y-69734790D01*
X144484767Y-69655389D01*
X144481241Y-69558296D01*
X144479239Y-69449938D01*
X144478764Y-69336740D01*
X144479823Y-69225128D01*
X144482418Y-69121529D01*
X144486554Y-69032368D01*
X144492237Y-68964072D01*
X144499469Y-68923066D01*
X144503829Y-68914674D01*
X144528102Y-68906208D01*
X144583374Y-68892435D01*
X144664138Y-68874550D01*
X144764888Y-68853748D01*
X144880117Y-68831223D01*
X144942898Y-68819418D01*
X145062013Y-68797151D01*
X145168235Y-68776979D01*
X145256373Y-68759915D01*
X145321234Y-68746969D01*
X145357626Y-68739155D01*
X145363616Y-68737422D01*
X145373739Y-68717890D01*
X145395138Y-68670843D01*
X145424961Y-68603003D01*
X145460355Y-68521091D01*
X145498468Y-68431828D01*
X145536447Y-68341935D01*
X145571440Y-68258135D01*
X145600594Y-68187147D01*
X145621057Y-68135694D01*
X145629977Y-68110497D01*
X145630143Y-68109396D01*
X145620031Y-68089519D01*
X145591683Y-68043777D01*
X145548077Y-67976717D01*
X145492194Y-67892884D01*
X145427013Y-67796826D01*
X145389121Y-67741650D01*
X145320075Y-67640481D01*
X145258750Y-67548630D01*
X145208137Y-67470744D01*
X145171229Y-67411469D01*
X145151018Y-67375451D01*
X145148099Y-67367377D01*
X145160647Y-67348584D01*
X145195337Y-67308457D01*
X145247737Y-67251493D01*
X145313416Y-67182185D01*
X145387944Y-67105031D01*
X145466887Y-67024525D01*
X145545817Y-66945163D01*
X145620300Y-66871440D01*
X145685906Y-66807852D01*
X145738204Y-66758894D01*
X145772761Y-66729061D01*
X145784322Y-66721942D01*
X145803146Y-66731953D01*
X145848169Y-66760078D01*
X145915013Y-66803454D01*
X145999301Y-66859218D01*
X146096656Y-66924506D01*
X146170093Y-66974246D01*
X146541133Y-67226551D01*
X147159705Y-66971555D01*
X147243525Y-66526931D01*
X147327346Y-66082307D01*
X148252794Y-66082307D01*
X148336614Y-66526931D01*
D13*
%TO.C,D2*%
X167540800Y-87028000D02*
X167540800Y-90708000D01*
X165520800Y-87028000D02*
X165520800Y-90708000D01*
X167540800Y-87028000D02*
X165520800Y-87028000D01*
%TO.C,C19*%
X168921380Y-65568000D02*
X168640220Y-65568000D01*
X168921380Y-64548000D02*
X168640220Y-64548000D01*
%TO.C,R4*%
X146520800Y-89417420D02*
X146520800Y-89698580D01*
X147540800Y-89417420D02*
X147540800Y-89698580D01*
%TO.C,C10*%
X168770800Y-93367420D02*
X168770800Y-93648580D01*
X169790800Y-93367420D02*
X169790800Y-93648580D01*
%TO.C,C11*%
X165270800Y-94667420D02*
X165270800Y-94948580D01*
X166290800Y-94667420D02*
X166290800Y-94948580D01*
%TO.C,R7*%
X149540800Y-89698580D02*
X149540800Y-89417420D01*
X148520800Y-89698580D02*
X148520800Y-89417420D01*
%TO.C,R5*%
X152121380Y-81868000D02*
X151840220Y-81868000D01*
X152121380Y-80848000D02*
X151840220Y-80848000D01*
%TO.C,R1*%
X155309180Y-93168000D02*
X155028020Y-93168000D01*
X155309180Y-92148000D02*
X155028020Y-92148000D01*
D17*
%TO.C,CONN6*%
X182030800Y-63258000D02*
X172030800Y-63258000D01*
X172030800Y-63258000D02*
X172030800Y-58158000D01*
X182030800Y-58158000D02*
X182030800Y-63258000D01*
D13*
X172331800Y-58149000D02*
X172331800Y-63229000D01*
D17*
X172030800Y-58158000D02*
X182030800Y-58158000D01*
D13*
%TO.C,C16*%
X184540800Y-98717420D02*
X184540800Y-98998580D01*
X183520800Y-98717420D02*
X183520800Y-98998580D01*
%TO.C,C2*%
X150171380Y-94548000D02*
X149890220Y-94548000D01*
X150171380Y-95568000D02*
X149890220Y-95568000D01*
D17*
%TO.C,U1*%
X152856600Y-97308000D02*
X155956600Y-97308000D01*
X155956600Y-94208000D02*
X152856600Y-94208000D01*
X155956600Y-97308000D02*
X155956600Y-97103000D01*
X152856600Y-97308000D02*
X152856600Y-97103000D01*
X155956600Y-94208000D02*
X155956600Y-94413000D01*
X152856600Y-94208000D02*
X152856600Y-94413000D01*
D12*
X152474600Y-93953000D02*
G75*
G03*
X152474600Y-93953000I-100000J0D01*
G01*
D17*
%TO.C,D4*%
X148230800Y-74288000D02*
X146830800Y-74288000D01*
X148230800Y-77328000D02*
X148230800Y-77228000D01*
X146830800Y-74288000D02*
X146830800Y-74388000D01*
X148230800Y-77328000D02*
X146830800Y-77328000D01*
X148230800Y-74288000D02*
X148230800Y-74388000D01*
X146830800Y-77328000D02*
X146830800Y-77228000D01*
D12*
X145530800Y-74981000D02*
G75*
G03*
X145530800Y-74981000I-100000J0D01*
G01*
D13*
%TO.C,U8*%
X173359800Y-70959000D02*
X178566800Y-70959000D01*
X173359800Y-67657000D02*
X173359800Y-68038000D01*
X179201800Y-67657000D02*
X173359800Y-67657000D01*
X179201800Y-68038000D02*
X179201800Y-67657000D01*
X173359800Y-70578000D02*
X173359800Y-70959000D01*
D15*
X179373790Y-70959000D02*
G75*
G03*
X179373790Y-70959000I-171990J0D01*
G01*
D13*
%TO.C,CONN2*%
X152830800Y-99258000D02*
X152830800Y-100008000D01*
X150580800Y-106858000D02*
X151330800Y-106858000D01*
X150280800Y-107158000D02*
X151530800Y-107158000D01*
X151330800Y-103558000D02*
X151330800Y-102558000D01*
X155780800Y-106108000D02*
X155780800Y-103058000D01*
X150280800Y-105908000D02*
X150280800Y-107158000D01*
X150580800Y-101058000D02*
X151330800Y-101058000D01*
X156540800Y-99248000D02*
X150570800Y-99248000D01*
X150570800Y-99248000D02*
X150570800Y-106868000D01*
X150580800Y-99258000D02*
X150580800Y-101058000D01*
X156540800Y-106868000D02*
X156540800Y-99248000D01*
X152830800Y-106858000D02*
X152830800Y-106108000D01*
X150580800Y-105058000D02*
X150580800Y-106858000D01*
X152830800Y-100008000D02*
X155780800Y-100008000D01*
X151330800Y-101058000D02*
X151330800Y-99258000D01*
X150580800Y-102558000D02*
X150580800Y-103558000D01*
X151330800Y-102558000D02*
X150580800Y-102558000D01*
X151330800Y-106858000D02*
X151330800Y-105058000D01*
X151330800Y-105058000D02*
X150580800Y-105058000D01*
X150580800Y-103558000D02*
X151330800Y-103558000D01*
X155780800Y-100008000D02*
X155780800Y-103058000D01*
X151330800Y-99258000D02*
X150580800Y-99258000D01*
X152830800Y-106108000D02*
X155780800Y-106108000D01*
X150570800Y-106868000D02*
X156540800Y-106868000D01*
%TO.C,R12*%
X167390220Y-79298000D02*
X167671380Y-79298000D01*
X167390220Y-80318000D02*
X167671380Y-80318000D01*
%TO.C,C21*%
X167290800Y-75667420D02*
X167290800Y-75948580D01*
X166270800Y-75667420D02*
X166270800Y-75948580D01*
%TO.C,R8*%
X178120800Y-95167420D02*
X178120800Y-95448580D01*
X179140800Y-95167420D02*
X179140800Y-95448580D01*
D12*
%TO.C,CONN4*%
X147430000Y-87594000D02*
X146180000Y-87594000D01*
X147430000Y-78014000D02*
X146180000Y-78014000D01*
D13*
%TO.C,C22*%
X187790800Y-97448580D02*
X187790800Y-97167420D01*
X186770800Y-97448580D02*
X186770800Y-97167420D01*
%TO.C,SW2*%
X187808800Y-63602000D02*
X187554800Y-63602000D01*
X186665800Y-63602000D02*
X185395800Y-63602000D01*
X184252800Y-63602000D02*
X184506800Y-63602000D01*
X184506800Y-58014000D02*
X184252800Y-58014000D01*
X187554800Y-58014000D02*
X187808800Y-58014000D01*
X187808800Y-58014000D02*
X187808800Y-63602000D01*
X185395800Y-58014000D02*
X186665800Y-58014000D01*
X184252800Y-58014000D02*
X184252800Y-63602000D01*
%TO.C,TP4*%
X143580800Y-97108000D02*
X145480800Y-97108000D01*
X143580800Y-99008000D02*
X143580800Y-97108000D01*
X145480800Y-99008000D02*
X143580800Y-99008000D01*
X145480800Y-97108000D02*
X145480800Y-99008000D01*
D17*
%TO.C,CONN8*%
X160530800Y-63258000D02*
X150530800Y-63258000D01*
D13*
X150831800Y-58149000D02*
X150831800Y-63229000D01*
D17*
X150530800Y-58158000D02*
X160530800Y-58158000D01*
X150530800Y-63258000D02*
X150530800Y-58158000D01*
X160530800Y-58158000D02*
X160530800Y-63258000D01*
D13*
%TO.C,R9*%
X179820800Y-95167420D02*
X179820800Y-95448580D01*
X180840800Y-95167420D02*
X180840800Y-95448580D01*
%TO.C,C7*%
X167690220Y-86468000D02*
X167971380Y-86468000D01*
X167690220Y-85448000D02*
X167971380Y-85448000D01*
%TO.C,C12*%
X179890220Y-88718000D02*
X180171380Y-88718000D01*
X179890220Y-87698000D02*
X180171380Y-87698000D01*
%TO.C,C28*%
X180520800Y-65698580D02*
X180520800Y-65417420D01*
X181540800Y-65698580D02*
X181540800Y-65417420D01*
%TO.C,C17*%
X168921380Y-66298000D02*
X168640220Y-66298000D01*
X168921380Y-67318000D02*
X168640220Y-67318000D01*
%TO.C,C9*%
X171971380Y-94148000D02*
X171690220Y-94148000D01*
X171971380Y-95168000D02*
X171690220Y-95168000D01*
%TO.C,TP7*%
X145480800Y-90258000D02*
X143580800Y-90258000D01*
X143580800Y-90258000D02*
X143580800Y-88358000D01*
X145480800Y-88358000D02*
X145480800Y-90258000D01*
X143580800Y-88358000D02*
X145480800Y-88358000D01*
%TO.C,C1*%
X150171380Y-93818000D02*
X149890220Y-93818000D01*
X150171380Y-92798000D02*
X149890220Y-92798000D01*
%TO.C,C30*%
X176120800Y-95167420D02*
X176120800Y-95448580D01*
X177140800Y-95167420D02*
X177140800Y-95448580D01*
%TO.C,CONN3*%
X162465800Y-101348000D02*
X162355800Y-101348000D01*
X162355800Y-101348000D02*
X162355800Y-101948000D01*
X180005800Y-101348000D02*
X180005800Y-101948000D01*
X179895800Y-101348000D02*
X180005800Y-101348000D01*
%TO.C,R2*%
X153920800Y-85367420D02*
X153920800Y-85648580D01*
X154940800Y-85367420D02*
X154940800Y-85648580D01*
%TO.C,C20*%
X183520800Y-102198580D02*
X183520800Y-101917420D01*
X184540800Y-102198580D02*
X184540800Y-101917420D01*
%TO.C,C6*%
X158140800Y-85367420D02*
X158140800Y-85648580D01*
X157120800Y-85367420D02*
X157120800Y-85648580D01*
%TO.C,U3*%
X162554800Y-80645000D02*
X163316800Y-80645000D01*
X163316800Y-84328000D02*
X163316800Y-85090000D01*
X163316800Y-85090000D02*
X162554800Y-85090000D01*
X159506800Y-85090000D02*
X158744800Y-85090000D01*
X163316800Y-80645000D02*
X163316800Y-81280000D01*
X158744800Y-85090000D02*
X158744800Y-84328000D01*
D15*
X159043790Y-80645000D02*
G75*
G03*
X159043790Y-80645000I-171990J0D01*
G01*
D13*
%TO.C,C15*%
X161770800Y-94667420D02*
X161770800Y-94948580D01*
X162790800Y-94667420D02*
X162790800Y-94948580D01*
%TO.C,C25*%
X163171380Y-63898000D02*
X162890220Y-63898000D01*
X163171380Y-64918000D02*
X162890220Y-64918000D01*
%TO.C,R11*%
X167390220Y-82068000D02*
X167671380Y-82068000D01*
X167390220Y-81048000D02*
X167671380Y-81048000D01*
D17*
%TO.C,CONN7*%
X161280800Y-63258000D02*
X161280800Y-58158000D01*
D13*
X161581800Y-58149000D02*
X161581800Y-63229000D01*
D17*
X161280800Y-58158000D02*
X171280800Y-58158000D01*
X171280800Y-58158000D02*
X171280800Y-63258000D01*
X171280800Y-63258000D02*
X161280800Y-63258000D01*
%TD*%
M02*
