%TF.GenerationSoftware,KiCad,Pcbnew,(6.0.8)*%
%TF.CreationDate,2023-01-28T13:43:02+01:00*%
%TF.ProjectId,MuMo-v2-Node,4d754d6f-2d76-4322-9d4e-6f64652e6b69,rev?*%
%TF.SameCoordinates,Original*%
%TF.FileFunction,Drillmap*%
%TF.FilePolarity,Positive*%
%FSLAX45Y45*%
G04 Gerber Fmt 4.5, Leading zero omitted, Abs format (unit mm)*
G04 Created by KiCad (PCBNEW (6.0.8)) date 2023-01-28 13:43:02*
%MOMM*%
%LPD*%
G01*
G04 APERTURE LIST*
%ADD10C,0.100000*%
%ADD11C,0.200000*%
%ADD12C,0.040000*%
%ADD13C,0.060000*%
%ADD14C,0.070000*%
%ADD15C,0.080000*%
%ADD16C,0.120000*%
%ADD17C,0.220000*%
G04 APERTURE END LIST*
D10*
X19232880Y-10769600D02*
G75*
G03*
X19486880Y-10515600I0J254000D01*
G01*
X14528800Y-5765800D02*
X19234685Y-5765800D01*
X14528800Y-5765800D02*
G75*
G03*
X14274800Y-6019800I0J-254000D01*
G01*
X19486880Y-10515600D02*
X19488685Y-6019800D01*
X19232880Y-10769600D02*
X14528800Y-10769600D01*
X14274800Y-10515600D02*
X14274800Y-6019800D01*
X14274800Y-10515600D02*
G75*
G03*
X14528800Y-10769600I254000J0D01*
G01*
X19488690Y-6019800D02*
G75*
G03*
X19234685Y-5765800I-254000J0D01*
G01*
D11*
D12*
X14763080Y-8095800D02*
X14803080Y-8135800D01*
X14803080Y-8095800D02*
X14763080Y-8135800D01*
X14763080Y-8205800D02*
X14803080Y-8245800D01*
X14803080Y-8205800D02*
X14763080Y-8245800D01*
X14763080Y-8315800D02*
X14803080Y-8355800D01*
X14803080Y-8315800D02*
X14763080Y-8355800D01*
X14763080Y-8425800D02*
X14803080Y-8465800D01*
X14803080Y-8425800D02*
X14763080Y-8465800D01*
X14783080Y-7980800D02*
X14823080Y-8020800D01*
X14823080Y-7980800D02*
X14783080Y-8020800D01*
X14783080Y-8540800D02*
X14823080Y-8580800D01*
X14823080Y-8540800D02*
X14783080Y-8580800D01*
X14983080Y-9430800D02*
X15023080Y-9470800D01*
X15023080Y-9430800D02*
X14983080Y-9470800D01*
X15043080Y-8945800D02*
X15083080Y-8985800D01*
X15083080Y-8945800D02*
X15043080Y-8985800D01*
X15073080Y-8540800D02*
X15113080Y-8580800D01*
X15113080Y-8540800D02*
X15073080Y-8580800D01*
X15083080Y-7980800D02*
X15123080Y-8020800D01*
X15123080Y-7980800D02*
X15083080Y-8020800D01*
X15293080Y-8625800D02*
X15333080Y-8665800D01*
X15333080Y-8625800D02*
X15293080Y-8665800D01*
X15420660Y-9485800D02*
X15460660Y-9525800D01*
X15460660Y-9485800D02*
X15420660Y-9525800D01*
X15420660Y-9625800D02*
X15460660Y-9665800D01*
X15460660Y-9625800D02*
X15420660Y-9665800D01*
X15453680Y-6457000D02*
X15493680Y-6497000D01*
X15493680Y-6457000D02*
X15453680Y-6497000D01*
X15658080Y-8360800D02*
X15698080Y-8400800D01*
X15698080Y-8360800D02*
X15658080Y-8400800D01*
X15738080Y-8120800D02*
X15778080Y-8160800D01*
X15778080Y-8120800D02*
X15738080Y-8160800D01*
X16003080Y-8185800D02*
X16043080Y-8225800D01*
X16043080Y-8185800D02*
X16003080Y-8225800D01*
X16003080Y-8335800D02*
X16043080Y-8375800D01*
X16043080Y-8335800D02*
X16003080Y-8375800D01*
X16003080Y-8795800D02*
X16043080Y-8835800D01*
X16043080Y-8795800D02*
X16003080Y-8835800D01*
X16038080Y-9600800D02*
X16078080Y-9640800D01*
X16078080Y-9600800D02*
X16038080Y-9640800D01*
X16048040Y-10137460D02*
X16088040Y-10177460D01*
X16088040Y-10137460D02*
X16048040Y-10177460D01*
X16065820Y-7917500D02*
X16105820Y-7957500D01*
X16105820Y-7917500D02*
X16065820Y-7957500D01*
X16103080Y-8603300D02*
X16143080Y-8643300D01*
X16143080Y-8603300D02*
X16103080Y-8643300D01*
X16153080Y-8185800D02*
X16193080Y-8225800D01*
X16193080Y-8185800D02*
X16153080Y-8225800D01*
X16153080Y-8335800D02*
X16193080Y-8375800D01*
X16193080Y-8335800D02*
X16153080Y-8375800D01*
X16168080Y-10465800D02*
X16208080Y-10505800D01*
X16208080Y-10465800D02*
X16168080Y-10505800D01*
X16210600Y-7917500D02*
X16250600Y-7957500D01*
X16250600Y-7917500D02*
X16210600Y-7957500D01*
X16333080Y-8515800D02*
X16373080Y-8555800D01*
X16373080Y-8515800D02*
X16333080Y-8555800D01*
X16338080Y-6310800D02*
X16378080Y-6350800D01*
X16378080Y-6310800D02*
X16338080Y-6350800D01*
X16598080Y-10330800D02*
X16638080Y-10370800D01*
X16638080Y-10330800D02*
X16598080Y-10370800D01*
X16613080Y-6310800D02*
X16653080Y-6350800D01*
X16653080Y-6310800D02*
X16613080Y-6350800D01*
X16613080Y-7255800D02*
X16653080Y-7295800D01*
X16653080Y-7255800D02*
X16613080Y-7295800D01*
X16749080Y-8260400D02*
X16789080Y-8300400D01*
X16789080Y-8260400D02*
X16749080Y-8300400D01*
X16799880Y-10327960D02*
X16839880Y-10367960D01*
X16839880Y-10327960D02*
X16799880Y-10367960D01*
X16901480Y-6025200D02*
X16941480Y-6065200D01*
X16941480Y-6025200D02*
X16901480Y-6065200D01*
X16924340Y-9987600D02*
X16964340Y-10027600D01*
X16964340Y-9987600D02*
X16924340Y-10027600D01*
X17015780Y-6457000D02*
X17055780Y-6497000D01*
X17055780Y-6457000D02*
X17015780Y-6497000D01*
X17028480Y-6685600D02*
X17068480Y-6725600D01*
X17068480Y-6685600D02*
X17028480Y-6725600D01*
X17036894Y-9984693D02*
X17076894Y-10024693D01*
X17076894Y-9984693D02*
X17036894Y-10024693D01*
X17064040Y-8443280D02*
X17104040Y-8483280D01*
X17104040Y-8443280D02*
X17064040Y-8483280D01*
X17098080Y-10330800D02*
X17138080Y-10370800D01*
X17138080Y-10330800D02*
X17098080Y-10370800D01*
X17135580Y-9143300D02*
X17175580Y-9183300D01*
X17175580Y-9143300D02*
X17135580Y-9183300D01*
X17136767Y-9911400D02*
X17176767Y-9951400D01*
X17176767Y-9911400D02*
X17136767Y-9951400D01*
X17155480Y-6779580D02*
X17195480Y-6819580D01*
X17195480Y-6779580D02*
X17155480Y-6819580D01*
X17255580Y-9683300D02*
X17295580Y-9723300D01*
X17295580Y-9683300D02*
X17255580Y-9723300D01*
X17282480Y-7485700D02*
X17322480Y-7525700D01*
X17322480Y-7485700D02*
X17282480Y-7525700D01*
X17292640Y-7991160D02*
X17332640Y-8031160D01*
X17332640Y-7991160D02*
X17292640Y-8031160D01*
X17292640Y-8118160D02*
X17332640Y-8158160D01*
X17332640Y-8118160D02*
X17292640Y-8158160D01*
X17292640Y-8240080D02*
X17332640Y-8280080D01*
X17332640Y-8240080D02*
X17292640Y-8280080D01*
X17328200Y-10330500D02*
X17368200Y-10370500D01*
X17368200Y-10330500D02*
X17328200Y-10370500D01*
X17340580Y-9753300D02*
X17380580Y-9793300D01*
X17380580Y-9753300D02*
X17340580Y-9793300D01*
X17409480Y-7485700D02*
X17449480Y-7525700D01*
X17449480Y-7485700D02*
X17409480Y-7525700D01*
X17414560Y-8240080D02*
X17454560Y-8280080D01*
X17454560Y-8240080D02*
X17414560Y-8280080D01*
X17424720Y-9987600D02*
X17464720Y-10027600D01*
X17464720Y-9987600D02*
X17424720Y-10027600D01*
X17448080Y-9143300D02*
X17488080Y-9183300D01*
X17488080Y-9143300D02*
X17448080Y-9183300D01*
X17598080Y-10325800D02*
X17638080Y-10365800D01*
X17638080Y-10325800D02*
X17598080Y-10365800D01*
X17612680Y-6812600D02*
X17652680Y-6852600D01*
X17652680Y-6812600D02*
X17612680Y-6852600D01*
X17615580Y-9508300D02*
X17655580Y-9548300D01*
X17655580Y-9508300D02*
X17615580Y-9548300D01*
X17645700Y-8704900D02*
X17685700Y-8744900D01*
X17685700Y-8704900D02*
X17645700Y-8744900D01*
X17787940Y-7485700D02*
X17827940Y-7525700D01*
X17827940Y-7485700D02*
X17787940Y-7525700D01*
X17787940Y-7742240D02*
X17827940Y-7782240D01*
X17827940Y-7742240D02*
X17787940Y-7782240D01*
X17793080Y-8245800D02*
X17833080Y-8285800D01*
X17833080Y-8245800D02*
X17793080Y-8285800D01*
X17808080Y-9140800D02*
X17848080Y-9180800D01*
X17848080Y-9140800D02*
X17808080Y-9180800D01*
X17818420Y-8704900D02*
X17858420Y-8744900D01*
X17858420Y-8704900D02*
X17818420Y-8744900D01*
X17876840Y-7866700D02*
X17916840Y-7906700D01*
X17916840Y-7866700D02*
X17876840Y-7906700D01*
X17912400Y-7612700D02*
X17952400Y-7652700D01*
X17952400Y-7612700D02*
X17912400Y-7652700D01*
X18039400Y-7612700D02*
X18079400Y-7652700D01*
X18079400Y-7612700D02*
X18039400Y-7652700D01*
X18039400Y-7996240D02*
X18079400Y-8036240D01*
X18079400Y-7996240D02*
X18039400Y-8036240D01*
X18039400Y-8115620D02*
X18079400Y-8155620D01*
X18079400Y-8115620D02*
X18039400Y-8155620D01*
X18039400Y-8240080D02*
X18079400Y-8280080D01*
X18079400Y-8240080D02*
X18039400Y-8280080D01*
X18043080Y-10115800D02*
X18083080Y-10155800D01*
X18083080Y-10115800D02*
X18043080Y-10155800D01*
X18043080Y-10465800D02*
X18083080Y-10505800D01*
X18083080Y-10465800D02*
X18043080Y-10505800D01*
X18052100Y-9759000D02*
X18092100Y-9799000D01*
X18092100Y-9759000D02*
X18052100Y-9799000D01*
X18082580Y-9073200D02*
X18122580Y-9113200D01*
X18122580Y-9073200D02*
X18082580Y-9113200D01*
X18163860Y-6073460D02*
X18203860Y-6113460D01*
X18203860Y-6073460D02*
X18163860Y-6113460D01*
X18191800Y-7028500D02*
X18231800Y-7068500D01*
X18231800Y-7028500D02*
X18191800Y-7068500D01*
X18263080Y-8375800D02*
X18303080Y-8415800D01*
X18303080Y-8375800D02*
X18263080Y-8415800D01*
X18461040Y-10114600D02*
X18501040Y-10154600D01*
X18501040Y-10114600D02*
X18461040Y-10154600D01*
X18461040Y-10289860D02*
X18501040Y-10329860D01*
X18501040Y-10289860D02*
X18461040Y-10329860D01*
X18494060Y-9182420D02*
X18534060Y-9222420D01*
X18534060Y-9182420D02*
X18494060Y-9222420D01*
X18501680Y-8115620D02*
X18541680Y-8155620D01*
X18541680Y-8115620D02*
X18501680Y-8155620D01*
X18501680Y-8377240D02*
X18541680Y-8417240D01*
X18541680Y-8377240D02*
X18501680Y-8417240D01*
X18552480Y-9632000D02*
X18592480Y-9672000D01*
X18592480Y-9632000D02*
X18552480Y-9672000D01*
X18570260Y-6076000D02*
X18610260Y-6116000D01*
X18610260Y-6076000D02*
X18570260Y-6116000D01*
X18704880Y-9047800D02*
X18744880Y-9087800D01*
X18744880Y-9047800D02*
X18704880Y-9087800D01*
X18768080Y-8115800D02*
X18808080Y-8155800D01*
X18808080Y-8115800D02*
X18768080Y-8155800D01*
X18768080Y-8375800D02*
X18808080Y-8415800D01*
X18808080Y-8375800D02*
X18768080Y-8415800D01*
X18831880Y-9337360D02*
X18871880Y-9377360D01*
X18871880Y-9337360D02*
X18831880Y-9377360D01*
X18831880Y-9784400D02*
X18871880Y-9824400D01*
X18871880Y-9784400D02*
X18831880Y-9824400D01*
X18908080Y-9454200D02*
X18948080Y-9494200D01*
X18948080Y-9454200D02*
X18908080Y-9494200D01*
X18953800Y-6558600D02*
X18993800Y-6598600D01*
X18993800Y-6558600D02*
X18953800Y-6598600D01*
X19068100Y-9606600D02*
X19108100Y-9646600D01*
X19108100Y-9606600D02*
X19068100Y-9646600D01*
X19188080Y-7345800D02*
X19228080Y-7385800D01*
X19228080Y-7345800D02*
X19188080Y-7385800D01*
X19203080Y-7575800D02*
X19243080Y-7615800D01*
X19243080Y-7575800D02*
X19203080Y-7615800D01*
X19208080Y-8030800D02*
X19248080Y-8070800D01*
X19248080Y-8030800D02*
X19208080Y-8070800D01*
X19208080Y-8445393D02*
X19248080Y-8485393D01*
X19248080Y-8445393D02*
X19208080Y-8485393D01*
X19208080Y-8950047D02*
X19248080Y-8990047D01*
X19248080Y-8950047D02*
X19208080Y-8990047D01*
D13*
X14526000Y-7848400D02*
G75*
G03*
X14526000Y-7848400I-30000J0D01*
G01*
D11*
X14556000Y-7818400D02*
X14436000Y-7818400D01*
X14556000Y-7878400D02*
X14436000Y-7878400D01*
X14436000Y-7818400D02*
G75*
G03*
X14436000Y-7878400I0J-30000D01*
G01*
X14556000Y-7878400D02*
G75*
G03*
X14556000Y-7818400I0J30000D01*
G01*
D13*
X14526000Y-8712400D02*
G75*
G03*
X14526000Y-8712400I-30000J0D01*
G01*
D11*
X14556000Y-8682400D02*
X14436000Y-8682400D01*
X14556000Y-8742400D02*
X14436000Y-8742400D01*
X14436000Y-8682400D02*
G75*
G03*
X14436000Y-8742400I0J-30000D01*
G01*
X14556000Y-8742400D02*
G75*
G03*
X14556000Y-8682400I0J30000D01*
G01*
D13*
X14926000Y-7848400D02*
G75*
G03*
X14926000Y-7848400I-30000J0D01*
G01*
D11*
X14936000Y-7818400D02*
X14856000Y-7818400D01*
X14936000Y-7878400D02*
X14856000Y-7878400D01*
X14856000Y-7818400D02*
G75*
G03*
X14856000Y-7878400I0J-30000D01*
G01*
X14936000Y-7878400D02*
G75*
G03*
X14936000Y-7818400I0J30000D01*
G01*
D13*
X14926000Y-8712400D02*
G75*
G03*
X14926000Y-8712400I-30000J0D01*
G01*
D11*
X14936000Y-8682400D02*
X14856000Y-8682400D01*
X14936000Y-8742400D02*
X14856000Y-8742400D01*
X14856000Y-8682400D02*
G75*
G03*
X14856000Y-8742400I0J-30000D01*
G01*
X14936000Y-8742400D02*
G75*
G03*
X14936000Y-8682400I0J30000D01*
G01*
D14*
X16766540Y-8534960D02*
X16766540Y-8604960D01*
X16731540Y-8569960D02*
X16801540Y-8569960D01*
X18653760Y-6693460D02*
X18653760Y-6763460D01*
X18618760Y-6728460D02*
X18688760Y-6728460D01*
X18653760Y-6950000D02*
X18653760Y-7020000D01*
X18618760Y-6985000D02*
X18688760Y-6985000D01*
D15*
X15085124Y-6073484D02*
X15085124Y-6016915D01*
X15028555Y-6016915D01*
X15028555Y-6073484D01*
X15085124Y-6073484D01*
X15285124Y-6073484D02*
X15285124Y-6016915D01*
X15228555Y-6016915D01*
X15228555Y-6073484D01*
X15285124Y-6073484D01*
X15485124Y-6073484D02*
X15485124Y-6016915D01*
X15428555Y-6016915D01*
X15428555Y-6073484D01*
X15485124Y-6073484D01*
X15685124Y-6073484D02*
X15685124Y-6016915D01*
X15628555Y-6016915D01*
X15628555Y-6073484D01*
X15685124Y-6073484D01*
X16167164Y-6073484D02*
X16167164Y-6016915D01*
X16110595Y-6016915D01*
X16110595Y-6073484D01*
X16167164Y-6073484D01*
X16367164Y-6073484D02*
X16367164Y-6016915D01*
X16310595Y-6016915D01*
X16310595Y-6073484D01*
X16367164Y-6073484D01*
X16567164Y-6073484D02*
X16567164Y-6016915D01*
X16510595Y-6016915D01*
X16510595Y-6073484D01*
X16567164Y-6073484D01*
X16767164Y-6073484D02*
X16767164Y-6016915D01*
X16710595Y-6016915D01*
X16710595Y-6073484D01*
X16767164Y-6073484D01*
X17259365Y-6073484D02*
X17259365Y-6016915D01*
X17202796Y-6016915D01*
X17202796Y-6073484D01*
X17259365Y-6073484D01*
X17459365Y-6073484D02*
X17459365Y-6016915D01*
X17402796Y-6016915D01*
X17402796Y-6073484D01*
X17459365Y-6073484D01*
X17659365Y-6073484D02*
X17659365Y-6016915D01*
X17602796Y-6016915D01*
X17602796Y-6073484D01*
X17659365Y-6073484D01*
X17859365Y-6073484D02*
X17859365Y-6016915D01*
X17802796Y-6016915D01*
X17802796Y-6073484D01*
X17859365Y-6073484D01*
D10*
X15257780Y-10234320D02*
X15307780Y-10184320D01*
X15257780Y-10134320D01*
X15207780Y-10184320D01*
X15257780Y-10234320D01*
X15257780Y-10484320D02*
X15307780Y-10434320D01*
X15257780Y-10384320D01*
X15207780Y-10434320D01*
X15257780Y-10484320D01*
X19207480Y-6628600D02*
X19257480Y-6578600D01*
X19207480Y-6528600D01*
X19157480Y-6578600D01*
X19207480Y-6628600D01*
X19207480Y-6882600D02*
X19257480Y-6832600D01*
X19207480Y-6782600D01*
X19157480Y-6832600D01*
X19207480Y-6882600D01*
X19207480Y-7136600D02*
X19257480Y-7086600D01*
X19207480Y-7036600D01*
X19157480Y-7086600D01*
X19207480Y-7136600D01*
D16*
X14494200Y-9265800D02*
X14614200Y-9385800D01*
X14614200Y-9265800D02*
X14494200Y-9385800D01*
X14614200Y-9325800D02*
G75*
G03*
X14614200Y-9325800I-60000J0D01*
G01*
X14494200Y-9665800D02*
X14614200Y-9785800D01*
X14614200Y-9665800D02*
X14494200Y-9785800D01*
X14614200Y-9725800D02*
G75*
G03*
X14614200Y-9725800I-60000J0D01*
G01*
X14499280Y-6671000D02*
X14619280Y-6791000D01*
X14619280Y-6671000D02*
X14499280Y-6791000D01*
X14619280Y-6731000D02*
G75*
G03*
X14619280Y-6731000I-60000J0D01*
G01*
X14499280Y-7052000D02*
X14619280Y-7172000D01*
X14619280Y-7052000D02*
X14499280Y-7172000D01*
X14619280Y-7112000D02*
G75*
G03*
X14619280Y-7112000I-60000J0D01*
G01*
D17*
X14444200Y-5935200D02*
X14664200Y-6155200D01*
X14664200Y-5935200D02*
X14444200Y-6155200D01*
X14554200Y-5935200D02*
X14554200Y-6155200D01*
X14444200Y-6045200D02*
X14664200Y-6045200D01*
X14444200Y-10380200D02*
X14664200Y-10600200D01*
X14664200Y-10380200D02*
X14444200Y-10600200D01*
X14554200Y-10380200D02*
X14554200Y-10600200D01*
X14444200Y-10490200D02*
X14664200Y-10490200D01*
X19097480Y-5935200D02*
X19317480Y-6155200D01*
X19317480Y-5935200D02*
X19097480Y-6155200D01*
X19207480Y-5935200D02*
X19207480Y-6155200D01*
X19097480Y-6045200D02*
X19317480Y-6045200D01*
X19097480Y-10380200D02*
X19317480Y-10600200D01*
X19317480Y-10380200D02*
X19097480Y-10600200D01*
X19207480Y-10380200D02*
X19207480Y-10600200D01*
X19097480Y-10490200D02*
X19317480Y-10490200D01*
D11*
X14527419Y-11085076D02*
X14527419Y-10885076D01*
X14575038Y-10885076D01*
X14603609Y-10894600D01*
X14622657Y-10913648D01*
X14632181Y-10932695D01*
X14641705Y-10970790D01*
X14641705Y-10999362D01*
X14632181Y-11037457D01*
X14622657Y-11056505D01*
X14603609Y-11075552D01*
X14575038Y-11085076D01*
X14527419Y-11085076D01*
X14727419Y-11085076D02*
X14727419Y-10951743D01*
X14727419Y-10989838D02*
X14736943Y-10970790D01*
X14746467Y-10961267D01*
X14765514Y-10951743D01*
X14784562Y-10951743D01*
X14851228Y-11085076D02*
X14851228Y-10951743D01*
X14851228Y-10885076D02*
X14841705Y-10894600D01*
X14851228Y-10904124D01*
X14860752Y-10894600D01*
X14851228Y-10885076D01*
X14851228Y-10904124D01*
X14975038Y-11085076D02*
X14955990Y-11075552D01*
X14946467Y-11056505D01*
X14946467Y-10885076D01*
X15079800Y-11085076D02*
X15060752Y-11075552D01*
X15051228Y-11056505D01*
X15051228Y-10885076D01*
X15308371Y-11085076D02*
X15308371Y-10885076D01*
X15375038Y-11027933D01*
X15441705Y-10885076D01*
X15441705Y-11085076D01*
X15622657Y-11085076D02*
X15622657Y-10980314D01*
X15613133Y-10961267D01*
X15594086Y-10951743D01*
X15555990Y-10951743D01*
X15536943Y-10961267D01*
X15622657Y-11075552D02*
X15603609Y-11085076D01*
X15555990Y-11085076D01*
X15536943Y-11075552D01*
X15527419Y-11056505D01*
X15527419Y-11037457D01*
X15536943Y-11018410D01*
X15555990Y-11008886D01*
X15603609Y-11008886D01*
X15622657Y-10999362D01*
X15717895Y-10951743D02*
X15717895Y-11151743D01*
X15717895Y-10961267D02*
X15736943Y-10951743D01*
X15775038Y-10951743D01*
X15794086Y-10961267D01*
X15803609Y-10970790D01*
X15813133Y-10989838D01*
X15813133Y-11046981D01*
X15803609Y-11066029D01*
X15794086Y-11075552D01*
X15775038Y-11085076D01*
X15736943Y-11085076D01*
X15717895Y-11075552D01*
X15898848Y-11066029D02*
X15908371Y-11075552D01*
X15898848Y-11085076D01*
X15889324Y-11075552D01*
X15898848Y-11066029D01*
X15898848Y-11085076D01*
X15898848Y-10961267D02*
X15908371Y-10970790D01*
X15898848Y-10980314D01*
X15889324Y-10970790D01*
X15898848Y-10961267D01*
X15898848Y-10980314D01*
D12*
X14229800Y-11394600D02*
X14269800Y-11434600D01*
X14269800Y-11394600D02*
X14229800Y-11434600D01*
D11*
X14565514Y-11305076D02*
X14584562Y-11305076D01*
X14603609Y-11314600D01*
X14613133Y-11324124D01*
X14622657Y-11343171D01*
X14632181Y-11381267D01*
X14632181Y-11428886D01*
X14622657Y-11466981D01*
X14613133Y-11486028D01*
X14603609Y-11495552D01*
X14584562Y-11505076D01*
X14565514Y-11505076D01*
X14546467Y-11495552D01*
X14536943Y-11486028D01*
X14527419Y-11466981D01*
X14517895Y-11428886D01*
X14517895Y-11381267D01*
X14527419Y-11343171D01*
X14536943Y-11324124D01*
X14546467Y-11314600D01*
X14565514Y-11305076D01*
X14717895Y-11486028D02*
X14727419Y-11495552D01*
X14717895Y-11505076D01*
X14708371Y-11495552D01*
X14717895Y-11486028D01*
X14717895Y-11505076D01*
X14898848Y-11371743D02*
X14898848Y-11505076D01*
X14851228Y-11295552D02*
X14803609Y-11438409D01*
X14927419Y-11438409D01*
X15041705Y-11305076D02*
X15060752Y-11305076D01*
X15079800Y-11314600D01*
X15089324Y-11324124D01*
X15098848Y-11343171D01*
X15108371Y-11381267D01*
X15108371Y-11428886D01*
X15098848Y-11466981D01*
X15089324Y-11486028D01*
X15079800Y-11495552D01*
X15060752Y-11505076D01*
X15041705Y-11505076D01*
X15022657Y-11495552D01*
X15013133Y-11486028D01*
X15003609Y-11466981D01*
X14994086Y-11428886D01*
X14994086Y-11381267D01*
X15003609Y-11343171D01*
X15013133Y-11324124D01*
X15022657Y-11314600D01*
X15041705Y-11305076D01*
X15232181Y-11305076D02*
X15251228Y-11305076D01*
X15270276Y-11314600D01*
X15279800Y-11324124D01*
X15289324Y-11343171D01*
X15298848Y-11381267D01*
X15298848Y-11428886D01*
X15289324Y-11466981D01*
X15279800Y-11486028D01*
X15270276Y-11495552D01*
X15251228Y-11505076D01*
X15232181Y-11505076D01*
X15213133Y-11495552D01*
X15203609Y-11486028D01*
X15194086Y-11466981D01*
X15184562Y-11428886D01*
X15184562Y-11381267D01*
X15194086Y-11343171D01*
X15203609Y-11324124D01*
X15213133Y-11314600D01*
X15232181Y-11305076D01*
X15384562Y-11505076D02*
X15384562Y-11371743D01*
X15384562Y-11390790D02*
X15394086Y-11381267D01*
X15413133Y-11371743D01*
X15441705Y-11371743D01*
X15460752Y-11381267D01*
X15470276Y-11400314D01*
X15470276Y-11505076D01*
X15470276Y-11400314D02*
X15479800Y-11381267D01*
X15498848Y-11371743D01*
X15527419Y-11371743D01*
X15546467Y-11381267D01*
X15555990Y-11400314D01*
X15555990Y-11505076D01*
X15651228Y-11505076D02*
X15651228Y-11371743D01*
X15651228Y-11390790D02*
X15660752Y-11381267D01*
X15679800Y-11371743D01*
X15708371Y-11371743D01*
X15727419Y-11381267D01*
X15736943Y-11400314D01*
X15736943Y-11505076D01*
X15736943Y-11400314D02*
X15746467Y-11381267D01*
X15765514Y-11371743D01*
X15794086Y-11371743D01*
X15813133Y-11381267D01*
X15822657Y-11400314D01*
X15822657Y-11505076D01*
X16213133Y-11295552D02*
X16041705Y-11552695D01*
X16470276Y-11305076D02*
X16489324Y-11305076D01*
X16508371Y-11314600D01*
X16517895Y-11324124D01*
X16527419Y-11343171D01*
X16536943Y-11381267D01*
X16536943Y-11428886D01*
X16527419Y-11466981D01*
X16517895Y-11486028D01*
X16508371Y-11495552D01*
X16489324Y-11505076D01*
X16470276Y-11505076D01*
X16451228Y-11495552D01*
X16441705Y-11486028D01*
X16432181Y-11466981D01*
X16422657Y-11428886D01*
X16422657Y-11381267D01*
X16432181Y-11343171D01*
X16441705Y-11324124D01*
X16451228Y-11314600D01*
X16470276Y-11305076D01*
X16622657Y-11486028D02*
X16632181Y-11495552D01*
X16622657Y-11505076D01*
X16613133Y-11495552D01*
X16622657Y-11486028D01*
X16622657Y-11505076D01*
X16755990Y-11305076D02*
X16775038Y-11305076D01*
X16794086Y-11314600D01*
X16803610Y-11324124D01*
X16813133Y-11343171D01*
X16822657Y-11381267D01*
X16822657Y-11428886D01*
X16813133Y-11466981D01*
X16803610Y-11486028D01*
X16794086Y-11495552D01*
X16775038Y-11505076D01*
X16755990Y-11505076D01*
X16736943Y-11495552D01*
X16727419Y-11486028D01*
X16717895Y-11466981D01*
X16708371Y-11428886D01*
X16708371Y-11381267D01*
X16717895Y-11343171D01*
X16727419Y-11324124D01*
X16736943Y-11314600D01*
X16755990Y-11305076D01*
X17013133Y-11505076D02*
X16898848Y-11505076D01*
X16955990Y-11505076D02*
X16955990Y-11305076D01*
X16936943Y-11333648D01*
X16917895Y-11352695D01*
X16898848Y-11362219D01*
X17194086Y-11305076D02*
X17098848Y-11305076D01*
X17089324Y-11400314D01*
X17098848Y-11390790D01*
X17117895Y-11381267D01*
X17165514Y-11381267D01*
X17184562Y-11390790D01*
X17194086Y-11400314D01*
X17203610Y-11419362D01*
X17203610Y-11466981D01*
X17194086Y-11486028D01*
X17184562Y-11495552D01*
X17165514Y-11505076D01*
X17117895Y-11505076D01*
X17098848Y-11495552D01*
X17089324Y-11486028D01*
X17270276Y-11305076D02*
X17403610Y-11305076D01*
X17317895Y-11505076D01*
X17470276Y-11305076D02*
X17470276Y-11343171D01*
X17546467Y-11305076D02*
X17546467Y-11343171D01*
X17841705Y-11581267D02*
X17832181Y-11571743D01*
X17813133Y-11543171D01*
X17803610Y-11524124D01*
X17794086Y-11495552D01*
X17784562Y-11447933D01*
X17784562Y-11409838D01*
X17794086Y-11362219D01*
X17803610Y-11333648D01*
X17813133Y-11314600D01*
X17832181Y-11286028D01*
X17841705Y-11276505D01*
X17927419Y-11505076D02*
X17965514Y-11505076D01*
X17984562Y-11495552D01*
X17994086Y-11486028D01*
X18013133Y-11457457D01*
X18022657Y-11419362D01*
X18022657Y-11343171D01*
X18013133Y-11324124D01*
X18003610Y-11314600D01*
X17984562Y-11305076D01*
X17946467Y-11305076D01*
X17927419Y-11314600D01*
X17917895Y-11324124D01*
X17908371Y-11343171D01*
X17908371Y-11390790D01*
X17917895Y-11409838D01*
X17927419Y-11419362D01*
X17946467Y-11428886D01*
X17984562Y-11428886D01*
X18003610Y-11419362D01*
X18013133Y-11409838D01*
X18022657Y-11390790D01*
X18089324Y-11305076D02*
X18222657Y-11305076D01*
X18136943Y-11505076D01*
X18451229Y-11505076D02*
X18451229Y-11305076D01*
X18536943Y-11505076D02*
X18536943Y-11400314D01*
X18527419Y-11381267D01*
X18508371Y-11371743D01*
X18479800Y-11371743D01*
X18460752Y-11381267D01*
X18451229Y-11390790D01*
X18660752Y-11505076D02*
X18641705Y-11495552D01*
X18632181Y-11486028D01*
X18622657Y-11466981D01*
X18622657Y-11409838D01*
X18632181Y-11390790D01*
X18641705Y-11381267D01*
X18660752Y-11371743D01*
X18689324Y-11371743D01*
X18708371Y-11381267D01*
X18717895Y-11390790D01*
X18727419Y-11409838D01*
X18727419Y-11466981D01*
X18717895Y-11486028D01*
X18708371Y-11495552D01*
X18689324Y-11505076D01*
X18660752Y-11505076D01*
X18841705Y-11505076D02*
X18822657Y-11495552D01*
X18813133Y-11476505D01*
X18813133Y-11305076D01*
X18994086Y-11495552D02*
X18975038Y-11505076D01*
X18936943Y-11505076D01*
X18917895Y-11495552D01*
X18908371Y-11476505D01*
X18908371Y-11400314D01*
X18917895Y-11381267D01*
X18936943Y-11371743D01*
X18975038Y-11371743D01*
X18994086Y-11381267D01*
X19003610Y-11400314D01*
X19003610Y-11419362D01*
X18908371Y-11438409D01*
X19079800Y-11495552D02*
X19098848Y-11505076D01*
X19136943Y-11505076D01*
X19155990Y-11495552D01*
X19165514Y-11476505D01*
X19165514Y-11466981D01*
X19155990Y-11447933D01*
X19136943Y-11438409D01*
X19108371Y-11438409D01*
X19089324Y-11428886D01*
X19079800Y-11409838D01*
X19079800Y-11400314D01*
X19089324Y-11381267D01*
X19108371Y-11371743D01*
X19136943Y-11371743D01*
X19155990Y-11381267D01*
X19232181Y-11581267D02*
X19241705Y-11571743D01*
X19260752Y-11543171D01*
X19270276Y-11524124D01*
X19279800Y-11495552D01*
X19289324Y-11447933D01*
X19289324Y-11409838D01*
X19279800Y-11362219D01*
X19270276Y-11333648D01*
X19260752Y-11314600D01*
X19241705Y-11286028D01*
X19232181Y-11276505D01*
D13*
X14269800Y-11678600D02*
G75*
G03*
X14269800Y-11678600I-30000J0D01*
G01*
D11*
X14565514Y-11569076D02*
X14584562Y-11569076D01*
X14603609Y-11578600D01*
X14613133Y-11588124D01*
X14622657Y-11607171D01*
X14632181Y-11645267D01*
X14632181Y-11692886D01*
X14622657Y-11730981D01*
X14613133Y-11750028D01*
X14603609Y-11759552D01*
X14584562Y-11769076D01*
X14565514Y-11769076D01*
X14546467Y-11759552D01*
X14536943Y-11750028D01*
X14527419Y-11730981D01*
X14517895Y-11692886D01*
X14517895Y-11645267D01*
X14527419Y-11607171D01*
X14536943Y-11588124D01*
X14546467Y-11578600D01*
X14565514Y-11569076D01*
X14717895Y-11750028D02*
X14727419Y-11759552D01*
X14717895Y-11769076D01*
X14708371Y-11759552D01*
X14717895Y-11750028D01*
X14717895Y-11769076D01*
X14898848Y-11569076D02*
X14860752Y-11569076D01*
X14841705Y-11578600D01*
X14832181Y-11588124D01*
X14813133Y-11616695D01*
X14803609Y-11654790D01*
X14803609Y-11730981D01*
X14813133Y-11750028D01*
X14822657Y-11759552D01*
X14841705Y-11769076D01*
X14879800Y-11769076D01*
X14898848Y-11759552D01*
X14908371Y-11750028D01*
X14917895Y-11730981D01*
X14917895Y-11683362D01*
X14908371Y-11664314D01*
X14898848Y-11654790D01*
X14879800Y-11645267D01*
X14841705Y-11645267D01*
X14822657Y-11654790D01*
X14813133Y-11664314D01*
X14803609Y-11683362D01*
X15041705Y-11569076D02*
X15060752Y-11569076D01*
X15079800Y-11578600D01*
X15089324Y-11588124D01*
X15098848Y-11607171D01*
X15108371Y-11645267D01*
X15108371Y-11692886D01*
X15098848Y-11730981D01*
X15089324Y-11750028D01*
X15079800Y-11759552D01*
X15060752Y-11769076D01*
X15041705Y-11769076D01*
X15022657Y-11759552D01*
X15013133Y-11750028D01*
X15003609Y-11730981D01*
X14994086Y-11692886D01*
X14994086Y-11645267D01*
X15003609Y-11607171D01*
X15013133Y-11588124D01*
X15022657Y-11578600D01*
X15041705Y-11569076D01*
X15232181Y-11569076D02*
X15251228Y-11569076D01*
X15270276Y-11578600D01*
X15279800Y-11588124D01*
X15289324Y-11607171D01*
X15298848Y-11645267D01*
X15298848Y-11692886D01*
X15289324Y-11730981D01*
X15279800Y-11750028D01*
X15270276Y-11759552D01*
X15251228Y-11769076D01*
X15232181Y-11769076D01*
X15213133Y-11759552D01*
X15203609Y-11750028D01*
X15194086Y-11730981D01*
X15184562Y-11692886D01*
X15184562Y-11645267D01*
X15194086Y-11607171D01*
X15203609Y-11588124D01*
X15213133Y-11578600D01*
X15232181Y-11569076D01*
X15384562Y-11769076D02*
X15384562Y-11635743D01*
X15384562Y-11654790D02*
X15394086Y-11645267D01*
X15413133Y-11635743D01*
X15441705Y-11635743D01*
X15460752Y-11645267D01*
X15470276Y-11664314D01*
X15470276Y-11769076D01*
X15470276Y-11664314D02*
X15479800Y-11645267D01*
X15498848Y-11635743D01*
X15527419Y-11635743D01*
X15546467Y-11645267D01*
X15555990Y-11664314D01*
X15555990Y-11769076D01*
X15651228Y-11769076D02*
X15651228Y-11635743D01*
X15651228Y-11654790D02*
X15660752Y-11645267D01*
X15679800Y-11635743D01*
X15708371Y-11635743D01*
X15727419Y-11645267D01*
X15736943Y-11664314D01*
X15736943Y-11769076D01*
X15736943Y-11664314D02*
X15746467Y-11645267D01*
X15765514Y-11635743D01*
X15794086Y-11635743D01*
X15813133Y-11645267D01*
X15822657Y-11664314D01*
X15822657Y-11769076D01*
X16213133Y-11559552D02*
X16041705Y-11816695D01*
X16470276Y-11569076D02*
X16489324Y-11569076D01*
X16508371Y-11578600D01*
X16517895Y-11588124D01*
X16527419Y-11607171D01*
X16536943Y-11645267D01*
X16536943Y-11692886D01*
X16527419Y-11730981D01*
X16517895Y-11750028D01*
X16508371Y-11759552D01*
X16489324Y-11769076D01*
X16470276Y-11769076D01*
X16451228Y-11759552D01*
X16441705Y-11750028D01*
X16432181Y-11730981D01*
X16422657Y-11692886D01*
X16422657Y-11645267D01*
X16432181Y-11607171D01*
X16441705Y-11588124D01*
X16451228Y-11578600D01*
X16470276Y-11569076D01*
X16622657Y-11750028D02*
X16632181Y-11759552D01*
X16622657Y-11769076D01*
X16613133Y-11759552D01*
X16622657Y-11750028D01*
X16622657Y-11769076D01*
X16755990Y-11569076D02*
X16775038Y-11569076D01*
X16794086Y-11578600D01*
X16803610Y-11588124D01*
X16813133Y-11607171D01*
X16822657Y-11645267D01*
X16822657Y-11692886D01*
X16813133Y-11730981D01*
X16803610Y-11750028D01*
X16794086Y-11759552D01*
X16775038Y-11769076D01*
X16755990Y-11769076D01*
X16736943Y-11759552D01*
X16727419Y-11750028D01*
X16717895Y-11730981D01*
X16708371Y-11692886D01*
X16708371Y-11645267D01*
X16717895Y-11607171D01*
X16727419Y-11588124D01*
X16736943Y-11578600D01*
X16755990Y-11569076D01*
X16898848Y-11588124D02*
X16908371Y-11578600D01*
X16927419Y-11569076D01*
X16975038Y-11569076D01*
X16994086Y-11578600D01*
X17003610Y-11588124D01*
X17013133Y-11607171D01*
X17013133Y-11626219D01*
X17003610Y-11654790D01*
X16889324Y-11769076D01*
X17013133Y-11769076D01*
X17079800Y-11569076D02*
X17203610Y-11569076D01*
X17136943Y-11645267D01*
X17165514Y-11645267D01*
X17184562Y-11654790D01*
X17194086Y-11664314D01*
X17203610Y-11683362D01*
X17203610Y-11730981D01*
X17194086Y-11750028D01*
X17184562Y-11759552D01*
X17165514Y-11769076D01*
X17108371Y-11769076D01*
X17089324Y-11759552D01*
X17079800Y-11750028D01*
X17375038Y-11569076D02*
X17336943Y-11569076D01*
X17317895Y-11578600D01*
X17308371Y-11588124D01*
X17289324Y-11616695D01*
X17279800Y-11654790D01*
X17279800Y-11730981D01*
X17289324Y-11750028D01*
X17298848Y-11759552D01*
X17317895Y-11769076D01*
X17355990Y-11769076D01*
X17375038Y-11759552D01*
X17384562Y-11750028D01*
X17394086Y-11730981D01*
X17394086Y-11683362D01*
X17384562Y-11664314D01*
X17375038Y-11654790D01*
X17355990Y-11645267D01*
X17317895Y-11645267D01*
X17298848Y-11654790D01*
X17289324Y-11664314D01*
X17279800Y-11683362D01*
X17470276Y-11569076D02*
X17470276Y-11607171D01*
X17546467Y-11569076D02*
X17546467Y-11607171D01*
X17841705Y-11845267D02*
X17832181Y-11835743D01*
X17813133Y-11807171D01*
X17803610Y-11788124D01*
X17794086Y-11759552D01*
X17784562Y-11711933D01*
X17784562Y-11673838D01*
X17794086Y-11626219D01*
X17803610Y-11597648D01*
X17813133Y-11578600D01*
X17832181Y-11550028D01*
X17841705Y-11540505D01*
X17955990Y-11569076D02*
X17975038Y-11569076D01*
X17994086Y-11578600D01*
X18003610Y-11588124D01*
X18013133Y-11607171D01*
X18022657Y-11645267D01*
X18022657Y-11692886D01*
X18013133Y-11730981D01*
X18003610Y-11750028D01*
X17994086Y-11759552D01*
X17975038Y-11769076D01*
X17955990Y-11769076D01*
X17936943Y-11759552D01*
X17927419Y-11750028D01*
X17917895Y-11730981D01*
X17908371Y-11692886D01*
X17908371Y-11645267D01*
X17917895Y-11607171D01*
X17927419Y-11588124D01*
X17936943Y-11578600D01*
X17955990Y-11569076D01*
X18260752Y-11769076D02*
X18260752Y-11569076D01*
X18346467Y-11769076D02*
X18346467Y-11664314D01*
X18336943Y-11645267D01*
X18317895Y-11635743D01*
X18289324Y-11635743D01*
X18270276Y-11645267D01*
X18260752Y-11654790D01*
X18470276Y-11769076D02*
X18451229Y-11759552D01*
X18441705Y-11750028D01*
X18432181Y-11730981D01*
X18432181Y-11673838D01*
X18441705Y-11654790D01*
X18451229Y-11645267D01*
X18470276Y-11635743D01*
X18498848Y-11635743D01*
X18517895Y-11645267D01*
X18527419Y-11654790D01*
X18536943Y-11673838D01*
X18536943Y-11730981D01*
X18527419Y-11750028D01*
X18517895Y-11759552D01*
X18498848Y-11769076D01*
X18470276Y-11769076D01*
X18651229Y-11769076D02*
X18632181Y-11759552D01*
X18622657Y-11740505D01*
X18622657Y-11569076D01*
X18803610Y-11759552D02*
X18784562Y-11769076D01*
X18746467Y-11769076D01*
X18727419Y-11759552D01*
X18717895Y-11740505D01*
X18717895Y-11664314D01*
X18727419Y-11645267D01*
X18746467Y-11635743D01*
X18784562Y-11635743D01*
X18803610Y-11645267D01*
X18813133Y-11664314D01*
X18813133Y-11683362D01*
X18717895Y-11702409D01*
X18889324Y-11759552D02*
X18908371Y-11769076D01*
X18946467Y-11769076D01*
X18965514Y-11759552D01*
X18975038Y-11740505D01*
X18975038Y-11730981D01*
X18965514Y-11711933D01*
X18946467Y-11702409D01*
X18917895Y-11702409D01*
X18898848Y-11692886D01*
X18889324Y-11673838D01*
X18889324Y-11664314D01*
X18898848Y-11645267D01*
X18917895Y-11635743D01*
X18946467Y-11635743D01*
X18965514Y-11645267D01*
X19213133Y-11692886D02*
X19365514Y-11692886D01*
X19289324Y-11769076D02*
X19289324Y-11616695D01*
X19698848Y-11635743D02*
X19698848Y-11769076D01*
X19651229Y-11559552D02*
X19603610Y-11702409D01*
X19727419Y-11702409D01*
X19946467Y-11759552D02*
X19965514Y-11769076D01*
X20003610Y-11769076D01*
X20022657Y-11759552D01*
X20032181Y-11740505D01*
X20032181Y-11730981D01*
X20022657Y-11711933D01*
X20003610Y-11702409D01*
X19975038Y-11702409D01*
X19955990Y-11692886D01*
X19946467Y-11673838D01*
X19946467Y-11664314D01*
X19955990Y-11645267D01*
X19975038Y-11635743D01*
X20003610Y-11635743D01*
X20022657Y-11645267D01*
X20146467Y-11769076D02*
X20127419Y-11759552D01*
X20117895Y-11740505D01*
X20117895Y-11569076D01*
X20251229Y-11769076D02*
X20232181Y-11759552D01*
X20222657Y-11750028D01*
X20213133Y-11730981D01*
X20213133Y-11673838D01*
X20222657Y-11654790D01*
X20232181Y-11645267D01*
X20251229Y-11635743D01*
X20279800Y-11635743D01*
X20298848Y-11645267D01*
X20308371Y-11654790D01*
X20317895Y-11673838D01*
X20317895Y-11730981D01*
X20308371Y-11750028D01*
X20298848Y-11759552D01*
X20279800Y-11769076D01*
X20251229Y-11769076D01*
X20375038Y-11635743D02*
X20451229Y-11635743D01*
X20403610Y-11569076D02*
X20403610Y-11740505D01*
X20413133Y-11759552D01*
X20432181Y-11769076D01*
X20451229Y-11769076D01*
X20508371Y-11759552D02*
X20527419Y-11769076D01*
X20565514Y-11769076D01*
X20584562Y-11759552D01*
X20594086Y-11740505D01*
X20594086Y-11730981D01*
X20584562Y-11711933D01*
X20565514Y-11702409D01*
X20536943Y-11702409D01*
X20517895Y-11692886D01*
X20508371Y-11673838D01*
X20508371Y-11664314D01*
X20517895Y-11645267D01*
X20536943Y-11635743D01*
X20565514Y-11635743D01*
X20584562Y-11645267D01*
X20660752Y-11845267D02*
X20670276Y-11835743D01*
X20689324Y-11807171D01*
X20698848Y-11788124D01*
X20708371Y-11759552D01*
X20717895Y-11711933D01*
X20717895Y-11673838D01*
X20708371Y-11626219D01*
X20698848Y-11597648D01*
X20689324Y-11578600D01*
X20670276Y-11550028D01*
X20660752Y-11540505D01*
D14*
X14234800Y-11907600D02*
X14234800Y-11977600D01*
X14199800Y-11942600D02*
X14269800Y-11942600D01*
D11*
X14565514Y-11833076D02*
X14584562Y-11833076D01*
X14603609Y-11842600D01*
X14613133Y-11852124D01*
X14622657Y-11871171D01*
X14632181Y-11909267D01*
X14632181Y-11956886D01*
X14622657Y-11994981D01*
X14613133Y-12014028D01*
X14603609Y-12023552D01*
X14584562Y-12033076D01*
X14565514Y-12033076D01*
X14546467Y-12023552D01*
X14536943Y-12014028D01*
X14527419Y-11994981D01*
X14517895Y-11956886D01*
X14517895Y-11909267D01*
X14527419Y-11871171D01*
X14536943Y-11852124D01*
X14546467Y-11842600D01*
X14565514Y-11833076D01*
X14717895Y-12014028D02*
X14727419Y-12023552D01*
X14717895Y-12033076D01*
X14708371Y-12023552D01*
X14717895Y-12014028D01*
X14717895Y-12033076D01*
X14794086Y-11833076D02*
X14927419Y-11833076D01*
X14841705Y-12033076D01*
X15041705Y-11833076D02*
X15060752Y-11833076D01*
X15079800Y-11842600D01*
X15089324Y-11852124D01*
X15098848Y-11871171D01*
X15108371Y-11909267D01*
X15108371Y-11956886D01*
X15098848Y-11994981D01*
X15089324Y-12014028D01*
X15079800Y-12023552D01*
X15060752Y-12033076D01*
X15041705Y-12033076D01*
X15022657Y-12023552D01*
X15013133Y-12014028D01*
X15003609Y-11994981D01*
X14994086Y-11956886D01*
X14994086Y-11909267D01*
X15003609Y-11871171D01*
X15013133Y-11852124D01*
X15022657Y-11842600D01*
X15041705Y-11833076D01*
X15232181Y-11833076D02*
X15251228Y-11833076D01*
X15270276Y-11842600D01*
X15279800Y-11852124D01*
X15289324Y-11871171D01*
X15298848Y-11909267D01*
X15298848Y-11956886D01*
X15289324Y-11994981D01*
X15279800Y-12014028D01*
X15270276Y-12023552D01*
X15251228Y-12033076D01*
X15232181Y-12033076D01*
X15213133Y-12023552D01*
X15203609Y-12014028D01*
X15194086Y-11994981D01*
X15184562Y-11956886D01*
X15184562Y-11909267D01*
X15194086Y-11871171D01*
X15203609Y-11852124D01*
X15213133Y-11842600D01*
X15232181Y-11833076D01*
X15384562Y-12033076D02*
X15384562Y-11899743D01*
X15384562Y-11918790D02*
X15394086Y-11909267D01*
X15413133Y-11899743D01*
X15441705Y-11899743D01*
X15460752Y-11909267D01*
X15470276Y-11928314D01*
X15470276Y-12033076D01*
X15470276Y-11928314D02*
X15479800Y-11909267D01*
X15498848Y-11899743D01*
X15527419Y-11899743D01*
X15546467Y-11909267D01*
X15555990Y-11928314D01*
X15555990Y-12033076D01*
X15651228Y-12033076D02*
X15651228Y-11899743D01*
X15651228Y-11918790D02*
X15660752Y-11909267D01*
X15679800Y-11899743D01*
X15708371Y-11899743D01*
X15727419Y-11909267D01*
X15736943Y-11928314D01*
X15736943Y-12033076D01*
X15736943Y-11928314D02*
X15746467Y-11909267D01*
X15765514Y-11899743D01*
X15794086Y-11899743D01*
X15813133Y-11909267D01*
X15822657Y-11928314D01*
X15822657Y-12033076D01*
X16213133Y-11823552D02*
X16041705Y-12080695D01*
X16470276Y-11833076D02*
X16489324Y-11833076D01*
X16508371Y-11842600D01*
X16517895Y-11852124D01*
X16527419Y-11871171D01*
X16536943Y-11909267D01*
X16536943Y-11956886D01*
X16527419Y-11994981D01*
X16517895Y-12014028D01*
X16508371Y-12023552D01*
X16489324Y-12033076D01*
X16470276Y-12033076D01*
X16451228Y-12023552D01*
X16441705Y-12014028D01*
X16432181Y-11994981D01*
X16422657Y-11956886D01*
X16422657Y-11909267D01*
X16432181Y-11871171D01*
X16441705Y-11852124D01*
X16451228Y-11842600D01*
X16470276Y-11833076D01*
X16622657Y-12014028D02*
X16632181Y-12023552D01*
X16622657Y-12033076D01*
X16613133Y-12023552D01*
X16622657Y-12014028D01*
X16622657Y-12033076D01*
X16755990Y-11833076D02*
X16775038Y-11833076D01*
X16794086Y-11842600D01*
X16803610Y-11852124D01*
X16813133Y-11871171D01*
X16822657Y-11909267D01*
X16822657Y-11956886D01*
X16813133Y-11994981D01*
X16803610Y-12014028D01*
X16794086Y-12023552D01*
X16775038Y-12033076D01*
X16755990Y-12033076D01*
X16736943Y-12023552D01*
X16727419Y-12014028D01*
X16717895Y-11994981D01*
X16708371Y-11956886D01*
X16708371Y-11909267D01*
X16717895Y-11871171D01*
X16727419Y-11852124D01*
X16736943Y-11842600D01*
X16755990Y-11833076D01*
X16898848Y-11852124D02*
X16908371Y-11842600D01*
X16927419Y-11833076D01*
X16975038Y-11833076D01*
X16994086Y-11842600D01*
X17003610Y-11852124D01*
X17013133Y-11871171D01*
X17013133Y-11890219D01*
X17003610Y-11918790D01*
X16889324Y-12033076D01*
X17013133Y-12033076D01*
X17079800Y-11833076D02*
X17213133Y-11833076D01*
X17127419Y-12033076D01*
X17375038Y-11833076D02*
X17336943Y-11833076D01*
X17317895Y-11842600D01*
X17308371Y-11852124D01*
X17289324Y-11880695D01*
X17279800Y-11918790D01*
X17279800Y-11994981D01*
X17289324Y-12014028D01*
X17298848Y-12023552D01*
X17317895Y-12033076D01*
X17355990Y-12033076D01*
X17375038Y-12023552D01*
X17384562Y-12014028D01*
X17394086Y-11994981D01*
X17394086Y-11947362D01*
X17384562Y-11928314D01*
X17375038Y-11918790D01*
X17355990Y-11909267D01*
X17317895Y-11909267D01*
X17298848Y-11918790D01*
X17289324Y-11928314D01*
X17279800Y-11947362D01*
X17470276Y-11833076D02*
X17470276Y-11871171D01*
X17546467Y-11833076D02*
X17546467Y-11871171D01*
X17841705Y-12109267D02*
X17832181Y-12099743D01*
X17813133Y-12071171D01*
X17803610Y-12052124D01*
X17794086Y-12023552D01*
X17784562Y-11975933D01*
X17784562Y-11937838D01*
X17794086Y-11890219D01*
X17803610Y-11861648D01*
X17813133Y-11842600D01*
X17832181Y-11814028D01*
X17841705Y-11804505D01*
X17898848Y-11833076D02*
X18022657Y-11833076D01*
X17955990Y-11909267D01*
X17984562Y-11909267D01*
X18003610Y-11918790D01*
X18013133Y-11928314D01*
X18022657Y-11947362D01*
X18022657Y-11994981D01*
X18013133Y-12014028D01*
X18003610Y-12023552D01*
X17984562Y-12033076D01*
X17927419Y-12033076D01*
X17908371Y-12023552D01*
X17898848Y-12014028D01*
X18260752Y-12033076D02*
X18260752Y-11833076D01*
X18346467Y-12033076D02*
X18346467Y-11928314D01*
X18336943Y-11909267D01*
X18317895Y-11899743D01*
X18289324Y-11899743D01*
X18270276Y-11909267D01*
X18260752Y-11918790D01*
X18470276Y-12033076D02*
X18451229Y-12023552D01*
X18441705Y-12014028D01*
X18432181Y-11994981D01*
X18432181Y-11937838D01*
X18441705Y-11918790D01*
X18451229Y-11909267D01*
X18470276Y-11899743D01*
X18498848Y-11899743D01*
X18517895Y-11909267D01*
X18527419Y-11918790D01*
X18536943Y-11937838D01*
X18536943Y-11994981D01*
X18527419Y-12014028D01*
X18517895Y-12023552D01*
X18498848Y-12033076D01*
X18470276Y-12033076D01*
X18651229Y-12033076D02*
X18632181Y-12023552D01*
X18622657Y-12004505D01*
X18622657Y-11833076D01*
X18803610Y-12023552D02*
X18784562Y-12033076D01*
X18746467Y-12033076D01*
X18727419Y-12023552D01*
X18717895Y-12004505D01*
X18717895Y-11928314D01*
X18727419Y-11909267D01*
X18746467Y-11899743D01*
X18784562Y-11899743D01*
X18803610Y-11909267D01*
X18813133Y-11928314D01*
X18813133Y-11947362D01*
X18717895Y-11966409D01*
X18889324Y-12023552D02*
X18908371Y-12033076D01*
X18946467Y-12033076D01*
X18965514Y-12023552D01*
X18975038Y-12004505D01*
X18975038Y-11994981D01*
X18965514Y-11975933D01*
X18946467Y-11966409D01*
X18917895Y-11966409D01*
X18898848Y-11956886D01*
X18889324Y-11937838D01*
X18889324Y-11928314D01*
X18898848Y-11909267D01*
X18917895Y-11899743D01*
X18946467Y-11899743D01*
X18965514Y-11909267D01*
X19041705Y-12109267D02*
X19051229Y-12099743D01*
X19070276Y-12071171D01*
X19079800Y-12052124D01*
X19089324Y-12023552D01*
X19098848Y-11975933D01*
X19098848Y-11937838D01*
X19089324Y-11890219D01*
X19079800Y-11861648D01*
X19070276Y-11842600D01*
X19051229Y-11814028D01*
X19041705Y-11804505D01*
D15*
X14258084Y-12234884D02*
X14258084Y-12178315D01*
X14201515Y-12178315D01*
X14201515Y-12234884D01*
X14258084Y-12234884D01*
D11*
X14565514Y-12097076D02*
X14584562Y-12097076D01*
X14603609Y-12106600D01*
X14613133Y-12116124D01*
X14622657Y-12135171D01*
X14632181Y-12173267D01*
X14632181Y-12220886D01*
X14622657Y-12258981D01*
X14613133Y-12278028D01*
X14603609Y-12287552D01*
X14584562Y-12297076D01*
X14565514Y-12297076D01*
X14546467Y-12287552D01*
X14536943Y-12278028D01*
X14527419Y-12258981D01*
X14517895Y-12220886D01*
X14517895Y-12173267D01*
X14527419Y-12135171D01*
X14536943Y-12116124D01*
X14546467Y-12106600D01*
X14565514Y-12097076D01*
X14717895Y-12278028D02*
X14727419Y-12287552D01*
X14717895Y-12297076D01*
X14708371Y-12287552D01*
X14717895Y-12278028D01*
X14717895Y-12297076D01*
X14841705Y-12182790D02*
X14822657Y-12173267D01*
X14813133Y-12163743D01*
X14803609Y-12144695D01*
X14803609Y-12135171D01*
X14813133Y-12116124D01*
X14822657Y-12106600D01*
X14841705Y-12097076D01*
X14879800Y-12097076D01*
X14898848Y-12106600D01*
X14908371Y-12116124D01*
X14917895Y-12135171D01*
X14917895Y-12144695D01*
X14908371Y-12163743D01*
X14898848Y-12173267D01*
X14879800Y-12182790D01*
X14841705Y-12182790D01*
X14822657Y-12192314D01*
X14813133Y-12201838D01*
X14803609Y-12220886D01*
X14803609Y-12258981D01*
X14813133Y-12278028D01*
X14822657Y-12287552D01*
X14841705Y-12297076D01*
X14879800Y-12297076D01*
X14898848Y-12287552D01*
X14908371Y-12278028D01*
X14917895Y-12258981D01*
X14917895Y-12220886D01*
X14908371Y-12201838D01*
X14898848Y-12192314D01*
X14879800Y-12182790D01*
X15041705Y-12097076D02*
X15060752Y-12097076D01*
X15079800Y-12106600D01*
X15089324Y-12116124D01*
X15098848Y-12135171D01*
X15108371Y-12173267D01*
X15108371Y-12220886D01*
X15098848Y-12258981D01*
X15089324Y-12278028D01*
X15079800Y-12287552D01*
X15060752Y-12297076D01*
X15041705Y-12297076D01*
X15022657Y-12287552D01*
X15013133Y-12278028D01*
X15003609Y-12258981D01*
X14994086Y-12220886D01*
X14994086Y-12173267D01*
X15003609Y-12135171D01*
X15013133Y-12116124D01*
X15022657Y-12106600D01*
X15041705Y-12097076D01*
X15232181Y-12097076D02*
X15251228Y-12097076D01*
X15270276Y-12106600D01*
X15279800Y-12116124D01*
X15289324Y-12135171D01*
X15298848Y-12173267D01*
X15298848Y-12220886D01*
X15289324Y-12258981D01*
X15279800Y-12278028D01*
X15270276Y-12287552D01*
X15251228Y-12297076D01*
X15232181Y-12297076D01*
X15213133Y-12287552D01*
X15203609Y-12278028D01*
X15194086Y-12258981D01*
X15184562Y-12220886D01*
X15184562Y-12173267D01*
X15194086Y-12135171D01*
X15203609Y-12116124D01*
X15213133Y-12106600D01*
X15232181Y-12097076D01*
X15384562Y-12297076D02*
X15384562Y-12163743D01*
X15384562Y-12182790D02*
X15394086Y-12173267D01*
X15413133Y-12163743D01*
X15441705Y-12163743D01*
X15460752Y-12173267D01*
X15470276Y-12192314D01*
X15470276Y-12297076D01*
X15470276Y-12192314D02*
X15479800Y-12173267D01*
X15498848Y-12163743D01*
X15527419Y-12163743D01*
X15546467Y-12173267D01*
X15555990Y-12192314D01*
X15555990Y-12297076D01*
X15651228Y-12297076D02*
X15651228Y-12163743D01*
X15651228Y-12182790D02*
X15660752Y-12173267D01*
X15679800Y-12163743D01*
X15708371Y-12163743D01*
X15727419Y-12173267D01*
X15736943Y-12192314D01*
X15736943Y-12297076D01*
X15736943Y-12192314D02*
X15746467Y-12173267D01*
X15765514Y-12163743D01*
X15794086Y-12163743D01*
X15813133Y-12173267D01*
X15822657Y-12192314D01*
X15822657Y-12297076D01*
X16213133Y-12087552D02*
X16041705Y-12344695D01*
X16470276Y-12097076D02*
X16489324Y-12097076D01*
X16508371Y-12106600D01*
X16517895Y-12116124D01*
X16527419Y-12135171D01*
X16536943Y-12173267D01*
X16536943Y-12220886D01*
X16527419Y-12258981D01*
X16517895Y-12278028D01*
X16508371Y-12287552D01*
X16489324Y-12297076D01*
X16470276Y-12297076D01*
X16451228Y-12287552D01*
X16441705Y-12278028D01*
X16432181Y-12258981D01*
X16422657Y-12220886D01*
X16422657Y-12173267D01*
X16432181Y-12135171D01*
X16441705Y-12116124D01*
X16451228Y-12106600D01*
X16470276Y-12097076D01*
X16622657Y-12278028D02*
X16632181Y-12287552D01*
X16622657Y-12297076D01*
X16613133Y-12287552D01*
X16622657Y-12278028D01*
X16622657Y-12297076D01*
X16755990Y-12097076D02*
X16775038Y-12097076D01*
X16794086Y-12106600D01*
X16803610Y-12116124D01*
X16813133Y-12135171D01*
X16822657Y-12173267D01*
X16822657Y-12220886D01*
X16813133Y-12258981D01*
X16803610Y-12278028D01*
X16794086Y-12287552D01*
X16775038Y-12297076D01*
X16755990Y-12297076D01*
X16736943Y-12287552D01*
X16727419Y-12278028D01*
X16717895Y-12258981D01*
X16708371Y-12220886D01*
X16708371Y-12173267D01*
X16717895Y-12135171D01*
X16727419Y-12116124D01*
X16736943Y-12106600D01*
X16755990Y-12097076D01*
X16889324Y-12097076D02*
X17013133Y-12097076D01*
X16946467Y-12173267D01*
X16975038Y-12173267D01*
X16994086Y-12182790D01*
X17003610Y-12192314D01*
X17013133Y-12211362D01*
X17013133Y-12258981D01*
X17003610Y-12278028D01*
X16994086Y-12287552D01*
X16975038Y-12297076D01*
X16917895Y-12297076D01*
X16898848Y-12287552D01*
X16889324Y-12278028D01*
X17203610Y-12297076D02*
X17089324Y-12297076D01*
X17146467Y-12297076D02*
X17146467Y-12097076D01*
X17127419Y-12125648D01*
X17108371Y-12144695D01*
X17089324Y-12154219D01*
X17384562Y-12097076D02*
X17289324Y-12097076D01*
X17279800Y-12192314D01*
X17289324Y-12182790D01*
X17308371Y-12173267D01*
X17355990Y-12173267D01*
X17375038Y-12182790D01*
X17384562Y-12192314D01*
X17394086Y-12211362D01*
X17394086Y-12258981D01*
X17384562Y-12278028D01*
X17375038Y-12287552D01*
X17355990Y-12297076D01*
X17308371Y-12297076D01*
X17289324Y-12287552D01*
X17279800Y-12278028D01*
X17470276Y-12097076D02*
X17470276Y-12135171D01*
X17546467Y-12097076D02*
X17546467Y-12135171D01*
X17841705Y-12373267D02*
X17832181Y-12363743D01*
X17813133Y-12335171D01*
X17803610Y-12316124D01*
X17794086Y-12287552D01*
X17784562Y-12239933D01*
X17784562Y-12201838D01*
X17794086Y-12154219D01*
X17803610Y-12125648D01*
X17813133Y-12106600D01*
X17832181Y-12078028D01*
X17841705Y-12068505D01*
X18022657Y-12297076D02*
X17908371Y-12297076D01*
X17965514Y-12297076D02*
X17965514Y-12097076D01*
X17946467Y-12125648D01*
X17927419Y-12144695D01*
X17908371Y-12154219D01*
X18098848Y-12116124D02*
X18108371Y-12106600D01*
X18127419Y-12097076D01*
X18175038Y-12097076D01*
X18194086Y-12106600D01*
X18203610Y-12116124D01*
X18213133Y-12135171D01*
X18213133Y-12154219D01*
X18203610Y-12182790D01*
X18089324Y-12297076D01*
X18213133Y-12297076D01*
X18451229Y-12297076D02*
X18451229Y-12097076D01*
X18536943Y-12297076D02*
X18536943Y-12192314D01*
X18527419Y-12173267D01*
X18508371Y-12163743D01*
X18479800Y-12163743D01*
X18460752Y-12173267D01*
X18451229Y-12182790D01*
X18660752Y-12297076D02*
X18641705Y-12287552D01*
X18632181Y-12278028D01*
X18622657Y-12258981D01*
X18622657Y-12201838D01*
X18632181Y-12182790D01*
X18641705Y-12173267D01*
X18660752Y-12163743D01*
X18689324Y-12163743D01*
X18708371Y-12173267D01*
X18717895Y-12182790D01*
X18727419Y-12201838D01*
X18727419Y-12258981D01*
X18717895Y-12278028D01*
X18708371Y-12287552D01*
X18689324Y-12297076D01*
X18660752Y-12297076D01*
X18841705Y-12297076D02*
X18822657Y-12287552D01*
X18813133Y-12268505D01*
X18813133Y-12097076D01*
X18994086Y-12287552D02*
X18975038Y-12297076D01*
X18936943Y-12297076D01*
X18917895Y-12287552D01*
X18908371Y-12268505D01*
X18908371Y-12192314D01*
X18917895Y-12173267D01*
X18936943Y-12163743D01*
X18975038Y-12163743D01*
X18994086Y-12173267D01*
X19003610Y-12192314D01*
X19003610Y-12211362D01*
X18908371Y-12230409D01*
X19079800Y-12287552D02*
X19098848Y-12297076D01*
X19136943Y-12297076D01*
X19155990Y-12287552D01*
X19165514Y-12268505D01*
X19165514Y-12258981D01*
X19155990Y-12239933D01*
X19136943Y-12230409D01*
X19108371Y-12230409D01*
X19089324Y-12220886D01*
X19079800Y-12201838D01*
X19079800Y-12192314D01*
X19089324Y-12173267D01*
X19108371Y-12163743D01*
X19136943Y-12163743D01*
X19155990Y-12173267D01*
X19232181Y-12373267D02*
X19241705Y-12363743D01*
X19260752Y-12335171D01*
X19270276Y-12316124D01*
X19279800Y-12287552D01*
X19289324Y-12239933D01*
X19289324Y-12201838D01*
X19279800Y-12154219D01*
X19270276Y-12125648D01*
X19260752Y-12106600D01*
X19241705Y-12078028D01*
X19232181Y-12068505D01*
D10*
X14219800Y-12520600D02*
X14269800Y-12470600D01*
X14219800Y-12420600D01*
X14169800Y-12470600D01*
X14219800Y-12520600D01*
D11*
X14632181Y-12561076D02*
X14517895Y-12561076D01*
X14575038Y-12561076D02*
X14575038Y-12361076D01*
X14555990Y-12389648D01*
X14536943Y-12408695D01*
X14517895Y-12418219D01*
X14717895Y-12542028D02*
X14727419Y-12551552D01*
X14717895Y-12561076D01*
X14708371Y-12551552D01*
X14717895Y-12542028D01*
X14717895Y-12561076D01*
X14851228Y-12361076D02*
X14870276Y-12361076D01*
X14889324Y-12370600D01*
X14898848Y-12380124D01*
X14908371Y-12399171D01*
X14917895Y-12437267D01*
X14917895Y-12484886D01*
X14908371Y-12522981D01*
X14898848Y-12542028D01*
X14889324Y-12551552D01*
X14870276Y-12561076D01*
X14851228Y-12561076D01*
X14832181Y-12551552D01*
X14822657Y-12542028D01*
X14813133Y-12522981D01*
X14803609Y-12484886D01*
X14803609Y-12437267D01*
X14813133Y-12399171D01*
X14822657Y-12380124D01*
X14832181Y-12370600D01*
X14851228Y-12361076D01*
X15041705Y-12361076D02*
X15060752Y-12361076D01*
X15079800Y-12370600D01*
X15089324Y-12380124D01*
X15098848Y-12399171D01*
X15108371Y-12437267D01*
X15108371Y-12484886D01*
X15098848Y-12522981D01*
X15089324Y-12542028D01*
X15079800Y-12551552D01*
X15060752Y-12561076D01*
X15041705Y-12561076D01*
X15022657Y-12551552D01*
X15013133Y-12542028D01*
X15003609Y-12522981D01*
X14994086Y-12484886D01*
X14994086Y-12437267D01*
X15003609Y-12399171D01*
X15013133Y-12380124D01*
X15022657Y-12370600D01*
X15041705Y-12361076D01*
X15232181Y-12361076D02*
X15251228Y-12361076D01*
X15270276Y-12370600D01*
X15279800Y-12380124D01*
X15289324Y-12399171D01*
X15298848Y-12437267D01*
X15298848Y-12484886D01*
X15289324Y-12522981D01*
X15279800Y-12542028D01*
X15270276Y-12551552D01*
X15251228Y-12561076D01*
X15232181Y-12561076D01*
X15213133Y-12551552D01*
X15203609Y-12542028D01*
X15194086Y-12522981D01*
X15184562Y-12484886D01*
X15184562Y-12437267D01*
X15194086Y-12399171D01*
X15203609Y-12380124D01*
X15213133Y-12370600D01*
X15232181Y-12361076D01*
X15384562Y-12561076D02*
X15384562Y-12427743D01*
X15384562Y-12446790D02*
X15394086Y-12437267D01*
X15413133Y-12427743D01*
X15441705Y-12427743D01*
X15460752Y-12437267D01*
X15470276Y-12456314D01*
X15470276Y-12561076D01*
X15470276Y-12456314D02*
X15479800Y-12437267D01*
X15498848Y-12427743D01*
X15527419Y-12427743D01*
X15546467Y-12437267D01*
X15555990Y-12456314D01*
X15555990Y-12561076D01*
X15651228Y-12561076D02*
X15651228Y-12427743D01*
X15651228Y-12446790D02*
X15660752Y-12437267D01*
X15679800Y-12427743D01*
X15708371Y-12427743D01*
X15727419Y-12437267D01*
X15736943Y-12456314D01*
X15736943Y-12561076D01*
X15736943Y-12456314D02*
X15746467Y-12437267D01*
X15765514Y-12427743D01*
X15794086Y-12427743D01*
X15813133Y-12437267D01*
X15822657Y-12456314D01*
X15822657Y-12561076D01*
X16213133Y-12351552D02*
X16041705Y-12608695D01*
X16470276Y-12361076D02*
X16489324Y-12361076D01*
X16508371Y-12370600D01*
X16517895Y-12380124D01*
X16527419Y-12399171D01*
X16536943Y-12437267D01*
X16536943Y-12484886D01*
X16527419Y-12522981D01*
X16517895Y-12542028D01*
X16508371Y-12551552D01*
X16489324Y-12561076D01*
X16470276Y-12561076D01*
X16451228Y-12551552D01*
X16441705Y-12542028D01*
X16432181Y-12522981D01*
X16422657Y-12484886D01*
X16422657Y-12437267D01*
X16432181Y-12399171D01*
X16441705Y-12380124D01*
X16451228Y-12370600D01*
X16470276Y-12361076D01*
X16622657Y-12542028D02*
X16632181Y-12551552D01*
X16622657Y-12561076D01*
X16613133Y-12551552D01*
X16622657Y-12542028D01*
X16622657Y-12561076D01*
X16755990Y-12361076D02*
X16775038Y-12361076D01*
X16794086Y-12370600D01*
X16803610Y-12380124D01*
X16813133Y-12399171D01*
X16822657Y-12437267D01*
X16822657Y-12484886D01*
X16813133Y-12522981D01*
X16803610Y-12542028D01*
X16794086Y-12551552D01*
X16775038Y-12561076D01*
X16755990Y-12561076D01*
X16736943Y-12551552D01*
X16727419Y-12542028D01*
X16717895Y-12522981D01*
X16708371Y-12484886D01*
X16708371Y-12437267D01*
X16717895Y-12399171D01*
X16727419Y-12380124D01*
X16736943Y-12370600D01*
X16755990Y-12361076D01*
X16889324Y-12361076D02*
X17013133Y-12361076D01*
X16946467Y-12437267D01*
X16975038Y-12437267D01*
X16994086Y-12446790D01*
X17003610Y-12456314D01*
X17013133Y-12475362D01*
X17013133Y-12522981D01*
X17003610Y-12542028D01*
X16994086Y-12551552D01*
X16975038Y-12561076D01*
X16917895Y-12561076D01*
X16898848Y-12551552D01*
X16889324Y-12542028D01*
X17108371Y-12561076D02*
X17146467Y-12561076D01*
X17165514Y-12551552D01*
X17175038Y-12542028D01*
X17194086Y-12513457D01*
X17203610Y-12475362D01*
X17203610Y-12399171D01*
X17194086Y-12380124D01*
X17184562Y-12370600D01*
X17165514Y-12361076D01*
X17127419Y-12361076D01*
X17108371Y-12370600D01*
X17098848Y-12380124D01*
X17089324Y-12399171D01*
X17089324Y-12446790D01*
X17098848Y-12465838D01*
X17108371Y-12475362D01*
X17127419Y-12484886D01*
X17165514Y-12484886D01*
X17184562Y-12475362D01*
X17194086Y-12465838D01*
X17203610Y-12446790D01*
X17375038Y-12427743D02*
X17375038Y-12561076D01*
X17327419Y-12351552D02*
X17279800Y-12494409D01*
X17403610Y-12494409D01*
X17470276Y-12361076D02*
X17470276Y-12399171D01*
X17546467Y-12361076D02*
X17546467Y-12399171D01*
X17841705Y-12637267D02*
X17832181Y-12627743D01*
X17813133Y-12599171D01*
X17803610Y-12580124D01*
X17794086Y-12551552D01*
X17784562Y-12503933D01*
X17784562Y-12465838D01*
X17794086Y-12418219D01*
X17803610Y-12389648D01*
X17813133Y-12370600D01*
X17832181Y-12342028D01*
X17841705Y-12332505D01*
X18013133Y-12361076D02*
X17917895Y-12361076D01*
X17908371Y-12456314D01*
X17917895Y-12446790D01*
X17936943Y-12437267D01*
X17984562Y-12437267D01*
X18003610Y-12446790D01*
X18013133Y-12456314D01*
X18022657Y-12475362D01*
X18022657Y-12522981D01*
X18013133Y-12542028D01*
X18003610Y-12551552D01*
X17984562Y-12561076D01*
X17936943Y-12561076D01*
X17917895Y-12551552D01*
X17908371Y-12542028D01*
X18260752Y-12561076D02*
X18260752Y-12361076D01*
X18346467Y-12561076D02*
X18346467Y-12456314D01*
X18336943Y-12437267D01*
X18317895Y-12427743D01*
X18289324Y-12427743D01*
X18270276Y-12437267D01*
X18260752Y-12446790D01*
X18470276Y-12561076D02*
X18451229Y-12551552D01*
X18441705Y-12542028D01*
X18432181Y-12522981D01*
X18432181Y-12465838D01*
X18441705Y-12446790D01*
X18451229Y-12437267D01*
X18470276Y-12427743D01*
X18498848Y-12427743D01*
X18517895Y-12437267D01*
X18527419Y-12446790D01*
X18536943Y-12465838D01*
X18536943Y-12522981D01*
X18527419Y-12542028D01*
X18517895Y-12551552D01*
X18498848Y-12561076D01*
X18470276Y-12561076D01*
X18651229Y-12561076D02*
X18632181Y-12551552D01*
X18622657Y-12532505D01*
X18622657Y-12361076D01*
X18803610Y-12551552D02*
X18784562Y-12561076D01*
X18746467Y-12561076D01*
X18727419Y-12551552D01*
X18717895Y-12532505D01*
X18717895Y-12456314D01*
X18727419Y-12437267D01*
X18746467Y-12427743D01*
X18784562Y-12427743D01*
X18803610Y-12437267D01*
X18813133Y-12456314D01*
X18813133Y-12475362D01*
X18717895Y-12494409D01*
X18889324Y-12551552D02*
X18908371Y-12561076D01*
X18946467Y-12561076D01*
X18965514Y-12551552D01*
X18975038Y-12532505D01*
X18975038Y-12522981D01*
X18965514Y-12503933D01*
X18946467Y-12494409D01*
X18917895Y-12494409D01*
X18898848Y-12484886D01*
X18889324Y-12465838D01*
X18889324Y-12456314D01*
X18898848Y-12437267D01*
X18917895Y-12427743D01*
X18946467Y-12427743D01*
X18965514Y-12437267D01*
X19041705Y-12637267D02*
X19051229Y-12627743D01*
X19070276Y-12599171D01*
X19079800Y-12580124D01*
X19089324Y-12551552D01*
X19098848Y-12503933D01*
X19098848Y-12465838D01*
X19089324Y-12418219D01*
X19079800Y-12389648D01*
X19070276Y-12370600D01*
X19051229Y-12342028D01*
X19041705Y-12332505D01*
D16*
X14149800Y-12674600D02*
X14269800Y-12794600D01*
X14269800Y-12674600D02*
X14149800Y-12794600D01*
X14269800Y-12734600D02*
G75*
G03*
X14269800Y-12734600I-60000J0D01*
G01*
D11*
X14632181Y-12825076D02*
X14517895Y-12825076D01*
X14575038Y-12825076D02*
X14575038Y-12625076D01*
X14555990Y-12653648D01*
X14536943Y-12672695D01*
X14517895Y-12682219D01*
X14717895Y-12806028D02*
X14727419Y-12815552D01*
X14717895Y-12825076D01*
X14708371Y-12815552D01*
X14717895Y-12806028D01*
X14717895Y-12825076D01*
X14803609Y-12644124D02*
X14813133Y-12634600D01*
X14832181Y-12625076D01*
X14879800Y-12625076D01*
X14898848Y-12634600D01*
X14908371Y-12644124D01*
X14917895Y-12663171D01*
X14917895Y-12682219D01*
X14908371Y-12710790D01*
X14794086Y-12825076D01*
X14917895Y-12825076D01*
X15041705Y-12625076D02*
X15060752Y-12625076D01*
X15079800Y-12634600D01*
X15089324Y-12644124D01*
X15098848Y-12663171D01*
X15108371Y-12701267D01*
X15108371Y-12748886D01*
X15098848Y-12786981D01*
X15089324Y-12806028D01*
X15079800Y-12815552D01*
X15060752Y-12825076D01*
X15041705Y-12825076D01*
X15022657Y-12815552D01*
X15013133Y-12806028D01*
X15003609Y-12786981D01*
X14994086Y-12748886D01*
X14994086Y-12701267D01*
X15003609Y-12663171D01*
X15013133Y-12644124D01*
X15022657Y-12634600D01*
X15041705Y-12625076D01*
X15232181Y-12625076D02*
X15251228Y-12625076D01*
X15270276Y-12634600D01*
X15279800Y-12644124D01*
X15289324Y-12663171D01*
X15298848Y-12701267D01*
X15298848Y-12748886D01*
X15289324Y-12786981D01*
X15279800Y-12806028D01*
X15270276Y-12815552D01*
X15251228Y-12825076D01*
X15232181Y-12825076D01*
X15213133Y-12815552D01*
X15203609Y-12806028D01*
X15194086Y-12786981D01*
X15184562Y-12748886D01*
X15184562Y-12701267D01*
X15194086Y-12663171D01*
X15203609Y-12644124D01*
X15213133Y-12634600D01*
X15232181Y-12625076D01*
X15384562Y-12825076D02*
X15384562Y-12691743D01*
X15384562Y-12710790D02*
X15394086Y-12701267D01*
X15413133Y-12691743D01*
X15441705Y-12691743D01*
X15460752Y-12701267D01*
X15470276Y-12720314D01*
X15470276Y-12825076D01*
X15470276Y-12720314D02*
X15479800Y-12701267D01*
X15498848Y-12691743D01*
X15527419Y-12691743D01*
X15546467Y-12701267D01*
X15555990Y-12720314D01*
X15555990Y-12825076D01*
X15651228Y-12825076D02*
X15651228Y-12691743D01*
X15651228Y-12710790D02*
X15660752Y-12701267D01*
X15679800Y-12691743D01*
X15708371Y-12691743D01*
X15727419Y-12701267D01*
X15736943Y-12720314D01*
X15736943Y-12825076D01*
X15736943Y-12720314D02*
X15746467Y-12701267D01*
X15765514Y-12691743D01*
X15794086Y-12691743D01*
X15813133Y-12701267D01*
X15822657Y-12720314D01*
X15822657Y-12825076D01*
X16213133Y-12615552D02*
X16041705Y-12872695D01*
X16470276Y-12625076D02*
X16489324Y-12625076D01*
X16508371Y-12634600D01*
X16517895Y-12644124D01*
X16527419Y-12663171D01*
X16536943Y-12701267D01*
X16536943Y-12748886D01*
X16527419Y-12786981D01*
X16517895Y-12806028D01*
X16508371Y-12815552D01*
X16489324Y-12825076D01*
X16470276Y-12825076D01*
X16451228Y-12815552D01*
X16441705Y-12806028D01*
X16432181Y-12786981D01*
X16422657Y-12748886D01*
X16422657Y-12701267D01*
X16432181Y-12663171D01*
X16441705Y-12644124D01*
X16451228Y-12634600D01*
X16470276Y-12625076D01*
X16622657Y-12806028D02*
X16632181Y-12815552D01*
X16622657Y-12825076D01*
X16613133Y-12815552D01*
X16622657Y-12806028D01*
X16622657Y-12825076D01*
X16755990Y-12625076D02*
X16775038Y-12625076D01*
X16794086Y-12634600D01*
X16803610Y-12644124D01*
X16813133Y-12663171D01*
X16822657Y-12701267D01*
X16822657Y-12748886D01*
X16813133Y-12786981D01*
X16803610Y-12806028D01*
X16794086Y-12815552D01*
X16775038Y-12825076D01*
X16755990Y-12825076D01*
X16736943Y-12815552D01*
X16727419Y-12806028D01*
X16717895Y-12786981D01*
X16708371Y-12748886D01*
X16708371Y-12701267D01*
X16717895Y-12663171D01*
X16727419Y-12644124D01*
X16736943Y-12634600D01*
X16755990Y-12625076D01*
X16994086Y-12691743D02*
X16994086Y-12825076D01*
X16946467Y-12615552D02*
X16898848Y-12758409D01*
X17022657Y-12758409D01*
X17079800Y-12625076D02*
X17213133Y-12625076D01*
X17127419Y-12825076D01*
X17279800Y-12644124D02*
X17289324Y-12634600D01*
X17308371Y-12625076D01*
X17355990Y-12625076D01*
X17375038Y-12634600D01*
X17384562Y-12644124D01*
X17394086Y-12663171D01*
X17394086Y-12682219D01*
X17384562Y-12710790D01*
X17270276Y-12825076D01*
X17394086Y-12825076D01*
X17470276Y-12625076D02*
X17470276Y-12663171D01*
X17546467Y-12625076D02*
X17546467Y-12663171D01*
X17841705Y-12901267D02*
X17832181Y-12891743D01*
X17813133Y-12863171D01*
X17803610Y-12844124D01*
X17794086Y-12815552D01*
X17784562Y-12767933D01*
X17784562Y-12729838D01*
X17794086Y-12682219D01*
X17803610Y-12653648D01*
X17813133Y-12634600D01*
X17832181Y-12606028D01*
X17841705Y-12596505D01*
X18003610Y-12691743D02*
X18003610Y-12825076D01*
X17955990Y-12615552D02*
X17908371Y-12758409D01*
X18032181Y-12758409D01*
X18260752Y-12825076D02*
X18260752Y-12625076D01*
X18346467Y-12825076D02*
X18346467Y-12720314D01*
X18336943Y-12701267D01*
X18317895Y-12691743D01*
X18289324Y-12691743D01*
X18270276Y-12701267D01*
X18260752Y-12710790D01*
X18470276Y-12825076D02*
X18451229Y-12815552D01*
X18441705Y-12806028D01*
X18432181Y-12786981D01*
X18432181Y-12729838D01*
X18441705Y-12710790D01*
X18451229Y-12701267D01*
X18470276Y-12691743D01*
X18498848Y-12691743D01*
X18517895Y-12701267D01*
X18527419Y-12710790D01*
X18536943Y-12729838D01*
X18536943Y-12786981D01*
X18527419Y-12806028D01*
X18517895Y-12815552D01*
X18498848Y-12825076D01*
X18470276Y-12825076D01*
X18651229Y-12825076D02*
X18632181Y-12815552D01*
X18622657Y-12796505D01*
X18622657Y-12625076D01*
X18803610Y-12815552D02*
X18784562Y-12825076D01*
X18746467Y-12825076D01*
X18727419Y-12815552D01*
X18717895Y-12796505D01*
X18717895Y-12720314D01*
X18727419Y-12701267D01*
X18746467Y-12691743D01*
X18784562Y-12691743D01*
X18803610Y-12701267D01*
X18813133Y-12720314D01*
X18813133Y-12739362D01*
X18717895Y-12758409D01*
X18889324Y-12815552D02*
X18908371Y-12825076D01*
X18946467Y-12825076D01*
X18965514Y-12815552D01*
X18975038Y-12796505D01*
X18975038Y-12786981D01*
X18965514Y-12767933D01*
X18946467Y-12758409D01*
X18917895Y-12758409D01*
X18898848Y-12748886D01*
X18889324Y-12729838D01*
X18889324Y-12720314D01*
X18898848Y-12701267D01*
X18917895Y-12691743D01*
X18946467Y-12691743D01*
X18965514Y-12701267D01*
X19041705Y-12901267D02*
X19051229Y-12891743D01*
X19070276Y-12863171D01*
X19079800Y-12844124D01*
X19089324Y-12815552D01*
X19098848Y-12767933D01*
X19098848Y-12729838D01*
X19089324Y-12682219D01*
X19079800Y-12653648D01*
X19070276Y-12634600D01*
X19051229Y-12606028D01*
X19041705Y-12596505D01*
X14069800Y-12898600D02*
X14269800Y-13098600D01*
X14269800Y-12898600D02*
X14069800Y-13098600D01*
X14169800Y-12898600D02*
X14169800Y-13098600D01*
X14069800Y-12998600D02*
X14269800Y-12998600D01*
X14517895Y-12908124D02*
X14527419Y-12898600D01*
X14546467Y-12889076D01*
X14594086Y-12889076D01*
X14613133Y-12898600D01*
X14622657Y-12908124D01*
X14632181Y-12927171D01*
X14632181Y-12946219D01*
X14622657Y-12974790D01*
X14508371Y-13089076D01*
X14632181Y-13089076D01*
X14717895Y-13070028D02*
X14727419Y-13079552D01*
X14717895Y-13089076D01*
X14708371Y-13079552D01*
X14717895Y-13070028D01*
X14717895Y-13089076D01*
X14803609Y-12908124D02*
X14813133Y-12898600D01*
X14832181Y-12889076D01*
X14879800Y-12889076D01*
X14898848Y-12898600D01*
X14908371Y-12908124D01*
X14917895Y-12927171D01*
X14917895Y-12946219D01*
X14908371Y-12974790D01*
X14794086Y-13089076D01*
X14917895Y-13089076D01*
X15041705Y-12889076D02*
X15060752Y-12889076D01*
X15079800Y-12898600D01*
X15089324Y-12908124D01*
X15098848Y-12927171D01*
X15108371Y-12965267D01*
X15108371Y-13012886D01*
X15098848Y-13050981D01*
X15089324Y-13070028D01*
X15079800Y-13079552D01*
X15060752Y-13089076D01*
X15041705Y-13089076D01*
X15022657Y-13079552D01*
X15013133Y-13070028D01*
X15003609Y-13050981D01*
X14994086Y-13012886D01*
X14994086Y-12965267D01*
X15003609Y-12927171D01*
X15013133Y-12908124D01*
X15022657Y-12898600D01*
X15041705Y-12889076D01*
X15232181Y-12889076D02*
X15251228Y-12889076D01*
X15270276Y-12898600D01*
X15279800Y-12908124D01*
X15289324Y-12927171D01*
X15298848Y-12965267D01*
X15298848Y-13012886D01*
X15289324Y-13050981D01*
X15279800Y-13070028D01*
X15270276Y-13079552D01*
X15251228Y-13089076D01*
X15232181Y-13089076D01*
X15213133Y-13079552D01*
X15203609Y-13070028D01*
X15194086Y-13050981D01*
X15184562Y-13012886D01*
X15184562Y-12965267D01*
X15194086Y-12927171D01*
X15203609Y-12908124D01*
X15213133Y-12898600D01*
X15232181Y-12889076D01*
X15384562Y-13089076D02*
X15384562Y-12955743D01*
X15384562Y-12974790D02*
X15394086Y-12965267D01*
X15413133Y-12955743D01*
X15441705Y-12955743D01*
X15460752Y-12965267D01*
X15470276Y-12984314D01*
X15470276Y-13089076D01*
X15470276Y-12984314D02*
X15479800Y-12965267D01*
X15498848Y-12955743D01*
X15527419Y-12955743D01*
X15546467Y-12965267D01*
X15555990Y-12984314D01*
X15555990Y-13089076D01*
X15651228Y-13089076D02*
X15651228Y-12955743D01*
X15651228Y-12974790D02*
X15660752Y-12965267D01*
X15679800Y-12955743D01*
X15708371Y-12955743D01*
X15727419Y-12965267D01*
X15736943Y-12984314D01*
X15736943Y-13089076D01*
X15736943Y-12984314D02*
X15746467Y-12965267D01*
X15765514Y-12955743D01*
X15794086Y-12955743D01*
X15813133Y-12965267D01*
X15822657Y-12984314D01*
X15822657Y-13089076D01*
X16213133Y-12879552D02*
X16041705Y-13136695D01*
X16470276Y-12889076D02*
X16489324Y-12889076D01*
X16508371Y-12898600D01*
X16517895Y-12908124D01*
X16527419Y-12927171D01*
X16536943Y-12965267D01*
X16536943Y-13012886D01*
X16527419Y-13050981D01*
X16517895Y-13070028D01*
X16508371Y-13079552D01*
X16489324Y-13089076D01*
X16470276Y-13089076D01*
X16451228Y-13079552D01*
X16441705Y-13070028D01*
X16432181Y-13050981D01*
X16422657Y-13012886D01*
X16422657Y-12965267D01*
X16432181Y-12927171D01*
X16441705Y-12908124D01*
X16451228Y-12898600D01*
X16470276Y-12889076D01*
X16622657Y-13070028D02*
X16632181Y-13079552D01*
X16622657Y-13089076D01*
X16613133Y-13079552D01*
X16622657Y-13070028D01*
X16622657Y-13089076D01*
X16755990Y-12889076D02*
X16775038Y-12889076D01*
X16794086Y-12898600D01*
X16803610Y-12908124D01*
X16813133Y-12927171D01*
X16822657Y-12965267D01*
X16822657Y-13012886D01*
X16813133Y-13050981D01*
X16803610Y-13070028D01*
X16794086Y-13079552D01*
X16775038Y-13089076D01*
X16755990Y-13089076D01*
X16736943Y-13079552D01*
X16727419Y-13070028D01*
X16717895Y-13050981D01*
X16708371Y-13012886D01*
X16708371Y-12965267D01*
X16717895Y-12927171D01*
X16727419Y-12908124D01*
X16736943Y-12898600D01*
X16755990Y-12889076D01*
X16936943Y-12974790D02*
X16917895Y-12965267D01*
X16908371Y-12955743D01*
X16898848Y-12936695D01*
X16898848Y-12927171D01*
X16908371Y-12908124D01*
X16917895Y-12898600D01*
X16936943Y-12889076D01*
X16975038Y-12889076D01*
X16994086Y-12898600D01*
X17003610Y-12908124D01*
X17013133Y-12927171D01*
X17013133Y-12936695D01*
X17003610Y-12955743D01*
X16994086Y-12965267D01*
X16975038Y-12974790D01*
X16936943Y-12974790D01*
X16917895Y-12984314D01*
X16908371Y-12993838D01*
X16898848Y-13012886D01*
X16898848Y-13050981D01*
X16908371Y-13070028D01*
X16917895Y-13079552D01*
X16936943Y-13089076D01*
X16975038Y-13089076D01*
X16994086Y-13079552D01*
X17003610Y-13070028D01*
X17013133Y-13050981D01*
X17013133Y-13012886D01*
X17003610Y-12993838D01*
X16994086Y-12984314D01*
X16975038Y-12974790D01*
X17184562Y-12889076D02*
X17146467Y-12889076D01*
X17127419Y-12898600D01*
X17117895Y-12908124D01*
X17098848Y-12936695D01*
X17089324Y-12974790D01*
X17089324Y-13050981D01*
X17098848Y-13070028D01*
X17108371Y-13079552D01*
X17127419Y-13089076D01*
X17165514Y-13089076D01*
X17184562Y-13079552D01*
X17194086Y-13070028D01*
X17203610Y-13050981D01*
X17203610Y-13003362D01*
X17194086Y-12984314D01*
X17184562Y-12974790D01*
X17165514Y-12965267D01*
X17127419Y-12965267D01*
X17108371Y-12974790D01*
X17098848Y-12984314D01*
X17089324Y-13003362D01*
X17375038Y-12889076D02*
X17336943Y-12889076D01*
X17317895Y-12898600D01*
X17308371Y-12908124D01*
X17289324Y-12936695D01*
X17279800Y-12974790D01*
X17279800Y-13050981D01*
X17289324Y-13070028D01*
X17298848Y-13079552D01*
X17317895Y-13089076D01*
X17355990Y-13089076D01*
X17375038Y-13079552D01*
X17384562Y-13070028D01*
X17394086Y-13050981D01*
X17394086Y-13003362D01*
X17384562Y-12984314D01*
X17375038Y-12974790D01*
X17355990Y-12965267D01*
X17317895Y-12965267D01*
X17298848Y-12974790D01*
X17289324Y-12984314D01*
X17279800Y-13003362D01*
X17470276Y-12889076D02*
X17470276Y-12927171D01*
X17546467Y-12889076D02*
X17546467Y-12927171D01*
X17841705Y-13165267D02*
X17832181Y-13155743D01*
X17813133Y-13127171D01*
X17803610Y-13108124D01*
X17794086Y-13079552D01*
X17784562Y-13031933D01*
X17784562Y-12993838D01*
X17794086Y-12946219D01*
X17803610Y-12917648D01*
X17813133Y-12898600D01*
X17832181Y-12870028D01*
X17841705Y-12860505D01*
X18003610Y-12955743D02*
X18003610Y-13089076D01*
X17955990Y-12879552D02*
X17908371Y-13022409D01*
X18032181Y-13022409D01*
X18260752Y-13089076D02*
X18260752Y-12889076D01*
X18346467Y-13089076D02*
X18346467Y-12984314D01*
X18336943Y-12965267D01*
X18317895Y-12955743D01*
X18289324Y-12955743D01*
X18270276Y-12965267D01*
X18260752Y-12974790D01*
X18470276Y-13089076D02*
X18451229Y-13079552D01*
X18441705Y-13070028D01*
X18432181Y-13050981D01*
X18432181Y-12993838D01*
X18441705Y-12974790D01*
X18451229Y-12965267D01*
X18470276Y-12955743D01*
X18498848Y-12955743D01*
X18517895Y-12965267D01*
X18527419Y-12974790D01*
X18536943Y-12993838D01*
X18536943Y-13050981D01*
X18527419Y-13070028D01*
X18517895Y-13079552D01*
X18498848Y-13089076D01*
X18470276Y-13089076D01*
X18651229Y-13089076D02*
X18632181Y-13079552D01*
X18622657Y-13060505D01*
X18622657Y-12889076D01*
X18803610Y-13079552D02*
X18784562Y-13089076D01*
X18746467Y-13089076D01*
X18727419Y-13079552D01*
X18717895Y-13060505D01*
X18717895Y-12984314D01*
X18727419Y-12965267D01*
X18746467Y-12955743D01*
X18784562Y-12955743D01*
X18803610Y-12965267D01*
X18813133Y-12984314D01*
X18813133Y-13003362D01*
X18717895Y-13022409D01*
X18889324Y-13079552D02*
X18908371Y-13089076D01*
X18946467Y-13089076D01*
X18965514Y-13079552D01*
X18975038Y-13060505D01*
X18975038Y-13050981D01*
X18965514Y-13031933D01*
X18946467Y-13022409D01*
X18917895Y-13022409D01*
X18898848Y-13012886D01*
X18889324Y-12993838D01*
X18889324Y-12984314D01*
X18898848Y-12965267D01*
X18917895Y-12955743D01*
X18946467Y-12955743D01*
X18965514Y-12965267D01*
X19041705Y-13165267D02*
X19051229Y-13155743D01*
X19070276Y-13127171D01*
X19079800Y-13108124D01*
X19089324Y-13079552D01*
X19098848Y-13031933D01*
X19098848Y-12993838D01*
X19089324Y-12946219D01*
X19079800Y-12917648D01*
X19070276Y-12898600D01*
X19051229Y-12870028D01*
X19041705Y-12860505D01*
M02*
