%TF.GenerationSoftware,KiCad,Pcbnew,(6.0.8)*%
%TF.CreationDate,2023-02-21T11:31:40+01:00*%
%TF.ProjectId,MuMo-v2-Node,4d754d6f-2d76-4322-9d4e-6f64652e6b69,rev?*%
%TF.SameCoordinates,Original*%
%TF.FileFunction,AssemblyDrawing,Top*%
%FSLAX46Y46*%
G04 Gerber Fmt 4.6, Leading zero omitted, Abs format (unit mm)*
G04 Created by KiCad (PCBNEW (6.0.8)) date 2023-02-21 11:31:40*
%MOMM*%
%LPD*%
G01*
G04 APERTURE LIST*
%ADD10C,0.100000*%
%ADD11C,0.150000*%
%ADD12C,0.060000*%
%ADD13C,0.075000*%
%ADD14C,0.050000*%
%ADD15C,0.120000*%
%ADD16C,0.127000*%
%ADD17C,0.200000*%
G04 APERTURE END LIST*
D10*
X142748000Y-82677000D02*
X220726000Y-82677000D01*
X142748000Y-57658000D02*
X205486000Y-57658000D01*
X205486000Y-57658000D02*
X205486000Y-107696000D01*
X205486000Y-107696000D02*
X142748000Y-107696000D01*
X142748000Y-107696000D02*
X142748000Y-57658000D01*
D11*
%TO.C,U3*%
X160268895Y-82260380D02*
X160268895Y-83069904D01*
X160316514Y-83165142D01*
X160364133Y-83212761D01*
X160459371Y-83260380D01*
X160649847Y-83260380D01*
X160745085Y-83212761D01*
X160792704Y-83165142D01*
X160840323Y-83069904D01*
X160840323Y-82260380D01*
X161221276Y-82260380D02*
X161840323Y-82260380D01*
X161506990Y-82641333D01*
X161649847Y-82641333D01*
X161745085Y-82688952D01*
X161792704Y-82736571D01*
X161840323Y-82831809D01*
X161840323Y-83069904D01*
X161792704Y-83165142D01*
X161745085Y-83212761D01*
X161649847Y-83260380D01*
X161364133Y-83260380D01*
X161268895Y-83212761D01*
X161221276Y-83165142D01*
%TO.C,CONN3*%
X169442704Y-101215142D02*
X169395085Y-101262761D01*
X169252228Y-101310380D01*
X169156990Y-101310380D01*
X169014133Y-101262761D01*
X168918895Y-101167523D01*
X168871276Y-101072285D01*
X168823657Y-100881809D01*
X168823657Y-100738952D01*
X168871276Y-100548476D01*
X168918895Y-100453238D01*
X169014133Y-100358000D01*
X169156990Y-100310380D01*
X169252228Y-100310380D01*
X169395085Y-100358000D01*
X169442704Y-100405619D01*
X170061752Y-100310380D02*
X170252228Y-100310380D01*
X170347466Y-100358000D01*
X170442704Y-100453238D01*
X170490323Y-100643714D01*
X170490323Y-100977047D01*
X170442704Y-101167523D01*
X170347466Y-101262761D01*
X170252228Y-101310380D01*
X170061752Y-101310380D01*
X169966514Y-101262761D01*
X169871276Y-101167523D01*
X169823657Y-100977047D01*
X169823657Y-100643714D01*
X169871276Y-100453238D01*
X169966514Y-100358000D01*
X170061752Y-100310380D01*
X170918895Y-101310380D02*
X170918895Y-100310380D01*
X171490323Y-101310380D01*
X171490323Y-100310380D01*
X171966514Y-101310380D02*
X171966514Y-100310380D01*
X172537942Y-101310380D01*
X172537942Y-100310380D01*
X172918895Y-100310380D02*
X173537942Y-100310380D01*
X173204609Y-100691333D01*
X173347466Y-100691333D01*
X173442704Y-100738952D01*
X173490323Y-100786571D01*
X173537942Y-100881809D01*
X173537942Y-101119904D01*
X173490323Y-101215142D01*
X173442704Y-101262761D01*
X173347466Y-101310380D01*
X173061752Y-101310380D01*
X172966514Y-101262761D01*
X172918895Y-101215142D01*
D10*
%TO.C,C2*%
X168221276Y-71534190D02*
X167935561Y-71534190D01*
X168078419Y-71534190D02*
X168078419Y-71034190D01*
X168030800Y-71105619D01*
X167983180Y-71153238D01*
X167935561Y-71177047D01*
X168530800Y-71034190D02*
X168578419Y-71034190D01*
X168626038Y-71058000D01*
X168649847Y-71081809D01*
X168673657Y-71129428D01*
X168697466Y-71224666D01*
X168697466Y-71343714D01*
X168673657Y-71438952D01*
X168649847Y-71486571D01*
X168626038Y-71510380D01*
X168578419Y-71534190D01*
X168530800Y-71534190D01*
X168483180Y-71510380D01*
X168459371Y-71486571D01*
X168435561Y-71438952D01*
X168411752Y-71343714D01*
X168411752Y-71224666D01*
X168435561Y-71129428D01*
X168459371Y-71081809D01*
X168483180Y-71058000D01*
X168530800Y-71034190D01*
X169006990Y-71034190D02*
X169054609Y-71034190D01*
X169102228Y-71058000D01*
X169126038Y-71081809D01*
X169149847Y-71129428D01*
X169173657Y-71224666D01*
X169173657Y-71343714D01*
X169149847Y-71438952D01*
X169126038Y-71486571D01*
X169102228Y-71510380D01*
X169054609Y-71534190D01*
X169006990Y-71534190D01*
X168959371Y-71510380D01*
X168935561Y-71486571D01*
X168911752Y-71438952D01*
X168887942Y-71343714D01*
X168887942Y-71224666D01*
X168911752Y-71129428D01*
X168935561Y-71081809D01*
X168959371Y-71058000D01*
X169006990Y-71034190D01*
X169387942Y-71200857D02*
X169387942Y-71534190D01*
X169387942Y-71248476D02*
X169411752Y-71224666D01*
X169459371Y-71200857D01*
X169530800Y-71200857D01*
X169578419Y-71224666D01*
X169602228Y-71272285D01*
X169602228Y-71534190D01*
D12*
X168714133Y-70450857D02*
X168695085Y-70469904D01*
X168637942Y-70488952D01*
X168599847Y-70488952D01*
X168542704Y-70469904D01*
X168504609Y-70431809D01*
X168485561Y-70393714D01*
X168466514Y-70317523D01*
X168466514Y-70260380D01*
X168485561Y-70184190D01*
X168504609Y-70146095D01*
X168542704Y-70108000D01*
X168599847Y-70088952D01*
X168637942Y-70088952D01*
X168695085Y-70108000D01*
X168714133Y-70127047D01*
X168866514Y-70127047D02*
X168885561Y-70108000D01*
X168923657Y-70088952D01*
X169018895Y-70088952D01*
X169056990Y-70108000D01*
X169076038Y-70127047D01*
X169095085Y-70165142D01*
X169095085Y-70203238D01*
X169076038Y-70260380D01*
X168847466Y-70488952D01*
X169095085Y-70488952D01*
D10*
%TO.C,C3*%
X169756990Y-76367523D02*
X169756990Y-76653238D01*
X169756990Y-76510380D02*
X169256990Y-76510380D01*
X169328419Y-76558000D01*
X169376038Y-76605619D01*
X169399847Y-76653238D01*
X169256990Y-76058000D02*
X169256990Y-76010380D01*
X169280800Y-75962761D01*
X169304609Y-75938952D01*
X169352228Y-75915142D01*
X169447466Y-75891333D01*
X169566514Y-75891333D01*
X169661752Y-75915142D01*
X169709371Y-75938952D01*
X169733180Y-75962761D01*
X169756990Y-76010380D01*
X169756990Y-76058000D01*
X169733180Y-76105619D01*
X169709371Y-76129428D01*
X169661752Y-76153238D01*
X169566514Y-76177047D01*
X169447466Y-76177047D01*
X169352228Y-76153238D01*
X169304609Y-76129428D01*
X169280800Y-76105619D01*
X169256990Y-76058000D01*
X169256990Y-75581809D02*
X169256990Y-75534190D01*
X169280800Y-75486571D01*
X169304609Y-75462761D01*
X169352228Y-75438952D01*
X169447466Y-75415142D01*
X169566514Y-75415142D01*
X169661752Y-75438952D01*
X169709371Y-75462761D01*
X169733180Y-75486571D01*
X169756990Y-75534190D01*
X169756990Y-75581809D01*
X169733180Y-75629428D01*
X169709371Y-75653238D01*
X169661752Y-75677047D01*
X169566514Y-75700857D01*
X169447466Y-75700857D01*
X169352228Y-75677047D01*
X169304609Y-75653238D01*
X169280800Y-75629428D01*
X169256990Y-75581809D01*
X169423657Y-75200857D02*
X169756990Y-75200857D01*
X169471276Y-75200857D02*
X169447466Y-75177047D01*
X169423657Y-75129428D01*
X169423657Y-75058000D01*
X169447466Y-75010380D01*
X169495085Y-74986571D01*
X169756990Y-74986571D01*
D12*
X168673657Y-75874666D02*
X168692704Y-75893714D01*
X168711752Y-75950857D01*
X168711752Y-75988952D01*
X168692704Y-76046095D01*
X168654609Y-76084190D01*
X168616514Y-76103238D01*
X168540323Y-76122285D01*
X168483180Y-76122285D01*
X168406990Y-76103238D01*
X168368895Y-76084190D01*
X168330800Y-76046095D01*
X168311752Y-75988952D01*
X168311752Y-75950857D01*
X168330800Y-75893714D01*
X168349847Y-75874666D01*
X168311752Y-75741333D02*
X168311752Y-75493714D01*
X168464133Y-75627047D01*
X168464133Y-75569904D01*
X168483180Y-75531809D01*
X168502228Y-75512761D01*
X168540323Y-75493714D01*
X168635561Y-75493714D01*
X168673657Y-75512761D01*
X168692704Y-75531809D01*
X168711752Y-75569904D01*
X168711752Y-75684190D01*
X168692704Y-75722285D01*
X168673657Y-75741333D01*
D10*
%TO.C,C8*%
X184256990Y-66117523D02*
X184256990Y-66403238D01*
X184256990Y-66260380D02*
X183756990Y-66260380D01*
X183828419Y-66308000D01*
X183876038Y-66355619D01*
X183899847Y-66403238D01*
X183756990Y-65808000D02*
X183756990Y-65760380D01*
X183780800Y-65712761D01*
X183804609Y-65688952D01*
X183852228Y-65665142D01*
X183947466Y-65641333D01*
X184066514Y-65641333D01*
X184161752Y-65665142D01*
X184209371Y-65688952D01*
X184233180Y-65712761D01*
X184256990Y-65760380D01*
X184256990Y-65808000D01*
X184233180Y-65855619D01*
X184209371Y-65879428D01*
X184161752Y-65903238D01*
X184066514Y-65927047D01*
X183947466Y-65927047D01*
X183852228Y-65903238D01*
X183804609Y-65879428D01*
X183780800Y-65855619D01*
X183756990Y-65808000D01*
X183756990Y-65331809D02*
X183756990Y-65284190D01*
X183780800Y-65236571D01*
X183804609Y-65212761D01*
X183852228Y-65188952D01*
X183947466Y-65165142D01*
X184066514Y-65165142D01*
X184161752Y-65188952D01*
X184209371Y-65212761D01*
X184233180Y-65236571D01*
X184256990Y-65284190D01*
X184256990Y-65331809D01*
X184233180Y-65379428D01*
X184209371Y-65403238D01*
X184161752Y-65427047D01*
X184066514Y-65450857D01*
X183947466Y-65450857D01*
X183852228Y-65427047D01*
X183804609Y-65403238D01*
X183780800Y-65379428D01*
X183756990Y-65331809D01*
X183923657Y-64950857D02*
X184256990Y-64950857D01*
X183971276Y-64950857D02*
X183947466Y-64927047D01*
X183923657Y-64879428D01*
X183923657Y-64808000D01*
X183947466Y-64760380D01*
X183995085Y-64736571D01*
X184256990Y-64736571D01*
D12*
X183173657Y-65624666D02*
X183192704Y-65643714D01*
X183211752Y-65700857D01*
X183211752Y-65738952D01*
X183192704Y-65796095D01*
X183154609Y-65834190D01*
X183116514Y-65853238D01*
X183040323Y-65872285D01*
X182983180Y-65872285D01*
X182906990Y-65853238D01*
X182868895Y-65834190D01*
X182830800Y-65796095D01*
X182811752Y-65738952D01*
X182811752Y-65700857D01*
X182830800Y-65643714D01*
X182849847Y-65624666D01*
X182983180Y-65396095D02*
X182964133Y-65434190D01*
X182945085Y-65453238D01*
X182906990Y-65472285D01*
X182887942Y-65472285D01*
X182849847Y-65453238D01*
X182830800Y-65434190D01*
X182811752Y-65396095D01*
X182811752Y-65319904D01*
X182830800Y-65281809D01*
X182849847Y-65262761D01*
X182887942Y-65243714D01*
X182906990Y-65243714D01*
X182945085Y-65262761D01*
X182964133Y-65281809D01*
X182983180Y-65319904D01*
X182983180Y-65396095D01*
X183002228Y-65434190D01*
X183021276Y-65453238D01*
X183059371Y-65472285D01*
X183135561Y-65472285D01*
X183173657Y-65453238D01*
X183192704Y-65434190D01*
X183211752Y-65396095D01*
X183211752Y-65319904D01*
X183192704Y-65281809D01*
X183173657Y-65262761D01*
X183135561Y-65243714D01*
X183059371Y-65243714D01*
X183021276Y-65262761D01*
X183002228Y-65281809D01*
X182983180Y-65319904D01*
D10*
%TO.C,C1*%
X188506990Y-93367523D02*
X188506990Y-93653238D01*
X188506990Y-93510380D02*
X188006990Y-93510380D01*
X188078419Y-93558000D01*
X188126038Y-93605619D01*
X188149847Y-93653238D01*
X188006990Y-93058000D02*
X188006990Y-93010380D01*
X188030800Y-92962761D01*
X188054609Y-92938952D01*
X188102228Y-92915142D01*
X188197466Y-92891333D01*
X188316514Y-92891333D01*
X188411752Y-92915142D01*
X188459371Y-92938952D01*
X188483180Y-92962761D01*
X188506990Y-93010380D01*
X188506990Y-93058000D01*
X188483180Y-93105619D01*
X188459371Y-93129428D01*
X188411752Y-93153238D01*
X188316514Y-93177047D01*
X188197466Y-93177047D01*
X188102228Y-93153238D01*
X188054609Y-93129428D01*
X188030800Y-93105619D01*
X188006990Y-93058000D01*
X188006990Y-92581809D02*
X188006990Y-92534190D01*
X188030800Y-92486571D01*
X188054609Y-92462761D01*
X188102228Y-92438952D01*
X188197466Y-92415142D01*
X188316514Y-92415142D01*
X188411752Y-92438952D01*
X188459371Y-92462761D01*
X188483180Y-92486571D01*
X188506990Y-92534190D01*
X188506990Y-92581809D01*
X188483180Y-92629428D01*
X188459371Y-92653238D01*
X188411752Y-92677047D01*
X188316514Y-92700857D01*
X188197466Y-92700857D01*
X188102228Y-92677047D01*
X188054609Y-92653238D01*
X188030800Y-92629428D01*
X188006990Y-92581809D01*
X188173657Y-92200857D02*
X188506990Y-92200857D01*
X188221276Y-92200857D02*
X188197466Y-92177047D01*
X188173657Y-92129428D01*
X188173657Y-92058000D01*
X188197466Y-92010380D01*
X188245085Y-91986571D01*
X188506990Y-91986571D01*
D12*
X187391657Y-92878266D02*
X187410704Y-92897314D01*
X187429752Y-92954457D01*
X187429752Y-92992552D01*
X187410704Y-93049695D01*
X187372609Y-93087790D01*
X187334514Y-93106838D01*
X187258323Y-93125885D01*
X187201180Y-93125885D01*
X187124990Y-93106838D01*
X187086895Y-93087790D01*
X187048800Y-93049695D01*
X187029752Y-92992552D01*
X187029752Y-92954457D01*
X187048800Y-92897314D01*
X187067847Y-92878266D01*
X187429752Y-92497314D02*
X187429752Y-92725885D01*
X187429752Y-92611600D02*
X187029752Y-92611600D01*
X187086895Y-92649695D01*
X187124990Y-92687790D01*
X187144038Y-92725885D01*
D11*
%TO.C,U2*%
X174191942Y-78819380D02*
X173715752Y-78819380D01*
X173715752Y-77819380D01*
X174668133Y-78819380D02*
X174572895Y-78771761D01*
X174525276Y-78724142D01*
X174477657Y-78628904D01*
X174477657Y-78343190D01*
X174525276Y-78247952D01*
X174572895Y-78200333D01*
X174668133Y-78152714D01*
X174810990Y-78152714D01*
X174906228Y-78200333D01*
X174953847Y-78247952D01*
X175001466Y-78343190D01*
X175001466Y-78628904D01*
X174953847Y-78724142D01*
X174906228Y-78771761D01*
X174810990Y-78819380D01*
X174668133Y-78819380D01*
X176001466Y-78819380D02*
X175668133Y-78343190D01*
X175430038Y-78819380D02*
X175430038Y-77819380D01*
X175810990Y-77819380D01*
X175906228Y-77867000D01*
X175953847Y-77914619D01*
X176001466Y-78009857D01*
X176001466Y-78152714D01*
X175953847Y-78247952D01*
X175906228Y-78295571D01*
X175810990Y-78343190D01*
X175430038Y-78343190D01*
X176858609Y-78819380D02*
X176858609Y-78295571D01*
X176810990Y-78200333D01*
X176715752Y-78152714D01*
X176525276Y-78152714D01*
X176430038Y-78200333D01*
X176858609Y-78771761D02*
X176763371Y-78819380D01*
X176525276Y-78819380D01*
X176430038Y-78771761D01*
X176382419Y-78676523D01*
X176382419Y-78581285D01*
X176430038Y-78486047D01*
X176525276Y-78438428D01*
X176763371Y-78438428D01*
X176858609Y-78390809D01*
X177334800Y-78438428D02*
X178096704Y-78438428D01*
X178572895Y-78295571D02*
X178906228Y-78295571D01*
X179049085Y-78819380D02*
X178572895Y-78819380D01*
X178572895Y-77819380D01*
X179049085Y-77819380D01*
X179953847Y-77819380D02*
X179477657Y-77819380D01*
X179430038Y-78295571D01*
X179477657Y-78247952D01*
X179572895Y-78200333D01*
X179810990Y-78200333D01*
X179906228Y-78247952D01*
X179953847Y-78295571D01*
X180001466Y-78390809D01*
X180001466Y-78628904D01*
X179953847Y-78724142D01*
X179906228Y-78771761D01*
X179810990Y-78819380D01*
X179572895Y-78819380D01*
X179477657Y-78771761D01*
X179430038Y-78724142D01*
X172768895Y-74510380D02*
X172768895Y-75319904D01*
X172816514Y-75415142D01*
X172864133Y-75462761D01*
X172959371Y-75510380D01*
X173149847Y-75510380D01*
X173245085Y-75462761D01*
X173292704Y-75415142D01*
X173340323Y-75319904D01*
X173340323Y-74510380D01*
X173768895Y-74605619D02*
X173816514Y-74558000D01*
X173911752Y-74510380D01*
X174149847Y-74510380D01*
X174245085Y-74558000D01*
X174292704Y-74605619D01*
X174340323Y-74700857D01*
X174340323Y-74796095D01*
X174292704Y-74938952D01*
X173721276Y-75510380D01*
X174340323Y-75510380D01*
D10*
%TO.C,C18*%
X167233180Y-95284190D02*
X166947466Y-95284190D01*
X167090323Y-95284190D02*
X167090323Y-94784190D01*
X167042704Y-94855619D01*
X166995085Y-94903238D01*
X166947466Y-94927047D01*
X167661752Y-94950857D02*
X167661752Y-95284190D01*
X167447466Y-94950857D02*
X167447466Y-95212761D01*
X167471276Y-95260380D01*
X167518895Y-95284190D01*
X167590323Y-95284190D01*
X167637942Y-95260380D01*
X167661752Y-95236571D01*
X168066514Y-95022285D02*
X167899847Y-95022285D01*
X167899847Y-95284190D02*
X167899847Y-94784190D01*
X168137942Y-94784190D01*
D12*
X167673657Y-93765142D02*
X167692704Y-93784190D01*
X167711752Y-93841333D01*
X167711752Y-93879428D01*
X167692704Y-93936571D01*
X167654609Y-93974666D01*
X167616514Y-93993714D01*
X167540323Y-94012761D01*
X167483180Y-94012761D01*
X167406990Y-93993714D01*
X167368895Y-93974666D01*
X167330800Y-93936571D01*
X167311752Y-93879428D01*
X167311752Y-93841333D01*
X167330800Y-93784190D01*
X167349847Y-93765142D01*
X167711752Y-93384190D02*
X167711752Y-93612761D01*
X167711752Y-93498476D02*
X167311752Y-93498476D01*
X167368895Y-93536571D01*
X167406990Y-93574666D01*
X167426038Y-93612761D01*
X167483180Y-93155619D02*
X167464133Y-93193714D01*
X167445085Y-93212761D01*
X167406990Y-93231809D01*
X167387942Y-93231809D01*
X167349847Y-93212761D01*
X167330800Y-93193714D01*
X167311752Y-93155619D01*
X167311752Y-93079428D01*
X167330800Y-93041333D01*
X167349847Y-93022285D01*
X167387942Y-93003238D01*
X167406990Y-93003238D01*
X167445085Y-93022285D01*
X167464133Y-93041333D01*
X167483180Y-93079428D01*
X167483180Y-93155619D01*
X167502228Y-93193714D01*
X167521276Y-93212761D01*
X167559371Y-93231809D01*
X167635561Y-93231809D01*
X167673657Y-93212761D01*
X167692704Y-93193714D01*
X167711752Y-93155619D01*
X167711752Y-93079428D01*
X167692704Y-93041333D01*
X167673657Y-93022285D01*
X167635561Y-93003238D01*
X167559371Y-93003238D01*
X167521276Y-93022285D01*
X167502228Y-93041333D01*
X167483180Y-93079428D01*
D10*
%TO.C,R9*%
X181756990Y-69677047D02*
X181756990Y-69915142D01*
X181995085Y-69938952D01*
X181971276Y-69915142D01*
X181947466Y-69867523D01*
X181947466Y-69748476D01*
X181971276Y-69700857D01*
X181995085Y-69677047D01*
X182042704Y-69653238D01*
X182161752Y-69653238D01*
X182209371Y-69677047D01*
X182233180Y-69700857D01*
X182256990Y-69748476D01*
X182256990Y-69867523D01*
X182233180Y-69915142D01*
X182209371Y-69938952D01*
X182256990Y-69438952D02*
X181756990Y-69438952D01*
X182256990Y-69153238D02*
X181971276Y-69367523D01*
X181756990Y-69153238D02*
X182042704Y-69438952D01*
X182256990Y-68677047D02*
X182256990Y-68962761D01*
X182256990Y-68819904D02*
X181756990Y-68819904D01*
X181828419Y-68867523D01*
X181876038Y-68915142D01*
X181899847Y-68962761D01*
D12*
X181211752Y-69374666D02*
X181021276Y-69508000D01*
X181211752Y-69603238D02*
X180811752Y-69603238D01*
X180811752Y-69450857D01*
X180830800Y-69412761D01*
X180849847Y-69393714D01*
X180887942Y-69374666D01*
X180945085Y-69374666D01*
X180983180Y-69393714D01*
X181002228Y-69412761D01*
X181021276Y-69450857D01*
X181021276Y-69603238D01*
X181211752Y-69184190D02*
X181211752Y-69108000D01*
X181192704Y-69069904D01*
X181173657Y-69050857D01*
X181116514Y-69012761D01*
X181040323Y-68993714D01*
X180887942Y-68993714D01*
X180849847Y-69012761D01*
X180830800Y-69031809D01*
X180811752Y-69069904D01*
X180811752Y-69146095D01*
X180830800Y-69184190D01*
X180849847Y-69203238D01*
X180887942Y-69222285D01*
X180983180Y-69222285D01*
X181021276Y-69203238D01*
X181040323Y-69184190D01*
X181059371Y-69146095D01*
X181059371Y-69069904D01*
X181040323Y-69031809D01*
X181021276Y-69012761D01*
X180983180Y-68993714D01*
D10*
%TO.C,D3*%
X168661752Y-87534190D02*
X168661752Y-87034190D01*
X168780800Y-87034190D01*
X168852228Y-87058000D01*
X168899847Y-87105619D01*
X168923657Y-87153238D01*
X168947466Y-87248476D01*
X168947466Y-87319904D01*
X168923657Y-87415142D01*
X168899847Y-87462761D01*
X168852228Y-87510380D01*
X168780800Y-87534190D01*
X168661752Y-87534190D01*
X169114133Y-87034190D02*
X169423657Y-87034190D01*
X169256990Y-87224666D01*
X169328419Y-87224666D01*
X169376038Y-87248476D01*
X169399847Y-87272285D01*
X169423657Y-87319904D01*
X169423657Y-87438952D01*
X169399847Y-87486571D01*
X169376038Y-87510380D01*
X169328419Y-87534190D01*
X169185561Y-87534190D01*
X169137942Y-87510380D01*
X169114133Y-87486571D01*
%TO.C,R7*%
X151611752Y-83034190D02*
X151373657Y-83034190D01*
X151349847Y-83272285D01*
X151373657Y-83248476D01*
X151421276Y-83224666D01*
X151540323Y-83224666D01*
X151587942Y-83248476D01*
X151611752Y-83272285D01*
X151635561Y-83319904D01*
X151635561Y-83438952D01*
X151611752Y-83486571D01*
X151587942Y-83510380D01*
X151540323Y-83534190D01*
X151421276Y-83534190D01*
X151373657Y-83510380D01*
X151349847Y-83486571D01*
X151849847Y-83534190D02*
X151849847Y-83034190D01*
X152135561Y-83534190D02*
X151921276Y-83248476D01*
X152135561Y-83034190D02*
X151849847Y-83319904D01*
X152611752Y-83534190D02*
X152326038Y-83534190D01*
X152468895Y-83534190D02*
X152468895Y-83034190D01*
X152421276Y-83105619D01*
X152373657Y-83153238D01*
X152326038Y-83177047D01*
D12*
X151914133Y-84438952D02*
X151780800Y-84248476D01*
X151685561Y-84438952D02*
X151685561Y-84038952D01*
X151837942Y-84038952D01*
X151876038Y-84058000D01*
X151895085Y-84077047D01*
X151914133Y-84115142D01*
X151914133Y-84172285D01*
X151895085Y-84210380D01*
X151876038Y-84229428D01*
X151837942Y-84248476D01*
X151685561Y-84248476D01*
X152047466Y-84038952D02*
X152314133Y-84038952D01*
X152142704Y-84438952D01*
D11*
%TO.C,CONN1*%
X163637942Y-73826095D02*
X163685561Y-73873714D01*
X163733180Y-74016571D01*
X163733180Y-74111809D01*
X163685561Y-74254666D01*
X163590323Y-74349904D01*
X163495085Y-74397523D01*
X163304609Y-74445142D01*
X163161752Y-74445142D01*
X162971276Y-74397523D01*
X162876038Y-74349904D01*
X162780800Y-74254666D01*
X162733180Y-74111809D01*
X162733180Y-74016571D01*
X162780800Y-73873714D01*
X162828419Y-73826095D01*
X162733180Y-73207047D02*
X162733180Y-73016571D01*
X162780800Y-72921333D01*
X162876038Y-72826095D01*
X163066514Y-72778476D01*
X163399847Y-72778476D01*
X163590323Y-72826095D01*
X163685561Y-72921333D01*
X163733180Y-73016571D01*
X163733180Y-73207047D01*
X163685561Y-73302285D01*
X163590323Y-73397523D01*
X163399847Y-73445142D01*
X163066514Y-73445142D01*
X162876038Y-73397523D01*
X162780800Y-73302285D01*
X162733180Y-73207047D01*
X163733180Y-72349904D02*
X162733180Y-72349904D01*
X163733180Y-71778476D01*
X162733180Y-71778476D01*
X163733180Y-71302285D02*
X162733180Y-71302285D01*
X163733180Y-70730857D01*
X162733180Y-70730857D01*
X163733180Y-69730857D02*
X163733180Y-70302285D01*
X163733180Y-70016571D02*
X162733180Y-70016571D01*
X162876038Y-70111809D01*
X162971276Y-70207047D01*
X163018895Y-70302285D01*
%TO.C,TP2*%
X142887942Y-94760380D02*
X143221276Y-95760380D01*
X143554609Y-94760380D01*
X144221276Y-95236571D02*
X144364133Y-95284190D01*
X144411752Y-95331809D01*
X144459371Y-95427047D01*
X144459371Y-95569904D01*
X144411752Y-95665142D01*
X144364133Y-95712761D01*
X144268895Y-95760380D01*
X143887942Y-95760380D01*
X143887942Y-94760380D01*
X144221276Y-94760380D01*
X144316514Y-94808000D01*
X144364133Y-94855619D01*
X144411752Y-94950857D01*
X144411752Y-95046095D01*
X144364133Y-95141333D01*
X144316514Y-95188952D01*
X144221276Y-95236571D01*
X143887942Y-95236571D01*
X144840323Y-95474666D02*
X145316514Y-95474666D01*
X144745085Y-95760380D02*
X145078419Y-94760380D01*
X145411752Y-95760380D01*
X145602228Y-94760380D02*
X146173657Y-94760380D01*
X145887942Y-95760380D02*
X145887942Y-94760380D01*
D10*
%TO.C,C17*%
X163733180Y-96534190D02*
X163447466Y-96534190D01*
X163590323Y-96534190D02*
X163590323Y-96034190D01*
X163542704Y-96105619D01*
X163495085Y-96153238D01*
X163447466Y-96177047D01*
X164161752Y-96200857D02*
X164161752Y-96534190D01*
X163947466Y-96200857D02*
X163947466Y-96462761D01*
X163971276Y-96510380D01*
X164018895Y-96534190D01*
X164090323Y-96534190D01*
X164137942Y-96510380D01*
X164161752Y-96486571D01*
X164566514Y-96272285D02*
X164399847Y-96272285D01*
X164399847Y-96534190D02*
X164399847Y-96034190D01*
X164637942Y-96034190D01*
D12*
X164173657Y-95065142D02*
X164192704Y-95084190D01*
X164211752Y-95141333D01*
X164211752Y-95179428D01*
X164192704Y-95236571D01*
X164154609Y-95274666D01*
X164116514Y-95293714D01*
X164040323Y-95312761D01*
X163983180Y-95312761D01*
X163906990Y-95293714D01*
X163868895Y-95274666D01*
X163830800Y-95236571D01*
X163811752Y-95179428D01*
X163811752Y-95141333D01*
X163830800Y-95084190D01*
X163849847Y-95065142D01*
X164211752Y-94684190D02*
X164211752Y-94912761D01*
X164211752Y-94798476D02*
X163811752Y-94798476D01*
X163868895Y-94836571D01*
X163906990Y-94874666D01*
X163926038Y-94912761D01*
X163811752Y-94550857D02*
X163811752Y-94284190D01*
X164211752Y-94455619D01*
D11*
%TO.C,U7*%
X175518895Y-65010380D02*
X175518895Y-65819904D01*
X175566514Y-65915142D01*
X175614133Y-65962761D01*
X175709371Y-66010380D01*
X175899847Y-66010380D01*
X175995085Y-65962761D01*
X176042704Y-65915142D01*
X176090323Y-65819904D01*
X176090323Y-65010380D01*
X176471276Y-65010380D02*
X177137942Y-65010380D01*
X176709371Y-66010380D01*
D13*
%TO.C,Q1*%
X180304609Y-91105619D02*
X180280800Y-91153238D01*
X180233180Y-91200857D01*
X180161752Y-91272285D01*
X180137942Y-91319904D01*
X180137942Y-91367523D01*
X180256990Y-91343714D02*
X180233180Y-91391333D01*
X180185561Y-91438952D01*
X180090323Y-91462761D01*
X179923657Y-91462761D01*
X179828419Y-91438952D01*
X179780800Y-91391333D01*
X179756990Y-91343714D01*
X179756990Y-91248476D01*
X179780800Y-91200857D01*
X179828419Y-91153238D01*
X179923657Y-91129428D01*
X180090323Y-91129428D01*
X180185561Y-91153238D01*
X180233180Y-91200857D01*
X180256990Y-91248476D01*
X180256990Y-91343714D01*
X180256990Y-90653238D02*
X180256990Y-90938952D01*
X180256990Y-90796095D02*
X179756990Y-90796095D01*
X179828419Y-90843714D01*
X179876038Y-90891333D01*
X179899847Y-90938952D01*
D10*
%TO.C,C23*%
X161423657Y-98927047D02*
X161756990Y-98927047D01*
X161233180Y-99046095D02*
X161590323Y-99165142D01*
X161590323Y-98855619D01*
X161423657Y-98450857D02*
X161756990Y-98450857D01*
X161423657Y-98665142D02*
X161685561Y-98665142D01*
X161733180Y-98641333D01*
X161756990Y-98593714D01*
X161756990Y-98522285D01*
X161733180Y-98474666D01*
X161709371Y-98450857D01*
X161256990Y-98260380D02*
X161256990Y-97927047D01*
X161756990Y-98141333D01*
D12*
X160673657Y-98815142D02*
X160692704Y-98834190D01*
X160711752Y-98891333D01*
X160711752Y-98929428D01*
X160692704Y-98986571D01*
X160654609Y-99024666D01*
X160616514Y-99043714D01*
X160540323Y-99062761D01*
X160483180Y-99062761D01*
X160406990Y-99043714D01*
X160368895Y-99024666D01*
X160330800Y-98986571D01*
X160311752Y-98929428D01*
X160311752Y-98891333D01*
X160330800Y-98834190D01*
X160349847Y-98815142D01*
X160349847Y-98662761D02*
X160330800Y-98643714D01*
X160311752Y-98605619D01*
X160311752Y-98510380D01*
X160330800Y-98472285D01*
X160349847Y-98453238D01*
X160387942Y-98434190D01*
X160426038Y-98434190D01*
X160483180Y-98453238D01*
X160711752Y-98681809D01*
X160711752Y-98434190D01*
X160311752Y-98300857D02*
X160311752Y-98053238D01*
X160464133Y-98186571D01*
X160464133Y-98129428D01*
X160483180Y-98091333D01*
X160502228Y-98072285D01*
X160540323Y-98053238D01*
X160635561Y-98053238D01*
X160673657Y-98072285D01*
X160692704Y-98091333D01*
X160711752Y-98129428D01*
X160711752Y-98243714D01*
X160692704Y-98281809D01*
X160673657Y-98300857D01*
D10*
%TO.C,C30*%
X155661752Y-83950857D02*
X155661752Y-84284190D01*
X155542704Y-83760380D02*
X155423657Y-84117523D01*
X155733180Y-84117523D01*
X156137942Y-83950857D02*
X156137942Y-84284190D01*
X155923657Y-83950857D02*
X155923657Y-84212761D01*
X155947466Y-84260380D01*
X155995085Y-84284190D01*
X156066514Y-84284190D01*
X156114133Y-84260380D01*
X156137942Y-84236571D01*
X156328419Y-83784190D02*
X156661752Y-83784190D01*
X156447466Y-84284190D01*
D12*
X156173657Y-85765142D02*
X156192704Y-85784190D01*
X156211752Y-85841333D01*
X156211752Y-85879428D01*
X156192704Y-85936571D01*
X156154609Y-85974666D01*
X156116514Y-85993714D01*
X156040323Y-86012761D01*
X155983180Y-86012761D01*
X155906990Y-85993714D01*
X155868895Y-85974666D01*
X155830800Y-85936571D01*
X155811752Y-85879428D01*
X155811752Y-85841333D01*
X155830800Y-85784190D01*
X155849847Y-85765142D01*
X155811752Y-85631809D02*
X155811752Y-85384190D01*
X155964133Y-85517523D01*
X155964133Y-85460380D01*
X155983180Y-85422285D01*
X156002228Y-85403238D01*
X156040323Y-85384190D01*
X156135561Y-85384190D01*
X156173657Y-85403238D01*
X156192704Y-85422285D01*
X156211752Y-85460380D01*
X156211752Y-85574666D01*
X156192704Y-85612761D01*
X156173657Y-85631809D01*
X155811752Y-85136571D02*
X155811752Y-85098476D01*
X155830800Y-85060380D01*
X155849847Y-85041333D01*
X155887942Y-85022285D01*
X155964133Y-85003238D01*
X156059371Y-85003238D01*
X156135561Y-85022285D01*
X156173657Y-85041333D01*
X156192704Y-85060380D01*
X156211752Y-85098476D01*
X156211752Y-85136571D01*
X156192704Y-85174666D01*
X156173657Y-85193714D01*
X156135561Y-85212761D01*
X156059371Y-85231809D01*
X155964133Y-85231809D01*
X155887942Y-85212761D01*
X155849847Y-85193714D01*
X155830800Y-85174666D01*
X155811752Y-85136571D01*
D10*
%TO.C,C6*%
X158756990Y-89167523D02*
X158756990Y-89453238D01*
X158756990Y-89310380D02*
X158256990Y-89310380D01*
X158328419Y-89358000D01*
X158376038Y-89405619D01*
X158399847Y-89453238D01*
X158256990Y-88858000D02*
X158256990Y-88810380D01*
X158280800Y-88762761D01*
X158304609Y-88738952D01*
X158352228Y-88715142D01*
X158447466Y-88691333D01*
X158566514Y-88691333D01*
X158661752Y-88715142D01*
X158709371Y-88738952D01*
X158733180Y-88762761D01*
X158756990Y-88810380D01*
X158756990Y-88858000D01*
X158733180Y-88905619D01*
X158709371Y-88929428D01*
X158661752Y-88953238D01*
X158566514Y-88977047D01*
X158447466Y-88977047D01*
X158352228Y-88953238D01*
X158304609Y-88929428D01*
X158280800Y-88905619D01*
X158256990Y-88858000D01*
X158256990Y-88381809D02*
X158256990Y-88334190D01*
X158280800Y-88286571D01*
X158304609Y-88262761D01*
X158352228Y-88238952D01*
X158447466Y-88215142D01*
X158566514Y-88215142D01*
X158661752Y-88238952D01*
X158709371Y-88262761D01*
X158733180Y-88286571D01*
X158756990Y-88334190D01*
X158756990Y-88381809D01*
X158733180Y-88429428D01*
X158709371Y-88453238D01*
X158661752Y-88477047D01*
X158566514Y-88500857D01*
X158447466Y-88500857D01*
X158352228Y-88477047D01*
X158304609Y-88453238D01*
X158280800Y-88429428D01*
X158256990Y-88381809D01*
X158423657Y-88000857D02*
X158756990Y-88000857D01*
X158471276Y-88000857D02*
X158447466Y-87977047D01*
X158423657Y-87929428D01*
X158423657Y-87858000D01*
X158447466Y-87810380D01*
X158495085Y-87786571D01*
X158756990Y-87786571D01*
D12*
X157773657Y-88674666D02*
X157792704Y-88693714D01*
X157811752Y-88750857D01*
X157811752Y-88788952D01*
X157792704Y-88846095D01*
X157754609Y-88884190D01*
X157716514Y-88903238D01*
X157640323Y-88922285D01*
X157583180Y-88922285D01*
X157506990Y-88903238D01*
X157468895Y-88884190D01*
X157430800Y-88846095D01*
X157411752Y-88788952D01*
X157411752Y-88750857D01*
X157430800Y-88693714D01*
X157449847Y-88674666D01*
X157411752Y-88331809D02*
X157411752Y-88408000D01*
X157430800Y-88446095D01*
X157449847Y-88465142D01*
X157506990Y-88503238D01*
X157583180Y-88522285D01*
X157735561Y-88522285D01*
X157773657Y-88503238D01*
X157792704Y-88484190D01*
X157811752Y-88446095D01*
X157811752Y-88369904D01*
X157792704Y-88331809D01*
X157773657Y-88312761D01*
X157735561Y-88293714D01*
X157640323Y-88293714D01*
X157602228Y-88312761D01*
X157583180Y-88331809D01*
X157564133Y-88369904D01*
X157564133Y-88446095D01*
X157583180Y-88484190D01*
X157602228Y-88503238D01*
X157640323Y-88522285D01*
D11*
%TO.C,CONN5*%
X205985085Y-86489428D02*
X205985085Y-86276095D01*
X206320323Y-86184666D02*
X206320323Y-86489428D01*
X205680323Y-86489428D01*
X205680323Y-86184666D01*
X206320323Y-85971333D02*
X205893657Y-85636095D01*
X205893657Y-85971333D02*
X206320323Y-85636095D01*
X205893657Y-85483714D02*
X205893657Y-85239904D01*
X205680323Y-85392285D02*
X206228895Y-85392285D01*
X206289847Y-85361809D01*
X206320323Y-85300857D01*
X206320323Y-85239904D01*
X206289847Y-84782761D02*
X206320323Y-84843714D01*
X206320323Y-84965619D01*
X206289847Y-85026571D01*
X206228895Y-85057047D01*
X205985085Y-85057047D01*
X205924133Y-85026571D01*
X205893657Y-84965619D01*
X205893657Y-84843714D01*
X205924133Y-84782761D01*
X205985085Y-84752285D01*
X206046038Y-84752285D01*
X206106990Y-85057047D01*
X206320323Y-84478000D02*
X205893657Y-84478000D01*
X206015561Y-84478000D02*
X205954609Y-84447523D01*
X205924133Y-84417047D01*
X205893657Y-84356095D01*
X205893657Y-84295142D01*
X205893657Y-84081809D02*
X206320323Y-84081809D01*
X205954609Y-84081809D02*
X205924133Y-84051333D01*
X205893657Y-83990380D01*
X205893657Y-83898952D01*
X205924133Y-83838000D01*
X205985085Y-83807523D01*
X206320323Y-83807523D01*
X206320323Y-83228476D02*
X205985085Y-83228476D01*
X205924133Y-83258952D01*
X205893657Y-83319904D01*
X205893657Y-83441809D01*
X205924133Y-83502761D01*
X206289847Y-83228476D02*
X206320323Y-83289428D01*
X206320323Y-83441809D01*
X206289847Y-83502761D01*
X206228895Y-83533238D01*
X206167942Y-83533238D01*
X206106990Y-83502761D01*
X206076514Y-83441809D01*
X206076514Y-83289428D01*
X206046038Y-83228476D01*
X206320323Y-82832285D02*
X206289847Y-82893238D01*
X206228895Y-82923714D01*
X205680323Y-82923714D01*
X206137466Y-82131333D02*
X206137466Y-81826571D01*
X206320323Y-82192285D02*
X205680323Y-81978952D01*
X206320323Y-81765619D01*
X205893657Y-81552285D02*
X206320323Y-81552285D01*
X205954609Y-81552285D02*
X205924133Y-81521809D01*
X205893657Y-81460857D01*
X205893657Y-81369428D01*
X205924133Y-81308476D01*
X205985085Y-81278000D01*
X206320323Y-81278000D01*
X205893657Y-81064666D02*
X205893657Y-80820857D01*
X205680323Y-80973238D02*
X206228895Y-80973238D01*
X206289847Y-80942761D01*
X206320323Y-80881809D01*
X206320323Y-80820857D01*
X206289847Y-80363714D02*
X206320323Y-80424666D01*
X206320323Y-80546571D01*
X206289847Y-80607523D01*
X206228895Y-80638000D01*
X205985085Y-80638000D01*
X205924133Y-80607523D01*
X205893657Y-80546571D01*
X205893657Y-80424666D01*
X205924133Y-80363714D01*
X205985085Y-80333238D01*
X206046038Y-80333238D01*
X206106990Y-80638000D01*
X205893657Y-80058952D02*
X206320323Y-80058952D01*
X205954609Y-80058952D02*
X205924133Y-80028476D01*
X205893657Y-79967523D01*
X205893657Y-79876095D01*
X205924133Y-79815142D01*
X205985085Y-79784666D01*
X206320323Y-79784666D01*
X205893657Y-79479904D02*
X206320323Y-79479904D01*
X205954609Y-79479904D02*
X205924133Y-79449428D01*
X205893657Y-79388476D01*
X205893657Y-79297047D01*
X205924133Y-79236095D01*
X205985085Y-79205619D01*
X206320323Y-79205619D01*
X206320323Y-78626571D02*
X205985085Y-78626571D01*
X205924133Y-78657047D01*
X205893657Y-78718000D01*
X205893657Y-78839904D01*
X205924133Y-78900857D01*
X206289847Y-78626571D02*
X206320323Y-78687523D01*
X206320323Y-78839904D01*
X206289847Y-78900857D01*
X206228895Y-78931333D01*
X206167942Y-78931333D01*
X206106990Y-78900857D01*
X206076514Y-78839904D01*
X206076514Y-78687523D01*
X206046038Y-78626571D01*
X190042704Y-80415142D02*
X189995085Y-80462761D01*
X189852228Y-80510380D01*
X189756990Y-80510380D01*
X189614133Y-80462761D01*
X189518895Y-80367523D01*
X189471276Y-80272285D01*
X189423657Y-80081809D01*
X189423657Y-79938952D01*
X189471276Y-79748476D01*
X189518895Y-79653238D01*
X189614133Y-79558000D01*
X189756990Y-79510380D01*
X189852228Y-79510380D01*
X189995085Y-79558000D01*
X190042704Y-79605619D01*
X190661752Y-79510380D02*
X190852228Y-79510380D01*
X190947466Y-79558000D01*
X191042704Y-79653238D01*
X191090323Y-79843714D01*
X191090323Y-80177047D01*
X191042704Y-80367523D01*
X190947466Y-80462761D01*
X190852228Y-80510380D01*
X190661752Y-80510380D01*
X190566514Y-80462761D01*
X190471276Y-80367523D01*
X190423657Y-80177047D01*
X190423657Y-79843714D01*
X190471276Y-79653238D01*
X190566514Y-79558000D01*
X190661752Y-79510380D01*
X191518895Y-80510380D02*
X191518895Y-79510380D01*
X192090323Y-80510380D01*
X192090323Y-79510380D01*
X192566514Y-80510380D02*
X192566514Y-79510380D01*
X193137942Y-80510380D01*
X193137942Y-79510380D01*
X194090323Y-79510380D02*
X193614133Y-79510380D01*
X193566514Y-79986571D01*
X193614133Y-79938952D01*
X193709371Y-79891333D01*
X193947466Y-79891333D01*
X194042704Y-79938952D01*
X194090323Y-79986571D01*
X194137942Y-80081809D01*
X194137942Y-80319904D01*
X194090323Y-80415142D01*
X194042704Y-80462761D01*
X193947466Y-80510380D01*
X193709371Y-80510380D01*
X193614133Y-80462761D01*
X193566514Y-80415142D01*
%TO.C,JP1*%
X149197466Y-96760380D02*
X149197466Y-97474666D01*
X149149847Y-97617523D01*
X149054609Y-97712761D01*
X148911752Y-97760380D01*
X148816514Y-97760380D01*
X149673657Y-97760380D02*
X149673657Y-96760380D01*
X150054609Y-96760380D01*
X150149847Y-96808000D01*
X150197466Y-96855619D01*
X150245085Y-96950857D01*
X150245085Y-97093714D01*
X150197466Y-97188952D01*
X150149847Y-97236571D01*
X150054609Y-97284190D01*
X149673657Y-97284190D01*
X151197466Y-97760380D02*
X150626038Y-97760380D01*
X150911752Y-97760380D02*
X150911752Y-96760380D01*
X150816514Y-96903238D01*
X150721276Y-96998476D01*
X150626038Y-97046095D01*
D10*
%TO.C,D1*%
X163661752Y-89034190D02*
X163661752Y-88534190D01*
X163780800Y-88534190D01*
X163852228Y-88558000D01*
X163899847Y-88605619D01*
X163923657Y-88653238D01*
X163947466Y-88748476D01*
X163947466Y-88819904D01*
X163923657Y-88915142D01*
X163899847Y-88962761D01*
X163852228Y-89010380D01*
X163780800Y-89034190D01*
X163661752Y-89034190D01*
X164423657Y-89034190D02*
X164137942Y-89034190D01*
X164280800Y-89034190D02*
X164280800Y-88534190D01*
X164233180Y-88605619D01*
X164185561Y-88653238D01*
X164137942Y-88677047D01*
D11*
%TO.C,L1*%
X173018895Y-91593714D02*
X173018895Y-92260380D01*
X172780800Y-91212761D02*
X172542704Y-91927047D01*
X173161752Y-91927047D01*
X173447466Y-91260380D02*
X174114133Y-91260380D01*
X173685561Y-92260380D01*
X174923657Y-91593714D02*
X174923657Y-92260380D01*
X174495085Y-91593714D02*
X174495085Y-92117523D01*
X174542704Y-92212761D01*
X174637942Y-92260380D01*
X174780800Y-92260380D01*
X174876038Y-92212761D01*
X174923657Y-92165142D01*
X175399847Y-92260380D02*
X175399847Y-91260380D01*
X175399847Y-91736571D02*
X175971276Y-91736571D01*
X175971276Y-92260380D02*
X175971276Y-91260380D01*
X174114133Y-90760380D02*
X173637942Y-90760380D01*
X173637942Y-89760380D01*
X174971276Y-90760380D02*
X174399847Y-90760380D01*
X174685561Y-90760380D02*
X174685561Y-89760380D01*
X174590323Y-89903238D01*
X174495085Y-89998476D01*
X174399847Y-90046095D01*
D10*
%TO.C,C12*%
X174483180Y-96784190D02*
X174197466Y-96784190D01*
X174340323Y-96784190D02*
X174340323Y-96284190D01*
X174292704Y-96355619D01*
X174245085Y-96403238D01*
X174197466Y-96427047D01*
X174911752Y-96450857D02*
X174911752Y-96784190D01*
X174697466Y-96450857D02*
X174697466Y-96712761D01*
X174721276Y-96760380D01*
X174768895Y-96784190D01*
X174840323Y-96784190D01*
X174887942Y-96760380D01*
X174911752Y-96736571D01*
X175316514Y-96522285D02*
X175149847Y-96522285D01*
X175149847Y-96784190D02*
X175149847Y-96284190D01*
X175387942Y-96284190D01*
D12*
X175173657Y-95565142D02*
X175192704Y-95584190D01*
X175211752Y-95641333D01*
X175211752Y-95679428D01*
X175192704Y-95736571D01*
X175154609Y-95774666D01*
X175116514Y-95793714D01*
X175040323Y-95812761D01*
X174983180Y-95812761D01*
X174906990Y-95793714D01*
X174868895Y-95774666D01*
X174830800Y-95736571D01*
X174811752Y-95679428D01*
X174811752Y-95641333D01*
X174830800Y-95584190D01*
X174849847Y-95565142D01*
X175211752Y-95184190D02*
X175211752Y-95412761D01*
X175211752Y-95298476D02*
X174811752Y-95298476D01*
X174868895Y-95336571D01*
X174906990Y-95374666D01*
X174926038Y-95412761D01*
X174849847Y-95031809D02*
X174830800Y-95012761D01*
X174811752Y-94974666D01*
X174811752Y-94879428D01*
X174830800Y-94841333D01*
X174849847Y-94822285D01*
X174887942Y-94803238D01*
X174926038Y-94803238D01*
X174983180Y-94822285D01*
X175211752Y-95050857D01*
X175211752Y-94803238D01*
D10*
%TO.C,C29*%
X154923657Y-88977047D02*
X155256990Y-88977047D01*
X154733180Y-89096095D02*
X155090323Y-89215142D01*
X155090323Y-88905619D01*
X154923657Y-88500857D02*
X155256990Y-88500857D01*
X154923657Y-88715142D02*
X155185561Y-88715142D01*
X155233180Y-88691333D01*
X155256990Y-88643714D01*
X155256990Y-88572285D01*
X155233180Y-88524666D01*
X155209371Y-88500857D01*
X154756990Y-88310380D02*
X154756990Y-87977047D01*
X155256990Y-88191333D01*
D12*
X156173657Y-88865142D02*
X156192704Y-88884190D01*
X156211752Y-88941333D01*
X156211752Y-88979428D01*
X156192704Y-89036571D01*
X156154609Y-89074666D01*
X156116514Y-89093714D01*
X156040323Y-89112761D01*
X155983180Y-89112761D01*
X155906990Y-89093714D01*
X155868895Y-89074666D01*
X155830800Y-89036571D01*
X155811752Y-88979428D01*
X155811752Y-88941333D01*
X155830800Y-88884190D01*
X155849847Y-88865142D01*
X155849847Y-88712761D02*
X155830800Y-88693714D01*
X155811752Y-88655619D01*
X155811752Y-88560380D01*
X155830800Y-88522285D01*
X155849847Y-88503238D01*
X155887942Y-88484190D01*
X155926038Y-88484190D01*
X155983180Y-88503238D01*
X156211752Y-88731809D01*
X156211752Y-88484190D01*
X156211752Y-88293714D02*
X156211752Y-88217523D01*
X156192704Y-88179428D01*
X156173657Y-88160380D01*
X156116514Y-88122285D01*
X156040323Y-88103238D01*
X155887942Y-88103238D01*
X155849847Y-88122285D01*
X155830800Y-88141333D01*
X155811752Y-88179428D01*
X155811752Y-88255619D01*
X155830800Y-88293714D01*
X155849847Y-88312761D01*
X155887942Y-88331809D01*
X155983180Y-88331809D01*
X156021276Y-88312761D01*
X156040323Y-88293714D01*
X156059371Y-88255619D01*
X156059371Y-88179428D01*
X156040323Y-88141333D01*
X156021276Y-88122285D01*
X155983180Y-88103238D01*
D10*
%TO.C,C27*%
X166661752Y-68450857D02*
X166661752Y-68784190D01*
X166542704Y-68260380D02*
X166423657Y-68617523D01*
X166733180Y-68617523D01*
X167137942Y-68450857D02*
X167137942Y-68784190D01*
X166923657Y-68450857D02*
X166923657Y-68712761D01*
X166947466Y-68760380D01*
X166995085Y-68784190D01*
X167066514Y-68784190D01*
X167114133Y-68760380D01*
X167137942Y-68736571D01*
X167328419Y-68284190D02*
X167661752Y-68284190D01*
X167447466Y-68784190D01*
D12*
X168523657Y-68700857D02*
X168504609Y-68719904D01*
X168447466Y-68738952D01*
X168409371Y-68738952D01*
X168352228Y-68719904D01*
X168314133Y-68681809D01*
X168295085Y-68643714D01*
X168276038Y-68567523D01*
X168276038Y-68510380D01*
X168295085Y-68434190D01*
X168314133Y-68396095D01*
X168352228Y-68358000D01*
X168409371Y-68338952D01*
X168447466Y-68338952D01*
X168504609Y-68358000D01*
X168523657Y-68377047D01*
X168676038Y-68377047D02*
X168695085Y-68358000D01*
X168733180Y-68338952D01*
X168828419Y-68338952D01*
X168866514Y-68358000D01*
X168885561Y-68377047D01*
X168904609Y-68415142D01*
X168904609Y-68453238D01*
X168885561Y-68510380D01*
X168656990Y-68738952D01*
X168904609Y-68738952D01*
X169037942Y-68338952D02*
X169304609Y-68338952D01*
X169133180Y-68738952D01*
D10*
%TO.C,D2*%
X166161752Y-87534190D02*
X166161752Y-87034190D01*
X166280800Y-87034190D01*
X166352228Y-87058000D01*
X166399847Y-87105619D01*
X166423657Y-87153238D01*
X166447466Y-87248476D01*
X166447466Y-87319904D01*
X166423657Y-87415142D01*
X166399847Y-87462761D01*
X166352228Y-87510380D01*
X166280800Y-87534190D01*
X166161752Y-87534190D01*
X166637942Y-87081809D02*
X166661752Y-87058000D01*
X166709371Y-87034190D01*
X166828419Y-87034190D01*
X166876038Y-87058000D01*
X166899847Y-87081809D01*
X166923657Y-87129428D01*
X166923657Y-87177047D01*
X166899847Y-87248476D01*
X166614133Y-87534190D01*
X166923657Y-87534190D01*
%TO.C,C24*%
X168411752Y-63950857D02*
X168411752Y-64284190D01*
X168292704Y-63760380D02*
X168173657Y-64117523D01*
X168483180Y-64117523D01*
X168887942Y-63950857D02*
X168887942Y-64284190D01*
X168673657Y-63950857D02*
X168673657Y-64212761D01*
X168697466Y-64260380D01*
X168745085Y-64284190D01*
X168816514Y-64284190D01*
X168864133Y-64260380D01*
X168887942Y-64236571D01*
X169078419Y-63784190D02*
X169411752Y-63784190D01*
X169197466Y-64284190D01*
D12*
X168523657Y-65200857D02*
X168504609Y-65219904D01*
X168447466Y-65238952D01*
X168409371Y-65238952D01*
X168352228Y-65219904D01*
X168314133Y-65181809D01*
X168295085Y-65143714D01*
X168276038Y-65067523D01*
X168276038Y-65010380D01*
X168295085Y-64934190D01*
X168314133Y-64896095D01*
X168352228Y-64858000D01*
X168409371Y-64838952D01*
X168447466Y-64838952D01*
X168504609Y-64858000D01*
X168523657Y-64877047D01*
X168676038Y-64877047D02*
X168695085Y-64858000D01*
X168733180Y-64838952D01*
X168828419Y-64838952D01*
X168866514Y-64858000D01*
X168885561Y-64877047D01*
X168904609Y-64915142D01*
X168904609Y-64953238D01*
X168885561Y-65010380D01*
X168656990Y-65238952D01*
X168904609Y-65238952D01*
X169247466Y-64972285D02*
X169247466Y-65238952D01*
X169152228Y-64819904D02*
X169056990Y-65105619D01*
X169304609Y-65105619D01*
D10*
%TO.C,R5*%
X145804609Y-90427047D02*
X145780800Y-90403238D01*
X145756990Y-90355619D01*
X145756990Y-90236571D01*
X145780800Y-90188952D01*
X145804609Y-90165142D01*
X145852228Y-90141333D01*
X145899847Y-90141333D01*
X145971276Y-90165142D01*
X146256990Y-90450857D01*
X146256990Y-90141333D01*
X145804609Y-89950857D02*
X145780800Y-89927047D01*
X145756990Y-89879428D01*
X145756990Y-89760380D01*
X145780800Y-89712761D01*
X145804609Y-89688952D01*
X145852228Y-89665142D01*
X145899847Y-89665142D01*
X145971276Y-89688952D01*
X146256990Y-89974666D01*
X146256990Y-89665142D01*
X146256990Y-89450857D02*
X145756990Y-89450857D01*
X146256990Y-89165142D02*
X145971276Y-89379428D01*
X145756990Y-89165142D02*
X146042704Y-89450857D01*
X146256990Y-88688952D02*
X146256990Y-88974666D01*
X146256990Y-88831809D02*
X145756990Y-88831809D01*
X145828419Y-88879428D01*
X145876038Y-88927047D01*
X145899847Y-88974666D01*
D12*
X147211752Y-89624666D02*
X147021276Y-89758000D01*
X147211752Y-89853238D02*
X146811752Y-89853238D01*
X146811752Y-89700857D01*
X146830800Y-89662761D01*
X146849847Y-89643714D01*
X146887942Y-89624666D01*
X146945085Y-89624666D01*
X146983180Y-89643714D01*
X147002228Y-89662761D01*
X147021276Y-89700857D01*
X147021276Y-89853238D01*
X146811752Y-89262761D02*
X146811752Y-89453238D01*
X147002228Y-89472285D01*
X146983180Y-89453238D01*
X146964133Y-89415142D01*
X146964133Y-89319904D01*
X146983180Y-89281809D01*
X147002228Y-89262761D01*
X147040323Y-89243714D01*
X147135561Y-89243714D01*
X147173657Y-89262761D01*
X147192704Y-89281809D01*
X147211752Y-89319904D01*
X147211752Y-89415142D01*
X147192704Y-89453238D01*
X147173657Y-89472285D01*
D10*
%TO.C,C14*%
X168983180Y-95034190D02*
X168697466Y-95034190D01*
X168840323Y-95034190D02*
X168840323Y-94534190D01*
X168792704Y-94605619D01*
X168745085Y-94653238D01*
X168697466Y-94677047D01*
X169411752Y-94700857D02*
X169411752Y-95034190D01*
X169197466Y-94700857D02*
X169197466Y-94962761D01*
X169221276Y-95010380D01*
X169268895Y-95034190D01*
X169340323Y-95034190D01*
X169387942Y-95010380D01*
X169411752Y-94986571D01*
X169816514Y-94772285D02*
X169649847Y-94772285D01*
X169649847Y-95034190D02*
X169649847Y-94534190D01*
X169887942Y-94534190D01*
D12*
X169423657Y-93765142D02*
X169442704Y-93784190D01*
X169461752Y-93841333D01*
X169461752Y-93879428D01*
X169442704Y-93936571D01*
X169404609Y-93974666D01*
X169366514Y-93993714D01*
X169290323Y-94012761D01*
X169233180Y-94012761D01*
X169156990Y-93993714D01*
X169118895Y-93974666D01*
X169080800Y-93936571D01*
X169061752Y-93879428D01*
X169061752Y-93841333D01*
X169080800Y-93784190D01*
X169099847Y-93765142D01*
X169461752Y-93384190D02*
X169461752Y-93612761D01*
X169461752Y-93498476D02*
X169061752Y-93498476D01*
X169118895Y-93536571D01*
X169156990Y-93574666D01*
X169176038Y-93612761D01*
X169195085Y-93041333D02*
X169461752Y-93041333D01*
X169042704Y-93136571D02*
X169328419Y-93231809D01*
X169328419Y-92984190D01*
D10*
%TO.C,C15*%
X165483180Y-96534190D02*
X165197466Y-96534190D01*
X165340323Y-96534190D02*
X165340323Y-96034190D01*
X165292704Y-96105619D01*
X165245085Y-96153238D01*
X165197466Y-96177047D01*
X165911752Y-96200857D02*
X165911752Y-96534190D01*
X165697466Y-96200857D02*
X165697466Y-96462761D01*
X165721276Y-96510380D01*
X165768895Y-96534190D01*
X165840323Y-96534190D01*
X165887942Y-96510380D01*
X165911752Y-96486571D01*
X166316514Y-96272285D02*
X166149847Y-96272285D01*
X166149847Y-96534190D02*
X166149847Y-96034190D01*
X166387942Y-96034190D01*
D12*
X165923657Y-95065142D02*
X165942704Y-95084190D01*
X165961752Y-95141333D01*
X165961752Y-95179428D01*
X165942704Y-95236571D01*
X165904609Y-95274666D01*
X165866514Y-95293714D01*
X165790323Y-95312761D01*
X165733180Y-95312761D01*
X165656990Y-95293714D01*
X165618895Y-95274666D01*
X165580800Y-95236571D01*
X165561752Y-95179428D01*
X165561752Y-95141333D01*
X165580800Y-95084190D01*
X165599847Y-95065142D01*
X165961752Y-94684190D02*
X165961752Y-94912761D01*
X165961752Y-94798476D02*
X165561752Y-94798476D01*
X165618895Y-94836571D01*
X165656990Y-94874666D01*
X165676038Y-94912761D01*
X165561752Y-94322285D02*
X165561752Y-94512761D01*
X165752228Y-94531809D01*
X165733180Y-94512761D01*
X165714133Y-94474666D01*
X165714133Y-94379428D01*
X165733180Y-94341333D01*
X165752228Y-94322285D01*
X165790323Y-94303238D01*
X165885561Y-94303238D01*
X165923657Y-94322285D01*
X165942704Y-94341333D01*
X165961752Y-94379428D01*
X165961752Y-94474666D01*
X165942704Y-94512761D01*
X165923657Y-94531809D01*
D10*
%TO.C,R6*%
X149923657Y-90188952D02*
X150256990Y-90188952D01*
X149733180Y-90308000D02*
X150090323Y-90427047D01*
X150090323Y-90117523D01*
X149756990Y-89974666D02*
X149756990Y-89641333D01*
X150256990Y-89855619D01*
X150256990Y-89450857D02*
X149756990Y-89450857D01*
X150256990Y-89165142D02*
X149971276Y-89379428D01*
X149756990Y-89165142D02*
X150042704Y-89450857D01*
X149756990Y-88712761D02*
X149756990Y-88950857D01*
X149995085Y-88974666D01*
X149971276Y-88950857D01*
X149947466Y-88903238D01*
X149947466Y-88784190D01*
X149971276Y-88736571D01*
X149995085Y-88712761D01*
X150042704Y-88688952D01*
X150161752Y-88688952D01*
X150209371Y-88712761D01*
X150233180Y-88736571D01*
X150256990Y-88784190D01*
X150256990Y-88903238D01*
X150233180Y-88950857D01*
X150209371Y-88974666D01*
D12*
X149211752Y-89624666D02*
X149021276Y-89758000D01*
X149211752Y-89853238D02*
X148811752Y-89853238D01*
X148811752Y-89700857D01*
X148830800Y-89662761D01*
X148849847Y-89643714D01*
X148887942Y-89624666D01*
X148945085Y-89624666D01*
X148983180Y-89643714D01*
X149002228Y-89662761D01*
X149021276Y-89700857D01*
X149021276Y-89853238D01*
X148811752Y-89281809D02*
X148811752Y-89358000D01*
X148830800Y-89396095D01*
X148849847Y-89415142D01*
X148906990Y-89453238D01*
X148983180Y-89472285D01*
X149135561Y-89472285D01*
X149173657Y-89453238D01*
X149192704Y-89434190D01*
X149211752Y-89396095D01*
X149211752Y-89319904D01*
X149192704Y-89281809D01*
X149173657Y-89262761D01*
X149135561Y-89243714D01*
X149040323Y-89243714D01*
X149002228Y-89262761D01*
X148983180Y-89281809D01*
X148964133Y-89319904D01*
X148964133Y-89396095D01*
X148983180Y-89434190D01*
X149002228Y-89453238D01*
X149040323Y-89472285D01*
D10*
%TO.C,R8*%
X151611752Y-80284190D02*
X151373657Y-80284190D01*
X151349847Y-80522285D01*
X151373657Y-80498476D01*
X151421276Y-80474666D01*
X151540323Y-80474666D01*
X151587942Y-80498476D01*
X151611752Y-80522285D01*
X151635561Y-80569904D01*
X151635561Y-80688952D01*
X151611752Y-80736571D01*
X151587942Y-80760380D01*
X151540323Y-80784190D01*
X151421276Y-80784190D01*
X151373657Y-80760380D01*
X151349847Y-80736571D01*
X151849847Y-80784190D02*
X151849847Y-80284190D01*
X152135561Y-80784190D02*
X151921276Y-80498476D01*
X152135561Y-80284190D02*
X151849847Y-80569904D01*
X152611752Y-80784190D02*
X152326038Y-80784190D01*
X152468895Y-80784190D02*
X152468895Y-80284190D01*
X152421276Y-80355619D01*
X152373657Y-80403238D01*
X152326038Y-80427047D01*
D12*
X151914133Y-81538952D02*
X151780800Y-81348476D01*
X151685561Y-81538952D02*
X151685561Y-81138952D01*
X151837942Y-81138952D01*
X151876038Y-81158000D01*
X151895085Y-81177047D01*
X151914133Y-81215142D01*
X151914133Y-81272285D01*
X151895085Y-81310380D01*
X151876038Y-81329428D01*
X151837942Y-81348476D01*
X151685561Y-81348476D01*
X152142704Y-81310380D02*
X152104609Y-81291333D01*
X152085561Y-81272285D01*
X152066514Y-81234190D01*
X152066514Y-81215142D01*
X152085561Y-81177047D01*
X152104609Y-81158000D01*
X152142704Y-81138952D01*
X152218895Y-81138952D01*
X152256990Y-81158000D01*
X152276038Y-81177047D01*
X152295085Y-81215142D01*
X152295085Y-81234190D01*
X152276038Y-81272285D01*
X152256990Y-81291333D01*
X152218895Y-81310380D01*
X152142704Y-81310380D01*
X152104609Y-81329428D01*
X152085561Y-81348476D01*
X152066514Y-81386571D01*
X152066514Y-81462761D01*
X152085561Y-81500857D01*
X152104609Y-81519904D01*
X152142704Y-81538952D01*
X152218895Y-81538952D01*
X152256990Y-81519904D01*
X152276038Y-81500857D01*
X152295085Y-81462761D01*
X152295085Y-81386571D01*
X152276038Y-81348476D01*
X152256990Y-81329428D01*
X152218895Y-81310380D01*
D10*
%TO.C,R2*%
X154513838Y-91534190D02*
X154823361Y-91534190D01*
X154656695Y-91724666D01*
X154728123Y-91724666D01*
X154775742Y-91748476D01*
X154799552Y-91772285D01*
X154823361Y-91819904D01*
X154823361Y-91938952D01*
X154799552Y-91986571D01*
X154775742Y-92010380D01*
X154728123Y-92034190D01*
X154585266Y-92034190D01*
X154537647Y-92010380D01*
X154513838Y-91986571D01*
X155037647Y-92034190D02*
X155037647Y-91534190D01*
X155323361Y-92034190D02*
X155109076Y-91748476D01*
X155323361Y-91534190D02*
X155037647Y-91819904D01*
X155490028Y-91534190D02*
X155799552Y-91534190D01*
X155632885Y-91724666D01*
X155704314Y-91724666D01*
X155751933Y-91748476D01*
X155775742Y-91772285D01*
X155799552Y-91819904D01*
X155799552Y-91938952D01*
X155775742Y-91986571D01*
X155751933Y-92010380D01*
X155704314Y-92034190D01*
X155561457Y-92034190D01*
X155513838Y-92010380D01*
X155490028Y-91986571D01*
D12*
X155101933Y-92838952D02*
X154968600Y-92648476D01*
X154873361Y-92838952D02*
X154873361Y-92438952D01*
X155025742Y-92438952D01*
X155063838Y-92458000D01*
X155082885Y-92477047D01*
X155101933Y-92515142D01*
X155101933Y-92572285D01*
X155082885Y-92610380D01*
X155063838Y-92629428D01*
X155025742Y-92648476D01*
X154873361Y-92648476D01*
X155254314Y-92477047D02*
X155273361Y-92458000D01*
X155311457Y-92438952D01*
X155406695Y-92438952D01*
X155444790Y-92458000D01*
X155463838Y-92477047D01*
X155482885Y-92515142D01*
X155482885Y-92553238D01*
X155463838Y-92610380D01*
X155235266Y-92838952D01*
X155482885Y-92838952D01*
D10*
%TO.C,CONN6*%
X173411752Y-61658000D02*
X173335561Y-61619904D01*
X173221276Y-61619904D01*
X173106990Y-61658000D01*
X173030800Y-61734190D01*
X172992704Y-61810380D01*
X172954609Y-61962761D01*
X172954609Y-62077047D01*
X172992704Y-62229428D01*
X173030800Y-62305619D01*
X173106990Y-62381809D01*
X173221276Y-62419904D01*
X173297466Y-62419904D01*
X173411752Y-62381809D01*
X173449847Y-62343714D01*
X173449847Y-62077047D01*
X173297466Y-62077047D01*
X173792704Y-62419904D02*
X173792704Y-61886571D01*
X173792704Y-62038952D02*
X173830800Y-61962761D01*
X173868895Y-61924666D01*
X173945085Y-61886571D01*
X174021276Y-61886571D01*
X174402228Y-62419904D02*
X174326038Y-62381809D01*
X174287942Y-62343714D01*
X174249847Y-62267523D01*
X174249847Y-62038952D01*
X174287942Y-61962761D01*
X174326038Y-61924666D01*
X174402228Y-61886571D01*
X174516514Y-61886571D01*
X174592704Y-61924666D01*
X174630800Y-61962761D01*
X174668895Y-62038952D01*
X174668895Y-62267523D01*
X174630800Y-62343714D01*
X174592704Y-62381809D01*
X174516514Y-62419904D01*
X174402228Y-62419904D01*
X174935561Y-61886571D02*
X175126038Y-62419904D01*
X175316514Y-61886571D01*
X175926038Y-62381809D02*
X175849847Y-62419904D01*
X175697466Y-62419904D01*
X175621276Y-62381809D01*
X175583180Y-62305619D01*
X175583180Y-62000857D01*
X175621276Y-61924666D01*
X175697466Y-61886571D01*
X175849847Y-61886571D01*
X175926038Y-61924666D01*
X175964133Y-62000857D01*
X175964133Y-62077047D01*
X175583180Y-62153238D01*
X176802228Y-61619904D02*
X177068895Y-62419904D01*
X177335561Y-61619904D01*
X177906990Y-62381809D02*
X177830800Y-62419904D01*
X177678419Y-62419904D01*
X177602228Y-62381809D01*
X177564133Y-62305619D01*
X177564133Y-62000857D01*
X177602228Y-61924666D01*
X177678419Y-61886571D01*
X177830800Y-61886571D01*
X177906990Y-61924666D01*
X177945085Y-62000857D01*
X177945085Y-62077047D01*
X177564133Y-62153238D01*
X178287942Y-62419904D02*
X178287942Y-61886571D01*
X178287942Y-62038952D02*
X178326038Y-61962761D01*
X178364133Y-61924666D01*
X178440323Y-61886571D01*
X178516514Y-61886571D01*
X178668895Y-61886571D02*
X178973657Y-61886571D01*
X178783180Y-61619904D02*
X178783180Y-62305619D01*
X178821276Y-62381809D01*
X178897466Y-62419904D01*
X178973657Y-62419904D01*
X179240323Y-62419904D02*
X179240323Y-61886571D01*
X179240323Y-61619904D02*
X179202228Y-61658000D01*
X179240323Y-61696095D01*
X179278419Y-61658000D01*
X179240323Y-61619904D01*
X179240323Y-61696095D01*
X179964133Y-62381809D02*
X179887942Y-62419904D01*
X179735561Y-62419904D01*
X179659371Y-62381809D01*
X179621276Y-62343714D01*
X179583180Y-62267523D01*
X179583180Y-62038952D01*
X179621276Y-61962761D01*
X179659371Y-61924666D01*
X179735561Y-61886571D01*
X179887942Y-61886571D01*
X179964133Y-61924666D01*
X180649847Y-62419904D02*
X180649847Y-62000857D01*
X180611752Y-61924666D01*
X180535561Y-61886571D01*
X180383180Y-61886571D01*
X180306990Y-61924666D01*
X180649847Y-62381809D02*
X180573657Y-62419904D01*
X180383180Y-62419904D01*
X180306990Y-62381809D01*
X180268895Y-62305619D01*
X180268895Y-62229428D01*
X180306990Y-62153238D01*
X180383180Y-62115142D01*
X180573657Y-62115142D01*
X180649847Y-62077047D01*
X181145085Y-62419904D02*
X181068895Y-62381809D01*
X181030800Y-62305619D01*
X181030800Y-61619904D01*
%TO.C,C21*%
X182923657Y-99227047D02*
X183256990Y-99227047D01*
X182733180Y-99346095D02*
X183090323Y-99465142D01*
X183090323Y-99155619D01*
X182923657Y-98750857D02*
X183256990Y-98750857D01*
X182923657Y-98965142D02*
X183185561Y-98965142D01*
X183233180Y-98941333D01*
X183256990Y-98893714D01*
X183256990Y-98822285D01*
X183233180Y-98774666D01*
X183209371Y-98750857D01*
X182756990Y-98560380D02*
X182756990Y-98227047D01*
X183256990Y-98441333D01*
D12*
X184173657Y-99115142D02*
X184192704Y-99134190D01*
X184211752Y-99191333D01*
X184211752Y-99229428D01*
X184192704Y-99286571D01*
X184154609Y-99324666D01*
X184116514Y-99343714D01*
X184040323Y-99362761D01*
X183983180Y-99362761D01*
X183906990Y-99343714D01*
X183868895Y-99324666D01*
X183830800Y-99286571D01*
X183811752Y-99229428D01*
X183811752Y-99191333D01*
X183830800Y-99134190D01*
X183849847Y-99115142D01*
X183849847Y-98962761D02*
X183830800Y-98943714D01*
X183811752Y-98905619D01*
X183811752Y-98810380D01*
X183830800Y-98772285D01*
X183849847Y-98753238D01*
X183887942Y-98734190D01*
X183926038Y-98734190D01*
X183983180Y-98753238D01*
X184211752Y-98981809D01*
X184211752Y-98734190D01*
X184211752Y-98353238D02*
X184211752Y-98581809D01*
X184211752Y-98467523D02*
X183811752Y-98467523D01*
X183868895Y-98505619D01*
X183906990Y-98543714D01*
X183926038Y-98581809D01*
D10*
%TO.C,C42*%
X149495085Y-96284190D02*
X149209371Y-96284190D01*
X149352228Y-96284190D02*
X149352228Y-95784190D01*
X149304609Y-95855619D01*
X149256990Y-95903238D01*
X149209371Y-95927047D01*
X149804609Y-95784190D02*
X149852228Y-95784190D01*
X149899847Y-95808000D01*
X149923657Y-95831809D01*
X149947466Y-95879428D01*
X149971276Y-95974666D01*
X149971276Y-96093714D01*
X149947466Y-96188952D01*
X149923657Y-96236571D01*
X149899847Y-96260380D01*
X149852228Y-96284190D01*
X149804609Y-96284190D01*
X149756990Y-96260380D01*
X149733180Y-96236571D01*
X149709371Y-96188952D01*
X149685561Y-96093714D01*
X149685561Y-95974666D01*
X149709371Y-95879428D01*
X149733180Y-95831809D01*
X149756990Y-95808000D01*
X149804609Y-95784190D01*
X150399847Y-95950857D02*
X150399847Y-96284190D01*
X150185561Y-95950857D02*
X150185561Y-96212761D01*
X150209371Y-96260380D01*
X150256990Y-96284190D01*
X150328419Y-96284190D01*
X150376038Y-96260380D01*
X150399847Y-96236571D01*
X150804609Y-96022285D02*
X150637942Y-96022285D01*
X150637942Y-96284190D02*
X150637942Y-95784190D01*
X150876038Y-95784190D01*
D12*
X149773657Y-95200857D02*
X149754609Y-95219904D01*
X149697466Y-95238952D01*
X149659371Y-95238952D01*
X149602228Y-95219904D01*
X149564133Y-95181809D01*
X149545085Y-95143714D01*
X149526038Y-95067523D01*
X149526038Y-95010380D01*
X149545085Y-94934190D01*
X149564133Y-94896095D01*
X149602228Y-94858000D01*
X149659371Y-94838952D01*
X149697466Y-94838952D01*
X149754609Y-94858000D01*
X149773657Y-94877047D01*
X150116514Y-94972285D02*
X150116514Y-95238952D01*
X150021276Y-94819904D02*
X149926038Y-95105619D01*
X150173657Y-95105619D01*
X150306990Y-94877047D02*
X150326038Y-94858000D01*
X150364133Y-94838952D01*
X150459371Y-94838952D01*
X150497466Y-94858000D01*
X150516514Y-94877047D01*
X150535561Y-94915142D01*
X150535561Y-94953238D01*
X150516514Y-95010380D01*
X150287942Y-95238952D01*
X150535561Y-95238952D01*
D14*
%TO.C,F3*%
X191930800Y-100786571D02*
X191830800Y-100786571D01*
X191830800Y-100943714D02*
X191830800Y-100643714D01*
X191973657Y-100643714D01*
X192059371Y-100643714D02*
X192245085Y-100643714D01*
X192145085Y-100758000D01*
X192187942Y-100758000D01*
X192216514Y-100772285D01*
X192230800Y-100786571D01*
X192245085Y-100815142D01*
X192245085Y-100886571D01*
X192230800Y-100915142D01*
X192216514Y-100929428D01*
X192187942Y-100943714D01*
X192102228Y-100943714D01*
X192073657Y-100929428D01*
X192059371Y-100915142D01*
D11*
%TO.C,U1*%
X153644695Y-95210380D02*
X153644695Y-96019904D01*
X153692314Y-96115142D01*
X153739933Y-96162761D01*
X153835171Y-96210380D01*
X154025647Y-96210380D01*
X154120885Y-96162761D01*
X154168504Y-96115142D01*
X154216123Y-96019904D01*
X154216123Y-95210380D01*
X155216123Y-96210380D02*
X154644695Y-96210380D01*
X154930409Y-96210380D02*
X154930409Y-95210380D01*
X154835171Y-95353238D01*
X154739933Y-95448476D01*
X154644695Y-95496095D01*
%TO.C,D4*%
X147078419Y-75069904D02*
X148078419Y-75069904D01*
X148078419Y-75308000D01*
X148030800Y-75450857D01*
X147935561Y-75546095D01*
X147840323Y-75593714D01*
X147649847Y-75641333D01*
X147506990Y-75641333D01*
X147316514Y-75593714D01*
X147221276Y-75546095D01*
X147126038Y-75450857D01*
X147078419Y-75308000D01*
X147078419Y-75069904D01*
X147745085Y-76498476D02*
X147078419Y-76498476D01*
X148126038Y-76260380D02*
X147411752Y-76022285D01*
X147411752Y-76641333D01*
%TO.C,U8*%
X175518895Y-68760380D02*
X175518895Y-69569904D01*
X175566514Y-69665142D01*
X175614133Y-69712761D01*
X175709371Y-69760380D01*
X175899847Y-69760380D01*
X175995085Y-69712761D01*
X176042704Y-69665142D01*
X176090323Y-69569904D01*
X176090323Y-68760380D01*
X176709371Y-69188952D02*
X176614133Y-69141333D01*
X176566514Y-69093714D01*
X176518895Y-68998476D01*
X176518895Y-68950857D01*
X176566514Y-68855619D01*
X176614133Y-68808000D01*
X176709371Y-68760380D01*
X176899847Y-68760380D01*
X176995085Y-68808000D01*
X177042704Y-68855619D01*
X177090323Y-68950857D01*
X177090323Y-68998476D01*
X177042704Y-69093714D01*
X176995085Y-69141333D01*
X176899847Y-69188952D01*
X176709371Y-69188952D01*
X176614133Y-69236571D01*
X176566514Y-69284190D01*
X176518895Y-69379428D01*
X176518895Y-69569904D01*
X176566514Y-69665142D01*
X176614133Y-69712761D01*
X176709371Y-69760380D01*
X176899847Y-69760380D01*
X176995085Y-69712761D01*
X177042704Y-69665142D01*
X177090323Y-69569904D01*
X177090323Y-69379428D01*
X177042704Y-69284190D01*
X176995085Y-69236571D01*
X176899847Y-69188952D01*
%TO.C,CONN2*%
X156087942Y-104796095D02*
X156135561Y-104843714D01*
X156183180Y-104986571D01*
X156183180Y-105081809D01*
X156135561Y-105224666D01*
X156040323Y-105319904D01*
X155945085Y-105367523D01*
X155754609Y-105415142D01*
X155611752Y-105415142D01*
X155421276Y-105367523D01*
X155326038Y-105319904D01*
X155230800Y-105224666D01*
X155183180Y-105081809D01*
X155183180Y-104986571D01*
X155230800Y-104843714D01*
X155278419Y-104796095D01*
X155183180Y-104177047D02*
X155183180Y-103986571D01*
X155230800Y-103891333D01*
X155326038Y-103796095D01*
X155516514Y-103748476D01*
X155849847Y-103748476D01*
X156040323Y-103796095D01*
X156135561Y-103891333D01*
X156183180Y-103986571D01*
X156183180Y-104177047D01*
X156135561Y-104272285D01*
X156040323Y-104367523D01*
X155849847Y-104415142D01*
X155516514Y-104415142D01*
X155326038Y-104367523D01*
X155230800Y-104272285D01*
X155183180Y-104177047D01*
X156183180Y-103319904D02*
X155183180Y-103319904D01*
X156183180Y-102748476D01*
X155183180Y-102748476D01*
X156183180Y-102272285D02*
X155183180Y-102272285D01*
X156183180Y-101700857D01*
X155183180Y-101700857D01*
X155278419Y-101272285D02*
X155230800Y-101224666D01*
X155183180Y-101129428D01*
X155183180Y-100891333D01*
X155230800Y-100796095D01*
X155278419Y-100748476D01*
X155373657Y-100700857D01*
X155468895Y-100700857D01*
X155611752Y-100748476D01*
X156183180Y-101319904D01*
X156183180Y-100700857D01*
D10*
%TO.C,R11*%
X165756990Y-80177047D02*
X165756990Y-80415142D01*
X165995085Y-80438952D01*
X165971276Y-80415142D01*
X165947466Y-80367523D01*
X165947466Y-80248476D01*
X165971276Y-80200857D01*
X165995085Y-80177047D01*
X166042704Y-80153238D01*
X166161752Y-80153238D01*
X166209371Y-80177047D01*
X166233180Y-80200857D01*
X166256990Y-80248476D01*
X166256990Y-80367523D01*
X166233180Y-80415142D01*
X166209371Y-80438952D01*
X166256990Y-79938952D02*
X165756990Y-79938952D01*
X166256990Y-79653238D02*
X165971276Y-79867523D01*
X165756990Y-79653238D02*
X166042704Y-79938952D01*
X166256990Y-79177047D02*
X166256990Y-79462761D01*
X166256990Y-79319904D02*
X165756990Y-79319904D01*
X165828419Y-79367523D01*
X165876038Y-79415142D01*
X165899847Y-79462761D01*
D12*
X167273657Y-79988952D02*
X167140323Y-79798476D01*
X167045085Y-79988952D02*
X167045085Y-79588952D01*
X167197466Y-79588952D01*
X167235561Y-79608000D01*
X167254609Y-79627047D01*
X167273657Y-79665142D01*
X167273657Y-79722285D01*
X167254609Y-79760380D01*
X167235561Y-79779428D01*
X167197466Y-79798476D01*
X167045085Y-79798476D01*
X167654609Y-79988952D02*
X167426038Y-79988952D01*
X167540323Y-79988952D02*
X167540323Y-79588952D01*
X167502228Y-79646095D01*
X167464133Y-79684190D01*
X167426038Y-79703238D01*
X168035561Y-79988952D02*
X167806990Y-79988952D01*
X167921276Y-79988952D02*
X167921276Y-79588952D01*
X167883180Y-79646095D01*
X167845085Y-79684190D01*
X167806990Y-79703238D01*
D10*
%TO.C,C26*%
X165673657Y-76177047D02*
X166006990Y-76177047D01*
X165483180Y-76296095D02*
X165840323Y-76415142D01*
X165840323Y-76105619D01*
X165673657Y-75700857D02*
X166006990Y-75700857D01*
X165673657Y-75915142D02*
X165935561Y-75915142D01*
X165983180Y-75891333D01*
X166006990Y-75843714D01*
X166006990Y-75772285D01*
X165983180Y-75724666D01*
X165959371Y-75700857D01*
X165506990Y-75510380D02*
X165506990Y-75177047D01*
X166006990Y-75391333D01*
D12*
X166923657Y-76065142D02*
X166942704Y-76084190D01*
X166961752Y-76141333D01*
X166961752Y-76179428D01*
X166942704Y-76236571D01*
X166904609Y-76274666D01*
X166866514Y-76293714D01*
X166790323Y-76312761D01*
X166733180Y-76312761D01*
X166656990Y-76293714D01*
X166618895Y-76274666D01*
X166580800Y-76236571D01*
X166561752Y-76179428D01*
X166561752Y-76141333D01*
X166580800Y-76084190D01*
X166599847Y-76065142D01*
X166599847Y-75912761D02*
X166580800Y-75893714D01*
X166561752Y-75855619D01*
X166561752Y-75760380D01*
X166580800Y-75722285D01*
X166599847Y-75703238D01*
X166637942Y-75684190D01*
X166676038Y-75684190D01*
X166733180Y-75703238D01*
X166961752Y-75931809D01*
X166961752Y-75684190D01*
X166561752Y-75341333D02*
X166561752Y-75417523D01*
X166580800Y-75455619D01*
X166599847Y-75474666D01*
X166656990Y-75512761D01*
X166733180Y-75531809D01*
X166885561Y-75531809D01*
X166923657Y-75512761D01*
X166942704Y-75493714D01*
X166961752Y-75455619D01*
X166961752Y-75379428D01*
X166942704Y-75341333D01*
X166923657Y-75322285D01*
X166885561Y-75303238D01*
X166790323Y-75303238D01*
X166752228Y-75322285D01*
X166733180Y-75341333D01*
X166714133Y-75379428D01*
X166714133Y-75455619D01*
X166733180Y-75493714D01*
X166752228Y-75512761D01*
X166790323Y-75531809D01*
D10*
%TO.C,R1*%
X177899847Y-93831809D02*
X177923657Y-93808000D01*
X177971276Y-93784190D01*
X178090323Y-93784190D01*
X178137942Y-93808000D01*
X178161752Y-93831809D01*
X178185561Y-93879428D01*
X178185561Y-93927047D01*
X178161752Y-93998476D01*
X177876038Y-94284190D01*
X178185561Y-94284190D01*
X178685561Y-94284190D02*
X178518895Y-94046095D01*
X178399847Y-94284190D02*
X178399847Y-93784190D01*
X178590323Y-93784190D01*
X178637942Y-93808000D01*
X178661752Y-93831809D01*
X178685561Y-93879428D01*
X178685561Y-93950857D01*
X178661752Y-93998476D01*
X178637942Y-94022285D01*
X178590323Y-94046095D01*
X178399847Y-94046095D01*
X178876038Y-93831809D02*
X178899847Y-93808000D01*
X178947466Y-93784190D01*
X179066514Y-93784190D01*
X179114133Y-93808000D01*
X179137942Y-93831809D01*
X179161752Y-93879428D01*
X179161752Y-93927047D01*
X179137942Y-93998476D01*
X178852228Y-94284190D01*
X179161752Y-94284190D01*
D12*
X178811752Y-95374666D02*
X178621276Y-95508000D01*
X178811752Y-95603238D02*
X178411752Y-95603238D01*
X178411752Y-95450857D01*
X178430800Y-95412761D01*
X178449847Y-95393714D01*
X178487942Y-95374666D01*
X178545085Y-95374666D01*
X178583180Y-95393714D01*
X178602228Y-95412761D01*
X178621276Y-95450857D01*
X178621276Y-95603238D01*
X178811752Y-94993714D02*
X178811752Y-95222285D01*
X178811752Y-95108000D02*
X178411752Y-95108000D01*
X178468895Y-95146095D01*
X178506990Y-95184190D01*
X178526038Y-95222285D01*
D11*
%TO.C,CONN4*%
X144422857Y-81065904D02*
X144375238Y-81018285D01*
X144327619Y-80875428D01*
X144327619Y-80780190D01*
X144375238Y-80637333D01*
X144470476Y-80542095D01*
X144565714Y-80494476D01*
X144756190Y-80446857D01*
X144899047Y-80446857D01*
X145089523Y-80494476D01*
X145184761Y-80542095D01*
X145280000Y-80637333D01*
X145327619Y-80780190D01*
X145327619Y-80875428D01*
X145280000Y-81018285D01*
X145232380Y-81065904D01*
X145327619Y-81684952D02*
X145327619Y-81875428D01*
X145280000Y-81970666D01*
X145184761Y-82065904D01*
X144994285Y-82113523D01*
X144660952Y-82113523D01*
X144470476Y-82065904D01*
X144375238Y-81970666D01*
X144327619Y-81875428D01*
X144327619Y-81684952D01*
X144375238Y-81589714D01*
X144470476Y-81494476D01*
X144660952Y-81446857D01*
X144994285Y-81446857D01*
X145184761Y-81494476D01*
X145280000Y-81589714D01*
X145327619Y-81684952D01*
X144327619Y-82542095D02*
X145327619Y-82542095D01*
X144327619Y-83113523D01*
X145327619Y-83113523D01*
X144327619Y-83589714D02*
X145327619Y-83589714D01*
X144327619Y-84161142D01*
X145327619Y-84161142D01*
X144994285Y-85065904D02*
X144327619Y-85065904D01*
X145375238Y-84827809D02*
X144660952Y-84589714D01*
X144660952Y-85208761D01*
D14*
%TO.C,F2*%
X145430800Y-100786571D02*
X145330800Y-100786571D01*
X145330800Y-100943714D02*
X145330800Y-100643714D01*
X145473657Y-100643714D01*
X145573657Y-100672285D02*
X145587942Y-100658000D01*
X145616514Y-100643714D01*
X145687942Y-100643714D01*
X145716514Y-100658000D01*
X145730800Y-100672285D01*
X145745085Y-100700857D01*
X145745085Y-100729428D01*
X145730800Y-100772285D01*
X145559371Y-100943714D01*
X145745085Y-100943714D01*
D10*
%TO.C,C5*%
X188506990Y-97867523D02*
X188506990Y-98153238D01*
X188506990Y-98010380D02*
X188006990Y-98010380D01*
X188078419Y-98058000D01*
X188126038Y-98105619D01*
X188149847Y-98153238D01*
X188006990Y-97558000D02*
X188006990Y-97510380D01*
X188030800Y-97462761D01*
X188054609Y-97438952D01*
X188102228Y-97415142D01*
X188197466Y-97391333D01*
X188316514Y-97391333D01*
X188411752Y-97415142D01*
X188459371Y-97438952D01*
X188483180Y-97462761D01*
X188506990Y-97510380D01*
X188506990Y-97558000D01*
X188483180Y-97605619D01*
X188459371Y-97629428D01*
X188411752Y-97653238D01*
X188316514Y-97677047D01*
X188197466Y-97677047D01*
X188102228Y-97653238D01*
X188054609Y-97629428D01*
X188030800Y-97605619D01*
X188006990Y-97558000D01*
X188006990Y-97081809D02*
X188006990Y-97034190D01*
X188030800Y-96986571D01*
X188054609Y-96962761D01*
X188102228Y-96938952D01*
X188197466Y-96915142D01*
X188316514Y-96915142D01*
X188411752Y-96938952D01*
X188459371Y-96962761D01*
X188483180Y-96986571D01*
X188506990Y-97034190D01*
X188506990Y-97081809D01*
X188483180Y-97129428D01*
X188459371Y-97153238D01*
X188411752Y-97177047D01*
X188316514Y-97200857D01*
X188197466Y-97200857D01*
X188102228Y-97177047D01*
X188054609Y-97153238D01*
X188030800Y-97129428D01*
X188006990Y-97081809D01*
X188173657Y-96700857D02*
X188506990Y-96700857D01*
X188221276Y-96700857D02*
X188197466Y-96677047D01*
X188173657Y-96629428D01*
X188173657Y-96558000D01*
X188197466Y-96510380D01*
X188245085Y-96486571D01*
X188506990Y-96486571D01*
D12*
X187423657Y-97374666D02*
X187442704Y-97393714D01*
X187461752Y-97450857D01*
X187461752Y-97488952D01*
X187442704Y-97546095D01*
X187404609Y-97584190D01*
X187366514Y-97603238D01*
X187290323Y-97622285D01*
X187233180Y-97622285D01*
X187156990Y-97603238D01*
X187118895Y-97584190D01*
X187080800Y-97546095D01*
X187061752Y-97488952D01*
X187061752Y-97450857D01*
X187080800Y-97393714D01*
X187099847Y-97374666D01*
X187061752Y-97012761D02*
X187061752Y-97203238D01*
X187252228Y-97222285D01*
X187233180Y-97203238D01*
X187214133Y-97165142D01*
X187214133Y-97069904D01*
X187233180Y-97031809D01*
X187252228Y-97012761D01*
X187290323Y-96993714D01*
X187385561Y-96993714D01*
X187423657Y-97012761D01*
X187442704Y-97031809D01*
X187461752Y-97069904D01*
X187461752Y-97165142D01*
X187442704Y-97203238D01*
X187423657Y-97222285D01*
D13*
%TO.C,SW1*%
X186233180Y-61474666D02*
X186256990Y-61403238D01*
X186256990Y-61284190D01*
X186233180Y-61236571D01*
X186209371Y-61212761D01*
X186161752Y-61188952D01*
X186114133Y-61188952D01*
X186066514Y-61212761D01*
X186042704Y-61236571D01*
X186018895Y-61284190D01*
X185995085Y-61379428D01*
X185971276Y-61427047D01*
X185947466Y-61450857D01*
X185899847Y-61474666D01*
X185852228Y-61474666D01*
X185804609Y-61450857D01*
X185780800Y-61427047D01*
X185756990Y-61379428D01*
X185756990Y-61260380D01*
X185780800Y-61188952D01*
X185756990Y-61022285D02*
X186256990Y-60903238D01*
X185899847Y-60808000D01*
X186256990Y-60712761D01*
X185756990Y-60593714D01*
X186256990Y-60141333D02*
X186256990Y-60427047D01*
X186256990Y-60284190D02*
X185756990Y-60284190D01*
X185828419Y-60331809D01*
X185876038Y-60379428D01*
X185899847Y-60427047D01*
D11*
%TO.C,TP1*%
X143768895Y-97558000D02*
X143673657Y-97510380D01*
X143530800Y-97510380D01*
X143387942Y-97558000D01*
X143292704Y-97653238D01*
X143245085Y-97748476D01*
X143197466Y-97938952D01*
X143197466Y-98081809D01*
X143245085Y-98272285D01*
X143292704Y-98367523D01*
X143387942Y-98462761D01*
X143530800Y-98510380D01*
X143626038Y-98510380D01*
X143768895Y-98462761D01*
X143816514Y-98415142D01*
X143816514Y-98081809D01*
X143626038Y-98081809D01*
X144245085Y-98510380D02*
X144245085Y-97510380D01*
X144816514Y-98510380D01*
X144816514Y-97510380D01*
X145292704Y-98510380D02*
X145292704Y-97510380D01*
X145530800Y-97510380D01*
X145673657Y-97558000D01*
X145768895Y-97653238D01*
X145816514Y-97748476D01*
X145864133Y-97938952D01*
X145864133Y-98081809D01*
X145816514Y-98272285D01*
X145768895Y-98367523D01*
X145673657Y-98462761D01*
X145530800Y-98510380D01*
X145292704Y-98510380D01*
D10*
%TO.C,CONN8*%
X151911752Y-61658000D02*
X151835561Y-61619904D01*
X151721276Y-61619904D01*
X151606990Y-61658000D01*
X151530800Y-61734190D01*
X151492704Y-61810380D01*
X151454609Y-61962761D01*
X151454609Y-62077047D01*
X151492704Y-62229428D01*
X151530800Y-62305619D01*
X151606990Y-62381809D01*
X151721276Y-62419904D01*
X151797466Y-62419904D01*
X151911752Y-62381809D01*
X151949847Y-62343714D01*
X151949847Y-62077047D01*
X151797466Y-62077047D01*
X152292704Y-62419904D02*
X152292704Y-61886571D01*
X152292704Y-62038952D02*
X152330800Y-61962761D01*
X152368895Y-61924666D01*
X152445085Y-61886571D01*
X152521276Y-61886571D01*
X152902228Y-62419904D02*
X152826038Y-62381809D01*
X152787942Y-62343714D01*
X152749847Y-62267523D01*
X152749847Y-62038952D01*
X152787942Y-61962761D01*
X152826038Y-61924666D01*
X152902228Y-61886571D01*
X153016514Y-61886571D01*
X153092704Y-61924666D01*
X153130800Y-61962761D01*
X153168895Y-62038952D01*
X153168895Y-62267523D01*
X153130800Y-62343714D01*
X153092704Y-62381809D01*
X153016514Y-62419904D01*
X152902228Y-62419904D01*
X153435561Y-61886571D02*
X153626038Y-62419904D01*
X153816514Y-61886571D01*
X154426038Y-62381809D02*
X154349847Y-62419904D01*
X154197466Y-62419904D01*
X154121276Y-62381809D01*
X154083180Y-62305619D01*
X154083180Y-62000857D01*
X154121276Y-61924666D01*
X154197466Y-61886571D01*
X154349847Y-61886571D01*
X154426038Y-61924666D01*
X154464133Y-62000857D01*
X154464133Y-62077047D01*
X154083180Y-62153238D01*
X155302228Y-61619904D02*
X155568895Y-62419904D01*
X155835561Y-61619904D01*
X156406990Y-62381809D02*
X156330800Y-62419904D01*
X156178419Y-62419904D01*
X156102228Y-62381809D01*
X156064133Y-62305619D01*
X156064133Y-62000857D01*
X156102228Y-61924666D01*
X156178419Y-61886571D01*
X156330800Y-61886571D01*
X156406990Y-61924666D01*
X156445085Y-62000857D01*
X156445085Y-62077047D01*
X156064133Y-62153238D01*
X156787942Y-62419904D02*
X156787942Y-61886571D01*
X156787942Y-62038952D02*
X156826038Y-61962761D01*
X156864133Y-61924666D01*
X156940323Y-61886571D01*
X157016514Y-61886571D01*
X157168895Y-61886571D02*
X157473657Y-61886571D01*
X157283180Y-61619904D02*
X157283180Y-62305619D01*
X157321276Y-62381809D01*
X157397466Y-62419904D01*
X157473657Y-62419904D01*
X157740323Y-62419904D02*
X157740323Y-61886571D01*
X157740323Y-61619904D02*
X157702228Y-61658000D01*
X157740323Y-61696095D01*
X157778419Y-61658000D01*
X157740323Y-61619904D01*
X157740323Y-61696095D01*
X158464133Y-62381809D02*
X158387942Y-62419904D01*
X158235561Y-62419904D01*
X158159371Y-62381809D01*
X158121276Y-62343714D01*
X158083180Y-62267523D01*
X158083180Y-62038952D01*
X158121276Y-61962761D01*
X158159371Y-61924666D01*
X158235561Y-61886571D01*
X158387942Y-61886571D01*
X158464133Y-61924666D01*
X159149847Y-62419904D02*
X159149847Y-62000857D01*
X159111752Y-61924666D01*
X159035561Y-61886571D01*
X158883180Y-61886571D01*
X158806990Y-61924666D01*
X159149847Y-62381809D02*
X159073657Y-62419904D01*
X158883180Y-62419904D01*
X158806990Y-62381809D01*
X158768895Y-62305619D01*
X158768895Y-62229428D01*
X158806990Y-62153238D01*
X158883180Y-62115142D01*
X159073657Y-62115142D01*
X159149847Y-62077047D01*
X159645085Y-62419904D02*
X159568895Y-62381809D01*
X159530800Y-62305619D01*
X159530800Y-61619904D01*
%TO.C,R4*%
X181506990Y-95653238D02*
X181506990Y-95938952D01*
X181506990Y-95796095D02*
X181006990Y-95796095D01*
X181078419Y-95843714D01*
X181126038Y-95891333D01*
X181149847Y-95938952D01*
X181006990Y-95343714D02*
X181006990Y-95296095D01*
X181030800Y-95248476D01*
X181054609Y-95224666D01*
X181102228Y-95200857D01*
X181197466Y-95177047D01*
X181316514Y-95177047D01*
X181411752Y-95200857D01*
X181459371Y-95224666D01*
X181483180Y-95248476D01*
X181506990Y-95296095D01*
X181506990Y-95343714D01*
X181483180Y-95391333D01*
X181459371Y-95415142D01*
X181411752Y-95438952D01*
X181316514Y-95462761D01*
X181197466Y-95462761D01*
X181102228Y-95438952D01*
X181054609Y-95415142D01*
X181030800Y-95391333D01*
X181006990Y-95343714D01*
X181506990Y-94962761D02*
X181006990Y-94962761D01*
X181506990Y-94677047D02*
X181221276Y-94891333D01*
X181006990Y-94677047D02*
X181292704Y-94962761D01*
D12*
X180511752Y-95374666D02*
X180321276Y-95508000D01*
X180511752Y-95603238D02*
X180111752Y-95603238D01*
X180111752Y-95450857D01*
X180130800Y-95412761D01*
X180149847Y-95393714D01*
X180187942Y-95374666D01*
X180245085Y-95374666D01*
X180283180Y-95393714D01*
X180302228Y-95412761D01*
X180321276Y-95450857D01*
X180321276Y-95603238D01*
X180245085Y-95031809D02*
X180511752Y-95031809D01*
X180092704Y-95127047D02*
X180378419Y-95222285D01*
X180378419Y-94974666D01*
D10*
%TO.C,C31*%
X167461752Y-84950857D02*
X167461752Y-85284190D01*
X167342704Y-84760380D02*
X167223657Y-85117523D01*
X167533180Y-85117523D01*
X167937942Y-84950857D02*
X167937942Y-85284190D01*
X167723657Y-84950857D02*
X167723657Y-85212761D01*
X167747466Y-85260380D01*
X167795085Y-85284190D01*
X167866514Y-85284190D01*
X167914133Y-85260380D01*
X167937942Y-85236571D01*
X168128419Y-84784190D02*
X168461752Y-84784190D01*
X168247466Y-85284190D01*
D12*
X167573657Y-86100857D02*
X167554609Y-86119904D01*
X167497466Y-86138952D01*
X167459371Y-86138952D01*
X167402228Y-86119904D01*
X167364133Y-86081809D01*
X167345085Y-86043714D01*
X167326038Y-85967523D01*
X167326038Y-85910380D01*
X167345085Y-85834190D01*
X167364133Y-85796095D01*
X167402228Y-85758000D01*
X167459371Y-85738952D01*
X167497466Y-85738952D01*
X167554609Y-85758000D01*
X167573657Y-85777047D01*
X167706990Y-85738952D02*
X167954609Y-85738952D01*
X167821276Y-85891333D01*
X167878419Y-85891333D01*
X167916514Y-85910380D01*
X167935561Y-85929428D01*
X167954609Y-85967523D01*
X167954609Y-86062761D01*
X167935561Y-86100857D01*
X167916514Y-86119904D01*
X167878419Y-86138952D01*
X167764133Y-86138952D01*
X167726038Y-86119904D01*
X167706990Y-86100857D01*
X168335561Y-86138952D02*
X168106990Y-86138952D01*
X168221276Y-86138952D02*
X168221276Y-85738952D01*
X168183180Y-85796095D01*
X168145085Y-85834190D01*
X168106990Y-85853238D01*
D10*
%TO.C,C41*%
X179495085Y-87534190D02*
X179209371Y-87534190D01*
X179352228Y-87534190D02*
X179352228Y-87034190D01*
X179304609Y-87105619D01*
X179256990Y-87153238D01*
X179209371Y-87177047D01*
X179804609Y-87034190D02*
X179852228Y-87034190D01*
X179899847Y-87058000D01*
X179923657Y-87081809D01*
X179947466Y-87129428D01*
X179971276Y-87224666D01*
X179971276Y-87343714D01*
X179947466Y-87438952D01*
X179923657Y-87486571D01*
X179899847Y-87510380D01*
X179852228Y-87534190D01*
X179804609Y-87534190D01*
X179756990Y-87510380D01*
X179733180Y-87486571D01*
X179709371Y-87438952D01*
X179685561Y-87343714D01*
X179685561Y-87224666D01*
X179709371Y-87129428D01*
X179733180Y-87081809D01*
X179756990Y-87058000D01*
X179804609Y-87034190D01*
X180399847Y-87200857D02*
X180399847Y-87534190D01*
X180185561Y-87200857D02*
X180185561Y-87462761D01*
X180209371Y-87510380D01*
X180256990Y-87534190D01*
X180328419Y-87534190D01*
X180376038Y-87510380D01*
X180399847Y-87486571D01*
X180804609Y-87272285D02*
X180637942Y-87272285D01*
X180637942Y-87534190D02*
X180637942Y-87034190D01*
X180876038Y-87034190D01*
D12*
X179773657Y-88350857D02*
X179754609Y-88369904D01*
X179697466Y-88388952D01*
X179659371Y-88388952D01*
X179602228Y-88369904D01*
X179564133Y-88331809D01*
X179545085Y-88293714D01*
X179526038Y-88217523D01*
X179526038Y-88160380D01*
X179545085Y-88084190D01*
X179564133Y-88046095D01*
X179602228Y-88008000D01*
X179659371Y-87988952D01*
X179697466Y-87988952D01*
X179754609Y-88008000D01*
X179773657Y-88027047D01*
X180116514Y-88122285D02*
X180116514Y-88388952D01*
X180021276Y-87969904D02*
X179926038Y-88255619D01*
X180173657Y-88255619D01*
X180535561Y-88388952D02*
X180306990Y-88388952D01*
X180421276Y-88388952D02*
X180421276Y-87988952D01*
X180383180Y-88046095D01*
X180345085Y-88084190D01*
X180306990Y-88103238D01*
D11*
%TO.C,H2*%
X191268895Y-105260380D02*
X191268895Y-104260380D01*
X191268895Y-104736571D02*
X191840323Y-104736571D01*
X191840323Y-105260380D02*
X191840323Y-104260380D01*
X192268895Y-104355619D02*
X192316514Y-104308000D01*
X192411752Y-104260380D01*
X192649847Y-104260380D01*
X192745085Y-104308000D01*
X192792704Y-104355619D01*
X192840323Y-104450857D01*
X192840323Y-104546095D01*
X192792704Y-104688952D01*
X192221276Y-105260380D01*
X192840323Y-105260380D01*
%TO.C,H3*%
X145268895Y-61010380D02*
X145268895Y-60010380D01*
X145268895Y-60486571D02*
X145840323Y-60486571D01*
X145840323Y-61010380D02*
X145840323Y-60010380D01*
X146221276Y-60010380D02*
X146840323Y-60010380D01*
X146506990Y-60391333D01*
X146649847Y-60391333D01*
X146745085Y-60438952D01*
X146792704Y-60486571D01*
X146840323Y-60581809D01*
X146840323Y-60819904D01*
X146792704Y-60915142D01*
X146745085Y-60962761D01*
X146649847Y-61010380D01*
X146364133Y-61010380D01*
X146268895Y-60962761D01*
X146221276Y-60915142D01*
D10*
%TO.C,C22*%
X179923657Y-65927047D02*
X180256990Y-65927047D01*
X179733180Y-66046095D02*
X180090323Y-66165142D01*
X180090323Y-65855619D01*
X179923657Y-65450857D02*
X180256990Y-65450857D01*
X179923657Y-65665142D02*
X180185561Y-65665142D01*
X180233180Y-65641333D01*
X180256990Y-65593714D01*
X180256990Y-65522285D01*
X180233180Y-65474666D01*
X180209371Y-65450857D01*
X179756990Y-65260380D02*
X179756990Y-64927047D01*
X180256990Y-65141333D01*
D12*
X181173657Y-65815142D02*
X181192704Y-65834190D01*
X181211752Y-65891333D01*
X181211752Y-65929428D01*
X181192704Y-65986571D01*
X181154609Y-66024666D01*
X181116514Y-66043714D01*
X181040323Y-66062761D01*
X180983180Y-66062761D01*
X180906990Y-66043714D01*
X180868895Y-66024666D01*
X180830800Y-65986571D01*
X180811752Y-65929428D01*
X180811752Y-65891333D01*
X180830800Y-65834190D01*
X180849847Y-65815142D01*
X180849847Y-65662761D02*
X180830800Y-65643714D01*
X180811752Y-65605619D01*
X180811752Y-65510380D01*
X180830800Y-65472285D01*
X180849847Y-65453238D01*
X180887942Y-65434190D01*
X180926038Y-65434190D01*
X180983180Y-65453238D01*
X181211752Y-65681809D01*
X181211752Y-65434190D01*
X180849847Y-65281809D02*
X180830800Y-65262761D01*
X180811752Y-65224666D01*
X180811752Y-65129428D01*
X180830800Y-65091333D01*
X180849847Y-65072285D01*
X180887942Y-65053238D01*
X180926038Y-65053238D01*
X180983180Y-65072285D01*
X181211752Y-65300857D01*
X181211752Y-65053238D01*
D10*
%TO.C,C4*%
X166221276Y-67034190D02*
X165935561Y-67034190D01*
X166078419Y-67034190D02*
X166078419Y-66534190D01*
X166030800Y-66605619D01*
X165983180Y-66653238D01*
X165935561Y-66677047D01*
X166530800Y-66534190D02*
X166578419Y-66534190D01*
X166626038Y-66558000D01*
X166649847Y-66581809D01*
X166673657Y-66629428D01*
X166697466Y-66724666D01*
X166697466Y-66843714D01*
X166673657Y-66938952D01*
X166649847Y-66986571D01*
X166626038Y-67010380D01*
X166578419Y-67034190D01*
X166530800Y-67034190D01*
X166483180Y-67010380D01*
X166459371Y-66986571D01*
X166435561Y-66938952D01*
X166411752Y-66843714D01*
X166411752Y-66724666D01*
X166435561Y-66629428D01*
X166459371Y-66581809D01*
X166483180Y-66558000D01*
X166530800Y-66534190D01*
X167006990Y-66534190D02*
X167054609Y-66534190D01*
X167102228Y-66558000D01*
X167126038Y-66581809D01*
X167149847Y-66629428D01*
X167173657Y-66724666D01*
X167173657Y-66843714D01*
X167149847Y-66938952D01*
X167126038Y-66986571D01*
X167102228Y-67010380D01*
X167054609Y-67034190D01*
X167006990Y-67034190D01*
X166959371Y-67010380D01*
X166935561Y-66986571D01*
X166911752Y-66938952D01*
X166887942Y-66843714D01*
X166887942Y-66724666D01*
X166911752Y-66629428D01*
X166935561Y-66581809D01*
X166959371Y-66558000D01*
X167006990Y-66534190D01*
X167387942Y-66700857D02*
X167387942Y-67034190D01*
X167387942Y-66748476D02*
X167411752Y-66724666D01*
X167459371Y-66700857D01*
X167530800Y-66700857D01*
X167578419Y-66724666D01*
X167602228Y-66772285D01*
X167602228Y-67034190D01*
D12*
X168714133Y-66950857D02*
X168695085Y-66969904D01*
X168637942Y-66988952D01*
X168599847Y-66988952D01*
X168542704Y-66969904D01*
X168504609Y-66931809D01*
X168485561Y-66893714D01*
X168466514Y-66817523D01*
X168466514Y-66760380D01*
X168485561Y-66684190D01*
X168504609Y-66646095D01*
X168542704Y-66608000D01*
X168599847Y-66588952D01*
X168637942Y-66588952D01*
X168695085Y-66608000D01*
X168714133Y-66627047D01*
X169056990Y-66722285D02*
X169056990Y-66988952D01*
X168961752Y-66569904D02*
X168866514Y-66855619D01*
X169114133Y-66855619D01*
D10*
%TO.C,C13*%
X171533180Y-95784190D02*
X171247466Y-95784190D01*
X171390323Y-95784190D02*
X171390323Y-95284190D01*
X171342704Y-95355619D01*
X171295085Y-95403238D01*
X171247466Y-95427047D01*
X171961752Y-95450857D02*
X171961752Y-95784190D01*
X171747466Y-95450857D02*
X171747466Y-95712761D01*
X171771276Y-95760380D01*
X171818895Y-95784190D01*
X171890323Y-95784190D01*
X171937942Y-95760380D01*
X171961752Y-95736571D01*
X172366514Y-95522285D02*
X172199847Y-95522285D01*
X172199847Y-95784190D02*
X172199847Y-95284190D01*
X172437942Y-95284190D01*
D12*
X171573657Y-94800857D02*
X171554609Y-94819904D01*
X171497466Y-94838952D01*
X171459371Y-94838952D01*
X171402228Y-94819904D01*
X171364133Y-94781809D01*
X171345085Y-94743714D01*
X171326038Y-94667523D01*
X171326038Y-94610380D01*
X171345085Y-94534190D01*
X171364133Y-94496095D01*
X171402228Y-94458000D01*
X171459371Y-94438952D01*
X171497466Y-94438952D01*
X171554609Y-94458000D01*
X171573657Y-94477047D01*
X171954609Y-94838952D02*
X171726038Y-94838952D01*
X171840323Y-94838952D02*
X171840323Y-94438952D01*
X171802228Y-94496095D01*
X171764133Y-94534190D01*
X171726038Y-94553238D01*
X172087942Y-94438952D02*
X172335561Y-94438952D01*
X172202228Y-94591333D01*
X172259371Y-94591333D01*
X172297466Y-94610380D01*
X172316514Y-94629428D01*
X172335561Y-94667523D01*
X172335561Y-94762761D01*
X172316514Y-94800857D01*
X172297466Y-94819904D01*
X172259371Y-94838952D01*
X172145085Y-94838952D01*
X172106990Y-94819904D01*
X172087942Y-94800857D01*
D11*
%TO.C,H1*%
X191268895Y-61010380D02*
X191268895Y-60010380D01*
X191268895Y-60486571D02*
X191840323Y-60486571D01*
X191840323Y-61010380D02*
X191840323Y-60010380D01*
X192840323Y-61010380D02*
X192268895Y-61010380D01*
X192554609Y-61010380D02*
X192554609Y-60010380D01*
X192459371Y-60153238D01*
X192364133Y-60248476D01*
X192268895Y-60296095D01*
%TO.C,TP3*%
X144340323Y-88760380D02*
X143864133Y-88760380D01*
X143816514Y-89236571D01*
X143864133Y-89188952D01*
X143959371Y-89141333D01*
X144197466Y-89141333D01*
X144292704Y-89188952D01*
X144340323Y-89236571D01*
X144387942Y-89331809D01*
X144387942Y-89569904D01*
X144340323Y-89665142D01*
X144292704Y-89712761D01*
X144197466Y-89760380D01*
X143959371Y-89760380D01*
X143864133Y-89712761D01*
X143816514Y-89665142D01*
X144673657Y-88760380D02*
X145006990Y-89760380D01*
X145340323Y-88760380D01*
D10*
%TO.C,C32*%
X149661752Y-92200857D02*
X149661752Y-92534190D01*
X149542704Y-92010380D02*
X149423657Y-92367523D01*
X149733180Y-92367523D01*
X150137942Y-92200857D02*
X150137942Y-92534190D01*
X149923657Y-92200857D02*
X149923657Y-92462761D01*
X149947466Y-92510380D01*
X149995085Y-92534190D01*
X150066514Y-92534190D01*
X150114133Y-92510380D01*
X150137942Y-92486571D01*
X150328419Y-92034190D02*
X150661752Y-92034190D01*
X150447466Y-92534190D01*
D12*
X149773657Y-93450857D02*
X149754609Y-93469904D01*
X149697466Y-93488952D01*
X149659371Y-93488952D01*
X149602228Y-93469904D01*
X149564133Y-93431809D01*
X149545085Y-93393714D01*
X149526038Y-93317523D01*
X149526038Y-93260380D01*
X149545085Y-93184190D01*
X149564133Y-93146095D01*
X149602228Y-93108000D01*
X149659371Y-93088952D01*
X149697466Y-93088952D01*
X149754609Y-93108000D01*
X149773657Y-93127047D01*
X149906990Y-93088952D02*
X150154609Y-93088952D01*
X150021276Y-93241333D01*
X150078419Y-93241333D01*
X150116514Y-93260380D01*
X150135561Y-93279428D01*
X150154609Y-93317523D01*
X150154609Y-93412761D01*
X150135561Y-93450857D01*
X150116514Y-93469904D01*
X150078419Y-93488952D01*
X149964133Y-93488952D01*
X149926038Y-93469904D01*
X149906990Y-93450857D01*
X150306990Y-93127047D02*
X150326038Y-93108000D01*
X150364133Y-93088952D01*
X150459371Y-93088952D01*
X150497466Y-93108000D01*
X150516514Y-93127047D01*
X150535561Y-93165142D01*
X150535561Y-93203238D01*
X150516514Y-93260380D01*
X150287942Y-93488952D01*
X150535561Y-93488952D01*
D14*
%TO.C,F1*%
X145930800Y-64286571D02*
X145830800Y-64286571D01*
X145830800Y-64443714D02*
X145830800Y-64143714D01*
X145973657Y-64143714D01*
X146245085Y-64443714D02*
X146073657Y-64443714D01*
X146159371Y-64443714D02*
X146159371Y-64143714D01*
X146130800Y-64186571D01*
X146102228Y-64215142D01*
X146073657Y-64229428D01*
D10*
%TO.C,C11*%
X176233180Y-96784190D02*
X175947466Y-96784190D01*
X176090323Y-96784190D02*
X176090323Y-96284190D01*
X176042704Y-96355619D01*
X175995085Y-96403238D01*
X175947466Y-96427047D01*
X176661752Y-96450857D02*
X176661752Y-96784190D01*
X176447466Y-96450857D02*
X176447466Y-96712761D01*
X176471276Y-96760380D01*
X176518895Y-96784190D01*
X176590323Y-96784190D01*
X176637942Y-96760380D01*
X176661752Y-96736571D01*
X177066514Y-96522285D02*
X176899847Y-96522285D01*
X176899847Y-96784190D02*
X176899847Y-96284190D01*
X177137942Y-96284190D01*
D12*
X176773657Y-95565142D02*
X176792704Y-95584190D01*
X176811752Y-95641333D01*
X176811752Y-95679428D01*
X176792704Y-95736571D01*
X176754609Y-95774666D01*
X176716514Y-95793714D01*
X176640323Y-95812761D01*
X176583180Y-95812761D01*
X176506990Y-95793714D01*
X176468895Y-95774666D01*
X176430800Y-95736571D01*
X176411752Y-95679428D01*
X176411752Y-95641333D01*
X176430800Y-95584190D01*
X176449847Y-95565142D01*
X176811752Y-95184190D02*
X176811752Y-95412761D01*
X176811752Y-95298476D02*
X176411752Y-95298476D01*
X176468895Y-95336571D01*
X176506990Y-95374666D01*
X176526038Y-95412761D01*
X176811752Y-94803238D02*
X176811752Y-95031809D01*
X176811752Y-94917523D02*
X176411752Y-94917523D01*
X176468895Y-94955619D01*
X176506990Y-94993714D01*
X176526038Y-95031809D01*
D10*
%TO.C,R3*%
X153756990Y-85665142D02*
X153756990Y-85950857D01*
X153756990Y-85808000D02*
X153256990Y-85808000D01*
X153328419Y-85855619D01*
X153376038Y-85903238D01*
X153399847Y-85950857D01*
X153756990Y-85450857D02*
X153256990Y-85450857D01*
X153756990Y-85165142D02*
X153471276Y-85379428D01*
X153256990Y-85165142D02*
X153542704Y-85450857D01*
D12*
X154611752Y-85574666D02*
X154421276Y-85708000D01*
X154611752Y-85803238D02*
X154211752Y-85803238D01*
X154211752Y-85650857D01*
X154230800Y-85612761D01*
X154249847Y-85593714D01*
X154287942Y-85574666D01*
X154345085Y-85574666D01*
X154383180Y-85593714D01*
X154402228Y-85612761D01*
X154421276Y-85650857D01*
X154421276Y-85803238D01*
X154211752Y-85441333D02*
X154211752Y-85193714D01*
X154364133Y-85327047D01*
X154364133Y-85269904D01*
X154383180Y-85231809D01*
X154402228Y-85212761D01*
X154440323Y-85193714D01*
X154535561Y-85193714D01*
X154573657Y-85212761D01*
X154592704Y-85231809D01*
X154611752Y-85269904D01*
X154611752Y-85384190D01*
X154592704Y-85422285D01*
X154573657Y-85441333D01*
D10*
%TO.C,C25*%
X182923657Y-102427047D02*
X183256990Y-102427047D01*
X182733180Y-102546095D02*
X183090323Y-102665142D01*
X183090323Y-102355619D01*
X182923657Y-101950857D02*
X183256990Y-101950857D01*
X182923657Y-102165142D02*
X183185561Y-102165142D01*
X183233180Y-102141333D01*
X183256990Y-102093714D01*
X183256990Y-102022285D01*
X183233180Y-101974666D01*
X183209371Y-101950857D01*
X182756990Y-101760380D02*
X182756990Y-101427047D01*
X183256990Y-101641333D01*
D12*
X184173657Y-102315142D02*
X184192704Y-102334190D01*
X184211752Y-102391333D01*
X184211752Y-102429428D01*
X184192704Y-102486571D01*
X184154609Y-102524666D01*
X184116514Y-102543714D01*
X184040323Y-102562761D01*
X183983180Y-102562761D01*
X183906990Y-102543714D01*
X183868895Y-102524666D01*
X183830800Y-102486571D01*
X183811752Y-102429428D01*
X183811752Y-102391333D01*
X183830800Y-102334190D01*
X183849847Y-102315142D01*
X183849847Y-102162761D02*
X183830800Y-102143714D01*
X183811752Y-102105619D01*
X183811752Y-102010380D01*
X183830800Y-101972285D01*
X183849847Y-101953238D01*
X183887942Y-101934190D01*
X183926038Y-101934190D01*
X183983180Y-101953238D01*
X184211752Y-102181809D01*
X184211752Y-101934190D01*
X183811752Y-101572285D02*
X183811752Y-101762761D01*
X184002228Y-101781809D01*
X183983180Y-101762761D01*
X183964133Y-101724666D01*
X183964133Y-101629428D01*
X183983180Y-101591333D01*
X184002228Y-101572285D01*
X184040323Y-101553238D01*
X184135561Y-101553238D01*
X184173657Y-101572285D01*
X184192704Y-101591333D01*
X184211752Y-101629428D01*
X184211752Y-101724666D01*
X184192704Y-101762761D01*
X184173657Y-101781809D01*
D11*
%TO.C,H4*%
X145268895Y-105260380D02*
X145268895Y-104260380D01*
X145268895Y-104736571D02*
X145840323Y-104736571D01*
X145840323Y-105260380D02*
X145840323Y-104260380D01*
X146745085Y-104593714D02*
X146745085Y-105260380D01*
X146506990Y-104212761D02*
X146268895Y-104927047D01*
X146887942Y-104927047D01*
D10*
%TO.C,C7*%
X158756990Y-86117523D02*
X158756990Y-86403238D01*
X158756990Y-86260380D02*
X158256990Y-86260380D01*
X158328419Y-86308000D01*
X158376038Y-86355619D01*
X158399847Y-86403238D01*
X158256990Y-85808000D02*
X158256990Y-85760380D01*
X158280800Y-85712761D01*
X158304609Y-85688952D01*
X158352228Y-85665142D01*
X158447466Y-85641333D01*
X158566514Y-85641333D01*
X158661752Y-85665142D01*
X158709371Y-85688952D01*
X158733180Y-85712761D01*
X158756990Y-85760380D01*
X158756990Y-85808000D01*
X158733180Y-85855619D01*
X158709371Y-85879428D01*
X158661752Y-85903238D01*
X158566514Y-85927047D01*
X158447466Y-85927047D01*
X158352228Y-85903238D01*
X158304609Y-85879428D01*
X158280800Y-85855619D01*
X158256990Y-85808000D01*
X158256990Y-85331809D02*
X158256990Y-85284190D01*
X158280800Y-85236571D01*
X158304609Y-85212761D01*
X158352228Y-85188952D01*
X158447466Y-85165142D01*
X158566514Y-85165142D01*
X158661752Y-85188952D01*
X158709371Y-85212761D01*
X158733180Y-85236571D01*
X158756990Y-85284190D01*
X158756990Y-85331809D01*
X158733180Y-85379428D01*
X158709371Y-85403238D01*
X158661752Y-85427047D01*
X158566514Y-85450857D01*
X158447466Y-85450857D01*
X158352228Y-85427047D01*
X158304609Y-85403238D01*
X158280800Y-85379428D01*
X158256990Y-85331809D01*
X158423657Y-84950857D02*
X158756990Y-84950857D01*
X158471276Y-84950857D02*
X158447466Y-84927047D01*
X158423657Y-84879428D01*
X158423657Y-84808000D01*
X158447466Y-84760380D01*
X158495085Y-84736571D01*
X158756990Y-84736571D01*
D12*
X157773657Y-85574666D02*
X157792704Y-85593714D01*
X157811752Y-85650857D01*
X157811752Y-85688952D01*
X157792704Y-85746095D01*
X157754609Y-85784190D01*
X157716514Y-85803238D01*
X157640323Y-85822285D01*
X157583180Y-85822285D01*
X157506990Y-85803238D01*
X157468895Y-85784190D01*
X157430800Y-85746095D01*
X157411752Y-85688952D01*
X157411752Y-85650857D01*
X157430800Y-85593714D01*
X157449847Y-85574666D01*
X157411752Y-85441333D02*
X157411752Y-85174666D01*
X157811752Y-85346095D01*
D10*
%TO.C,C16*%
X161983180Y-96534190D02*
X161697466Y-96534190D01*
X161840323Y-96534190D02*
X161840323Y-96034190D01*
X161792704Y-96105619D01*
X161745085Y-96153238D01*
X161697466Y-96177047D01*
X162411752Y-96200857D02*
X162411752Y-96534190D01*
X162197466Y-96200857D02*
X162197466Y-96462761D01*
X162221276Y-96510380D01*
X162268895Y-96534190D01*
X162340323Y-96534190D01*
X162387942Y-96510380D01*
X162411752Y-96486571D01*
X162816514Y-96272285D02*
X162649847Y-96272285D01*
X162649847Y-96534190D02*
X162649847Y-96034190D01*
X162887942Y-96034190D01*
D12*
X162423657Y-95065142D02*
X162442704Y-95084190D01*
X162461752Y-95141333D01*
X162461752Y-95179428D01*
X162442704Y-95236571D01*
X162404609Y-95274666D01*
X162366514Y-95293714D01*
X162290323Y-95312761D01*
X162233180Y-95312761D01*
X162156990Y-95293714D01*
X162118895Y-95274666D01*
X162080800Y-95236571D01*
X162061752Y-95179428D01*
X162061752Y-95141333D01*
X162080800Y-95084190D01*
X162099847Y-95065142D01*
X162461752Y-94684190D02*
X162461752Y-94912761D01*
X162461752Y-94798476D02*
X162061752Y-94798476D01*
X162118895Y-94836571D01*
X162156990Y-94874666D01*
X162176038Y-94912761D01*
X162061752Y-94341333D02*
X162061752Y-94417523D01*
X162080800Y-94455619D01*
X162099847Y-94474666D01*
X162156990Y-94512761D01*
X162233180Y-94531809D01*
X162385561Y-94531809D01*
X162423657Y-94512761D01*
X162442704Y-94493714D01*
X162461752Y-94455619D01*
X162461752Y-94379428D01*
X162442704Y-94341333D01*
X162423657Y-94322285D01*
X162385561Y-94303238D01*
X162290323Y-94303238D01*
X162252228Y-94322285D01*
X162233180Y-94341333D01*
X162214133Y-94379428D01*
X162214133Y-94455619D01*
X162233180Y-94493714D01*
X162252228Y-94512761D01*
X162290323Y-94531809D01*
D10*
%TO.C,C28*%
X162661752Y-65200857D02*
X162661752Y-65534190D01*
X162542704Y-65010380D02*
X162423657Y-65367523D01*
X162733180Y-65367523D01*
X163137942Y-65200857D02*
X163137942Y-65534190D01*
X162923657Y-65200857D02*
X162923657Y-65462761D01*
X162947466Y-65510380D01*
X162995085Y-65534190D01*
X163066514Y-65534190D01*
X163114133Y-65510380D01*
X163137942Y-65486571D01*
X163328419Y-65034190D02*
X163661752Y-65034190D01*
X163447466Y-65534190D01*
D12*
X162773657Y-64550857D02*
X162754609Y-64569904D01*
X162697466Y-64588952D01*
X162659371Y-64588952D01*
X162602228Y-64569904D01*
X162564133Y-64531809D01*
X162545085Y-64493714D01*
X162526038Y-64417523D01*
X162526038Y-64360380D01*
X162545085Y-64284190D01*
X162564133Y-64246095D01*
X162602228Y-64208000D01*
X162659371Y-64188952D01*
X162697466Y-64188952D01*
X162754609Y-64208000D01*
X162773657Y-64227047D01*
X162926038Y-64227047D02*
X162945085Y-64208000D01*
X162983180Y-64188952D01*
X163078419Y-64188952D01*
X163116514Y-64208000D01*
X163135561Y-64227047D01*
X163154609Y-64265142D01*
X163154609Y-64303238D01*
X163135561Y-64360380D01*
X162906990Y-64588952D01*
X163154609Y-64588952D01*
X163383180Y-64360380D02*
X163345085Y-64341333D01*
X163326038Y-64322285D01*
X163306990Y-64284190D01*
X163306990Y-64265142D01*
X163326038Y-64227047D01*
X163345085Y-64208000D01*
X163383180Y-64188952D01*
X163459371Y-64188952D01*
X163497466Y-64208000D01*
X163516514Y-64227047D01*
X163535561Y-64265142D01*
X163535561Y-64284190D01*
X163516514Y-64322285D01*
X163497466Y-64341333D01*
X163459371Y-64360380D01*
X163383180Y-64360380D01*
X163345085Y-64379428D01*
X163326038Y-64398476D01*
X163306990Y-64436571D01*
X163306990Y-64512761D01*
X163326038Y-64550857D01*
X163345085Y-64569904D01*
X163383180Y-64588952D01*
X163459371Y-64588952D01*
X163497466Y-64569904D01*
X163516514Y-64550857D01*
X163535561Y-64512761D01*
X163535561Y-64436571D01*
X163516514Y-64398476D01*
X163497466Y-64379428D01*
X163459371Y-64360380D01*
D10*
%TO.C,R10*%
X165756990Y-81927047D02*
X165756990Y-82165142D01*
X165995085Y-82188952D01*
X165971276Y-82165142D01*
X165947466Y-82117523D01*
X165947466Y-81998476D01*
X165971276Y-81950857D01*
X165995085Y-81927047D01*
X166042704Y-81903238D01*
X166161752Y-81903238D01*
X166209371Y-81927047D01*
X166233180Y-81950857D01*
X166256990Y-81998476D01*
X166256990Y-82117523D01*
X166233180Y-82165142D01*
X166209371Y-82188952D01*
X166256990Y-81688952D02*
X165756990Y-81688952D01*
X166256990Y-81403238D02*
X165971276Y-81617523D01*
X165756990Y-81403238D02*
X166042704Y-81688952D01*
X166256990Y-80927047D02*
X166256990Y-81212761D01*
X166256990Y-81069904D02*
X165756990Y-81069904D01*
X165828419Y-81117523D01*
X165876038Y-81165142D01*
X165899847Y-81212761D01*
D12*
X167273657Y-81738952D02*
X167140323Y-81548476D01*
X167045085Y-81738952D02*
X167045085Y-81338952D01*
X167197466Y-81338952D01*
X167235561Y-81358000D01*
X167254609Y-81377047D01*
X167273657Y-81415142D01*
X167273657Y-81472285D01*
X167254609Y-81510380D01*
X167235561Y-81529428D01*
X167197466Y-81548476D01*
X167045085Y-81548476D01*
X167654609Y-81738952D02*
X167426038Y-81738952D01*
X167540323Y-81738952D02*
X167540323Y-81338952D01*
X167502228Y-81396095D01*
X167464133Y-81434190D01*
X167426038Y-81453238D01*
X167902228Y-81338952D02*
X167940323Y-81338952D01*
X167978419Y-81358000D01*
X167997466Y-81377047D01*
X168016514Y-81415142D01*
X168035561Y-81491333D01*
X168035561Y-81586571D01*
X168016514Y-81662761D01*
X167997466Y-81700857D01*
X167978419Y-81719904D01*
X167940323Y-81738952D01*
X167902228Y-81738952D01*
X167864133Y-81719904D01*
X167845085Y-81700857D01*
X167826038Y-81662761D01*
X167806990Y-81586571D01*
X167806990Y-81491333D01*
X167826038Y-81415142D01*
X167845085Y-81377047D01*
X167864133Y-81358000D01*
X167902228Y-81338952D01*
D10*
%TO.C,CONN7*%
X162661752Y-61658000D02*
X162585561Y-61619904D01*
X162471276Y-61619904D01*
X162356990Y-61658000D01*
X162280800Y-61734190D01*
X162242704Y-61810380D01*
X162204609Y-61962761D01*
X162204609Y-62077047D01*
X162242704Y-62229428D01*
X162280800Y-62305619D01*
X162356990Y-62381809D01*
X162471276Y-62419904D01*
X162547466Y-62419904D01*
X162661752Y-62381809D01*
X162699847Y-62343714D01*
X162699847Y-62077047D01*
X162547466Y-62077047D01*
X163042704Y-62419904D02*
X163042704Y-61886571D01*
X163042704Y-62038952D02*
X163080800Y-61962761D01*
X163118895Y-61924666D01*
X163195085Y-61886571D01*
X163271276Y-61886571D01*
X163652228Y-62419904D02*
X163576038Y-62381809D01*
X163537942Y-62343714D01*
X163499847Y-62267523D01*
X163499847Y-62038952D01*
X163537942Y-61962761D01*
X163576038Y-61924666D01*
X163652228Y-61886571D01*
X163766514Y-61886571D01*
X163842704Y-61924666D01*
X163880800Y-61962761D01*
X163918895Y-62038952D01*
X163918895Y-62267523D01*
X163880800Y-62343714D01*
X163842704Y-62381809D01*
X163766514Y-62419904D01*
X163652228Y-62419904D01*
X164185561Y-61886571D02*
X164376038Y-62419904D01*
X164566514Y-61886571D01*
X165176038Y-62381809D02*
X165099847Y-62419904D01*
X164947466Y-62419904D01*
X164871276Y-62381809D01*
X164833180Y-62305619D01*
X164833180Y-62000857D01*
X164871276Y-61924666D01*
X164947466Y-61886571D01*
X165099847Y-61886571D01*
X165176038Y-61924666D01*
X165214133Y-62000857D01*
X165214133Y-62077047D01*
X164833180Y-62153238D01*
X166052228Y-61619904D02*
X166318895Y-62419904D01*
X166585561Y-61619904D01*
X167156990Y-62381809D02*
X167080800Y-62419904D01*
X166928419Y-62419904D01*
X166852228Y-62381809D01*
X166814133Y-62305619D01*
X166814133Y-62000857D01*
X166852228Y-61924666D01*
X166928419Y-61886571D01*
X167080800Y-61886571D01*
X167156990Y-61924666D01*
X167195085Y-62000857D01*
X167195085Y-62077047D01*
X166814133Y-62153238D01*
X167537942Y-62419904D02*
X167537942Y-61886571D01*
X167537942Y-62038952D02*
X167576038Y-61962761D01*
X167614133Y-61924666D01*
X167690323Y-61886571D01*
X167766514Y-61886571D01*
X167918895Y-61886571D02*
X168223657Y-61886571D01*
X168033180Y-61619904D02*
X168033180Y-62305619D01*
X168071276Y-62381809D01*
X168147466Y-62419904D01*
X168223657Y-62419904D01*
X168490323Y-62419904D02*
X168490323Y-61886571D01*
X168490323Y-61619904D02*
X168452228Y-61658000D01*
X168490323Y-61696095D01*
X168528419Y-61658000D01*
X168490323Y-61619904D01*
X168490323Y-61696095D01*
X169214133Y-62381809D02*
X169137942Y-62419904D01*
X168985561Y-62419904D01*
X168909371Y-62381809D01*
X168871276Y-62343714D01*
X168833180Y-62267523D01*
X168833180Y-62038952D01*
X168871276Y-61962761D01*
X168909371Y-61924666D01*
X168985561Y-61886571D01*
X169137942Y-61886571D01*
X169214133Y-61924666D01*
X169899847Y-62419904D02*
X169899847Y-62000857D01*
X169861752Y-61924666D01*
X169785561Y-61886571D01*
X169633180Y-61886571D01*
X169556990Y-61924666D01*
X169899847Y-62381809D02*
X169823657Y-62419904D01*
X169633180Y-62419904D01*
X169556990Y-62381809D01*
X169518895Y-62305619D01*
X169518895Y-62229428D01*
X169556990Y-62153238D01*
X169633180Y-62115142D01*
X169823657Y-62115142D01*
X169899847Y-62077047D01*
X170395085Y-62419904D02*
X170318895Y-62381809D01*
X170280800Y-62305619D01*
X170280800Y-61619904D01*
%TO.C,CONN3*%
X163120800Y-98658000D02*
X179240800Y-98658000D01*
X164830800Y-106801000D02*
X164830800Y-104769000D01*
X179240800Y-101458000D02*
X179895800Y-101458000D01*
X164830800Y-104769000D02*
X177530800Y-104769000D01*
X179240800Y-98658000D02*
X179240800Y-101458000D01*
X163120800Y-101458000D02*
X163120800Y-98658000D01*
X157680800Y-78688000D02*
X184680800Y-78688000D01*
X179895800Y-101458000D02*
X179895800Y-103058000D01*
X179943800Y-106801000D02*
X162417800Y-106801000D01*
X179895800Y-103058000D02*
X162465800Y-103058000D01*
X162465800Y-101458000D02*
X163120800Y-101458000D01*
X162465800Y-103058000D02*
X162465800Y-101458000D01*
X177530800Y-104769000D02*
X177530800Y-106801000D01*
%TO.C,C2*%
X169580800Y-70708000D02*
X167980800Y-70708000D01*
X169580800Y-69908000D02*
X169580800Y-70708000D01*
X167980800Y-69908000D02*
X169580800Y-69908000D01*
X167980800Y-70708000D02*
X167980800Y-69908000D01*
%TO.C,C3*%
X168930800Y-75008000D02*
X168930800Y-76608000D01*
X168130800Y-76608000D02*
X168130800Y-75008000D01*
X168130800Y-75008000D02*
X168930800Y-75008000D01*
X168930800Y-76608000D02*
X168130800Y-76608000D01*
%TO.C,C8*%
X183430800Y-66358000D02*
X182630800Y-66358000D01*
X182630800Y-64758000D02*
X183430800Y-64758000D01*
X182630800Y-66358000D02*
X182630800Y-64758000D01*
X183430800Y-64758000D02*
X183430800Y-66358000D01*
%TO.C,C1*%
X187648800Y-93611600D02*
X186848800Y-93611600D01*
X187648800Y-92011600D02*
X187648800Y-93611600D01*
X186848800Y-92011600D02*
X187648800Y-92011600D01*
X186848800Y-93611600D02*
X186848800Y-92011600D01*
D15*
%TO.C,U2*%
X170248583Y-73667000D02*
G75*
G03*
X170248583Y-73667000I-413783J0D01*
G01*
X170834800Y-72867000D02*
X182834800Y-72867000D01*
X182834800Y-84867000D02*
X170834800Y-84867000D01*
X182834800Y-72867000D02*
X182834800Y-84867000D01*
X170834800Y-84867000D02*
X170834800Y-72867000D01*
D10*
%TO.C,C18*%
X167130800Y-94308000D02*
X167130800Y-92708000D01*
X167130800Y-92708000D02*
X167930800Y-92708000D01*
X167930800Y-92708000D02*
X167930800Y-94308000D01*
X167930800Y-94308000D02*
X167130800Y-94308000D01*
%TO.C,R9*%
X180630800Y-70108000D02*
X180630800Y-68508000D01*
X180630800Y-68508000D02*
X181430800Y-68508000D01*
X181430800Y-70108000D02*
X180630800Y-70108000D01*
X181430800Y-68508000D02*
X181430800Y-70108000D01*
%TO.C,D3*%
X169955800Y-90708000D02*
X168155800Y-90708000D01*
X169055800Y-89608000D02*
X168655800Y-89008000D01*
X168655800Y-89608000D02*
X169455800Y-89608000D01*
X168155800Y-87908000D02*
X168155800Y-90708000D01*
X169055800Y-89608000D02*
X169055800Y-90208000D01*
X169055800Y-89008000D02*
X169055800Y-88408000D01*
X168155800Y-87908000D02*
X169955800Y-87908000D01*
X169455800Y-89008000D02*
X168655800Y-89008000D01*
X169056820Y-89608000D02*
X169455800Y-89008000D01*
X169955800Y-87908000D02*
X169955800Y-90708000D01*
%TO.C,R7*%
X152780800Y-83858000D02*
X152780800Y-84658000D01*
X151180800Y-84658000D02*
X151180800Y-83858000D01*
X151180800Y-83858000D02*
X152780800Y-83858000D01*
X152780800Y-84658000D02*
X151180800Y-84658000D01*
%TO.C,CONN1*%
X164550800Y-78438000D02*
X162010800Y-78438000D01*
X162010800Y-66373000D02*
X162645800Y-65738000D01*
X164550800Y-65738000D02*
X164550800Y-78438000D01*
X162645800Y-65738000D02*
X164550800Y-65738000D01*
X162010800Y-78438000D02*
X162010800Y-66373000D01*
%TO.C,C17*%
X164430800Y-95608000D02*
X163630800Y-95608000D01*
X164430800Y-94008000D02*
X164430800Y-95608000D01*
X163630800Y-95608000D02*
X163630800Y-94008000D01*
X163630800Y-94008000D02*
X164430800Y-94008000D01*
%TO.C,U7*%
X178480800Y-66308000D02*
X177730800Y-67058000D01*
X177730800Y-67058000D02*
X174080800Y-67058000D01*
X174080800Y-67058000D02*
X174080800Y-64058000D01*
X178480800Y-64058000D02*
X178480800Y-66308000D01*
X174080800Y-64058000D02*
X178480800Y-64058000D01*
%TO.C,Q1*%
X180210800Y-92158000D02*
X180710800Y-91658000D01*
X179360800Y-92158000D02*
X180210800Y-92158000D01*
X180710800Y-91658000D02*
X180710800Y-89958000D01*
X179360800Y-89958000D02*
X180710800Y-89958000D01*
X179360800Y-92158000D02*
X179360800Y-89958000D01*
%TO.C,C23*%
X160930800Y-97758000D02*
X160930800Y-99358000D01*
X160930800Y-99358000D02*
X160130800Y-99358000D01*
X160130800Y-99358000D02*
X160130800Y-97758000D01*
X160130800Y-97758000D02*
X160930800Y-97758000D01*
%TO.C,C30*%
X156430800Y-86308000D02*
X155630800Y-86308000D01*
X155630800Y-86308000D02*
X155630800Y-84708000D01*
X156430800Y-84708000D02*
X156430800Y-86308000D01*
X155630800Y-84708000D02*
X156430800Y-84708000D01*
%TO.C,C6*%
X158030800Y-87808000D02*
X158030800Y-89408000D01*
X158030800Y-89408000D02*
X157230800Y-89408000D01*
X157230800Y-87808000D02*
X158030800Y-87808000D01*
X157230800Y-89408000D02*
X157230800Y-87808000D01*
D16*
%TO.C,CONN5*%
X190030800Y-87368000D02*
X194730800Y-87368000D01*
X190030800Y-78848000D02*
X190030800Y-77848000D01*
X190030800Y-86368000D02*
X190030800Y-87368000D01*
X194730800Y-86368000D02*
X194730800Y-82998000D01*
X194730800Y-87368000D02*
X194730800Y-86368000D01*
X196330800Y-77848000D02*
X196330800Y-79433000D01*
X194730800Y-77848000D02*
X196330800Y-77848000D01*
X194730800Y-82218000D02*
X194730800Y-78848000D01*
X194730800Y-82998000D02*
X190030800Y-82998000D01*
X190030800Y-82998000D02*
X190030800Y-82218000D01*
X190030800Y-82218000D02*
X194730800Y-82218000D01*
X194730800Y-88698000D02*
X194730800Y-87368000D01*
X194730800Y-82998000D02*
X194730800Y-82218000D01*
X196330800Y-85783000D02*
X204230800Y-85783000D01*
X204230800Y-79433000D02*
X196330800Y-79433000D01*
X194730800Y-78848000D02*
X190030800Y-78848000D01*
X196330800Y-85783000D02*
X196330800Y-87368000D01*
X194730800Y-77848000D02*
X194730800Y-76518000D01*
X194730800Y-78848000D02*
X194730800Y-77848000D01*
X204230800Y-85783000D02*
X204230800Y-79433000D01*
X194730800Y-86368000D02*
X190030800Y-86368000D01*
X190030800Y-77848000D02*
X194730800Y-77848000D01*
X196330800Y-87368000D02*
X194730800Y-87368000D01*
D10*
%TO.C,D1*%
X164930800Y-92058000D02*
X163130800Y-92058000D01*
X163630800Y-90958000D02*
X164430800Y-90958000D01*
X164930800Y-89258000D02*
X164930800Y-92058000D01*
X164030800Y-90958000D02*
X163630800Y-90358000D01*
X164030800Y-90958000D02*
X164030800Y-91558000D01*
X163130800Y-89258000D02*
X164930800Y-89258000D01*
X163130800Y-89258000D02*
X163130800Y-92058000D01*
X164030800Y-90358000D02*
X164030800Y-89758000D01*
X164430800Y-90358000D02*
X163630800Y-90358000D01*
X164031820Y-90958000D02*
X164430800Y-90358000D01*
%TO.C,L1*%
X177582800Y-93610000D02*
X170978800Y-93610000D01*
X177582800Y-87006000D02*
X177582800Y-93610000D01*
X170978800Y-87006000D02*
X177582800Y-87006000D01*
X170978800Y-93610000D02*
X170978800Y-87006000D01*
%TO.C,C12*%
X175430800Y-94508000D02*
X175430800Y-96108000D01*
X175430800Y-96108000D02*
X174630800Y-96108000D01*
X174630800Y-94508000D02*
X175430800Y-94508000D01*
X174630800Y-96108000D02*
X174630800Y-94508000D01*
%TO.C,C29*%
X156430800Y-89408000D02*
X155630800Y-89408000D01*
X156430800Y-87808000D02*
X156430800Y-89408000D01*
X155630800Y-87808000D02*
X156430800Y-87808000D01*
X155630800Y-89408000D02*
X155630800Y-87808000D01*
%TO.C,C27*%
X169580800Y-68158000D02*
X169580800Y-68958000D01*
X167980800Y-68958000D02*
X167980800Y-68158000D01*
X169580800Y-68958000D02*
X167980800Y-68958000D01*
X167980800Y-68158000D02*
X169580800Y-68158000D01*
%TO.C,D2*%
X167430800Y-90708000D02*
X165630800Y-90708000D01*
X166529780Y-89008000D02*
X166130800Y-89608000D01*
X166130800Y-89608000D02*
X166930800Y-89608000D01*
X165630800Y-87908000D02*
X167430800Y-87908000D01*
X166530800Y-89008000D02*
X166930800Y-89608000D01*
X165630800Y-90708000D02*
X165630800Y-87908000D01*
X166930800Y-89008000D02*
X166130800Y-89008000D01*
X166530800Y-89608000D02*
X166530800Y-90208000D01*
X167430800Y-90708000D02*
X167430800Y-87908000D01*
X166530800Y-89008000D02*
X166530800Y-88408000D01*
%TO.C,C24*%
X167980800Y-64658000D02*
X169580800Y-64658000D01*
X169580800Y-64658000D02*
X169580800Y-65458000D01*
X167980800Y-65458000D02*
X167980800Y-64658000D01*
X169580800Y-65458000D02*
X167980800Y-65458000D01*
%TO.C,R5*%
X147430800Y-88758000D02*
X147430800Y-90358000D01*
X146630800Y-90358000D02*
X146630800Y-88758000D01*
X147430800Y-90358000D02*
X146630800Y-90358000D01*
X146630800Y-88758000D02*
X147430800Y-88758000D01*
%TO.C,C14*%
X168880800Y-94308000D02*
X168880800Y-92708000D01*
X168880800Y-92708000D02*
X169680800Y-92708000D01*
X169680800Y-94308000D02*
X168880800Y-94308000D01*
X169680800Y-92708000D02*
X169680800Y-94308000D01*
%TO.C,C15*%
X165380800Y-95608000D02*
X165380800Y-94008000D01*
X166180800Y-94008000D02*
X166180800Y-95608000D01*
X165380800Y-94008000D02*
X166180800Y-94008000D01*
X166180800Y-95608000D02*
X165380800Y-95608000D01*
%TO.C,R6*%
X148630800Y-90358000D02*
X148630800Y-88758000D01*
X149430800Y-88758000D02*
X149430800Y-90358000D01*
X148630800Y-88758000D02*
X149430800Y-88758000D01*
X149430800Y-90358000D02*
X148630800Y-90358000D01*
%TO.C,R8*%
X152780800Y-80958000D02*
X152780800Y-81758000D01*
X151180800Y-81758000D02*
X151180800Y-80958000D01*
X152780800Y-81758000D02*
X151180800Y-81758000D01*
X151180800Y-80958000D02*
X152780800Y-80958000D01*
%TO.C,R2*%
X154368600Y-93058000D02*
X154368600Y-92258000D01*
X155968600Y-93058000D02*
X154368600Y-93058000D01*
X154368600Y-92258000D02*
X155968600Y-92258000D01*
X155968600Y-92258000D02*
X155968600Y-93058000D01*
D16*
%TO.C,CONN6*%
X182030800Y-58158000D02*
X182030800Y-63258000D01*
X172030800Y-58158000D02*
X182030800Y-58158000D01*
X172030800Y-63258000D02*
X172030800Y-58158000D01*
X182030800Y-63258000D02*
X172030800Y-63258000D01*
D10*
%TO.C,C21*%
X183630800Y-99658000D02*
X183630800Y-98058000D01*
X184430800Y-99658000D02*
X183630800Y-99658000D01*
X183630800Y-98058000D02*
X184430800Y-98058000D01*
X184430800Y-98058000D02*
X184430800Y-99658000D01*
%TO.C,C42*%
X149230800Y-94658000D02*
X150830800Y-94658000D01*
X149230800Y-95458000D02*
X149230800Y-94658000D01*
X150830800Y-94658000D02*
X150830800Y-95458000D01*
X150830800Y-95458000D02*
X149230800Y-95458000D01*
%TO.C,F3*%
X192780800Y-100808000D02*
G75*
G03*
X192780800Y-100808000I-750000J0D01*
G01*
D16*
%TO.C,U1*%
X155956600Y-97308000D02*
X155956600Y-94208000D01*
X152856600Y-97308000D02*
X155956600Y-97308000D01*
X155956600Y-94208000D02*
X152856600Y-94208000D01*
X152856600Y-94208000D02*
X152856600Y-97308000D01*
D17*
X152474600Y-93980000D02*
G75*
G03*
X152474600Y-93980000I-100000J0D01*
G01*
D16*
%TO.C,D4*%
X146830800Y-77328000D02*
X148230800Y-77328000D01*
X148230800Y-74288000D02*
X146830800Y-74288000D01*
X148230800Y-77328000D02*
X148230800Y-74288000D01*
X146830800Y-74288000D02*
X146830800Y-77328000D01*
D10*
%TO.C,U8*%
X178480800Y-67808000D02*
X178480800Y-70058000D01*
X174080800Y-67808000D02*
X178480800Y-67808000D01*
X178480800Y-70058000D02*
X177730800Y-70808000D01*
X174080800Y-70808000D02*
X174080800Y-67808000D01*
X177730800Y-70808000D02*
X174080800Y-70808000D01*
%TO.C,CONN2*%
X156430800Y-99358000D02*
X150680800Y-99358000D01*
X150680800Y-104933000D02*
X151680800Y-104308000D01*
X151680800Y-104308000D02*
X150680800Y-103683000D01*
X150680800Y-106758000D02*
X156430800Y-106758000D01*
X150680800Y-99358000D02*
X150680800Y-106758000D01*
X156430800Y-106758000D02*
X156430800Y-99358000D01*
%TO.C,R11*%
X166730800Y-79408000D02*
X168330800Y-79408000D01*
X168330800Y-80208000D02*
X166730800Y-80208000D01*
X166730800Y-80208000D02*
X166730800Y-79408000D01*
X168330800Y-79408000D02*
X168330800Y-80208000D01*
%TO.C,C26*%
X166380800Y-75008000D02*
X167180800Y-75008000D01*
X166380800Y-76608000D02*
X166380800Y-75008000D01*
X167180800Y-75008000D02*
X167180800Y-76608000D01*
X167180800Y-76608000D02*
X166380800Y-76608000D01*
%TO.C,R1*%
X178230800Y-96108000D02*
X178230800Y-94508000D01*
X179030800Y-96108000D02*
X178230800Y-96108000D01*
X179030800Y-94508000D02*
X179030800Y-96108000D01*
X178230800Y-94508000D02*
X179030800Y-94508000D01*
%TO.C,CONN4*%
X149710000Y-78014000D02*
X149710000Y-87594000D01*
X142180000Y-87594000D02*
X142180000Y-78014000D01*
X149710000Y-87594000D02*
X142180000Y-87594000D01*
X142180000Y-78014000D02*
X149710000Y-78014000D01*
%TO.C,F2*%
X146280800Y-100808000D02*
G75*
G03*
X146280800Y-100808000I-750000J0D01*
G01*
%TO.C,C5*%
X187680800Y-96508000D02*
X187680800Y-98108000D01*
X186880800Y-96508000D02*
X187680800Y-96508000D01*
X186880800Y-98108000D02*
X186880800Y-96508000D01*
X187680800Y-98108000D02*
X186880800Y-98108000D01*
D16*
%TO.C,CONN8*%
X160530800Y-63258000D02*
X150530800Y-63258000D01*
X150530800Y-63258000D02*
X150530800Y-58158000D01*
X160530800Y-58158000D02*
X160530800Y-63258000D01*
X150530800Y-58158000D02*
X160530800Y-58158000D01*
D10*
%TO.C,R4*%
X179930800Y-96108000D02*
X179930800Y-94508000D01*
X180730800Y-96108000D02*
X179930800Y-96108000D01*
X179930800Y-94508000D02*
X180730800Y-94508000D01*
X180730800Y-94508000D02*
X180730800Y-96108000D01*
%TO.C,C31*%
X167030800Y-85558000D02*
X168630800Y-85558000D01*
X168630800Y-85558000D02*
X168630800Y-86358000D01*
X167030800Y-86358000D02*
X167030800Y-85558000D01*
X168630800Y-86358000D02*
X167030800Y-86358000D01*
%TO.C,C41*%
X179230800Y-87808000D02*
X180830800Y-87808000D01*
X180830800Y-88608000D02*
X179230800Y-88608000D01*
X180830800Y-87808000D02*
X180830800Y-88608000D01*
X179230800Y-88608000D02*
X179230800Y-87808000D01*
%TO.C,C22*%
X180630800Y-66358000D02*
X180630800Y-64758000D01*
X181430800Y-66358000D02*
X180630800Y-66358000D01*
X181430800Y-64758000D02*
X181430800Y-66358000D01*
X180630800Y-64758000D02*
X181430800Y-64758000D01*
%TO.C,C4*%
X167980800Y-67208000D02*
X167980800Y-66408000D01*
X167980800Y-66408000D02*
X169580800Y-66408000D01*
X169580800Y-66408000D02*
X169580800Y-67208000D01*
X169580800Y-67208000D02*
X167980800Y-67208000D01*
%TO.C,C13*%
X172630800Y-95058000D02*
X171030800Y-95058000D01*
X171030800Y-95058000D02*
X171030800Y-94258000D01*
X171030800Y-94258000D02*
X172630800Y-94258000D01*
X172630800Y-94258000D02*
X172630800Y-95058000D01*
%TO.C,C32*%
X149230800Y-93708000D02*
X149230800Y-92908000D01*
X149230800Y-92908000D02*
X150830800Y-92908000D01*
X150830800Y-92908000D02*
X150830800Y-93708000D01*
X150830800Y-93708000D02*
X149230800Y-93708000D01*
%TO.C,F1*%
X146780800Y-64308000D02*
G75*
G03*
X146780800Y-64308000I-750000J0D01*
G01*
%TO.C,C11*%
X176230800Y-96108000D02*
X176230800Y-94508000D01*
X177030800Y-94508000D02*
X177030800Y-96108000D01*
X176230800Y-94508000D02*
X177030800Y-94508000D01*
X177030800Y-96108000D02*
X176230800Y-96108000D01*
%TO.C,R3*%
X154830800Y-86308000D02*
X154030800Y-86308000D01*
X154030800Y-86308000D02*
X154030800Y-84708000D01*
X154830800Y-84708000D02*
X154830800Y-86308000D01*
X154030800Y-84708000D02*
X154830800Y-84708000D01*
%TO.C,C25*%
X184430800Y-101258000D02*
X184430800Y-102858000D01*
X184430800Y-102858000D02*
X183630800Y-102858000D01*
X183630800Y-102858000D02*
X183630800Y-101258000D01*
X183630800Y-101258000D02*
X184430800Y-101258000D01*
%TO.C,C7*%
X157230800Y-86308000D02*
X157230800Y-84708000D01*
X157230800Y-84708000D02*
X158030800Y-84708000D01*
X158030800Y-86308000D02*
X157230800Y-86308000D01*
X158030800Y-84708000D02*
X158030800Y-86308000D01*
%TO.C,C16*%
X161880800Y-95608000D02*
X161880800Y-94008000D01*
X161880800Y-94008000D02*
X162680800Y-94008000D01*
X162680800Y-94008000D02*
X162680800Y-95608000D01*
X162680800Y-95608000D02*
X161880800Y-95608000D01*
%TO.C,C28*%
X163830800Y-64008000D02*
X163830800Y-64808000D01*
X163830800Y-64808000D02*
X162230800Y-64808000D01*
X162230800Y-64008000D02*
X163830800Y-64008000D01*
X162230800Y-64808000D02*
X162230800Y-64008000D01*
%TO.C,R10*%
X166730800Y-81158000D02*
X168330800Y-81158000D01*
X166730800Y-81958000D02*
X166730800Y-81158000D01*
X168330800Y-81158000D02*
X168330800Y-81958000D01*
X168330800Y-81958000D02*
X166730800Y-81958000D01*
D16*
%TO.C,CONN7*%
X171280800Y-58158000D02*
X171280800Y-63258000D01*
X161280800Y-58158000D02*
X171280800Y-58158000D01*
X171280800Y-63258000D02*
X161280800Y-63258000D01*
X161280800Y-63258000D02*
X161280800Y-58158000D01*
%TD*%
M02*
