%TF.GenerationSoftware,KiCad,Pcbnew,(6.0.8)*%
%TF.CreationDate,2023-02-21T11:31:40+01:00*%
%TF.ProjectId,MuMo-v2-Node,4d754d6f-2d76-4322-9d4e-6f64652e6b69,rev?*%
%TF.SameCoordinates,Original*%
%TF.FileFunction,Legend,Top*%
%TF.FilePolarity,Positive*%
%FSLAX46Y46*%
G04 Gerber Fmt 4.6, Leading zero omitted, Abs format (unit mm)*
G04 Created by KiCad (PCBNEW (6.0.8)) date 2023-02-21 11:31:40*
%MOMM*%
%LPD*%
G01*
G04 APERTURE LIST*
%ADD10C,0.250000*%
%ADD11C,0.150000*%
%ADD12C,0.200000*%
%ADD13C,0.120000*%
%ADD14C,0.343981*%
%ADD15C,0.517905*%
%ADD16C,0.010000*%
%ADD17C,0.127000*%
G04 APERTURE END LIST*
D10*
X190852228Y-64165142D02*
X192352228Y-64165142D01*
X191280800Y-64665142D01*
X192352228Y-65165142D01*
X190852228Y-65165142D01*
X191852228Y-66522285D02*
X190852228Y-66522285D01*
X191852228Y-65879428D02*
X191066514Y-65879428D01*
X190923657Y-65950857D01*
X190852228Y-66093714D01*
X190852228Y-66308000D01*
X190923657Y-66450857D01*
X190995085Y-66522285D01*
X190852228Y-67236571D02*
X192352228Y-67236571D01*
X191280800Y-67736571D01*
X192352228Y-68236571D01*
X190852228Y-68236571D01*
X190852228Y-69165142D02*
X190923657Y-69022285D01*
X190995085Y-68950857D01*
X191137942Y-68879428D01*
X191566514Y-68879428D01*
X191709371Y-68950857D01*
X191780800Y-69022285D01*
X191852228Y-69165142D01*
X191852228Y-69379428D01*
X191780800Y-69522285D01*
X191709371Y-69593714D01*
X191566514Y-69665142D01*
X191137942Y-69665142D01*
X190995085Y-69593714D01*
X190923657Y-69522285D01*
X190852228Y-69379428D01*
X190852228Y-69165142D01*
X191852228Y-71308000D02*
X190852228Y-71665142D01*
X191852228Y-72022285D01*
X192209371Y-72522285D02*
X192280800Y-72593714D01*
X192352228Y-72736571D01*
X192352228Y-73093714D01*
X192280800Y-73236571D01*
X192209371Y-73308000D01*
X192066514Y-73379428D01*
X191923657Y-73379428D01*
X191709371Y-73308000D01*
X190852228Y-72450857D01*
X190852228Y-73379428D01*
X190995085Y-74022285D02*
X190923657Y-74093714D01*
X190852228Y-74022285D01*
X190923657Y-73950857D01*
X190995085Y-74022285D01*
X190852228Y-74022285D01*
X190852228Y-75522285D02*
X190852228Y-74665142D01*
X190852228Y-75093714D02*
X192352228Y-75093714D01*
X192137942Y-74950857D01*
X191995085Y-74808000D01*
X191923657Y-74665142D01*
D11*
X149423657Y-102569904D02*
X149423657Y-101046095D01*
X148768895Y-104450857D02*
X150292704Y-104450857D01*
X149530800Y-105212761D02*
X149530800Y-103688952D01*
%TO.C,U3*%
X158568895Y-78954380D02*
X158568895Y-79763904D01*
X158616514Y-79859142D01*
X158664133Y-79906761D01*
X158759371Y-79954380D01*
X158949847Y-79954380D01*
X159045085Y-79906761D01*
X159092704Y-79859142D01*
X159140323Y-79763904D01*
X159140323Y-78954380D01*
X159521276Y-78954380D02*
X160140323Y-78954380D01*
X159806990Y-79335333D01*
X159949847Y-79335333D01*
X160045085Y-79382952D01*
X160092704Y-79430571D01*
X160140323Y-79525809D01*
X160140323Y-79763904D01*
X160092704Y-79859142D01*
X160045085Y-79906761D01*
X159949847Y-79954380D01*
X159664133Y-79954380D01*
X159568895Y-79906761D01*
X159521276Y-79859142D01*
%TO.C,U2*%
X170256295Y-71207380D02*
X170256295Y-72016904D01*
X170303914Y-72112142D01*
X170351533Y-72159761D01*
X170446771Y-72207380D01*
X170637247Y-72207380D01*
X170732485Y-72159761D01*
X170780104Y-72112142D01*
X170827723Y-72016904D01*
X170827723Y-71207380D01*
X171256295Y-71302619D02*
X171303914Y-71255000D01*
X171399152Y-71207380D01*
X171637247Y-71207380D01*
X171732485Y-71255000D01*
X171780104Y-71302619D01*
X171827723Y-71397857D01*
X171827723Y-71493095D01*
X171780104Y-71635952D01*
X171208676Y-72207380D01*
X171827723Y-72207380D01*
%TO.C,CONN1*%
X161683180Y-77812761D02*
X160683180Y-77812761D01*
X160683180Y-77574666D01*
X160730800Y-77431809D01*
X160826038Y-77336571D01*
X160921276Y-77288952D01*
X161111752Y-77241333D01*
X161254609Y-77241333D01*
X161445085Y-77288952D01*
X161540323Y-77336571D01*
X161635561Y-77431809D01*
X161683180Y-77574666D01*
X161683180Y-77812761D01*
X161159371Y-76812761D02*
X161159371Y-76479428D01*
X161683180Y-76336571D02*
X161683180Y-76812761D01*
X160683180Y-76812761D01*
X160683180Y-76336571D01*
X161159371Y-75574666D02*
X161206990Y-75431809D01*
X161254609Y-75384190D01*
X161349847Y-75336571D01*
X161492704Y-75336571D01*
X161587942Y-75384190D01*
X161635561Y-75431809D01*
X161683180Y-75527047D01*
X161683180Y-75908000D01*
X160683180Y-75908000D01*
X160683180Y-75574666D01*
X160730800Y-75479428D01*
X160778419Y-75431809D01*
X160873657Y-75384190D01*
X160968895Y-75384190D01*
X161064133Y-75431809D01*
X161111752Y-75479428D01*
X161159371Y-75574666D01*
X161159371Y-75908000D01*
X160683180Y-74908000D02*
X161492704Y-74908000D01*
X161587942Y-74860380D01*
X161635561Y-74812761D01*
X161683180Y-74717523D01*
X161683180Y-74527047D01*
X161635561Y-74431809D01*
X161587942Y-74384190D01*
X161492704Y-74336571D01*
X160683180Y-74336571D01*
X160730800Y-73336571D02*
X160683180Y-73431809D01*
X160683180Y-73574666D01*
X160730800Y-73717523D01*
X160826038Y-73812761D01*
X160921276Y-73860380D01*
X161111752Y-73908000D01*
X161254609Y-73908000D01*
X161445085Y-73860380D01*
X161540323Y-73812761D01*
X161635561Y-73717523D01*
X161683180Y-73574666D01*
X161683180Y-73479428D01*
X161635561Y-73336571D01*
X161587942Y-73288952D01*
X161254609Y-73288952D01*
X161254609Y-73479428D01*
X161302228Y-72860380D02*
X161302228Y-72098476D01*
X161635561Y-71669904D02*
X161683180Y-71527047D01*
X161683180Y-71288952D01*
X161635561Y-71193714D01*
X161587942Y-71146095D01*
X161492704Y-71098476D01*
X161397466Y-71098476D01*
X161302228Y-71146095D01*
X161254609Y-71193714D01*
X161206990Y-71288952D01*
X161159371Y-71479428D01*
X161111752Y-71574666D01*
X161064133Y-71622285D01*
X160968895Y-71669904D01*
X160873657Y-71669904D01*
X160778419Y-71622285D01*
X160730800Y-71574666D01*
X160683180Y-71479428D01*
X160683180Y-71241333D01*
X160730800Y-71098476D01*
X160683180Y-70765142D02*
X161683180Y-70527047D01*
X160968895Y-70336571D01*
X161683180Y-70146095D01*
X160683180Y-69908000D01*
X161683180Y-69527047D02*
X160683180Y-69527047D01*
X160683180Y-69288952D01*
X160730800Y-69146095D01*
X160826038Y-69050857D01*
X160921276Y-69003238D01*
X161111752Y-68955619D01*
X161254609Y-68955619D01*
X161445085Y-69003238D01*
X161540323Y-69050857D01*
X161635561Y-69146095D01*
X161683180Y-69288952D01*
X161683180Y-69527047D01*
%TO.C,U7*%
X175618895Y-65160380D02*
X175618895Y-65969904D01*
X175666514Y-66065142D01*
X175714133Y-66112761D01*
X175809371Y-66160380D01*
X175999847Y-66160380D01*
X176095085Y-66112761D01*
X176142704Y-66065142D01*
X176190323Y-65969904D01*
X176190323Y-65160380D01*
X176571276Y-65160380D02*
X177237942Y-65160380D01*
X176809371Y-66160380D01*
%TO.C,JP1*%
X147083180Y-98041333D02*
X147797466Y-98041333D01*
X147940323Y-98088952D01*
X148035561Y-98184190D01*
X148083180Y-98327047D01*
X148083180Y-98422285D01*
X148083180Y-97565142D02*
X147083180Y-97565142D01*
X147083180Y-97184190D01*
X147130800Y-97088952D01*
X147178419Y-97041333D01*
X147273657Y-96993714D01*
X147416514Y-96993714D01*
X147511752Y-97041333D01*
X147559371Y-97088952D01*
X147606990Y-97184190D01*
X147606990Y-97565142D01*
X148083180Y-96041333D02*
X148083180Y-96612761D01*
X148083180Y-96327047D02*
X147083180Y-96327047D01*
X147226038Y-96422285D01*
X147321276Y-96517523D01*
X147368895Y-96612761D01*
D12*
%TO.C,CONN6*%
X182630800Y-62350857D02*
X182583180Y-62446095D01*
X182583180Y-62588952D01*
X182630800Y-62731809D01*
X182726038Y-62827047D01*
X182821276Y-62874666D01*
X183011752Y-62922285D01*
X183154609Y-62922285D01*
X183345085Y-62874666D01*
X183440323Y-62827047D01*
X183535561Y-62731809D01*
X183583180Y-62588952D01*
X183583180Y-62493714D01*
X183535561Y-62350857D01*
X183487942Y-62303238D01*
X183154609Y-62303238D01*
X183154609Y-62493714D01*
X183583180Y-61303238D02*
X183106990Y-61636571D01*
X183583180Y-61874666D02*
X182583180Y-61874666D01*
X182583180Y-61493714D01*
X182630800Y-61398476D01*
X182678419Y-61350857D01*
X182773657Y-61303238D01*
X182916514Y-61303238D01*
X183011752Y-61350857D01*
X183059371Y-61398476D01*
X183106990Y-61493714D01*
X183106990Y-61874666D01*
X182583180Y-60684190D02*
X182583180Y-60493714D01*
X182630800Y-60398476D01*
X182726038Y-60303238D01*
X182916514Y-60255619D01*
X183249847Y-60255619D01*
X183440323Y-60303238D01*
X183535561Y-60398476D01*
X183583180Y-60493714D01*
X183583180Y-60684190D01*
X183535561Y-60779428D01*
X183440323Y-60874666D01*
X183249847Y-60922285D01*
X182916514Y-60922285D01*
X182726038Y-60874666D01*
X182630800Y-60779428D01*
X182583180Y-60684190D01*
X182583180Y-59969904D02*
X183583180Y-59636571D01*
X182583180Y-59303238D01*
X183059371Y-58969904D02*
X183059371Y-58636571D01*
X183583180Y-58493714D02*
X183583180Y-58969904D01*
X182583180Y-58969904D01*
X182583180Y-58493714D01*
D11*
%TO.C,U1*%
X153516453Y-97876488D02*
X153516453Y-98687331D01*
X153564150Y-98782725D01*
X153611846Y-98830421D01*
X153707240Y-98878118D01*
X153898026Y-98878118D01*
X153993420Y-98830421D01*
X154041116Y-98782725D01*
X154088813Y-98687331D01*
X154088813Y-97876488D01*
X155090443Y-98878118D02*
X154518083Y-98878118D01*
X154804263Y-98878118D02*
X154804263Y-97876488D01*
X154708870Y-98019578D01*
X154613476Y-98114971D01*
X154518083Y-98162668D01*
%TO.C,U8*%
X175618895Y-68610380D02*
X175618895Y-69419904D01*
X175666514Y-69515142D01*
X175714133Y-69562761D01*
X175809371Y-69610380D01*
X175999847Y-69610380D01*
X176095085Y-69562761D01*
X176142704Y-69515142D01*
X176190323Y-69419904D01*
X176190323Y-68610380D01*
X176809371Y-69038952D02*
X176714133Y-68991333D01*
X176666514Y-68943714D01*
X176618895Y-68848476D01*
X176618895Y-68800857D01*
X176666514Y-68705619D01*
X176714133Y-68658000D01*
X176809371Y-68610380D01*
X176999847Y-68610380D01*
X177095085Y-68658000D01*
X177142704Y-68705619D01*
X177190323Y-68800857D01*
X177190323Y-68848476D01*
X177142704Y-68943714D01*
X177095085Y-68991333D01*
X176999847Y-69038952D01*
X176809371Y-69038952D01*
X176714133Y-69086571D01*
X176666514Y-69134190D01*
X176618895Y-69229428D01*
X176618895Y-69419904D01*
X176666514Y-69515142D01*
X176714133Y-69562761D01*
X176809371Y-69610380D01*
X176999847Y-69610380D01*
X177095085Y-69562761D01*
X177142704Y-69515142D01*
X177190323Y-69419904D01*
X177190323Y-69229428D01*
X177142704Y-69134190D01*
X177095085Y-69086571D01*
X176999847Y-69038952D01*
%TO.C,CONN2*%
X157421419Y-101026285D02*
X157421419Y-100550095D01*
X158421419Y-100550095D01*
X157421419Y-101359619D02*
X158088085Y-101359619D01*
X158421419Y-101359619D02*
X158373800Y-101312000D01*
X158326180Y-101359619D01*
X158373800Y-101407238D01*
X158421419Y-101359619D01*
X158326180Y-101359619D01*
X157945228Y-102169142D02*
X157945228Y-101835809D01*
X157421419Y-101835809D02*
X158421419Y-101835809D01*
X158421419Y-102312000D01*
X157469038Y-103073904D02*
X157421419Y-102978666D01*
X157421419Y-102788190D01*
X157469038Y-102692952D01*
X157564276Y-102645333D01*
X157945228Y-102645333D01*
X158040466Y-102692952D01*
X158088085Y-102788190D01*
X158088085Y-102978666D01*
X158040466Y-103073904D01*
X157945228Y-103121523D01*
X157849990Y-103121523D01*
X157754752Y-102645333D01*
X157421419Y-103550095D02*
X158421419Y-103550095D01*
X158421419Y-103931047D01*
X158373800Y-104026285D01*
X158326180Y-104073904D01*
X158230942Y-104121523D01*
X158088085Y-104121523D01*
X157992847Y-104073904D01*
X157945228Y-104026285D01*
X157897609Y-103931047D01*
X157897609Y-103550095D01*
X158421419Y-104740571D02*
X158421419Y-104931047D01*
X158373800Y-105026285D01*
X158278561Y-105121523D01*
X158088085Y-105169142D01*
X157754752Y-105169142D01*
X157564276Y-105121523D01*
X157469038Y-105026285D01*
X157421419Y-104931047D01*
X157421419Y-104740571D01*
X157469038Y-104645333D01*
X157564276Y-104550095D01*
X157754752Y-104502476D01*
X158088085Y-104502476D01*
X158278561Y-104550095D01*
X158373800Y-104645333D01*
X158421419Y-104740571D01*
X158088085Y-106026285D02*
X157421419Y-106026285D01*
X158469038Y-105788190D02*
X157754752Y-105550095D01*
X157754752Y-106169142D01*
%TO.C,CONN4*%
X145387942Y-84542095D02*
X145435561Y-84589714D01*
X145483180Y-84732571D01*
X145483180Y-84827809D01*
X145435561Y-84970666D01*
X145340323Y-85065904D01*
X145245085Y-85113523D01*
X145054609Y-85161142D01*
X144911752Y-85161142D01*
X144721276Y-85113523D01*
X144626038Y-85065904D01*
X144530800Y-84970666D01*
X144483180Y-84827809D01*
X144483180Y-84732571D01*
X144530800Y-84589714D01*
X144578419Y-84542095D01*
X144483180Y-83923047D02*
X144483180Y-83732571D01*
X144530800Y-83637333D01*
X144626038Y-83542095D01*
X144816514Y-83494476D01*
X145149847Y-83494476D01*
X145340323Y-83542095D01*
X145435561Y-83637333D01*
X145483180Y-83732571D01*
X145483180Y-83923047D01*
X145435561Y-84018285D01*
X145340323Y-84113523D01*
X145149847Y-84161142D01*
X144816514Y-84161142D01*
X144626038Y-84113523D01*
X144530800Y-84018285D01*
X144483180Y-83923047D01*
X145483180Y-83065904D02*
X144483180Y-83065904D01*
X145483180Y-82494476D01*
X144483180Y-82494476D01*
X145483180Y-82018285D02*
X144483180Y-82018285D01*
X145483180Y-81446857D01*
X144483180Y-81446857D01*
X144816514Y-80542095D02*
X145483180Y-80542095D01*
X144435561Y-80780190D02*
X145149847Y-81018285D01*
X145149847Y-80399238D01*
%TO.C,SW1*%
X189133180Y-62358380D02*
X188656990Y-62691714D01*
X189133180Y-62929809D02*
X188133180Y-62929809D01*
X188133180Y-62548857D01*
X188180800Y-62453619D01*
X188228419Y-62406000D01*
X188323657Y-62358380D01*
X188466514Y-62358380D01*
X188561752Y-62406000D01*
X188609371Y-62453619D01*
X188656990Y-62548857D01*
X188656990Y-62929809D01*
X188609371Y-61929809D02*
X188609371Y-61596476D01*
X189133180Y-61453619D02*
X189133180Y-61929809D01*
X188133180Y-61929809D01*
X188133180Y-61453619D01*
X189085561Y-61072666D02*
X189133180Y-60929809D01*
X189133180Y-60691714D01*
X189085561Y-60596476D01*
X189037942Y-60548857D01*
X188942704Y-60501238D01*
X188847466Y-60501238D01*
X188752228Y-60548857D01*
X188704609Y-60596476D01*
X188656990Y-60691714D01*
X188609371Y-60882190D01*
X188561752Y-60977428D01*
X188514133Y-61025047D01*
X188418895Y-61072666D01*
X188323657Y-61072666D01*
X188228419Y-61025047D01*
X188180800Y-60977428D01*
X188133180Y-60882190D01*
X188133180Y-60644095D01*
X188180800Y-60501238D01*
X188609371Y-60072666D02*
X188609371Y-59739333D01*
X189133180Y-59596476D02*
X189133180Y-60072666D01*
X188133180Y-60072666D01*
X188133180Y-59596476D01*
X188133180Y-59310761D02*
X188133180Y-58739333D01*
X189133180Y-59025047D02*
X188133180Y-59025047D01*
D12*
%TO.C,CONN8*%
X149983180Y-62641333D02*
X148983180Y-62641333D01*
X149078419Y-62212761D02*
X149030800Y-62165142D01*
X148983180Y-62069904D01*
X148983180Y-61831809D01*
X149030800Y-61736571D01*
X149078419Y-61688952D01*
X149173657Y-61641333D01*
X149268895Y-61641333D01*
X149411752Y-61688952D01*
X149983180Y-62260380D01*
X149983180Y-61641333D01*
X149887942Y-60641333D02*
X149935561Y-60688952D01*
X149983180Y-60831809D01*
X149983180Y-60927047D01*
X149935561Y-61069904D01*
X149840323Y-61165142D01*
X149745085Y-61212761D01*
X149554609Y-61260380D01*
X149411752Y-61260380D01*
X149221276Y-61212761D01*
X149126038Y-61165142D01*
X149030800Y-61069904D01*
X148983180Y-60927047D01*
X148983180Y-60831809D01*
X149030800Y-60688952D01*
X149078419Y-60641333D01*
X148983180Y-60069904D02*
X149221276Y-60069904D01*
X149126038Y-60308000D02*
X149221276Y-60069904D01*
X149126038Y-59831809D01*
X149411752Y-60212761D02*
X149221276Y-60069904D01*
X149411752Y-59927047D01*
X149078419Y-59498476D02*
X149030800Y-59450857D01*
X148983180Y-59355619D01*
X148983180Y-59117523D01*
X149030800Y-59022285D01*
X149078419Y-58974666D01*
X149173657Y-58927047D01*
X149268895Y-58927047D01*
X149411752Y-58974666D01*
X149983180Y-59546095D01*
X149983180Y-58927047D01*
D13*
%TO.C,U3*%
X162554800Y-80645000D02*
X163316800Y-80645000D01*
X163316800Y-84328000D02*
X163316800Y-85090000D01*
X163316800Y-85090000D02*
X162554800Y-85090000D01*
X159506800Y-85090000D02*
X158744800Y-85090000D01*
X163316800Y-80645000D02*
X163316800Y-81280000D01*
X158744800Y-85090000D02*
X158744800Y-84328000D01*
D14*
X159043790Y-80645000D02*
G75*
G03*
X159043790Y-80645000I-171990J0D01*
G01*
D13*
%TO.C,CONN3*%
X162465800Y-101348000D02*
X162355800Y-101348000D01*
X162355800Y-101348000D02*
X162355800Y-101948000D01*
X180005800Y-101348000D02*
X180005800Y-101948000D01*
X179895800Y-101348000D02*
X180005800Y-101348000D01*
%TO.C,C2*%
X168921380Y-69798000D02*
X168640220Y-69798000D01*
X168921380Y-70818000D02*
X168640220Y-70818000D01*
%TO.C,C3*%
X169040800Y-75667420D02*
X169040800Y-75948580D01*
X168020800Y-75667420D02*
X168020800Y-75948580D01*
%TO.C,C8*%
X182520800Y-65698580D02*
X182520800Y-65417420D01*
X183540800Y-65698580D02*
X183540800Y-65417420D01*
%TO.C,C1*%
X187758800Y-92952180D02*
X187758800Y-92671020D01*
X186738800Y-92952180D02*
X186738800Y-92671020D01*
%TO.C,U2*%
D15*
X170108752Y-73660000D02*
G75*
G03*
X170108752Y-73660000I-258952J0D01*
G01*
D13*
X172389800Y-84963000D02*
X170738800Y-84963000D01*
X170738800Y-72771000D02*
X172389800Y-72771000D01*
X182930800Y-83312000D02*
X182930800Y-84963000D01*
X170738800Y-84963000D02*
X170738800Y-83312000D01*
X182930800Y-84963000D02*
X181279800Y-84963000D01*
X182930800Y-72771000D02*
X182930800Y-74422000D01*
X181279800Y-72771000D02*
X182930800Y-72771000D01*
X170738800Y-74422000D02*
X170738800Y-72771000D01*
%TO.C,C18*%
X167020800Y-93367420D02*
X167020800Y-93648580D01*
X168040800Y-93367420D02*
X168040800Y-93648580D01*
%TO.C,R9*%
X180520800Y-69167420D02*
X180520800Y-69448580D01*
X181540800Y-69167420D02*
X181540800Y-69448580D01*
%TO.C,D3*%
X168045800Y-91588000D02*
X168045800Y-87908000D01*
X168045800Y-91588000D02*
X170065800Y-91588000D01*
X170065800Y-91588000D02*
X170065800Y-87908000D01*
%TO.C,R7*%
X152121380Y-84768000D02*
X151840220Y-84768000D01*
X152121380Y-83748000D02*
X151840220Y-83748000D01*
%TO.C,CONN1*%
X161950800Y-78498000D02*
X164610800Y-78498000D01*
X161950800Y-65678000D02*
X163280800Y-65678000D01*
X161950800Y-68278000D02*
X161950800Y-78498000D01*
X161950800Y-68278000D02*
X164610800Y-68278000D01*
X164610800Y-68278000D02*
X164610800Y-78498000D01*
X161950800Y-67008000D02*
X161950800Y-65678000D01*
%TO.C,TP2*%
X143580800Y-96258000D02*
X143580800Y-94358000D01*
X145480800Y-94358000D02*
X145480800Y-96258000D01*
X143580800Y-94358000D02*
X145480800Y-94358000D01*
X145480800Y-96258000D02*
X143580800Y-96258000D01*
%TO.C,C17*%
X163520800Y-94667420D02*
X163520800Y-94948580D01*
X164540800Y-94667420D02*
X164540800Y-94948580D01*
%TO.C,U7*%
X173359800Y-66828000D02*
X173359800Y-67209000D01*
X173359800Y-63907000D02*
X173359800Y-64288000D01*
X173359800Y-67209000D02*
X178566800Y-67209000D01*
X179201800Y-64288000D02*
X179201800Y-63907000D01*
X179201800Y-63907000D02*
X173359800Y-63907000D01*
D14*
X179373790Y-67209000D02*
G75*
G03*
X179373790Y-67209000I-171990J0D01*
G01*
D13*
%TO.C,Q1*%
X179300800Y-90558000D02*
X179300800Y-89898000D01*
X180710800Y-89898000D02*
X179300800Y-89898000D01*
X179300800Y-92218000D02*
X179300800Y-91558000D01*
X179300800Y-92218000D02*
X181330800Y-92218000D01*
%TO.C,C23*%
X161040800Y-98698580D02*
X161040800Y-98417420D01*
X160020800Y-98698580D02*
X160020800Y-98417420D01*
%TO.C,C30*%
X155520800Y-85367420D02*
X155520800Y-85648580D01*
X156540800Y-85367420D02*
X156540800Y-85648580D01*
%TO.C,C6*%
X158140800Y-88467420D02*
X158140800Y-88748580D01*
X157120800Y-88467420D02*
X157120800Y-88748580D01*
%TO.C,JP1*%
X148630800Y-96308000D02*
X151430800Y-96308000D01*
X151430800Y-96308000D02*
X151430800Y-98308000D01*
X148630800Y-98308000D02*
X148630800Y-96308000D01*
X151430800Y-98308000D02*
X148630800Y-98308000D01*
%TO.C,D1*%
X163020800Y-92938000D02*
X163020800Y-89258000D01*
X165040800Y-92938000D02*
X165040800Y-89258000D01*
X163020800Y-92938000D02*
X165040800Y-92938000D01*
%TO.C,L1*%
X171486800Y-87260000D02*
X171359800Y-87260000D01*
X171232800Y-93356000D02*
X171232800Y-87260000D01*
X177328800Y-93356000D02*
X177074800Y-93356000D01*
X171232800Y-93356000D02*
X171486800Y-93356000D01*
X171232800Y-87260000D02*
X171486800Y-87260000D01*
X177074800Y-87260000D02*
X177328800Y-87260000D01*
X177328800Y-87260000D02*
X177328800Y-93356000D01*
%TO.C,C12*%
X175540800Y-95167420D02*
X175540800Y-95448580D01*
X174520800Y-95167420D02*
X174520800Y-95448580D01*
%TO.C,C29*%
X156540800Y-88467420D02*
X156540800Y-88748580D01*
X155520800Y-88467420D02*
X155520800Y-88748580D01*
%TO.C,C27*%
X168921380Y-68048000D02*
X168640220Y-68048000D01*
X168921380Y-69068000D02*
X168640220Y-69068000D01*
%TO.C,U4*%
G36*
X155586614Y-72026931D02*
G01*
X155670435Y-72471555D01*
X155979720Y-72599053D01*
X156289006Y-72726551D01*
X156660046Y-72474246D01*
X156763957Y-72403996D01*
X156857887Y-72341272D01*
X156937452Y-72288938D01*
X156998270Y-72249857D01*
X157035957Y-72226893D01*
X157046221Y-72221942D01*
X157064710Y-72234676D01*
X157104220Y-72269882D01*
X157160322Y-72323062D01*
X157228587Y-72389718D01*
X157304586Y-72465354D01*
X157383892Y-72545472D01*
X157462075Y-72625574D01*
X157534707Y-72701164D01*
X157597359Y-72767745D01*
X157645603Y-72820818D01*
X157675010Y-72855887D01*
X157682041Y-72867623D01*
X157671923Y-72889260D01*
X157643559Y-72936662D01*
X157599929Y-73005193D01*
X157544018Y-73090215D01*
X157478806Y-73187093D01*
X157441019Y-73242350D01*
X157372143Y-73343248D01*
X157310940Y-73434299D01*
X157260378Y-73510970D01*
X157223428Y-73568728D01*
X157203058Y-73603043D01*
X157199997Y-73610254D01*
X157206936Y-73630748D01*
X157225851Y-73678513D01*
X157253887Y-73746832D01*
X157288191Y-73828989D01*
X157325909Y-73918270D01*
X157364187Y-74007958D01*
X157400170Y-74091338D01*
X157431006Y-74161694D01*
X157453839Y-74212310D01*
X157465817Y-74236471D01*
X157466524Y-74237422D01*
X157485331Y-74242036D01*
X157535418Y-74252328D01*
X157611593Y-74267287D01*
X157708665Y-74285901D01*
X157821443Y-74307159D01*
X157887242Y-74319418D01*
X158007750Y-74342362D01*
X158116597Y-74364195D01*
X158208276Y-74383722D01*
X158277281Y-74399748D01*
X158318104Y-74411079D01*
X158326311Y-74414674D01*
X158334348Y-74439006D01*
X158340833Y-74493959D01*
X158345770Y-74573108D01*
X158349164Y-74670026D01*
X158351018Y-74778287D01*
X158351338Y-74891465D01*
X158350127Y-75003135D01*
X158347390Y-75106868D01*
X158343131Y-75196241D01*
X158337355Y-75264826D01*
X158330067Y-75306197D01*
X158325695Y-75314810D01*
X158299564Y-75325133D01*
X158244193Y-75339892D01*
X158166907Y-75357352D01*
X158075030Y-75375780D01*
X158042958Y-75381741D01*
X157888324Y-75410066D01*
X157766175Y-75432876D01*
X157672473Y-75451080D01*
X157603184Y-75465583D01*
X157554271Y-75477292D01*
X157521697Y-75487115D01*
X157501428Y-75495956D01*
X157489426Y-75504724D01*
X157487747Y-75506457D01*
X157470984Y-75534371D01*
X157445414Y-75588695D01*
X157413588Y-75662777D01*
X157378060Y-75749965D01*
X157341383Y-75843608D01*
X157306111Y-75937052D01*
X157274796Y-76023647D01*
X157249993Y-76096740D01*
X157234254Y-76149678D01*
X157230132Y-76175811D01*
X157230476Y-76176726D01*
X157244441Y-76198086D01*
X157276122Y-76245084D01*
X157322191Y-76312827D01*
X157379318Y-76396423D01*
X157444173Y-76490982D01*
X157462643Y-76517854D01*
X157528499Y-76615275D01*
X157586450Y-76704163D01*
X157633338Y-76779412D01*
X157666007Y-76835920D01*
X157681300Y-76868581D01*
X157682041Y-76872593D01*
X157669192Y-76893684D01*
X157633688Y-76935464D01*
X157580093Y-76993445D01*
X157512971Y-77063135D01*
X157436887Y-77140045D01*
X157356404Y-77219683D01*
X157276087Y-77297561D01*
X157200499Y-77369186D01*
X157134205Y-77430070D01*
X157081769Y-77475721D01*
X157047755Y-77501650D01*
X157038345Y-77505883D01*
X157016443Y-77495912D01*
X156971600Y-77469020D01*
X156911121Y-77429736D01*
X156864589Y-77398117D01*
X156780275Y-77340098D01*
X156680426Y-77271784D01*
X156580273Y-77203579D01*
X156526427Y-77167075D01*
X156344171Y-77043800D01*
X156191181Y-77126520D01*
X156121482Y-77162759D01*
X156062214Y-77190926D01*
X156022111Y-77206991D01*
X156011903Y-77209226D01*
X155999629Y-77192722D01*
X155975413Y-77146082D01*
X155941063Y-77073609D01*
X155898388Y-76979606D01*
X155849194Y-76868374D01*
X155795290Y-76744215D01*
X155738484Y-76611432D01*
X155680582Y-76474327D01*
X155623393Y-76337202D01*
X155568724Y-76204358D01*
X155518384Y-76080098D01*
X155474180Y-75968725D01*
X155437919Y-75874539D01*
X155411409Y-75801844D01*
X155396458Y-75754941D01*
X155394054Y-75738833D01*
X155413111Y-75718286D01*
X155454836Y-75684933D01*
X155510506Y-75645702D01*
X155515178Y-75642599D01*
X155659064Y-75527423D01*
X155775083Y-75393053D01*
X155862230Y-75243784D01*
X155919499Y-75083913D01*
X155945886Y-74917737D01*
X155940385Y-74749552D01*
X155901990Y-74583655D01*
X155829695Y-74424342D01*
X155808426Y-74389487D01*
X155697796Y-74248737D01*
X155567102Y-74135714D01*
X155420864Y-74051003D01*
X155263608Y-73995194D01*
X155099857Y-73968874D01*
X154934133Y-73972630D01*
X154770962Y-74007050D01*
X154614865Y-74072723D01*
X154470367Y-74170235D01*
X154425669Y-74209813D01*
X154311912Y-74333703D01*
X154229018Y-74464124D01*
X154172156Y-74610315D01*
X154140487Y-74755088D01*
X154132669Y-74917860D01*
X154158738Y-75081440D01*
X154216045Y-75240298D01*
X154301944Y-75388906D01*
X154413786Y-75521735D01*
X154548923Y-75633256D01*
X154566683Y-75645011D01*
X154622950Y-75683508D01*
X154665723Y-75716863D01*
X154686172Y-75738160D01*
X154686469Y-75738833D01*
X154682079Y-75761871D01*
X154664676Y-75814157D01*
X154636068Y-75891390D01*
X154598065Y-75989268D01*
X154552474Y-76103491D01*
X154501103Y-76229758D01*
X154445762Y-76363767D01*
X154388258Y-76501218D01*
X154330401Y-76637808D01*
X154273998Y-76769237D01*
X154220858Y-76891205D01*
X154172790Y-76999409D01*
X154131601Y-77089549D01*
X154099101Y-77157323D01*
X154077097Y-77198430D01*
X154068236Y-77209226D01*
X154041160Y-77200819D01*
X153990497Y-77178272D01*
X153924983Y-77145613D01*
X153888959Y-77126520D01*
X153735968Y-77043800D01*
X153553712Y-77167075D01*
X153460675Y-77230228D01*
X153358815Y-77299727D01*
X153263362Y-77365165D01*
X153215550Y-77398117D01*
X153148305Y-77443273D01*
X153091364Y-77479057D01*
X153052154Y-77500938D01*
X153039419Y-77505563D01*
X153020883Y-77493085D01*
X152979859Y-77458252D01*
X152920325Y-77404678D01*
X152846258Y-77335983D01*
X152761635Y-77255781D01*
X152708115Y-77204286D01*
X152614481Y-77112286D01*
X152533559Y-77029999D01*
X152468623Y-76960945D01*
X152422942Y-76908644D01*
X152399789Y-76876616D01*
X152397568Y-76870116D01*
X152407876Y-76845394D01*
X152436361Y-76795405D01*
X152479863Y-76725212D01*
X152535223Y-76639875D01*
X152599280Y-76544456D01*
X152617497Y-76517854D01*
X152683873Y-76421167D01*
X152743422Y-76334117D01*
X152792816Y-76261595D01*
X152828725Y-76208493D01*
X152847819Y-76179703D01*
X152849664Y-76176726D01*
X152846905Y-76153782D01*
X152832262Y-76103336D01*
X152808287Y-76032041D01*
X152777534Y-75946547D01*
X152742556Y-75853507D01*
X152705907Y-75759574D01*
X152670139Y-75671399D01*
X152637806Y-75595634D01*
X152611462Y-75538931D01*
X152593658Y-75507943D01*
X152592393Y-75506457D01*
X152581506Y-75497601D01*
X152563118Y-75488843D01*
X152533194Y-75479277D01*
X152487697Y-75467996D01*
X152422591Y-75454093D01*
X152333839Y-75436663D01*
X152217407Y-75414798D01*
X152069258Y-75387591D01*
X152037182Y-75381741D01*
X151942114Y-75363374D01*
X151859235Y-75345405D01*
X151795870Y-75329569D01*
X151759342Y-75317600D01*
X151754444Y-75314810D01*
X151746373Y-75290072D01*
X151739813Y-75234790D01*
X151734767Y-75155389D01*
X151731241Y-75058296D01*
X151729239Y-74949938D01*
X151728764Y-74836740D01*
X151729823Y-74725128D01*
X151732418Y-74621529D01*
X151736554Y-74532368D01*
X151742237Y-74464072D01*
X151749469Y-74423066D01*
X151753829Y-74414674D01*
X151778102Y-74406208D01*
X151833374Y-74392435D01*
X151914138Y-74374550D01*
X152014888Y-74353748D01*
X152130117Y-74331223D01*
X152192898Y-74319418D01*
X152312013Y-74297151D01*
X152418235Y-74276979D01*
X152506373Y-74259915D01*
X152571234Y-74246969D01*
X152607626Y-74239155D01*
X152613616Y-74237422D01*
X152623739Y-74217890D01*
X152645138Y-74170843D01*
X152674961Y-74103003D01*
X152710355Y-74021091D01*
X152748468Y-73931828D01*
X152786447Y-73841935D01*
X152821440Y-73758135D01*
X152850594Y-73687147D01*
X152871057Y-73635694D01*
X152879977Y-73610497D01*
X152880143Y-73609396D01*
X152870031Y-73589519D01*
X152841683Y-73543777D01*
X152798077Y-73476717D01*
X152742194Y-73392884D01*
X152677013Y-73296826D01*
X152639121Y-73241650D01*
X152570075Y-73140481D01*
X152508750Y-73048630D01*
X152458137Y-72970744D01*
X152421229Y-72911469D01*
X152401018Y-72875451D01*
X152398099Y-72867377D01*
X152410647Y-72848584D01*
X152445337Y-72808457D01*
X152497737Y-72751493D01*
X152563416Y-72682185D01*
X152637944Y-72605031D01*
X152716887Y-72524525D01*
X152795817Y-72445163D01*
X152870300Y-72371440D01*
X152935906Y-72307852D01*
X152988204Y-72258894D01*
X153022761Y-72229061D01*
X153034322Y-72221942D01*
X153053146Y-72231953D01*
X153098169Y-72260078D01*
X153165013Y-72303454D01*
X153249301Y-72359218D01*
X153346656Y-72424506D01*
X153420093Y-72474246D01*
X153791133Y-72726551D01*
X154409705Y-72471555D01*
X154493525Y-72026931D01*
X154577346Y-71582307D01*
X155502794Y-71582307D01*
X155586614Y-72026931D01*
G37*
D16*
X155586614Y-72026931D02*
X155670435Y-72471555D01*
X155979720Y-72599053D01*
X156289006Y-72726551D01*
X156660046Y-72474246D01*
X156763957Y-72403996D01*
X156857887Y-72341272D01*
X156937452Y-72288938D01*
X156998270Y-72249857D01*
X157035957Y-72226893D01*
X157046221Y-72221942D01*
X157064710Y-72234676D01*
X157104220Y-72269882D01*
X157160322Y-72323062D01*
X157228587Y-72389718D01*
X157304586Y-72465354D01*
X157383892Y-72545472D01*
X157462075Y-72625574D01*
X157534707Y-72701164D01*
X157597359Y-72767745D01*
X157645603Y-72820818D01*
X157675010Y-72855887D01*
X157682041Y-72867623D01*
X157671923Y-72889260D01*
X157643559Y-72936662D01*
X157599929Y-73005193D01*
X157544018Y-73090215D01*
X157478806Y-73187093D01*
X157441019Y-73242350D01*
X157372143Y-73343248D01*
X157310940Y-73434299D01*
X157260378Y-73510970D01*
X157223428Y-73568728D01*
X157203058Y-73603043D01*
X157199997Y-73610254D01*
X157206936Y-73630748D01*
X157225851Y-73678513D01*
X157253887Y-73746832D01*
X157288191Y-73828989D01*
X157325909Y-73918270D01*
X157364187Y-74007958D01*
X157400170Y-74091338D01*
X157431006Y-74161694D01*
X157453839Y-74212310D01*
X157465817Y-74236471D01*
X157466524Y-74237422D01*
X157485331Y-74242036D01*
X157535418Y-74252328D01*
X157611593Y-74267287D01*
X157708665Y-74285901D01*
X157821443Y-74307159D01*
X157887242Y-74319418D01*
X158007750Y-74342362D01*
X158116597Y-74364195D01*
X158208276Y-74383722D01*
X158277281Y-74399748D01*
X158318104Y-74411079D01*
X158326311Y-74414674D01*
X158334348Y-74439006D01*
X158340833Y-74493959D01*
X158345770Y-74573108D01*
X158349164Y-74670026D01*
X158351018Y-74778287D01*
X158351338Y-74891465D01*
X158350127Y-75003135D01*
X158347390Y-75106868D01*
X158343131Y-75196241D01*
X158337355Y-75264826D01*
X158330067Y-75306197D01*
X158325695Y-75314810D01*
X158299564Y-75325133D01*
X158244193Y-75339892D01*
X158166907Y-75357352D01*
X158075030Y-75375780D01*
X158042958Y-75381741D01*
X157888324Y-75410066D01*
X157766175Y-75432876D01*
X157672473Y-75451080D01*
X157603184Y-75465583D01*
X157554271Y-75477292D01*
X157521697Y-75487115D01*
X157501428Y-75495956D01*
X157489426Y-75504724D01*
X157487747Y-75506457D01*
X157470984Y-75534371D01*
X157445414Y-75588695D01*
X157413588Y-75662777D01*
X157378060Y-75749965D01*
X157341383Y-75843608D01*
X157306111Y-75937052D01*
X157274796Y-76023647D01*
X157249993Y-76096740D01*
X157234254Y-76149678D01*
X157230132Y-76175811D01*
X157230476Y-76176726D01*
X157244441Y-76198086D01*
X157276122Y-76245084D01*
X157322191Y-76312827D01*
X157379318Y-76396423D01*
X157444173Y-76490982D01*
X157462643Y-76517854D01*
X157528499Y-76615275D01*
X157586450Y-76704163D01*
X157633338Y-76779412D01*
X157666007Y-76835920D01*
X157681300Y-76868581D01*
X157682041Y-76872593D01*
X157669192Y-76893684D01*
X157633688Y-76935464D01*
X157580093Y-76993445D01*
X157512971Y-77063135D01*
X157436887Y-77140045D01*
X157356404Y-77219683D01*
X157276087Y-77297561D01*
X157200499Y-77369186D01*
X157134205Y-77430070D01*
X157081769Y-77475721D01*
X157047755Y-77501650D01*
X157038345Y-77505883D01*
X157016443Y-77495912D01*
X156971600Y-77469020D01*
X156911121Y-77429736D01*
X156864589Y-77398117D01*
X156780275Y-77340098D01*
X156680426Y-77271784D01*
X156580273Y-77203579D01*
X156526427Y-77167075D01*
X156344171Y-77043800D01*
X156191181Y-77126520D01*
X156121482Y-77162759D01*
X156062214Y-77190926D01*
X156022111Y-77206991D01*
X156011903Y-77209226D01*
X155999629Y-77192722D01*
X155975413Y-77146082D01*
X155941063Y-77073609D01*
X155898388Y-76979606D01*
X155849194Y-76868374D01*
X155795290Y-76744215D01*
X155738484Y-76611432D01*
X155680582Y-76474327D01*
X155623393Y-76337202D01*
X155568724Y-76204358D01*
X155518384Y-76080098D01*
X155474180Y-75968725D01*
X155437919Y-75874539D01*
X155411409Y-75801844D01*
X155396458Y-75754941D01*
X155394054Y-75738833D01*
X155413111Y-75718286D01*
X155454836Y-75684933D01*
X155510506Y-75645702D01*
X155515178Y-75642599D01*
X155659064Y-75527423D01*
X155775083Y-75393053D01*
X155862230Y-75243784D01*
X155919499Y-75083913D01*
X155945886Y-74917737D01*
X155940385Y-74749552D01*
X155901990Y-74583655D01*
X155829695Y-74424342D01*
X155808426Y-74389487D01*
X155697796Y-74248737D01*
X155567102Y-74135714D01*
X155420864Y-74051003D01*
X155263608Y-73995194D01*
X155099857Y-73968874D01*
X154934133Y-73972630D01*
X154770962Y-74007050D01*
X154614865Y-74072723D01*
X154470367Y-74170235D01*
X154425669Y-74209813D01*
X154311912Y-74333703D01*
X154229018Y-74464124D01*
X154172156Y-74610315D01*
X154140487Y-74755088D01*
X154132669Y-74917860D01*
X154158738Y-75081440D01*
X154216045Y-75240298D01*
X154301944Y-75388906D01*
X154413786Y-75521735D01*
X154548923Y-75633256D01*
X154566683Y-75645011D01*
X154622950Y-75683508D01*
X154665723Y-75716863D01*
X154686172Y-75738160D01*
X154686469Y-75738833D01*
X154682079Y-75761871D01*
X154664676Y-75814157D01*
X154636068Y-75891390D01*
X154598065Y-75989268D01*
X154552474Y-76103491D01*
X154501103Y-76229758D01*
X154445762Y-76363767D01*
X154388258Y-76501218D01*
X154330401Y-76637808D01*
X154273998Y-76769237D01*
X154220858Y-76891205D01*
X154172790Y-76999409D01*
X154131601Y-77089549D01*
X154099101Y-77157323D01*
X154077097Y-77198430D01*
X154068236Y-77209226D01*
X154041160Y-77200819D01*
X153990497Y-77178272D01*
X153924983Y-77145613D01*
X153888959Y-77126520D01*
X153735968Y-77043800D01*
X153553712Y-77167075D01*
X153460675Y-77230228D01*
X153358815Y-77299727D01*
X153263362Y-77365165D01*
X153215550Y-77398117D01*
X153148305Y-77443273D01*
X153091364Y-77479057D01*
X153052154Y-77500938D01*
X153039419Y-77505563D01*
X153020883Y-77493085D01*
X152979859Y-77458252D01*
X152920325Y-77404678D01*
X152846258Y-77335983D01*
X152761635Y-77255781D01*
X152708115Y-77204286D01*
X152614481Y-77112286D01*
X152533559Y-77029999D01*
X152468623Y-76960945D01*
X152422942Y-76908644D01*
X152399789Y-76876616D01*
X152397568Y-76870116D01*
X152407876Y-76845394D01*
X152436361Y-76795405D01*
X152479863Y-76725212D01*
X152535223Y-76639875D01*
X152599280Y-76544456D01*
X152617497Y-76517854D01*
X152683873Y-76421167D01*
X152743422Y-76334117D01*
X152792816Y-76261595D01*
X152828725Y-76208493D01*
X152847819Y-76179703D01*
X152849664Y-76176726D01*
X152846905Y-76153782D01*
X152832262Y-76103336D01*
X152808287Y-76032041D01*
X152777534Y-75946547D01*
X152742556Y-75853507D01*
X152705907Y-75759574D01*
X152670139Y-75671399D01*
X152637806Y-75595634D01*
X152611462Y-75538931D01*
X152593658Y-75507943D01*
X152592393Y-75506457D01*
X152581506Y-75497601D01*
X152563118Y-75488843D01*
X152533194Y-75479277D01*
X152487697Y-75467996D01*
X152422591Y-75454093D01*
X152333839Y-75436663D01*
X152217407Y-75414798D01*
X152069258Y-75387591D01*
X152037182Y-75381741D01*
X151942114Y-75363374D01*
X151859235Y-75345405D01*
X151795870Y-75329569D01*
X151759342Y-75317600D01*
X151754444Y-75314810D01*
X151746373Y-75290072D01*
X151739813Y-75234790D01*
X151734767Y-75155389D01*
X151731241Y-75058296D01*
X151729239Y-74949938D01*
X151728764Y-74836740D01*
X151729823Y-74725128D01*
X151732418Y-74621529D01*
X151736554Y-74532368D01*
X151742237Y-74464072D01*
X151749469Y-74423066D01*
X151753829Y-74414674D01*
X151778102Y-74406208D01*
X151833374Y-74392435D01*
X151914138Y-74374550D01*
X152014888Y-74353748D01*
X152130117Y-74331223D01*
X152192898Y-74319418D01*
X152312013Y-74297151D01*
X152418235Y-74276979D01*
X152506373Y-74259915D01*
X152571234Y-74246969D01*
X152607626Y-74239155D01*
X152613616Y-74237422D01*
X152623739Y-74217890D01*
X152645138Y-74170843D01*
X152674961Y-74103003D01*
X152710355Y-74021091D01*
X152748468Y-73931828D01*
X152786447Y-73841935D01*
X152821440Y-73758135D01*
X152850594Y-73687147D01*
X152871057Y-73635694D01*
X152879977Y-73610497D01*
X152880143Y-73609396D01*
X152870031Y-73589519D01*
X152841683Y-73543777D01*
X152798077Y-73476717D01*
X152742194Y-73392884D01*
X152677013Y-73296826D01*
X152639121Y-73241650D01*
X152570075Y-73140481D01*
X152508750Y-73048630D01*
X152458137Y-72970744D01*
X152421229Y-72911469D01*
X152401018Y-72875451D01*
X152398099Y-72867377D01*
X152410647Y-72848584D01*
X152445337Y-72808457D01*
X152497737Y-72751493D01*
X152563416Y-72682185D01*
X152637944Y-72605031D01*
X152716887Y-72524525D01*
X152795817Y-72445163D01*
X152870300Y-72371440D01*
X152935906Y-72307852D01*
X152988204Y-72258894D01*
X153022761Y-72229061D01*
X153034322Y-72221942D01*
X153053146Y-72231953D01*
X153098169Y-72260078D01*
X153165013Y-72303454D01*
X153249301Y-72359218D01*
X153346656Y-72424506D01*
X153420093Y-72474246D01*
X153791133Y-72726551D01*
X154409705Y-72471555D01*
X154493525Y-72026931D01*
X154577346Y-71582307D01*
X155502794Y-71582307D01*
X155586614Y-72026931D01*
D13*
%TO.C,D2*%
X167540800Y-87028000D02*
X167540800Y-90708000D01*
X165520800Y-87028000D02*
X165520800Y-90708000D01*
X167540800Y-87028000D02*
X165520800Y-87028000D01*
%TO.C,C24*%
X168921380Y-65568000D02*
X168640220Y-65568000D01*
X168921380Y-64548000D02*
X168640220Y-64548000D01*
%TO.C,R5*%
X146520800Y-89417420D02*
X146520800Y-89698580D01*
X147540800Y-89417420D02*
X147540800Y-89698580D01*
%TO.C,C14*%
X168770800Y-93367420D02*
X168770800Y-93648580D01*
X169790800Y-93367420D02*
X169790800Y-93648580D01*
%TO.C,C15*%
X165270800Y-94667420D02*
X165270800Y-94948580D01*
X166290800Y-94667420D02*
X166290800Y-94948580D01*
%TO.C,R6*%
X149540800Y-89698580D02*
X149540800Y-89417420D01*
X148520800Y-89698580D02*
X148520800Y-89417420D01*
%TO.C,G\u002A\u002A\u002A*%
G36*
X151034973Y-69671516D02*
G01*
X151075265Y-69673949D01*
X151105118Y-69678622D01*
X151126791Y-69686040D01*
X151142539Y-69696710D01*
X151153299Y-69709202D01*
X151161891Y-69731019D01*
X151165322Y-69760223D01*
X151163561Y-69790252D01*
X151156576Y-69814544D01*
X151153824Y-69819221D01*
X151142060Y-69833328D01*
X151127842Y-69843654D01*
X151108770Y-69850759D01*
X151082447Y-69855201D01*
X151046476Y-69857540D01*
X150998459Y-69858332D01*
X150985868Y-69858355D01*
X150872974Y-69858355D01*
X150872974Y-69670818D01*
X150981986Y-69670818D01*
X151034973Y-69671516D01*
G37*
G36*
X148301722Y-67275815D02*
G01*
X148360235Y-67281112D01*
X148411936Y-67291055D01*
X148460767Y-67306457D01*
X148510670Y-67328134D01*
X148523604Y-67334543D01*
X148594842Y-67377387D01*
X148654888Y-67428762D01*
X148706062Y-67490679D01*
X148709649Y-67495866D01*
X148727063Y-67521702D01*
X148736901Y-67538156D01*
X148740148Y-67548166D01*
X148737788Y-67554673D01*
X148731210Y-67560312D01*
X148719973Y-67567129D01*
X148698715Y-67578758D01*
X148670110Y-67593845D01*
X148636831Y-67611038D01*
X148601554Y-67628983D01*
X148566950Y-67646328D01*
X148535694Y-67661719D01*
X148510461Y-67673802D01*
X148493923Y-67681226D01*
X148488914Y-67682927D01*
X148482557Y-67676988D01*
X148471342Y-67661506D01*
X148459207Y-67642298D01*
X148428020Y-67599234D01*
X148390457Y-67566073D01*
X148357102Y-67545923D01*
X148323955Y-67534620D01*
X148282225Y-67529273D01*
X148237090Y-67529855D01*
X148193726Y-67536341D01*
X148161190Y-67546890D01*
X148112939Y-67575417D01*
X148074075Y-67613972D01*
X148044358Y-67663067D01*
X148023547Y-67723215D01*
X148011401Y-67794930D01*
X148007670Y-67874214D01*
X148011942Y-67958620D01*
X148024854Y-68030965D01*
X148046551Y-68091552D01*
X148077177Y-68140686D01*
X148116878Y-68178671D01*
X148165363Y-68205634D01*
X148201697Y-68215392D01*
X148246169Y-68219806D01*
X148293384Y-68219010D01*
X148337947Y-68213137D01*
X148374463Y-68202320D01*
X148378733Y-68200367D01*
X148418266Y-68175378D01*
X148454368Y-68142032D01*
X148482394Y-68104947D01*
X148490848Y-68088909D01*
X148500630Y-68070359D01*
X148509183Y-68059330D01*
X148511821Y-68058000D01*
X148520488Y-68061282D01*
X148539439Y-68070223D01*
X148566079Y-68083465D01*
X148597814Y-68099649D01*
X148632050Y-68117417D01*
X148666192Y-68135411D01*
X148697647Y-68152274D01*
X148723819Y-68166646D01*
X148742116Y-68177170D01*
X148749943Y-68182487D01*
X148750056Y-68182726D01*
X148745577Y-68193545D01*
X148733610Y-68212782D01*
X148716358Y-68237402D01*
X148696024Y-68264370D01*
X148674812Y-68290650D01*
X148656760Y-68311240D01*
X148592035Y-68370352D01*
X148518884Y-68417397D01*
X148438156Y-68452101D01*
X148350698Y-68474190D01*
X148257360Y-68483388D01*
X148158991Y-68479423D01*
X148142436Y-68477497D01*
X148052970Y-68459110D01*
X147970277Y-68427873D01*
X147895333Y-68384464D01*
X147829112Y-68329561D01*
X147772589Y-68263841D01*
X147727183Y-68188870D01*
X147705547Y-68141793D01*
X147689434Y-68096703D01*
X147678170Y-68050138D01*
X147671082Y-67998636D01*
X147667497Y-67938735D01*
X147666702Y-67877965D01*
X147667787Y-67811767D01*
X147671311Y-67756804D01*
X147678023Y-67709404D01*
X147688673Y-67665894D01*
X147704012Y-67622603D01*
X147724790Y-67575858D01*
X147731069Y-67562903D01*
X147748074Y-67530772D01*
X147766149Y-67502948D01*
X147788425Y-67475278D01*
X147818033Y-67443607D01*
X147830508Y-67431010D01*
X147864421Y-67398232D01*
X147892880Y-67373864D01*
X147920027Y-67354783D01*
X147950008Y-67337867D01*
X147962401Y-67331653D01*
X148009272Y-67310105D01*
X148051230Y-67294555D01*
X148092507Y-67284105D01*
X148137332Y-67277859D01*
X148189935Y-67274917D01*
X148232454Y-67274347D01*
X148301722Y-67275815D01*
G37*
G36*
X147216775Y-67279390D02*
G01*
X147301049Y-67297444D01*
X147378942Y-67325398D01*
X147414793Y-67343211D01*
X147445296Y-67363300D01*
X147480312Y-67391444D01*
X147516519Y-67424429D01*
X147550594Y-67459040D01*
X147579217Y-67492065D01*
X147599064Y-67520289D01*
X147600546Y-67522921D01*
X147617516Y-67554018D01*
X147493384Y-67618472D01*
X147453931Y-67638802D01*
X147419018Y-67656498D01*
X147390833Y-67670474D01*
X147371564Y-67679645D01*
X147363406Y-67682927D01*
X147356606Y-67676859D01*
X147347398Y-67661922D01*
X147345699Y-67658547D01*
X147318642Y-67617120D01*
X147281488Y-67579849D01*
X147239126Y-67551579D01*
X147236440Y-67550232D01*
X147211135Y-67538990D01*
X147188578Y-67532679D01*
X147162539Y-67530066D01*
X147133488Y-67529824D01*
X147071800Y-67536777D01*
X147018567Y-67556000D01*
X146973930Y-67587275D01*
X146938035Y-67630381D01*
X146911024Y-67685099D01*
X146893040Y-67751209D01*
X146884227Y-67828490D01*
X146884462Y-67911722D01*
X146893049Y-67992210D01*
X146910096Y-68060406D01*
X146935660Y-68116447D01*
X146969799Y-68160470D01*
X146999590Y-68184714D01*
X147045754Y-68207047D01*
X147099231Y-68219362D01*
X147155932Y-68221395D01*
X147211771Y-68212880D01*
X147247526Y-68200774D01*
X147278788Y-68182624D01*
X147311560Y-68156001D01*
X147341414Y-68125179D01*
X147363918Y-68094435D01*
X147370199Y-68082380D01*
X147378947Y-68066215D01*
X147386466Y-68058193D01*
X147387355Y-68058000D01*
X147395763Y-68061383D01*
X147415087Y-68070761D01*
X147443054Y-68084982D01*
X147477388Y-68102894D01*
X147508797Y-68119578D01*
X147623833Y-68181155D01*
X147611206Y-68202675D01*
X147589435Y-68235008D01*
X147559948Y-68272341D01*
X147526625Y-68310152D01*
X147493343Y-68343919D01*
X147478556Y-68357333D01*
X147431749Y-68391757D01*
X147375667Y-68423522D01*
X147316038Y-68449733D01*
X147262526Y-68466560D01*
X147218341Y-68474500D01*
X147164987Y-68479808D01*
X147108108Y-68482238D01*
X147053346Y-68481548D01*
X147007167Y-68477607D01*
X146946712Y-68465250D01*
X146883079Y-68445449D01*
X146823729Y-68420686D01*
X146801499Y-68409195D01*
X146765005Y-68384641D01*
X146724806Y-68350627D01*
X146684456Y-68310825D01*
X146647507Y-68268903D01*
X146617513Y-68228534D01*
X146603127Y-68204279D01*
X146568377Y-68121515D01*
X146544552Y-68030660D01*
X146532175Y-67934436D01*
X146531767Y-67835562D01*
X146531908Y-67833194D01*
X146539338Y-67758117D01*
X146552681Y-67691687D01*
X146573371Y-67628231D01*
X146597987Y-67572019D01*
X146617727Y-67533056D01*
X146635976Y-67502856D01*
X146656480Y-67476121D01*
X146682987Y-67447558D01*
X146693524Y-67436993D01*
X146747485Y-67388299D01*
X146801470Y-67350307D01*
X146860577Y-67319597D01*
X146882503Y-67310306D01*
X146958985Y-67286696D01*
X147042412Y-67273811D01*
X147129452Y-67271444D01*
X147216775Y-67279390D01*
G37*
G36*
X151037070Y-69986052D02*
G01*
X151070611Y-69986784D01*
X151094913Y-69988394D01*
X151112856Y-69991202D01*
X151127321Y-69995530D01*
X151141188Y-70001696D01*
X151143313Y-70002758D01*
X151172980Y-70024848D01*
X151192742Y-70054141D01*
X151202533Y-70087517D01*
X151202288Y-70121857D01*
X151191943Y-70154038D01*
X151171432Y-70180940D01*
X151147347Y-70196708D01*
X151133220Y-70202109D01*
X151116609Y-70205952D01*
X151094783Y-70208486D01*
X151065014Y-70209964D01*
X151024574Y-70210638D01*
X150994873Y-70210759D01*
X150872974Y-70210924D01*
X150872974Y-69985880D01*
X150991408Y-69985880D01*
X151037070Y-69986052D01*
G37*
G36*
X151577994Y-66854053D02*
G01*
X151643032Y-66854209D01*
X151695859Y-66854535D01*
X151737868Y-66855084D01*
X151770455Y-66855910D01*
X151795015Y-66857067D01*
X151812943Y-66858609D01*
X151825634Y-66860589D01*
X151834484Y-66863061D01*
X151840888Y-66866079D01*
X151842765Y-66867245D01*
X151853898Y-66874593D01*
X151863104Y-66881651D01*
X151870564Y-66889837D01*
X151876464Y-66900572D01*
X151880984Y-66915274D01*
X151884310Y-66935362D01*
X151886624Y-66962256D01*
X151888109Y-66997376D01*
X151888949Y-67042140D01*
X151889326Y-67097968D01*
X151889424Y-67166279D01*
X151889424Y-67536648D01*
X151805032Y-67538769D01*
X151720641Y-67540890D01*
X151720641Y-68245537D01*
X151278054Y-68245537D01*
X151278054Y-67540890D01*
X151109270Y-67536648D01*
X151109270Y-67228746D01*
X151109278Y-67149778D01*
X151109423Y-67084394D01*
X151109887Y-67031174D01*
X151110856Y-66988700D01*
X151112511Y-66955551D01*
X151115036Y-66930309D01*
X151118615Y-66911553D01*
X151123429Y-66897866D01*
X151129663Y-66887828D01*
X151137499Y-66880018D01*
X151147122Y-66873019D01*
X151155929Y-66867245D01*
X151161817Y-66864028D01*
X151169674Y-66861375D01*
X151180896Y-66859233D01*
X151196878Y-66857548D01*
X151219015Y-66856265D01*
X151248702Y-66855332D01*
X151287334Y-66854695D01*
X151336307Y-66854299D01*
X151397016Y-66854091D01*
X151470856Y-66854017D01*
X151499347Y-66854013D01*
X151577994Y-66854053D01*
G37*
G36*
X158070944Y-66545522D02*
G01*
X158137394Y-66551126D01*
X158197229Y-66560558D01*
X158215373Y-66564664D01*
X158314331Y-66596553D01*
X158404782Y-66640636D01*
X158486262Y-66696444D01*
X158558304Y-66763503D01*
X158620442Y-66841341D01*
X158672210Y-66929488D01*
X158713141Y-67027470D01*
X158731253Y-67086823D01*
X158742926Y-67143071D01*
X158751192Y-67209263D01*
X158755864Y-67280687D01*
X158756757Y-67352635D01*
X158753684Y-67420396D01*
X158746695Y-67477917D01*
X158721292Y-67583478D01*
X158683571Y-67681354D01*
X158634293Y-67770815D01*
X158574221Y-67851132D01*
X158504118Y-67921578D01*
X158424745Y-67981423D01*
X158336866Y-68029939D01*
X158241242Y-68066398D01*
X158138637Y-68090071D01*
X158100647Y-68095266D01*
X158049005Y-68100131D01*
X158005421Y-68101658D01*
X157963322Y-68099840D01*
X157918878Y-68095027D01*
X157822337Y-68075490D01*
X157732326Y-68043247D01*
X157649859Y-67999031D01*
X157575949Y-67943577D01*
X157511609Y-67877619D01*
X157457852Y-67801891D01*
X157423866Y-67736389D01*
X157414966Y-67713473D01*
X157404616Y-67682453D01*
X157393909Y-67647199D01*
X157383940Y-67611579D01*
X157375801Y-67579462D01*
X157370587Y-67554718D01*
X157369253Y-67543187D01*
X157371625Y-67539894D01*
X157379794Y-67537356D01*
X157395336Y-67535485D01*
X157419826Y-67534193D01*
X157454842Y-67533391D01*
X157501960Y-67532989D01*
X157551989Y-67532897D01*
X157734726Y-67532897D01*
X157738894Y-67573284D01*
X157744808Y-67603809D01*
X157755351Y-67637527D01*
X157762678Y-67655135D01*
X157793445Y-67703371D01*
X157835171Y-67741636D01*
X157887439Y-67769736D01*
X157949829Y-67787479D01*
X158021923Y-67794673D01*
X158064776Y-67794102D01*
X158123992Y-67787062D01*
X158174020Y-67771096D01*
X158218858Y-67744428D01*
X158260732Y-67707111D01*
X158293361Y-67670133D01*
X158319246Y-67631821D01*
X158340761Y-67587921D01*
X158360279Y-67534177D01*
X158364273Y-67521480D01*
X158371590Y-67496886D01*
X158376957Y-67475544D01*
X158380677Y-67454406D01*
X158383054Y-67430424D01*
X158384391Y-67400549D01*
X158384990Y-67361733D01*
X158385156Y-67311603D01*
X158384857Y-67254840D01*
X158383723Y-67210304D01*
X158381569Y-67175236D01*
X158378212Y-67146874D01*
X158373468Y-67122459D01*
X158372214Y-67117319D01*
X158347087Y-67041474D01*
X158313207Y-66977621D01*
X158270871Y-66925971D01*
X158220379Y-66886738D01*
X158162030Y-66860136D01*
X158096122Y-66846377D01*
X158022955Y-66845675D01*
X157995493Y-66848579D01*
X157927432Y-66862858D01*
X157870289Y-66886284D01*
X157822666Y-66919440D01*
X157820389Y-66921472D01*
X157795908Y-66949398D01*
X157772347Y-66986136D01*
X157752904Y-67025834D01*
X157740781Y-67062638D01*
X157739456Y-67069501D01*
X157734980Y-67097084D01*
X157834016Y-67101562D01*
X157704250Y-67232838D01*
X157667642Y-67269771D01*
X157633957Y-67303566D01*
X157604810Y-67332617D01*
X157581817Y-67355318D01*
X157566593Y-67370064D01*
X157561405Y-67374809D01*
X157556638Y-67377275D01*
X157550401Y-67376650D01*
X157541401Y-67371846D01*
X157528344Y-67361773D01*
X157509938Y-67345342D01*
X157484889Y-67321466D01*
X157451904Y-67289056D01*
X157410029Y-67247360D01*
X157372891Y-67210064D01*
X157339523Y-67176175D01*
X157311325Y-67147145D01*
X157289700Y-67124430D01*
X157276048Y-67109482D01*
X157271733Y-67103842D01*
X157278606Y-67100927D01*
X157296712Y-67098262D01*
X157322284Y-67096385D01*
X157325029Y-67096265D01*
X157378325Y-67094061D01*
X157396158Y-67023418D01*
X157427459Y-66926901D01*
X157469962Y-66839889D01*
X157523134Y-66762897D01*
X157586438Y-66696440D01*
X157659341Y-66641033D01*
X157741307Y-66597190D01*
X157831802Y-66565427D01*
X157884196Y-66553448D01*
X157939117Y-66546506D01*
X158003109Y-66543923D01*
X158070944Y-66545522D01*
G37*
G36*
X145690394Y-67791896D02*
G01*
X145692490Y-67726126D01*
X145696420Y-67671038D01*
X145720585Y-67502398D01*
X145758822Y-67338920D01*
X145811073Y-67180730D01*
X145877277Y-67027953D01*
X145957377Y-66880714D01*
X146051313Y-66739138D01*
X146159025Y-66603349D01*
X146248109Y-66506108D01*
X146325428Y-66429537D01*
X146399669Y-66362665D01*
X146474959Y-66302027D01*
X146555423Y-66244160D01*
X146579283Y-66228087D01*
X146720587Y-66142958D01*
X146867754Y-66071594D01*
X147020836Y-66013982D01*
X147179886Y-65970106D01*
X147344955Y-65939950D01*
X147516096Y-65923499D01*
X147639837Y-65920131D01*
X147816689Y-65926913D01*
X147987201Y-65947286D01*
X148151471Y-65981291D01*
X148309600Y-66028970D01*
X148461687Y-66090362D01*
X148607832Y-66165509D01*
X148748134Y-66254452D01*
X148882693Y-66357231D01*
X149011609Y-66473888D01*
X149027845Y-66489961D01*
X149141534Y-66612494D01*
X149241378Y-66739088D01*
X149328255Y-66870938D01*
X149387653Y-66978331D01*
X149454287Y-67125282D01*
X149508222Y-67279132D01*
X149549327Y-67438592D01*
X149577473Y-67602373D01*
X149592532Y-67769185D01*
X149594372Y-67937738D01*
X149582866Y-68106744D01*
X149557884Y-68274913D01*
X149530187Y-68399867D01*
X149482909Y-68556056D01*
X149422104Y-68705805D01*
X149347849Y-68848941D01*
X149285486Y-68948725D01*
X149238702Y-69016371D01*
X149194993Y-69074946D01*
X149150755Y-69128810D01*
X149102384Y-69182325D01*
X149046274Y-69239854D01*
X149038795Y-69247289D01*
X148906802Y-69368488D01*
X148769477Y-69475681D01*
X148626842Y-69568857D01*
X148478915Y-69648006D01*
X148325720Y-69713118D01*
X148167276Y-69764182D01*
X148003604Y-69801187D01*
X147903536Y-69816557D01*
X147862321Y-69820884D01*
X147811787Y-69824760D01*
X147755483Y-69828050D01*
X147696960Y-69830619D01*
X147639770Y-69832330D01*
X147587464Y-69833049D01*
X147543591Y-69832639D01*
X147516063Y-69831341D01*
X147350622Y-69812968D01*
X147194735Y-69784017D01*
X147046828Y-69743969D01*
X146905323Y-69692306D01*
X146768645Y-69628506D01*
X146635217Y-69552053D01*
X146600626Y-69529883D01*
X146506504Y-69464577D01*
X146418059Y-69395200D01*
X146331020Y-69318244D01*
X146264056Y-69253403D01*
X146146472Y-69127091D01*
X146043234Y-68997676D01*
X145953842Y-68864202D01*
X145877793Y-68725712D01*
X145814585Y-68581251D01*
X145763717Y-68429860D01*
X145724688Y-68270583D01*
X145711518Y-68200011D01*
X145704500Y-68148386D01*
X145698743Y-68085403D01*
X145694352Y-68014663D01*
X145691428Y-67939764D01*
X145690320Y-67877965D01*
X146042023Y-67877965D01*
X146048904Y-68033860D01*
X146069588Y-68183948D01*
X146104133Y-68328375D01*
X146152600Y-68467288D01*
X146215049Y-68600834D01*
X146291538Y-68729157D01*
X146382128Y-68852405D01*
X146486879Y-68970724D01*
X146488348Y-68972244D01*
X146584445Y-69065962D01*
X146679898Y-69147177D01*
X146777530Y-69217984D01*
X146880166Y-69280476D01*
X146960954Y-69322576D01*
X147075494Y-69372892D01*
X147192308Y-69412621D01*
X147314949Y-69442798D01*
X147446972Y-69464455D01*
X147450107Y-69464855D01*
X147499755Y-69469331D01*
X147560231Y-69471899D01*
X147627493Y-69472631D01*
X147697496Y-69471599D01*
X147766197Y-69468875D01*
X147829552Y-69464529D01*
X147883519Y-69458634D01*
X147894745Y-69456978D01*
X148042751Y-69426698D01*
X148184614Y-69383233D01*
X148320846Y-69326323D01*
X148451962Y-69255705D01*
X148578476Y-69171116D01*
X148700900Y-69072296D01*
X148765737Y-69012685D01*
X148872260Y-68901478D01*
X148964684Y-68785626D01*
X149043395Y-68664378D01*
X149108783Y-68536983D01*
X149161235Y-68402692D01*
X149201141Y-68260754D01*
X149227457Y-68120392D01*
X149234133Y-68060375D01*
X149238535Y-67989978D01*
X149240667Y-67913446D01*
X149240532Y-67835026D01*
X149238133Y-67758965D01*
X149233475Y-67689509D01*
X149227058Y-67634167D01*
X149197221Y-67481309D01*
X149154580Y-67336065D01*
X149098902Y-67197979D01*
X149029954Y-67066597D01*
X148947503Y-66941463D01*
X148851316Y-66822123D01*
X148765059Y-66731243D01*
X148652873Y-66630313D01*
X148533164Y-66540613D01*
X148407448Y-66463088D01*
X148277243Y-66398683D01*
X148157343Y-66352674D01*
X148021337Y-66314982D01*
X147879053Y-66289582D01*
X147732807Y-66276466D01*
X147584913Y-66275627D01*
X147437688Y-66287059D01*
X147293446Y-66310754D01*
X147154502Y-66346705D01*
X147126220Y-66355809D01*
X146995656Y-66406538D01*
X146870925Y-66469860D01*
X146751225Y-66546301D01*
X146635750Y-66636386D01*
X146523694Y-66740639D01*
X146501166Y-66763711D01*
X146394143Y-66884477D01*
X146301542Y-67009231D01*
X146223243Y-67138260D01*
X146159128Y-67271853D01*
X146109078Y-67410296D01*
X146072975Y-67553878D01*
X146050700Y-67702887D01*
X146042135Y-67857609D01*
X146042023Y-67877965D01*
X145690320Y-67877965D01*
X145690075Y-67864309D01*
X145690394Y-67791896D01*
G37*
G36*
X145033074Y-65646276D02*
G01*
X145056288Y-65597516D01*
X145090993Y-65541282D01*
X145136484Y-65495451D01*
X145192389Y-65460393D01*
X145194356Y-65459448D01*
X145243116Y-65436234D01*
X159818485Y-65436234D01*
X159867244Y-65459678D01*
X159923737Y-65494704D01*
X159969576Y-65540279D01*
X160004591Y-65596232D01*
X160005208Y-65597516D01*
X160028526Y-65646276D01*
X160030457Y-68142914D01*
X160032387Y-70639552D01*
X160010405Y-70661535D01*
X159988422Y-70683517D01*
X145073178Y-70683517D01*
X145051196Y-70661535D01*
X145029214Y-70639552D01*
X145029435Y-70353452D01*
X150692938Y-70353452D01*
X150920157Y-70353452D01*
X150989764Y-70353294D01*
X151046133Y-70352771D01*
X151091027Y-70351808D01*
X151126209Y-70350330D01*
X151153441Y-70348263D01*
X151174487Y-70345531D01*
X151191109Y-70342061D01*
X151191524Y-70341953D01*
X151252333Y-70320130D01*
X151302794Y-70289412D01*
X151341867Y-70250645D01*
X151368506Y-70204672D01*
X151371723Y-70196202D01*
X151379929Y-70159210D01*
X151382620Y-70114826D01*
X151379836Y-70069594D01*
X151371620Y-70030058D01*
X151370650Y-70027105D01*
X151353591Y-69993301D01*
X151327664Y-69960687D01*
X151297132Y-69933798D01*
X151267871Y-69917732D01*
X151250247Y-69909581D01*
X151240735Y-69901808D01*
X151241522Y-69896703D01*
X151246992Y-69895862D01*
X151255627Y-69891250D01*
X151271583Y-69879261D01*
X151288113Y-69865339D01*
X151313253Y-69839269D01*
X151328822Y-69811923D01*
X151334178Y-69796465D01*
X151344226Y-69742280D01*
X151342305Y-69690523D01*
X151328909Y-69643754D01*
X151304534Y-69604531D01*
X151295159Y-69594623D01*
X151276720Y-69577992D01*
X151258341Y-69564373D01*
X151238335Y-69553470D01*
X151215013Y-69544987D01*
X151186688Y-69538626D01*
X151168798Y-69536310D01*
X151425286Y-69536310D01*
X151427299Y-69541818D01*
X151427692Y-69542562D01*
X151433202Y-69552092D01*
X151445531Y-69572947D01*
X151463764Y-69603596D01*
X151486987Y-69642508D01*
X151514287Y-69688151D01*
X151544749Y-69738994D01*
X151577459Y-69793504D01*
X151577985Y-69794380D01*
X151720641Y-70031927D01*
X151720641Y-70353452D01*
X151900676Y-70353452D01*
X153911072Y-70353452D01*
X154083606Y-70353452D01*
X154083606Y-70079206D01*
X154083761Y-70016923D01*
X154084201Y-69959795D01*
X154084892Y-69909453D01*
X154085798Y-69867528D01*
X154086883Y-69835654D01*
X154088111Y-69815460D01*
X154089448Y-69808579D01*
X154089497Y-69808600D01*
X154094588Y-69815553D01*
X154106720Y-69833932D01*
X154125048Y-69862401D01*
X154148724Y-69899625D01*
X154176901Y-69944268D01*
X154208731Y-69994996D01*
X154243368Y-70050473D01*
X154263506Y-70082847D01*
X154431623Y-70353452D01*
X154616211Y-70353452D01*
X154616211Y-69931434D01*
X154740129Y-69931434D01*
X154742893Y-69996293D01*
X154751770Y-70057679D01*
X154761844Y-70096519D01*
X154792252Y-70167781D01*
X154833492Y-70229575D01*
X154884228Y-70281207D01*
X154943121Y-70321981D01*
X155008833Y-70351204D01*
X155080029Y-70368180D01*
X155155369Y-70372215D01*
X155233516Y-70362615D01*
X155261338Y-70355891D01*
X155325678Y-70330862D01*
X155382030Y-70293540D01*
X155429541Y-70244828D01*
X155467360Y-70185628D01*
X155494636Y-70116845D01*
X155497989Y-70104921D01*
X155505286Y-70077374D01*
X155505627Y-70075403D01*
X157142085Y-70075403D01*
X157147175Y-70118717D01*
X157161610Y-70180045D01*
X157189161Y-70235211D01*
X157228701Y-70282417D01*
X157270065Y-70314424D01*
X157327513Y-70342574D01*
X157393964Y-70361467D01*
X157466339Y-70370737D01*
X157541557Y-70370018D01*
X157616537Y-70358944D01*
X157626063Y-70356735D01*
X157654959Y-70346906D01*
X157865521Y-70346906D01*
X157871504Y-70349679D01*
X157890546Y-70351473D01*
X157920729Y-70352182D01*
X157955539Y-70351813D01*
X158048136Y-70349701D01*
X158108148Y-70177167D01*
X158422992Y-70177167D01*
X158453107Y-70265276D01*
X158483222Y-70353384D01*
X158575115Y-70353418D01*
X158610262Y-70353001D01*
X158639215Y-70351839D01*
X158659103Y-70350106D01*
X158667052Y-70347977D01*
X158667087Y-70347826D01*
X158664550Y-70339959D01*
X158657217Y-70319299D01*
X158645552Y-70287105D01*
X158630018Y-70244637D01*
X158611077Y-70193152D01*
X158589193Y-70133909D01*
X158564828Y-70068168D01*
X158538445Y-69997186D01*
X158515365Y-69935245D01*
X158363564Y-69528290D01*
X158174961Y-69528290D01*
X158021531Y-69934088D01*
X157993452Y-70008357D01*
X157966944Y-70078474D01*
X157942486Y-70143178D01*
X157920555Y-70201202D01*
X157901628Y-70251285D01*
X157886184Y-70292161D01*
X157874700Y-70322567D01*
X157867653Y-70341239D01*
X157865521Y-70346906D01*
X157654959Y-70346906D01*
X157690560Y-70334796D01*
X157745065Y-70302939D01*
X157788639Y-70261854D01*
X157819321Y-70214358D01*
X157828653Y-70192373D01*
X157834202Y-70170340D01*
X157836859Y-70143131D01*
X157837515Y-70109654D01*
X157835484Y-70063684D01*
X157828005Y-70027687D01*
X157813210Y-69997067D01*
X157789231Y-69967228D01*
X157773076Y-69951032D01*
X157753779Y-69933768D01*
X157734082Y-69919364D01*
X157711575Y-69906784D01*
X157683848Y-69894991D01*
X157648490Y-69882948D01*
X157603091Y-69869618D01*
X157551051Y-69855503D01*
X157491468Y-69839318D01*
X157444953Y-69825476D01*
X157409944Y-69812998D01*
X157384878Y-69800906D01*
X157368192Y-69788222D01*
X157358325Y-69773966D01*
X157353713Y-69757160D01*
X157352794Y-69736825D01*
X157352945Y-69731428D01*
X157361018Y-69703165D01*
X157381148Y-69678306D01*
X157410390Y-69659974D01*
X157425156Y-69654842D01*
X157455273Y-69650477D01*
X157491843Y-69650539D01*
X157528747Y-69654538D01*
X157559870Y-69661983D01*
X157570687Y-69666496D01*
X157600142Y-69688395D01*
X157623029Y-69718097D01*
X157634960Y-69749047D01*
X157639986Y-69775838D01*
X157813939Y-69775838D01*
X157809739Y-69735143D01*
X157796879Y-69677592D01*
X157771253Y-69627517D01*
X157733362Y-69585391D01*
X157683707Y-69551684D01*
X157622789Y-69526870D01*
X157576519Y-69515566D01*
X157504223Y-69507370D01*
X157435150Y-69510117D01*
X157370874Y-69523087D01*
X157312965Y-69545559D01*
X157262996Y-69576814D01*
X157222540Y-69616131D01*
X157193166Y-69662789D01*
X157180696Y-69696958D01*
X157174879Y-69737380D01*
X157176517Y-69782284D01*
X157184906Y-69825502D01*
X157199328Y-69860835D01*
X157218876Y-69888960D01*
X157243189Y-69913342D01*
X157274082Y-69934956D01*
X157313368Y-69954776D01*
X157362862Y-69973778D01*
X157424376Y-69992935D01*
X157467083Y-70004716D01*
X157526837Y-70021359D01*
X157573366Y-70036329D01*
X157608212Y-70050610D01*
X157632916Y-70065183D01*
X157649020Y-70081031D01*
X157658065Y-70099136D01*
X157661593Y-70120480D01*
X157661810Y-70128800D01*
X157656060Y-70163570D01*
X157638454Y-70190921D01*
X157608457Y-70211271D01*
X157565537Y-70225037D01*
X157531790Y-70230498D01*
X157476818Y-70231323D01*
X157427689Y-70220984D01*
X157386059Y-70200477D01*
X157353585Y-70170799D01*
X157331922Y-70132945D01*
X157324663Y-70105903D01*
X157320263Y-70079648D01*
X157231174Y-70077526D01*
X157142085Y-70075403D01*
X155505627Y-70075403D01*
X155508514Y-70058700D01*
X155505676Y-70047181D01*
X155494773Y-70041097D01*
X155473806Y-70038731D01*
X155440778Y-70038362D01*
X155420644Y-70038390D01*
X155332401Y-70038390D01*
X155323139Y-70077382D01*
X155304772Y-70128616D01*
X155276822Y-70168350D01*
X155239436Y-70196453D01*
X155192761Y-70212798D01*
X155163904Y-70216678D01*
X155114871Y-70217290D01*
X155075189Y-70210221D01*
X155040530Y-70193950D01*
X155006566Y-70166959D01*
X154997615Y-70158297D01*
X154966385Y-70121477D01*
X154944486Y-70081260D01*
X154930884Y-70034662D01*
X154924543Y-69978697D01*
X154923771Y-69945408D01*
X154928808Y-69871346D01*
X154943773Y-69807492D01*
X154968451Y-69754255D01*
X155002626Y-69712044D01*
X155046082Y-69681268D01*
X155068663Y-69671237D01*
X155099500Y-69664563D01*
X155138129Y-69662994D01*
X155178351Y-69666217D01*
X155213968Y-69673922D01*
X155227868Y-69679242D01*
X155257818Y-69698163D01*
X155285920Y-69724245D01*
X155308127Y-69753096D01*
X155320133Y-69779291D01*
X155326029Y-69802094D01*
X155503381Y-69806338D01*
X155498343Y-69774210D01*
X155481645Y-69714626D01*
X155451875Y-69659634D01*
X155410657Y-69610808D01*
X155359616Y-69569722D01*
X155300377Y-69537951D01*
X155234564Y-69517071D01*
X155232635Y-69516656D01*
X155153212Y-69506828D01*
X155077269Y-69511100D01*
X155005972Y-69528749D01*
X154940485Y-69559054D01*
X154881973Y-69601290D01*
X154831600Y-69654736D01*
X154790532Y-69718669D01*
X154759933Y-69792365D01*
X154753606Y-69813888D01*
X154743645Y-69868750D01*
X154740129Y-69931434D01*
X154616211Y-69931434D01*
X154616211Y-69528290D01*
X154443862Y-69528290D01*
X154441894Y-69803548D01*
X154439926Y-70078807D01*
X154268550Y-69803548D01*
X154097173Y-69528290D01*
X153911072Y-69528290D01*
X153911072Y-70353452D01*
X151900676Y-70353452D01*
X151900676Y-70041345D01*
X152047080Y-69799094D01*
X152080323Y-69744044D01*
X152111323Y-69692629D01*
X152139173Y-69646358D01*
X152162965Y-69606741D01*
X152181793Y-69575290D01*
X152194750Y-69553515D01*
X152200928Y-69542925D01*
X152201124Y-69542567D01*
X152203478Y-69536830D01*
X152201882Y-69532878D01*
X152194167Y-69530381D01*
X152178167Y-69529005D01*
X152151714Y-69528419D01*
X152112642Y-69528290D01*
X152007179Y-69528290D01*
X151911686Y-69689836D01*
X151881955Y-69739897D01*
X151858770Y-69778248D01*
X151841210Y-69806192D01*
X151828354Y-69825033D01*
X151819282Y-69836073D01*
X151813074Y-69840615D01*
X151808809Y-69839964D01*
X151807043Y-69837990D01*
X151800692Y-69827856D01*
X151787935Y-69806831D01*
X151769988Y-69776945D01*
X151748068Y-69740230D01*
X151723393Y-69698714D01*
X151710197Y-69676444D01*
X151622501Y-69528290D01*
X151521277Y-69528290D01*
X151480727Y-69528391D01*
X151453016Y-69528913D01*
X151435981Y-69530187D01*
X151427459Y-69532543D01*
X151425286Y-69536310D01*
X151168798Y-69536310D01*
X151151672Y-69534093D01*
X151108277Y-69531089D01*
X151054815Y-69529318D01*
X150989598Y-69528484D01*
X150917613Y-69528290D01*
X150692938Y-69528290D01*
X150692938Y-70353452D01*
X145029435Y-70353452D01*
X145030392Y-69115709D01*
X145156849Y-69115709D01*
X145697653Y-69115709D01*
X145710431Y-69139155D01*
X145718932Y-69153483D01*
X145733941Y-69177525D01*
X145753686Y-69208485D01*
X145776389Y-69243571D01*
X145789028Y-69262903D01*
X145895301Y-69411331D01*
X146012585Y-69549638D01*
X146140522Y-69677493D01*
X146278753Y-69794565D01*
X146426922Y-69900521D01*
X146573410Y-69988844D01*
X146725710Y-70064989D01*
X146885340Y-70129389D01*
X147050483Y-70181655D01*
X147219320Y-70221397D01*
X147390032Y-70248226D01*
X147560800Y-70261752D01*
X147729805Y-70261587D01*
X147819873Y-70255651D01*
X148004650Y-70231816D01*
X148184107Y-70194081D01*
X148357770Y-70142744D01*
X148525165Y-70078102D01*
X148685821Y-70000454D01*
X148839263Y-69910097D01*
X148985019Y-69807329D01*
X149122615Y-69692449D01*
X149251579Y-69565754D01*
X149371437Y-69427542D01*
X149481717Y-69278112D01*
X149555613Y-69162593D01*
X149583806Y-69115709D01*
X159904752Y-69115709D01*
X159904710Y-67407247D01*
X159904681Y-67200451D01*
X159904603Y-67008337D01*
X159904475Y-66830582D01*
X159904296Y-66666866D01*
X159904063Y-66516866D01*
X159903775Y-66380262D01*
X159903431Y-66256731D01*
X159903030Y-66145953D01*
X159902568Y-66047605D01*
X159902046Y-65961367D01*
X159901461Y-65886916D01*
X159900812Y-65823931D01*
X159900097Y-65772090D01*
X159899316Y-65731073D01*
X159898465Y-65700557D01*
X159897544Y-65680221D01*
X159896552Y-65669743D01*
X159896345Y-65668805D01*
X159881850Y-65638547D01*
X159857498Y-65608756D01*
X159827862Y-65584005D01*
X159797513Y-65568867D01*
X159795956Y-65568415D01*
X159786826Y-65567951D01*
X159763089Y-65567500D01*
X159725140Y-65567060D01*
X159673374Y-65566634D01*
X159608186Y-65566219D01*
X159529972Y-65565817D01*
X159439128Y-65565427D01*
X159336048Y-65565050D01*
X159221129Y-65564685D01*
X159094765Y-65564332D01*
X158957352Y-65563992D01*
X158809284Y-65563665D01*
X158650959Y-65563349D01*
X158482770Y-65563046D01*
X158305114Y-65562756D01*
X158118386Y-65562478D01*
X157922980Y-65562212D01*
X157719293Y-65561958D01*
X157507720Y-65561717D01*
X157288656Y-65561489D01*
X157062497Y-65561273D01*
X156829638Y-65561069D01*
X156590474Y-65560877D01*
X156345401Y-65560698D01*
X156094813Y-65560532D01*
X155839108Y-65560377D01*
X155578679Y-65560236D01*
X155313922Y-65560106D01*
X155045233Y-65559989D01*
X154773008Y-65559884D01*
X154497640Y-65559792D01*
X154219526Y-65559712D01*
X153939061Y-65559645D01*
X153656641Y-65559590D01*
X153372661Y-65559547D01*
X153087516Y-65559517D01*
X152801601Y-65559499D01*
X152515313Y-65559493D01*
X152229046Y-65559500D01*
X151943195Y-65559519D01*
X151658157Y-65559551D01*
X151374327Y-65559595D01*
X151092099Y-65559651D01*
X150811869Y-65559720D01*
X150534033Y-65559801D01*
X150258987Y-65559895D01*
X149987124Y-65560001D01*
X149718842Y-65560120D01*
X149454534Y-65560250D01*
X149194597Y-65560393D01*
X148939426Y-65560549D01*
X148689416Y-65560717D01*
X148444963Y-65560897D01*
X148206462Y-65561090D01*
X147974309Y-65561295D01*
X147748898Y-65561513D01*
X147530625Y-65561743D01*
X147319886Y-65561985D01*
X147117076Y-65562240D01*
X146922590Y-65562507D01*
X146736824Y-65562787D01*
X146560173Y-65563078D01*
X146393032Y-65563383D01*
X146235797Y-65563699D01*
X146088863Y-65564029D01*
X145952626Y-65564370D01*
X145827481Y-65564724D01*
X145713823Y-65565090D01*
X145612048Y-65565469D01*
X145522551Y-65565860D01*
X145445727Y-65566263D01*
X145381973Y-65566679D01*
X145331682Y-65567107D01*
X145295251Y-65567548D01*
X145273075Y-65568001D01*
X145265645Y-65568415D01*
X145235387Y-65582910D01*
X145205596Y-65607262D01*
X145180845Y-65636899D01*
X145165707Y-65667247D01*
X145165255Y-65668805D01*
X145164248Y-65677354D01*
X145163313Y-65695698D01*
X145162449Y-65724158D01*
X145161653Y-65763055D01*
X145160926Y-65812711D01*
X145160264Y-65873448D01*
X145159666Y-65945586D01*
X145159131Y-66029448D01*
X145158658Y-66125355D01*
X145158244Y-66233629D01*
X145157889Y-66354590D01*
X145157590Y-66488561D01*
X145157347Y-66635864D01*
X145157157Y-66796818D01*
X145157019Y-66971747D01*
X145156931Y-67160972D01*
X145156892Y-67364814D01*
X145156890Y-67407247D01*
X145156849Y-69115709D01*
X145030392Y-69115709D01*
X145033074Y-65646276D01*
G37*
G36*
X151551109Y-66377186D02*
G01*
X151597844Y-66396997D01*
X151637722Y-66427733D01*
X151668912Y-66467528D01*
X151689584Y-66514516D01*
X151697907Y-66566832D01*
X151697990Y-66572708D01*
X151691219Y-66625826D01*
X151672192Y-66672987D01*
X151642838Y-66712813D01*
X151605087Y-66743929D01*
X151560867Y-66764961D01*
X151512106Y-66774532D01*
X151460735Y-66771267D01*
X151430974Y-66763117D01*
X151385480Y-66739725D01*
X151349255Y-66706600D01*
X151322735Y-66666132D01*
X151306355Y-66620714D01*
X151300550Y-66572738D01*
X151305755Y-66524594D01*
X151322405Y-66478676D01*
X151350936Y-66437375D01*
X151368598Y-66420217D01*
X151405325Y-66395950D01*
X151448380Y-66378507D01*
X151491106Y-66370434D01*
X151499347Y-66370168D01*
X151551109Y-66377186D01*
G37*
G36*
X158275299Y-69751794D02*
G01*
X158283145Y-69773226D01*
X158293709Y-69803150D01*
X158306072Y-69838854D01*
X158319317Y-69877630D01*
X158332526Y-69916768D01*
X158344780Y-69953558D01*
X158355161Y-69985290D01*
X158362753Y-70009255D01*
X158366636Y-70022744D01*
X158366949Y-70024512D01*
X158360007Y-70026863D01*
X158341402Y-70028676D01*
X158314463Y-70029938D01*
X158282520Y-70030638D01*
X158248904Y-70030763D01*
X158216944Y-70030301D01*
X158189972Y-70029239D01*
X158171316Y-70027565D01*
X158164307Y-70025267D01*
X158164307Y-70025263D01*
X158166660Y-70016783D01*
X158173286Y-69996373D01*
X158183439Y-69966239D01*
X158196374Y-69928589D01*
X158211345Y-69885631D01*
X158214861Y-69875622D01*
X158232230Y-69827438D01*
X158247049Y-69788740D01*
X158258811Y-69760738D01*
X158267009Y-69744639D01*
X158271088Y-69741561D01*
X158275299Y-69751794D01*
G37*
G36*
X156581531Y-67138200D02*
G01*
X156603495Y-66997739D01*
X156604231Y-66994188D01*
X156638994Y-66863372D01*
X156687847Y-66734771D01*
X156749896Y-66609800D01*
X156824249Y-66489874D01*
X156910014Y-66376410D01*
X157006297Y-66270823D01*
X157112208Y-66174529D01*
X157130254Y-66159865D01*
X157243774Y-66077108D01*
X157360512Y-66008115D01*
X157481500Y-65952539D01*
X157607771Y-65910033D01*
X157740356Y-65880251D01*
X157880288Y-65862844D01*
X158028599Y-65857467D01*
X158029383Y-65857470D01*
X158159989Y-65862057D01*
X158280800Y-65875209D01*
X158394761Y-65897564D01*
X158504816Y-65929763D01*
X158613909Y-65972444D01*
X158663257Y-65995138D01*
X158781642Y-66059887D01*
X158894663Y-66137328D01*
X159000996Y-66225991D01*
X159099314Y-66324404D01*
X159188291Y-66431095D01*
X159266604Y-66544592D01*
X159332925Y-66663423D01*
X159385930Y-66786116D01*
X159392823Y-66805254D01*
X159431956Y-66937749D01*
X159458417Y-67074395D01*
X159472361Y-67213532D01*
X159473947Y-67353501D01*
X159463330Y-67492641D01*
X159440668Y-67629295D01*
X159406117Y-67761803D01*
X159359833Y-67888506D01*
X159301974Y-68007744D01*
X159274843Y-68054250D01*
X159201864Y-68160513D01*
X159116832Y-68262579D01*
X159021875Y-68358597D01*
X158919120Y-68446720D01*
X158810695Y-68525098D01*
X158698728Y-68591884D01*
X158603246Y-68637780D01*
X158466820Y-68687918D01*
X158325250Y-68724475D01*
X158180244Y-68747218D01*
X158033510Y-68755911D01*
X157886756Y-68750322D01*
X157827998Y-68743979D01*
X157688272Y-68718563D01*
X157552616Y-68678984D01*
X157421727Y-68625702D01*
X157296307Y-68559174D01*
X157177053Y-68479857D01*
X157064667Y-68388210D01*
X156959846Y-68284691D01*
X156863292Y-68169757D01*
X156788190Y-68063350D01*
X156721847Y-67947843D01*
X156667350Y-67824299D01*
X156624956Y-67694209D01*
X156594920Y-67559063D01*
X156577500Y-67420353D01*
X156574326Y-67322135D01*
X156839580Y-67322135D01*
X156841346Y-67389226D01*
X156845215Y-67452071D01*
X156851158Y-67506895D01*
X156857495Y-67542933D01*
X156893650Y-67672517D01*
X156942853Y-67794933D01*
X157005229Y-67910383D01*
X157080907Y-68019074D01*
X157170015Y-68121209D01*
X157272678Y-68216994D01*
X157281249Y-68224195D01*
X157383691Y-68300001D01*
X157494237Y-68363857D01*
X157611325Y-68415285D01*
X157733393Y-68453807D01*
X157858877Y-68478948D01*
X157986214Y-68490228D01*
X158113842Y-68487170D01*
X158135484Y-68485187D01*
X158269651Y-68464534D01*
X158397175Y-68430456D01*
X158518412Y-68382796D01*
X158633717Y-68321401D01*
X158743447Y-68246116D01*
X158810353Y-68191064D01*
X158907809Y-68097076D01*
X158991100Y-67998594D01*
X159060490Y-67895027D01*
X159116247Y-67785787D01*
X159158636Y-67670281D01*
X159187924Y-67547920D01*
X159204376Y-67418113D01*
X159208475Y-67307853D01*
X159202438Y-67172318D01*
X159183911Y-67044722D01*
X159152559Y-66924208D01*
X159108046Y-66809917D01*
X159050035Y-66700990D01*
X158978189Y-66596568D01*
X158892173Y-66495794D01*
X158888951Y-66492375D01*
X158790646Y-66397813D01*
X158687661Y-66317411D01*
X158579400Y-66250891D01*
X158465267Y-66197976D01*
X158344665Y-66158390D01*
X158216996Y-66131854D01*
X158083564Y-66118195D01*
X157950889Y-66118206D01*
X157821279Y-66132714D01*
X157695526Y-66161382D01*
X157574420Y-66203878D01*
X157458753Y-66259868D01*
X157349314Y-66329017D01*
X157246896Y-66410991D01*
X157152288Y-66505457D01*
X157143648Y-66515168D01*
X157057629Y-66622676D01*
X156985893Y-66733861D01*
X156927978Y-66849637D01*
X156883422Y-66970915D01*
X156854096Y-67086831D01*
X156847173Y-67133146D01*
X156842465Y-67190319D01*
X156839943Y-67254574D01*
X156839580Y-67322135D01*
X156574326Y-67322135D01*
X156572951Y-67279568D01*
X156581531Y-67138200D01*
G37*
G36*
X153331875Y-67052509D02*
G01*
X153342125Y-66996541D01*
X153376597Y-66864813D01*
X153425105Y-66735946D01*
X153464542Y-66656140D01*
X153774999Y-66656140D01*
X153776655Y-66662504D01*
X153778886Y-66664166D01*
X153789325Y-66669251D01*
X153811225Y-66679374D01*
X153842776Y-66693729D01*
X153882165Y-66711510D01*
X153927583Y-66731911D01*
X153977218Y-66754126D01*
X154029260Y-66777349D01*
X154081898Y-66800774D01*
X154133321Y-66823595D01*
X154181718Y-66845006D01*
X154225279Y-66864201D01*
X154262192Y-66880375D01*
X154290647Y-66892720D01*
X154308833Y-66900432D01*
X154314910Y-66902745D01*
X154320525Y-66896564D01*
X154330713Y-66880284D01*
X154343399Y-66857255D01*
X154345051Y-66854082D01*
X154380499Y-66800789D01*
X154427698Y-66752987D01*
X154483791Y-66712732D01*
X154545926Y-66682083D01*
X154609732Y-66663384D01*
X154637489Y-66657993D01*
X154661377Y-66653337D01*
X154674147Y-66650833D01*
X154680613Y-66648962D01*
X154685205Y-66644775D01*
X154688306Y-66635950D01*
X154690298Y-66620162D01*
X154691564Y-66595089D01*
X154692486Y-66558408D01*
X154692901Y-66536983D01*
X154694976Y-66426429D01*
X154860009Y-66426429D01*
X154862084Y-66536983D01*
X154862976Y-66579785D01*
X154864034Y-66609903D01*
X154865639Y-66629658D01*
X154868176Y-66641367D01*
X154872026Y-66647350D01*
X154877572Y-66649925D01*
X154880838Y-66650610D01*
X154896406Y-66653242D01*
X154921511Y-66657246D01*
X154950849Y-66661778D01*
X154952226Y-66661987D01*
X155014443Y-66676122D01*
X155079922Y-66699131D01*
X155142139Y-66728513D01*
X155172403Y-66746355D01*
X155195723Y-66761460D01*
X155213717Y-66773338D01*
X155223003Y-66779752D01*
X155223464Y-66780130D01*
X155219524Y-66786160D01*
X155206515Y-66801004D01*
X155186047Y-66822937D01*
X155159728Y-66850232D01*
X155131051Y-66879278D01*
X155035253Y-66975288D01*
X154981387Y-66947150D01*
X154922390Y-66921224D01*
X154862908Y-66904084D01*
X154805113Y-66895748D01*
X154751175Y-66896234D01*
X154703266Y-66905560D01*
X154663558Y-66923743D01*
X154639421Y-66944373D01*
X154623490Y-66969978D01*
X154615764Y-66998410D01*
X154617260Y-67024388D01*
X154621952Y-67035068D01*
X154629627Y-67039576D01*
X154649815Y-67049588D01*
X154681303Y-67064549D01*
X154722880Y-67083901D01*
X154773334Y-67107086D01*
X154831454Y-67133549D01*
X154896027Y-67162731D01*
X154965842Y-67194077D01*
X155036293Y-67225518D01*
X155119055Y-67262349D01*
X155204970Y-67300586D01*
X155291757Y-67339214D01*
X155377132Y-67377216D01*
X155458814Y-67413577D01*
X155534521Y-67447281D01*
X155601969Y-67477311D01*
X155658877Y-67502652D01*
X155677614Y-67510997D01*
X155748153Y-67542148D01*
X155805645Y-67566943D01*
X155850547Y-67585562D01*
X155883316Y-67598188D01*
X155904409Y-67605003D01*
X155914281Y-67606190D01*
X155915064Y-67605603D01*
X155918237Y-67594907D01*
X155923016Y-67572805D01*
X155928710Y-67542718D01*
X155933629Y-67514143D01*
X155940638Y-67457846D01*
X155945102Y-67392304D01*
X155947023Y-67321860D01*
X155946403Y-67250856D01*
X155943243Y-67183634D01*
X155937546Y-67124539D01*
X155933465Y-67097811D01*
X155906499Y-66977232D01*
X155870171Y-66866270D01*
X155823382Y-66762850D01*
X155765033Y-66664899D01*
X155694026Y-66570340D01*
X155609261Y-66477101D01*
X155599519Y-66467304D01*
X155503041Y-66378670D01*
X155404964Y-66304258D01*
X155303656Y-66243284D01*
X155197485Y-66194968D01*
X155084818Y-66158527D01*
X154964022Y-66133179D01*
X154878762Y-66122117D01*
X154785704Y-66117146D01*
X154686754Y-66119849D01*
X154586735Y-66129732D01*
X154490467Y-66146301D01*
X154402774Y-66169062D01*
X154394293Y-66171780D01*
X154329542Y-66196155D01*
X154259551Y-66227981D01*
X154189548Y-66264558D01*
X154124760Y-66303188D01*
X154079205Y-66334492D01*
X154023644Y-66379142D01*
X153965026Y-66431977D01*
X153907375Y-66489020D01*
X153854719Y-66546292D01*
X153812198Y-66598334D01*
X153791669Y-66626232D01*
X153779637Y-66644775D01*
X153774999Y-66656140D01*
X153464542Y-66656140D01*
X153486773Y-66611154D01*
X153560725Y-66491652D01*
X153646084Y-66378654D01*
X153741974Y-66273374D01*
X153847519Y-66177028D01*
X153961843Y-66090829D01*
X154024995Y-66050099D01*
X154142415Y-65987164D01*
X154267756Y-65936160D01*
X154399583Y-65897282D01*
X154536465Y-65870731D01*
X154676969Y-65856703D01*
X154819663Y-65855397D01*
X154963115Y-65867011D01*
X155105891Y-65891742D01*
X155130062Y-65897282D01*
X155258011Y-65935216D01*
X155382864Y-65987017D01*
X155503360Y-66051659D01*
X155618238Y-66128118D01*
X155726236Y-66215370D01*
X155826094Y-66312392D01*
X155916550Y-66418157D01*
X155996343Y-66531643D01*
X156064212Y-66651825D01*
X156067686Y-66658836D01*
X156121902Y-66785667D01*
X156163683Y-66919608D01*
X156192797Y-67059038D01*
X156209010Y-67202337D01*
X156212088Y-67347885D01*
X156201799Y-67494062D01*
X156195125Y-67544218D01*
X156166585Y-67686236D01*
X156124391Y-67822071D01*
X156068661Y-67951485D01*
X155999514Y-68074244D01*
X155917069Y-68190111D01*
X155821444Y-68298851D01*
X155808105Y-68312398D01*
X155694758Y-68416602D01*
X155576626Y-68506633D01*
X155453450Y-68582617D01*
X155324975Y-68644685D01*
X155190945Y-68692963D01*
X155051104Y-68727580D01*
X154946500Y-68744139D01*
X154873943Y-68750748D01*
X154794433Y-68754035D01*
X154713355Y-68754003D01*
X154636092Y-68750655D01*
X154568028Y-68743994D01*
X154567451Y-68743916D01*
X154422825Y-68717213D01*
X154285068Y-68677202D01*
X154153843Y-68623737D01*
X154028816Y-68556669D01*
X153909652Y-68475853D01*
X153851768Y-68429914D01*
X153810722Y-68393649D01*
X153764681Y-68349609D01*
X153716888Y-68301177D01*
X153670585Y-68251738D01*
X153629018Y-68204674D01*
X153595427Y-68163370D01*
X153592259Y-68159191D01*
X153521165Y-68055097D01*
X153458828Y-67944517D01*
X153407095Y-67831081D01*
X153367812Y-67718419D01*
X153367307Y-67716683D01*
X153337775Y-67591376D01*
X153319354Y-67459085D01*
X153312155Y-67323029D01*
X153312222Y-67320827D01*
X153577030Y-67320827D01*
X153578450Y-67385381D01*
X153581826Y-67445260D01*
X153587154Y-67496557D01*
X153591245Y-67521373D01*
X153623999Y-67649508D01*
X153670051Y-67772038D01*
X153728818Y-67887653D01*
X153799719Y-67995044D01*
X153804757Y-68001739D01*
X153833274Y-68036658D01*
X153869988Y-68077679D01*
X153911532Y-68121345D01*
X153954539Y-68164199D01*
X153995643Y-68202785D01*
X154027345Y-68230282D01*
X154132685Y-68307293D01*
X154245208Y-68371154D01*
X154364755Y-68421799D01*
X154491163Y-68459162D01*
X154624274Y-68483177D01*
X154642466Y-68485360D01*
X154690445Y-68488719D01*
X154748239Y-68489532D01*
X154810908Y-68487969D01*
X154873511Y-68484199D01*
X154931108Y-68478391D01*
X154957752Y-68474571D01*
X155083431Y-68446581D01*
X155206113Y-68404197D01*
X155324643Y-68347914D01*
X155437870Y-68278225D01*
X155471379Y-68254225D01*
X155511723Y-68221745D01*
X155557235Y-68180844D01*
X155604972Y-68134550D01*
X155651987Y-68085891D01*
X155695336Y-68037896D01*
X155732074Y-67993592D01*
X155754646Y-67962958D01*
X155773517Y-67934617D01*
X155788746Y-67910597D01*
X155798596Y-67893711D01*
X155801444Y-67887104D01*
X155798349Y-67884058D01*
X155788559Y-67878260D01*
X155771319Y-67869361D01*
X155745871Y-67857009D01*
X155711460Y-67840856D01*
X155667329Y-67820551D01*
X155612722Y-67795745D01*
X155546883Y-67766087D01*
X155469056Y-67731227D01*
X155378484Y-67690815D01*
X155346478Y-67676561D01*
X155262835Y-67639325D01*
X155246049Y-67685506D01*
X155213172Y-67754659D01*
X155168366Y-67815495D01*
X155112766Y-67867071D01*
X155047505Y-67908448D01*
X154973718Y-67938685D01*
X154925647Y-67951126D01*
X154863759Y-67963901D01*
X154863759Y-68186017D01*
X154779368Y-68183896D01*
X154694976Y-68181775D01*
X154692906Y-68072078D01*
X154690835Y-67962381D01*
X154638653Y-67957239D01*
X154548053Y-67941187D01*
X154458245Y-67911555D01*
X154372525Y-67869557D01*
X154332530Y-67844505D01*
X154303819Y-67825541D01*
X154282920Y-67811256D01*
X154270114Y-67799494D01*
X154265679Y-67788098D01*
X154269894Y-67774911D01*
X154283040Y-67757777D01*
X154305394Y-67734539D01*
X154337238Y-67703040D01*
X154352868Y-67687470D01*
X154452854Y-67587277D01*
X154502651Y-67625039D01*
X154561475Y-67664263D01*
X154619903Y-67691271D01*
X154681986Y-67707411D01*
X154751775Y-67714027D01*
X154771435Y-67714353D01*
X154831346Y-67710082D01*
X154879281Y-67696818D01*
X154915308Y-67674505D01*
X154939501Y-67643090D01*
X154951929Y-67602518D01*
X154953777Y-67575637D01*
X154952937Y-67552032D01*
X154949355Y-67532560D01*
X154941435Y-67515822D01*
X154927583Y-67500420D01*
X154906205Y-67484955D01*
X154875705Y-67468029D01*
X154834489Y-67448242D01*
X154781243Y-67424322D01*
X154750858Y-67410860D01*
X154708273Y-67391969D01*
X154654993Y-67368317D01*
X154592525Y-67340573D01*
X154522375Y-67309407D01*
X154446049Y-67275488D01*
X154365055Y-67239485D01*
X154280897Y-67202068D01*
X154195083Y-67163905D01*
X154140992Y-67139846D01*
X154059392Y-67103593D01*
X153981858Y-67069232D01*
X153909466Y-67037237D01*
X153843297Y-67008080D01*
X153784427Y-66982234D01*
X153733935Y-66960170D01*
X153692899Y-66942361D01*
X153662397Y-66929279D01*
X153643508Y-66921398D01*
X153637306Y-66919151D01*
X153633184Y-66928728D01*
X153626641Y-66949627D01*
X153618556Y-66978534D01*
X153609807Y-67012134D01*
X153601272Y-67047114D01*
X153593829Y-67080160D01*
X153590961Y-67094061D01*
X153584532Y-67138216D01*
X153580069Y-67193335D01*
X153577569Y-67255508D01*
X153577030Y-67320827D01*
X153312222Y-67320827D01*
X153316291Y-67186430D01*
X153331875Y-67052509D01*
G37*
G36*
X150064509Y-67088520D02*
G01*
X150090923Y-66952553D01*
X150130264Y-66820462D01*
X150182581Y-66693761D01*
X150193878Y-66670650D01*
X150265401Y-66543395D01*
X150347744Y-66424535D01*
X150439944Y-66314871D01*
X150541040Y-66215202D01*
X150650069Y-66126327D01*
X150766070Y-66049047D01*
X150888081Y-65984161D01*
X151015139Y-65932470D01*
X151119365Y-65901257D01*
X151203874Y-65882338D01*
X151286815Y-65869153D01*
X151373157Y-65861116D01*
X151467868Y-65857643D01*
X151491846Y-65857426D01*
X151607804Y-65860045D01*
X151714268Y-65869424D01*
X151815442Y-65886197D01*
X151915527Y-65910999D01*
X151980179Y-65931121D01*
X152108472Y-65981705D01*
X152231413Y-66045522D01*
X152347975Y-66121486D01*
X152457126Y-66208512D01*
X152557838Y-66305513D01*
X152649079Y-66411404D01*
X152729821Y-66525099D01*
X152799034Y-66645512D01*
X152855687Y-66771558D01*
X152897783Y-66898602D01*
X152923951Y-67015786D01*
X152941009Y-67141036D01*
X152948809Y-67270384D01*
X152947202Y-67399863D01*
X152936040Y-67525504D01*
X152924127Y-67600410D01*
X152890320Y-67740001D01*
X152842964Y-67873155D01*
X152782086Y-67999824D01*
X152707713Y-68119957D01*
X152619871Y-68233503D01*
X152535141Y-68324303D01*
X152421429Y-68426997D01*
X152302287Y-68515745D01*
X152177446Y-68590689D01*
X152046632Y-68651971D01*
X151909576Y-68699734D01*
X151766005Y-68734119D01*
X151746458Y-68737682D01*
X151720871Y-68740998D01*
X151684375Y-68744139D01*
X151639850Y-68747008D01*
X151590177Y-68749506D01*
X151538235Y-68751537D01*
X151486907Y-68753001D01*
X151439072Y-68753802D01*
X151397612Y-68753842D01*
X151365407Y-68753023D01*
X151345567Y-68751287D01*
X151328981Y-68748669D01*
X151302946Y-68744783D01*
X151272870Y-68740436D01*
X151270552Y-68740106D01*
X151180030Y-68722977D01*
X151083770Y-68697103D01*
X150986824Y-68664163D01*
X150894247Y-68625835D01*
X150827965Y-68593089D01*
X150720168Y-68527903D01*
X150614413Y-68449931D01*
X150512990Y-68361388D01*
X150418186Y-68264490D01*
X150332290Y-68161451D01*
X150257592Y-68054487D01*
X150237476Y-68021571D01*
X150174766Y-67900886D01*
X150124641Y-67773474D01*
X150087151Y-67640850D01*
X150062344Y-67504527D01*
X150050268Y-67366022D01*
X150050666Y-67287531D01*
X150312641Y-67287531D01*
X150317032Y-67411867D01*
X150333787Y-67534381D01*
X150362760Y-67653104D01*
X150403805Y-67766066D01*
X150443587Y-67847959D01*
X150498664Y-67937494D01*
X150565374Y-68027040D01*
X150640740Y-68113192D01*
X150721787Y-68192542D01*
X150803957Y-68260499D01*
X150912292Y-68332588D01*
X151027393Y-68391622D01*
X151148087Y-68437276D01*
X151273203Y-68469226D01*
X151401571Y-68487148D01*
X151532018Y-68490719D01*
X151616701Y-68485258D01*
X151746634Y-68465584D01*
X151869394Y-68433183D01*
X151986576Y-68387458D01*
X152099772Y-68327815D01*
X152182114Y-68274225D01*
X152224986Y-68241343D01*
X152272930Y-68200052D01*
X152323206Y-68153111D01*
X152373076Y-68103283D01*
X152419799Y-68053329D01*
X152460637Y-68006009D01*
X152492851Y-67964084D01*
X152499578Y-67954252D01*
X152564750Y-67842528D01*
X152616126Y-67724996D01*
X152653647Y-67601881D01*
X152677252Y-67473410D01*
X152686881Y-67339809D01*
X152685676Y-67251592D01*
X152673504Y-67119172D01*
X152649236Y-66994813D01*
X152612425Y-66877539D01*
X152562622Y-66766375D01*
X152499378Y-66660344D01*
X152422244Y-66558472D01*
X152330771Y-66459782D01*
X152313880Y-66443364D01*
X152211624Y-66355060D01*
X152103726Y-66280638D01*
X151990357Y-66220147D01*
X151871689Y-66173639D01*
X151747894Y-66141163D01*
X151619143Y-66122772D01*
X151485608Y-66118514D01*
X151347460Y-66128441D01*
X151278816Y-66138384D01*
X151157383Y-66165802D01*
X151042171Y-66206357D01*
X150932513Y-66260393D01*
X150827743Y-66328256D01*
X150727193Y-66410290D01*
X150695425Y-66439950D01*
X150605519Y-66533413D01*
X150529356Y-66627824D01*
X150465702Y-66725043D01*
X150413325Y-66826930D01*
X150375112Y-66923286D01*
X150341535Y-67041272D01*
X150320760Y-67163343D01*
X150312641Y-67287531D01*
X150050666Y-67287531D01*
X150050974Y-67226848D01*
X150064509Y-67088520D01*
G37*
%TO.C,R8*%
X152121380Y-81868000D02*
X151840220Y-81868000D01*
X152121380Y-80848000D02*
X151840220Y-80848000D01*
%TO.C,R2*%
X155309180Y-93168000D02*
X155028020Y-93168000D01*
X155309180Y-92148000D02*
X155028020Y-92148000D01*
D17*
%TO.C,CONN6*%
X182030800Y-63258000D02*
X172030800Y-63258000D01*
X172030800Y-63258000D02*
X172030800Y-58158000D01*
X182030800Y-58158000D02*
X182030800Y-63258000D01*
D13*
X172331800Y-58149000D02*
X172331800Y-63229000D01*
D17*
X172030800Y-58158000D02*
X182030800Y-58158000D01*
D13*
%TO.C,C21*%
X184540800Y-98717420D02*
X184540800Y-98998580D01*
X183520800Y-98717420D02*
X183520800Y-98998580D01*
%TO.C,C42*%
X150171380Y-94548000D02*
X149890220Y-94548000D01*
X150171380Y-95568000D02*
X149890220Y-95568000D01*
D17*
%TO.C,U1*%
X152856600Y-97308000D02*
X155956600Y-97308000D01*
X155956600Y-94208000D02*
X152856600Y-94208000D01*
X155956600Y-97308000D02*
X155956600Y-97103000D01*
X152856600Y-97308000D02*
X152856600Y-97103000D01*
X155956600Y-94208000D02*
X155956600Y-94413000D01*
X152856600Y-94208000D02*
X152856600Y-94413000D01*
D12*
X152474600Y-93953000D02*
G75*
G03*
X152474600Y-93953000I-100000J0D01*
G01*
D17*
%TO.C,D4*%
X148230800Y-74288000D02*
X146830800Y-74288000D01*
X148230800Y-77328000D02*
X148230800Y-77228000D01*
X146830800Y-74288000D02*
X146830800Y-74388000D01*
X148230800Y-77328000D02*
X146830800Y-77328000D01*
X148230800Y-74288000D02*
X148230800Y-74388000D01*
X146830800Y-77328000D02*
X146830800Y-77228000D01*
D12*
X145530800Y-74981000D02*
G75*
G03*
X145530800Y-74981000I-100000J0D01*
G01*
D13*
%TO.C,U8*%
X173359800Y-70959000D02*
X178566800Y-70959000D01*
X173359800Y-67657000D02*
X173359800Y-68038000D01*
X179201800Y-67657000D02*
X173359800Y-67657000D01*
X179201800Y-68038000D02*
X179201800Y-67657000D01*
X173359800Y-70578000D02*
X173359800Y-70959000D01*
D14*
X179373790Y-70959000D02*
G75*
G03*
X179373790Y-70959000I-171990J0D01*
G01*
D13*
%TO.C,CONN2*%
X152830800Y-99258000D02*
X152830800Y-100008000D01*
X150580800Y-106858000D02*
X151330800Y-106858000D01*
X150280800Y-107158000D02*
X151530800Y-107158000D01*
X151330800Y-103558000D02*
X151330800Y-102558000D01*
X155780800Y-106108000D02*
X155780800Y-103058000D01*
X150280800Y-105908000D02*
X150280800Y-107158000D01*
X150580800Y-101058000D02*
X151330800Y-101058000D01*
X156540800Y-99248000D02*
X150570800Y-99248000D01*
X150570800Y-99248000D02*
X150570800Y-106868000D01*
X150580800Y-99258000D02*
X150580800Y-101058000D01*
X156540800Y-106868000D02*
X156540800Y-99248000D01*
X152830800Y-106858000D02*
X152830800Y-106108000D01*
X150580800Y-105058000D02*
X150580800Y-106858000D01*
X152830800Y-100008000D02*
X155780800Y-100008000D01*
X151330800Y-101058000D02*
X151330800Y-99258000D01*
X150580800Y-102558000D02*
X150580800Y-103558000D01*
X151330800Y-102558000D02*
X150580800Y-102558000D01*
X151330800Y-106858000D02*
X151330800Y-105058000D01*
X151330800Y-105058000D02*
X150580800Y-105058000D01*
X150580800Y-103558000D02*
X151330800Y-103558000D01*
X155780800Y-100008000D02*
X155780800Y-103058000D01*
X151330800Y-99258000D02*
X150580800Y-99258000D01*
X152830800Y-106108000D02*
X155780800Y-106108000D01*
X150570800Y-106868000D02*
X156540800Y-106868000D01*
%TO.C,R11*%
X167390220Y-79298000D02*
X167671380Y-79298000D01*
X167390220Y-80318000D02*
X167671380Y-80318000D01*
%TO.C,C26*%
X167290800Y-75667420D02*
X167290800Y-75948580D01*
X166270800Y-75667420D02*
X166270800Y-75948580D01*
%TO.C,R1*%
X178120800Y-95167420D02*
X178120800Y-95448580D01*
X179140800Y-95167420D02*
X179140800Y-95448580D01*
D12*
%TO.C,CONN4*%
X147430000Y-87594000D02*
X146180000Y-87594000D01*
X147430000Y-78014000D02*
X146180000Y-78014000D01*
D13*
%TO.C,C5*%
X187790800Y-97448580D02*
X187790800Y-97167420D01*
X186770800Y-97448580D02*
X186770800Y-97167420D01*
%TO.C,SW1*%
X187808800Y-63602000D02*
X187554800Y-63602000D01*
X186665800Y-63602000D02*
X185395800Y-63602000D01*
X184252800Y-63602000D02*
X184506800Y-63602000D01*
X184506800Y-58014000D02*
X184252800Y-58014000D01*
X187554800Y-58014000D02*
X187808800Y-58014000D01*
X187808800Y-58014000D02*
X187808800Y-63602000D01*
X185395800Y-58014000D02*
X186665800Y-58014000D01*
X184252800Y-58014000D02*
X184252800Y-63602000D01*
%TO.C,TP1*%
X143580800Y-97108000D02*
X145480800Y-97108000D01*
X143580800Y-99008000D02*
X143580800Y-97108000D01*
X145480800Y-99008000D02*
X143580800Y-99008000D01*
X145480800Y-97108000D02*
X145480800Y-99008000D01*
D17*
%TO.C,CONN8*%
X160530800Y-63258000D02*
X150530800Y-63258000D01*
D13*
X150831800Y-58149000D02*
X150831800Y-63229000D01*
D17*
X150530800Y-58158000D02*
X160530800Y-58158000D01*
X150530800Y-63258000D02*
X150530800Y-58158000D01*
X160530800Y-58158000D02*
X160530800Y-63258000D01*
D13*
%TO.C,R4*%
X179820800Y-95167420D02*
X179820800Y-95448580D01*
X180840800Y-95167420D02*
X180840800Y-95448580D01*
%TO.C,C31*%
X167690220Y-86468000D02*
X167971380Y-86468000D01*
X167690220Y-85448000D02*
X167971380Y-85448000D01*
%TO.C,C41*%
X179890220Y-88718000D02*
X180171380Y-88718000D01*
X179890220Y-87698000D02*
X180171380Y-87698000D01*
%TO.C,C22*%
X180520800Y-65698580D02*
X180520800Y-65417420D01*
X181540800Y-65698580D02*
X181540800Y-65417420D01*
%TO.C,C4*%
X168921380Y-66298000D02*
X168640220Y-66298000D01*
X168921380Y-67318000D02*
X168640220Y-67318000D01*
%TO.C,C13*%
X171971380Y-94148000D02*
X171690220Y-94148000D01*
X171971380Y-95168000D02*
X171690220Y-95168000D01*
%TO.C,TP3*%
X145480800Y-90258000D02*
X143580800Y-90258000D01*
X143580800Y-90258000D02*
X143580800Y-88358000D01*
X145480800Y-88358000D02*
X145480800Y-90258000D01*
X143580800Y-88358000D02*
X145480800Y-88358000D01*
%TO.C,C32*%
X150171380Y-93818000D02*
X149890220Y-93818000D01*
X150171380Y-92798000D02*
X149890220Y-92798000D01*
%TO.C,C11*%
X176120800Y-95167420D02*
X176120800Y-95448580D01*
X177140800Y-95167420D02*
X177140800Y-95448580D01*
%TO.C,R3*%
X154940800Y-85367420D02*
X154940800Y-85648580D01*
X153920800Y-85367420D02*
X153920800Y-85648580D01*
%TO.C,C25*%
X183520800Y-102198580D02*
X183520800Y-101917420D01*
X184540800Y-102198580D02*
X184540800Y-101917420D01*
%TO.C,C7*%
X158140800Y-85367420D02*
X158140800Y-85648580D01*
X157120800Y-85367420D02*
X157120800Y-85648580D01*
%TO.C,C16*%
X161770800Y-94667420D02*
X161770800Y-94948580D01*
X162790800Y-94667420D02*
X162790800Y-94948580D01*
%TO.C,C28*%
X163171380Y-63898000D02*
X162890220Y-63898000D01*
X163171380Y-64918000D02*
X162890220Y-64918000D01*
%TO.C,R10*%
X167390220Y-82068000D02*
X167671380Y-82068000D01*
X167390220Y-81048000D02*
X167671380Y-81048000D01*
D17*
%TO.C,CONN7*%
X161280800Y-63258000D02*
X161280800Y-58158000D01*
D13*
X161581800Y-58149000D02*
X161581800Y-63229000D01*
D17*
X161280800Y-58158000D02*
X171280800Y-58158000D01*
X171280800Y-58158000D02*
X171280800Y-63258000D01*
X171280800Y-63258000D02*
X161280800Y-63258000D01*
%TD*%
M02*
